<?xml version="1.0" encoding="utf-8" standalone="no"?>
<!DOCTYPE svg PUBLIC "-//W3C//DTD SVG 1.1//EN"
  "http://www.w3.org/Graphics/SVG/1.1/DTD/svg11.dtd">
<svg xmlns:xlink="http://www.w3.org/1999/xlink" width="460.8pt" height="345.6pt" viewBox="0 0 460.8 345.6" xmlns="http://www.w3.org/2000/svg" version="1.1">
 <metadata>
  <rdf:RDF xmlns:dc="http://purl.org/dc/elements/1.1/" xmlns:cc="http://creativecommons.org/ns#" xmlns:rdf="http://www.w3.org/1999/02/22-rdf-syntax-ns#">
   <cc:Work>
    <dc:type rdf:resource="http://purl.org/dc/dcmitype/StillImage"/>
    <dc:date>2022-10-06T10:34:27.116221</dc:date>
    <dc:format>image/svg+xml</dc:format>
    <dc:creator>
     <cc:Agent>
      <dc:title>Matplotlib v3.6.0, https://matplotlib.org/</dc:title>
     </cc:Agent>
    </dc:creator>
   </cc:Work>
  </rdf:RDF>
 </metadata>
 <defs>
  <style type="text/css">*{stroke-linejoin: round; stroke-linecap: butt}</style>
 </defs>
 <g id="figure_1">
  <g id="patch_1">
   <path d="M 0 345.6 
L 460.8 345.6 
L 460.8 0 
L 0 0 
z
" style="fill: #ffffff"/>
  </g>
  <g id="axes_1">
   <g id="patch_2">
    <path d="M 57.6 307.584 
L 414.72 307.584 
L 414.72 41.472 
L 57.6 41.472 
z
" style="fill: #ffffff"/>
   </g>
   <g id="matplotlib.axis_1">
    <g id="xtick_1">
     <g id="line2d_1">
      <defs>
       <path id="m2260a39c02" d="M 0 0 
L 0 3.5 
" style="stroke: #000000; stroke-width: 0.8"/>
      </defs>
      <g>
       <use xlink:href="#m2260a39c02" x="73.832727" y="307.584" style="stroke: #000000; stroke-width: 0.8"/>
      </g>
     </g>
     <g id="text_1">
      <!-- 0 -->
      <g transform="translate(70.651477 322.182437) scale(0.1 -0.1)">
       <defs>
        <path id="DejaVuSans-30" d="M 2034 4250 
Q 1547 4250 1301 3770 
Q 1056 3291 1056 2328 
Q 1056 1369 1301 889 
Q 1547 409 2034 409 
Q 2525 409 2770 889 
Q 3016 1369 3016 2328 
Q 3016 3291 2770 3770 
Q 2525 4250 2034 4250 
z
M 2034 4750 
Q 2819 4750 3233 4129 
Q 3647 3509 3647 2328 
Q 3647 1150 3233 529 
Q 2819 -91 2034 -91 
Q 1250 -91 836 529 
Q 422 1150 422 2328 
Q 422 3509 836 4129 
Q 1250 4750 2034 4750 
z
" transform="scale(0.015625)"/>
       </defs>
       <use xlink:href="#DejaVuSans-30"/>
      </g>
     </g>
    </g>
    <g id="xtick_2">
     <g id="line2d_2">
      <g>
       <use xlink:href="#m2260a39c02" x="115.095379" y="307.584" style="stroke: #000000; stroke-width: 0.8"/>
      </g>
     </g>
     <g id="text_2">
      <!-- 250 -->
      <g transform="translate(105.551629 322.182437) scale(0.1 -0.1)">
       <defs>
        <path id="DejaVuSans-32" d="M 1228 531 
L 3431 531 
L 3431 0 
L 469 0 
L 469 531 
Q 828 903 1448 1529 
Q 2069 2156 2228 2338 
Q 2531 2678 2651 2914 
Q 2772 3150 2772 3378 
Q 2772 3750 2511 3984 
Q 2250 4219 1831 4219 
Q 1534 4219 1204 4116 
Q 875 4013 500 3803 
L 500 4441 
Q 881 4594 1212 4672 
Q 1544 4750 1819 4750 
Q 2544 4750 2975 4387 
Q 3406 4025 3406 3419 
Q 3406 3131 3298 2873 
Q 3191 2616 2906 2266 
Q 2828 2175 2409 1742 
Q 1991 1309 1228 531 
z
" transform="scale(0.015625)"/>
        <path id="DejaVuSans-35" d="M 691 4666 
L 3169 4666 
L 3169 4134 
L 1269 4134 
L 1269 2991 
Q 1406 3038 1543 3061 
Q 1681 3084 1819 3084 
Q 2600 3084 3056 2656 
Q 3513 2228 3513 1497 
Q 3513 744 3044 326 
Q 2575 -91 1722 -91 
Q 1428 -91 1123 -41 
Q 819 9 494 109 
L 494 744 
Q 775 591 1075 516 
Q 1375 441 1709 441 
Q 2250 441 2565 725 
Q 2881 1009 2881 1497 
Q 2881 1984 2565 2268 
Q 2250 2553 1709 2553 
Q 1456 2553 1204 2497 
Q 953 2441 691 2322 
L 691 4666 
z
" transform="scale(0.015625)"/>
       </defs>
       <use xlink:href="#DejaVuSans-32"/>
       <use xlink:href="#DejaVuSans-35" x="63.623047"/>
       <use xlink:href="#DejaVuSans-30" x="127.246094"/>
      </g>
     </g>
    </g>
    <g id="xtick_3">
     <g id="line2d_3">
      <g>
       <use xlink:href="#m2260a39c02" x="156.358031" y="307.584" style="stroke: #000000; stroke-width: 0.8"/>
      </g>
     </g>
     <g id="text_3">
      <!-- 500 -->
      <g transform="translate(146.814281 322.182437) scale(0.1 -0.1)">
       <use xlink:href="#DejaVuSans-35"/>
       <use xlink:href="#DejaVuSans-30" x="63.623047"/>
       <use xlink:href="#DejaVuSans-30" x="127.246094"/>
      </g>
     </g>
    </g>
    <g id="xtick_4">
     <g id="line2d_4">
      <g>
       <use xlink:href="#m2260a39c02" x="197.620683" y="307.584" style="stroke: #000000; stroke-width: 0.8"/>
      </g>
     </g>
     <g id="text_4">
      <!-- 750 -->
      <g transform="translate(188.076933 322.182437) scale(0.1 -0.1)">
       <defs>
        <path id="DejaVuSans-37" d="M 525 4666 
L 3525 4666 
L 3525 4397 
L 1831 0 
L 1172 0 
L 2766 4134 
L 525 4134 
L 525 4666 
z
" transform="scale(0.015625)"/>
       </defs>
       <use xlink:href="#DejaVuSans-37"/>
       <use xlink:href="#DejaVuSans-35" x="63.623047"/>
       <use xlink:href="#DejaVuSans-30" x="127.246094"/>
      </g>
     </g>
    </g>
    <g id="xtick_5">
     <g id="line2d_5">
      <g>
       <use xlink:href="#m2260a39c02" x="238.883335" y="307.584" style="stroke: #000000; stroke-width: 0.8"/>
      </g>
     </g>
     <g id="text_5">
      <!-- 1000 -->
      <g transform="translate(226.158335 322.182437) scale(0.1 -0.1)">
       <defs>
        <path id="DejaVuSans-31" d="M 794 531 
L 1825 531 
L 1825 4091 
L 703 3866 
L 703 4441 
L 1819 4666 
L 2450 4666 
L 2450 531 
L 3481 531 
L 3481 0 
L 794 0 
L 794 531 
z
" transform="scale(0.015625)"/>
       </defs>
       <use xlink:href="#DejaVuSans-31"/>
       <use xlink:href="#DejaVuSans-30" x="63.623047"/>
       <use xlink:href="#DejaVuSans-30" x="127.246094"/>
       <use xlink:href="#DejaVuSans-30" x="190.869141"/>
      </g>
     </g>
    </g>
    <g id="xtick_6">
     <g id="line2d_6">
      <g>
       <use xlink:href="#m2260a39c02" x="280.145987" y="307.584" style="stroke: #000000; stroke-width: 0.8"/>
      </g>
     </g>
     <g id="text_6">
      <!-- 1250 -->
      <g transform="translate(267.420987 322.182437) scale(0.1 -0.1)">
       <use xlink:href="#DejaVuSans-31"/>
       <use xlink:href="#DejaVuSans-32" x="63.623047"/>
       <use xlink:href="#DejaVuSans-35" x="127.246094"/>
       <use xlink:href="#DejaVuSans-30" x="190.869141"/>
      </g>
     </g>
    </g>
    <g id="xtick_7">
     <g id="line2d_7">
      <g>
       <use xlink:href="#m2260a39c02" x="321.408639" y="307.584" style="stroke: #000000; stroke-width: 0.8"/>
      </g>
     </g>
     <g id="text_7">
      <!-- 1500 -->
      <g transform="translate(308.683639 322.182437) scale(0.1 -0.1)">
       <use xlink:href="#DejaVuSans-31"/>
       <use xlink:href="#DejaVuSans-35" x="63.623047"/>
       <use xlink:href="#DejaVuSans-30" x="127.246094"/>
       <use xlink:href="#DejaVuSans-30" x="190.869141"/>
      </g>
     </g>
    </g>
    <g id="xtick_8">
     <g id="line2d_8">
      <g>
       <use xlink:href="#m2260a39c02" x="362.671291" y="307.584" style="stroke: #000000; stroke-width: 0.8"/>
      </g>
     </g>
     <g id="text_8">
      <!-- 1750 -->
      <g transform="translate(349.946291 322.182437) scale(0.1 -0.1)">
       <use xlink:href="#DejaVuSans-31"/>
       <use xlink:href="#DejaVuSans-37" x="63.623047"/>
       <use xlink:href="#DejaVuSans-35" x="127.246094"/>
       <use xlink:href="#DejaVuSans-30" x="190.869141"/>
      </g>
     </g>
    </g>
    <g id="xtick_9">
     <g id="line2d_9">
      <g>
       <use xlink:href="#m2260a39c02" x="403.933943" y="307.584" style="stroke: #000000; stroke-width: 0.8"/>
      </g>
     </g>
     <g id="text_9">
      <!-- 2000 -->
      <g transform="translate(391.208943 322.182437) scale(0.1 -0.1)">
       <use xlink:href="#DejaVuSans-32"/>
       <use xlink:href="#DejaVuSans-30" x="63.623047"/>
       <use xlink:href="#DejaVuSans-30" x="127.246094"/>
       <use xlink:href="#DejaVuSans-30" x="190.869141"/>
      </g>
     </g>
    </g>
    <g id="text_10">
     <!-- time -->
     <g transform="translate(224.863906 335.860562) scale(0.1 -0.1)">
      <defs>
       <path id="DejaVuSans-74" d="M 1172 4494 
L 1172 3500 
L 2356 3500 
L 2356 3053 
L 1172 3053 
L 1172 1153 
Q 1172 725 1289 603 
Q 1406 481 1766 481 
L 2356 481 
L 2356 0 
L 1766 0 
Q 1100 0 847 248 
Q 594 497 594 1153 
L 594 3053 
L 172 3053 
L 172 3500 
L 594 3500 
L 594 4494 
L 1172 4494 
z
" transform="scale(0.015625)"/>
       <path id="DejaVuSans-69" d="M 603 3500 
L 1178 3500 
L 1178 0 
L 603 0 
L 603 3500 
z
M 603 4863 
L 1178 4863 
L 1178 4134 
L 603 4134 
L 603 4863 
z
" transform="scale(0.015625)"/>
       <path id="DejaVuSans-6d" d="M 3328 2828 
Q 3544 3216 3844 3400 
Q 4144 3584 4550 3584 
Q 5097 3584 5394 3201 
Q 5691 2819 5691 2113 
L 5691 0 
L 5113 0 
L 5113 2094 
Q 5113 2597 4934 2840 
Q 4756 3084 4391 3084 
Q 3944 3084 3684 2787 
Q 3425 2491 3425 1978 
L 3425 0 
L 2847 0 
L 2847 2094 
Q 2847 2600 2669 2842 
Q 2491 3084 2119 3084 
Q 1678 3084 1418 2786 
Q 1159 2488 1159 1978 
L 1159 0 
L 581 0 
L 581 3500 
L 1159 3500 
L 1159 2956 
Q 1356 3278 1631 3431 
Q 1906 3584 2284 3584 
Q 2666 3584 2933 3390 
Q 3200 3197 3328 2828 
z
" transform="scale(0.015625)"/>
       <path id="DejaVuSans-65" d="M 3597 1894 
L 3597 1613 
L 953 1613 
Q 991 1019 1311 708 
Q 1631 397 2203 397 
Q 2534 397 2845 478 
Q 3156 559 3463 722 
L 3463 178 
Q 3153 47 2828 -22 
Q 2503 -91 2169 -91 
Q 1331 -91 842 396 
Q 353 884 353 1716 
Q 353 2575 817 3079 
Q 1281 3584 2069 3584 
Q 2775 3584 3186 3129 
Q 3597 2675 3597 1894 
z
M 3022 2063 
Q 3016 2534 2758 2815 
Q 2500 3097 2075 3097 
Q 1594 3097 1305 2825 
Q 1016 2553 972 2059 
L 3022 2063 
z
" transform="scale(0.015625)"/>
      </defs>
      <use xlink:href="#DejaVuSans-74"/>
      <use xlink:href="#DejaVuSans-69" x="39.208984"/>
      <use xlink:href="#DejaVuSans-6d" x="66.992188"/>
      <use xlink:href="#DejaVuSans-65" x="164.404297"/>
     </g>
    </g>
   </g>
   <g id="matplotlib.axis_2">
    <g id="ytick_1">
     <g id="line2d_10">
      <defs>
       <path id="mbd7bcdc060" d="M 0 0 
L -3.5 0 
" style="stroke: #000000; stroke-width: 0.8"/>
      </defs>
      <g>
       <use xlink:href="#mbd7bcdc060" x="57.6" y="304.051321" style="stroke: #000000; stroke-width: 0.8"/>
      </g>
     </g>
     <g id="text_11">
      <!-- 0 -->
      <g transform="translate(44.2375 307.85054) scale(0.1 -0.1)">
       <use xlink:href="#DejaVuSans-30"/>
      </g>
     </g>
    </g>
    <g id="ytick_2">
     <g id="line2d_11">
      <g>
       <use xlink:href="#mbd7bcdc060" x="57.6" y="254.695002" style="stroke: #000000; stroke-width: 0.8"/>
      </g>
     </g>
     <g id="text_12">
      <!-- 2000 -->
      <g transform="translate(25.15 258.494221) scale(0.1 -0.1)">
       <use xlink:href="#DejaVuSans-32"/>
       <use xlink:href="#DejaVuSans-30" x="63.623047"/>
       <use xlink:href="#DejaVuSans-30" x="127.246094"/>
       <use xlink:href="#DejaVuSans-30" x="190.869141"/>
      </g>
     </g>
    </g>
    <g id="ytick_3">
     <g id="line2d_12">
      <g>
       <use xlink:href="#mbd7bcdc060" x="57.6" y="205.338682" style="stroke: #000000; stroke-width: 0.8"/>
      </g>
     </g>
     <g id="text_13">
      <!-- 4000 -->
      <g transform="translate(25.15 209.137901) scale(0.1 -0.1)">
       <defs>
        <path id="DejaVuSans-34" d="M 2419 4116 
L 825 1625 
L 2419 1625 
L 2419 4116 
z
M 2253 4666 
L 3047 4666 
L 3047 1625 
L 3713 1625 
L 3713 1100 
L 3047 1100 
L 3047 0 
L 2419 0 
L 2419 1100 
L 313 1100 
L 313 1709 
L 2253 4666 
z
" transform="scale(0.015625)"/>
       </defs>
       <use xlink:href="#DejaVuSans-34"/>
       <use xlink:href="#DejaVuSans-30" x="63.623047"/>
       <use xlink:href="#DejaVuSans-30" x="127.246094"/>
       <use xlink:href="#DejaVuSans-30" x="190.869141"/>
      </g>
     </g>
    </g>
    <g id="ytick_4">
     <g id="line2d_13">
      <g>
       <use xlink:href="#mbd7bcdc060" x="57.6" y="155.982363" style="stroke: #000000; stroke-width: 0.8"/>
      </g>
     </g>
     <g id="text_14">
      <!-- 6000 -->
      <g transform="translate(25.15 159.781582) scale(0.1 -0.1)">
       <defs>
        <path id="DejaVuSans-36" d="M 2113 2584 
Q 1688 2584 1439 2293 
Q 1191 2003 1191 1497 
Q 1191 994 1439 701 
Q 1688 409 2113 409 
Q 2538 409 2786 701 
Q 3034 994 3034 1497 
Q 3034 2003 2786 2293 
Q 2538 2584 2113 2584 
z
M 3366 4563 
L 3366 3988 
Q 3128 4100 2886 4159 
Q 2644 4219 2406 4219 
Q 1781 4219 1451 3797 
Q 1122 3375 1075 2522 
Q 1259 2794 1537 2939 
Q 1816 3084 2150 3084 
Q 2853 3084 3261 2657 
Q 3669 2231 3669 1497 
Q 3669 778 3244 343 
Q 2819 -91 2113 -91 
Q 1303 -91 875 529 
Q 447 1150 447 2328 
Q 447 3434 972 4092 
Q 1497 4750 2381 4750 
Q 2619 4750 2861 4703 
Q 3103 4656 3366 4563 
z
" transform="scale(0.015625)"/>
       </defs>
       <use xlink:href="#DejaVuSans-36"/>
       <use xlink:href="#DejaVuSans-30" x="63.623047"/>
       <use xlink:href="#DejaVuSans-30" x="127.246094"/>
       <use xlink:href="#DejaVuSans-30" x="190.869141"/>
      </g>
     </g>
    </g>
    <g id="ytick_5">
     <g id="line2d_14">
      <g>
       <use xlink:href="#mbd7bcdc060" x="57.6" y="106.626043" style="stroke: #000000; stroke-width: 0.8"/>
      </g>
     </g>
     <g id="text_15">
      <!-- 8000 -->
      <g transform="translate(25.15 110.425262) scale(0.1 -0.1)">
       <defs>
        <path id="DejaVuSans-38" d="M 2034 2216 
Q 1584 2216 1326 1975 
Q 1069 1734 1069 1313 
Q 1069 891 1326 650 
Q 1584 409 2034 409 
Q 2484 409 2743 651 
Q 3003 894 3003 1313 
Q 3003 1734 2745 1975 
Q 2488 2216 2034 2216 
z
M 1403 2484 
Q 997 2584 770 2862 
Q 544 3141 544 3541 
Q 544 4100 942 4425 
Q 1341 4750 2034 4750 
Q 2731 4750 3128 4425 
Q 3525 4100 3525 3541 
Q 3525 3141 3298 2862 
Q 3072 2584 2669 2484 
Q 3125 2378 3379 2068 
Q 3634 1759 3634 1313 
Q 3634 634 3220 271 
Q 2806 -91 2034 -91 
Q 1263 -91 848 271 
Q 434 634 434 1313 
Q 434 1759 690 2068 
Q 947 2378 1403 2484 
z
M 1172 3481 
Q 1172 3119 1398 2916 
Q 1625 2713 2034 2713 
Q 2441 2713 2670 2916 
Q 2900 3119 2900 3481 
Q 2900 3844 2670 4047 
Q 2441 4250 2034 4250 
Q 1625 4250 1398 4047 
Q 1172 3844 1172 3481 
z
" transform="scale(0.015625)"/>
       </defs>
       <use xlink:href="#DejaVuSans-38"/>
       <use xlink:href="#DejaVuSans-30" x="63.623047"/>
       <use xlink:href="#DejaVuSans-30" x="127.246094"/>
       <use xlink:href="#DejaVuSans-30" x="190.869141"/>
      </g>
     </g>
    </g>
    <g id="ytick_6">
     <g id="line2d_15">
      <g>
       <use xlink:href="#mbd7bcdc060" x="57.6" y="57.269724" style="stroke: #000000; stroke-width: 0.8"/>
      </g>
     </g>
     <g id="text_16">
      <!-- 10000 -->
      <g transform="translate(18.7875 61.068943) scale(0.1 -0.1)">
       <use xlink:href="#DejaVuSans-31"/>
       <use xlink:href="#DejaVuSans-30" x="63.623047"/>
       <use xlink:href="#DejaVuSans-30" x="127.246094"/>
       <use xlink:href="#DejaVuSans-30" x="190.869141"/>
       <use xlink:href="#DejaVuSans-30" x="254.492188"/>
      </g>
     </g>
    </g>
    <g id="text_17">
     <!-- latency -->
     <g transform="translate(12.707812 192.895187) rotate(-90) scale(0.1 -0.1)">
      <defs>
       <path id="DejaVuSans-6c" d="M 603 4863 
L 1178 4863 
L 1178 0 
L 603 0 
L 603 4863 
z
" transform="scale(0.015625)"/>
       <path id="DejaVuSans-61" d="M 2194 1759 
Q 1497 1759 1228 1600 
Q 959 1441 959 1056 
Q 959 750 1161 570 
Q 1363 391 1709 391 
Q 2188 391 2477 730 
Q 2766 1069 2766 1631 
L 2766 1759 
L 2194 1759 
z
M 3341 1997 
L 3341 0 
L 2766 0 
L 2766 531 
Q 2569 213 2275 61 
Q 1981 -91 1556 -91 
Q 1019 -91 701 211 
Q 384 513 384 1019 
Q 384 1609 779 1909 
Q 1175 2209 1959 2209 
L 2766 2209 
L 2766 2266 
Q 2766 2663 2505 2880 
Q 2244 3097 1772 3097 
Q 1472 3097 1187 3025 
Q 903 2953 641 2809 
L 641 3341 
Q 956 3463 1253 3523 
Q 1550 3584 1831 3584 
Q 2591 3584 2966 3190 
Q 3341 2797 3341 1997 
z
" transform="scale(0.015625)"/>
       <path id="DejaVuSans-6e" d="M 3513 2113 
L 3513 0 
L 2938 0 
L 2938 2094 
Q 2938 2591 2744 2837 
Q 2550 3084 2163 3084 
Q 1697 3084 1428 2787 
Q 1159 2491 1159 1978 
L 1159 0 
L 581 0 
L 581 3500 
L 1159 3500 
L 1159 2956 
Q 1366 3272 1645 3428 
Q 1925 3584 2291 3584 
Q 2894 3584 3203 3211 
Q 3513 2838 3513 2113 
z
" transform="scale(0.015625)"/>
       <path id="DejaVuSans-63" d="M 3122 3366 
L 3122 2828 
Q 2878 2963 2633 3030 
Q 2388 3097 2138 3097 
Q 1578 3097 1268 2742 
Q 959 2388 959 1747 
Q 959 1106 1268 751 
Q 1578 397 2138 397 
Q 2388 397 2633 464 
Q 2878 531 3122 666 
L 3122 134 
Q 2881 22 2623 -34 
Q 2366 -91 2075 -91 
Q 1284 -91 818 406 
Q 353 903 353 1747 
Q 353 2603 823 3093 
Q 1294 3584 2113 3584 
Q 2378 3584 2631 3529 
Q 2884 3475 3122 3366 
z
" transform="scale(0.015625)"/>
       <path id="DejaVuSans-79" d="M 2059 -325 
Q 1816 -950 1584 -1140 
Q 1353 -1331 966 -1331 
L 506 -1331 
L 506 -850 
L 844 -850 
Q 1081 -850 1212 -737 
Q 1344 -625 1503 -206 
L 1606 56 
L 191 3500 
L 800 3500 
L 1894 763 
L 2988 3500 
L 3597 3500 
L 2059 -325 
z
" transform="scale(0.015625)"/>
      </defs>
      <use xlink:href="#DejaVuSans-6c"/>
      <use xlink:href="#DejaVuSans-61" x="27.783203"/>
      <use xlink:href="#DejaVuSans-74" x="89.0625"/>
      <use xlink:href="#DejaVuSans-65" x="128.271484"/>
      <use xlink:href="#DejaVuSans-6e" x="189.794922"/>
      <use xlink:href="#DejaVuSans-63" x="253.173828"/>
      <use xlink:href="#DejaVuSans-79" x="308.154297"/>
     </g>
    </g>
   </g>
   <g id="line2d_16">
    <path d="M 73.832727 292.008379 
L 73.832727 198.305407 
L 73.832727 274.783024 
L 73.997778 286.302789 
L 73.997778 286.067113 
L 73.997778 232.472319 
L 73.997778 289.799684 
L 73.997778 236.981567 
L 74.162828 273.771219 
L 74.162828 70.65077 
L 74.162828 291.714709 
L 74.162828 181.894431 
L 74.327879 279.299127 
L 74.327879 290.503012 
L 74.327879 192.974924 
L 74.327879 286.134977 
L 74.49293 290.470108 
L 74.49293 189.333134 
L 74.49293 290.840281 
L 74.49293 205.338682 
L 74.65798 289.293782 
L 74.65798 131.427594 
L 74.65798 291.73075 
L 74.65798 287.822964 
L 74.823031 287.607442 
L 74.823031 222.564038 
L 74.823031 293.279305 
L 74.988082 280.631748 
L 74.988082 238.456773 
L 74.988082 290.367282 
L 74.988082 288.627472 
L 75.153132 248.381507 
L 75.153132 292.102978 
L 75.153132 288.084552 
L 75.318183 284.247098 
L 75.318183 292.798081 
L 75.318183 281.705248 
L 75.318183 291.076779 
L 75.483233 292.218144 
L 75.483233 279.410179 
L 75.483233 293.236118 
L 75.648284 289.219747 
L 75.648284 262.123128 
L 75.648284 291.860311 
L 75.813335 289.310235 
L 75.813335 294.056667 
L 75.813335 237.996113 
L 75.813335 289.923075 
L 75.978385 280.345481 
L 75.978385 289.708375 
L 75.978385 215.641814 
L 75.978385 234.088739 
L 76.143436 292.48549 
L 76.143436 288.553437 
L 76.308486 291.955938 
L 76.308486 285.29592 
L 76.308486 293.094219 
L 76.308486 286.949357 
L 76.473537 290.873184 
L 76.473537 250.97565 
L 76.473537 293.624799 
L 76.473537 288.341205 
L 76.638588 284.62961 
L 76.638588 294.00731 
L 76.638588 267.964801 
L 76.638588 293.519917 
L 76.803638 292.915302 
L 76.803638 234.705693 
L 76.803638 292.974942 
L 76.803638 236.954147 
L 76.968689 267.417965 
L 76.968689 291.687563 
L 76.968689 290.725115 
L 77.133739 188.393012 
L 77.133739 291.144644 
L 77.133739 288.059874 
L 77.29879 292.902963 
L 77.29879 247.75427 
L 77.463841 280.853851 
L 77.463841 238.671826 
L 77.463841 290.243891 
L 77.463841 287.558085 
L 77.628891 227.178854 
L 77.628891 129.32995 
L 77.628891 290.734986 
L 77.793942 288.522589 
L 77.793942 275.951123 
L 77.793942 290.815603 
L 77.958992 289.312291 
L 77.958992 261.456818 
L 77.958992 285.789483 
L 78.124043 290.675759 
L 78.124043 287.85011 
L 78.124043 223.723911 
L 78.289094 291.643143 
L 78.454144 289.526852 
L 78.454144 180.315028 
L 78.454144 290.782697 
L 78.619195 289.805854 
L 78.619195 209.307752 
L 78.784246 242.541008 
L 78.784246 291.013028 
L 78.784246 289.047 
L 78.949296 255.92891 
L 78.949296 289.693568 
L 78.949296 233.677435 
L 79.114347 292.048923 
L 79.114347 289.145713 
L 79.279397 209.492839 
L 79.279397 284.456863 
L 79.279397 283.790552 
L 79.444448 289.121035 
L 79.444448 285.56738 
L 79.444448 249.019025 
L 79.609499 288.290203 
L 79.774549 253.193748 
L 79.774549 293.320436 
L 79.774549 292.00221 
L 79.9396 290.152582 
L 79.9396 275.737247 
L 80.10465 293.752304 
L 80.10465 210.662114 
L 80.269701 283.938621 
L 80.599802 291.662885 
L 80.764853 290.963672 
L 80.764853 291.687563 
L 80.764853 288.339559 
L 80.929903 267.527645 
L 80.929903 285.382294 
L 81.094954 254.546933 
L 81.094954 221.379486 
L 81.094954 277.324874 
L 81.260005 239.610477 
L 81.260005 274.264783 
L 81.425055 289.096357 
L 81.425055 283.403927 
L 81.590106 290.165743 
L 81.590106 251.412807 
L 81.755156 290.708662 
L 81.755156 156.229145 
L 81.920207 291.169322 
L 82.085258 287.245495 
L 82.085258 260.938576 
L 82.415359 291.366747 
L 82.415359 288.948288 
L 82.580409 288.800219 
L 82.580409 285.082042 
L 82.580409 291.391425 
L 82.74546 183.580771 
L 82.74546 290.930766 
L 82.910511 292.102978 
L 82.910511 293.180592 
L 82.910511 290.836167 
L 83.075561 290.503012 
L 83.075561 291.629982 
L 83.240612 287.378757 
L 83.240612 289.361647 
L 83.240612 290.601724 
L 83.405663 219.948153 
L 83.570713 291.576512 
L 83.735764 286.77661 
L 83.735764 283.01319 
L 83.735764 284.382828 
L 83.900814 290.305586 
L 84.065865 269.501898 
L 84.230916 279.323805 
L 84.230916 291.60119 
L 84.395966 284.000317 
L 84.395966 287.467598 
L 84.561017 286.50515 
L 84.561017 287.22493 
L 84.726067 208.740742 
L 84.726067 290.354943 
L 84.726067 287.71438 
L 84.891118 248.574818 
L 85.056169 248.186137 
L 85.056169 291.79039 
L 85.221219 288.547268 
L 85.221219 291.113796 
L 85.221219 270.957909 
L 85.38627 252.473968 
L 85.38627 287.319529 
L 85.55132 292.298348 
L 85.55132 289.038775 
L 85.55132 258.149944 
L 85.716371 262.678387 
L 85.716371 287.492276 
L 85.881422 288.769371 
L 85.881422 215.70351 
L 86.046472 247.838 
L 86.046472 289.842871 
L 86.211523 290.651081 
L 86.211523 271.908018 
L 86.376573 288.059874 
L 86.376573 268.021208 
L 86.376573 292.989336 
L 86.541624 262.731857 
L 86.541624 289.219747 
L 86.706675 268.761553 
L 86.706675 292.93381 
L 86.871725 289.343138 
L 86.871725 290.465994 
L 87.036776 268.810909 
L 87.036776 247.711083 
L 87.201827 287.015166 
L 87.201827 254.275473 
L 87.366877 293.214525 
L 87.531928 292.347704 
L 87.531928 290.058805 
L 87.696978 290.815603 
L 87.696978 286.628541 
L 87.862029 251.141347 
L 87.862029 281.797791 
L 88.02708 284.062012 
L 88.02708 289.108696 
L 88.19213 286.653219 
L 88.19213 289.269104 
L 88.357181 291.078835 
L 88.357181 290.422808 
L 88.522231 289.158052 
L 88.522231 289.960092 
L 88.522231 291.317391 
L 88.687282 292.921471 
L 88.687282 292.616079 
L 88.852333 291.667821 
L 88.852333 292.53896 
L 88.852333 288.686699 
L 89.017383 276.572191 
L 89.017383 236.124687 
L 89.182434 294.932741 
L 89.182434 289.844927 
L 89.347484 294.14304 
L 89.512535 289.2362 
L 89.512535 292.978231 
L 89.512535 289.034661 
L 89.677586 286.297853 
L 89.677586 292.023803 
L 89.842636 291.613529 
L 89.842636 289.178616 
L 90.007687 289.546047 
L 90.007687 229.967486 
L 90.172737 271.646156 
L 90.172737 193.246384 
L 90.337788 291.895272 
L 90.337788 291.662885 
L 90.502839 289.165455 
L 90.502839 228.659543 
L 90.667889 262.378135 
L 90.667889 289.145713 
L 90.83294 289.232087 
L 90.83294 295.02734 
L 90.99799 286.381759 
L 90.99799 290.749793 
L 91.163041 271.114203 
L 91.163041 289.540564 
L 91.328092 293.251542 
L 91.328092 291.73692 
L 91.328092 274.634955 
L 91.493142 276.880668 
L 91.493142 180.783913 
L 91.658193 290.132839 
L 91.823244 268.070565 
L 91.823244 289.540564 
L 91.988294 248.001051 
L 91.988294 292.964658 
L 92.153345 291.687563 
L 92.153345 291.687563 
L 92.318395 136.387904 
L 92.318395 294.389822 
L 92.483446 285.629075 
L 92.483446 292.625333 
L 92.483446 274.289461 
L 92.648497 276.510495 
L 92.648497 290.428977 
L 92.813547 243.754352 
L 92.813547 291.989871 
L 92.978598 291.181661 
L 92.978598 292.927641 
L 92.978598 288.240846 
L 93.143648 291.322327 
L 93.143648 290.490673 
L 93.308699 269.526576 
L 93.308699 292.81042 
L 93.47375 253.399399 
L 93.47375 290.25623 
L 93.6388 289.133374 
L 93.6388 281.125311 
L 93.803851 292.477265 
L 93.803851 287.809566 
L 94.133952 293.4829 
L 94.299003 288.504081 
L 94.299003 232.139164 
L 94.464053 150.010248 
L 94.464053 287.484051 
L 94.629104 287.967331 
L 94.629104 280.662596 
L 94.794154 292.970828 
L 94.959205 295.440699 
L 94.959205 219.297267 
L 95.124256 294.653878 
L 95.289306 278.830242 
L 95.289306 294.130701 
L 95.454357 287.681476 
L 95.454357 292.014549 
L 95.619407 241.924054 
L 95.619407 259.581278 
L 95.784458 286.924679 
L 95.784458 286.579184 
L 95.949509 289.269104 
L 95.949509 294.772333 
L 96.114559 292.865946 
L 96.114559 294.093684 
L 96.27961 269.20576 
L 96.444661 274.388173 
L 96.444661 291.798615 
L 96.774762 277.201484 
L 96.774762 294.106023 
L 96.774762 290.03961 
L 96.939812 289.992996 
L 96.939812 262.352282 
L 97.104863 289.417173 
L 97.269914 284.382828 
L 97.269914 286.538053 
L 97.434964 293.556934 
L 97.434964 290.251295 
L 97.600015 289.096357 
L 97.600015 288.281977 
L 97.765065 292.335365 
L 97.765065 141.66903 
L 97.930116 278.007638 
L 98.095167 292.585231 
L 98.095167 281.890334 
L 98.260217 286.110299 
L 98.260217 289.792281 
L 98.425268 292.049511 
L 98.425268 286.949357 
L 98.590318 285.855292 
L 98.590318 292.847437 
L 98.755369 288.121569 
L 98.755369 282.939156 
L 99.08547 293.727625 
L 99.08547 282.038403 
L 99.250521 287.408987 
L 99.250521 255.542285 
L 99.415571 291.391425 
L 99.580622 289.250595 
L 99.745673 289.195069 
L 99.745673 281.791621 
L 99.910723 292.242822 
L 99.910723 291.502477 
L 100.075774 290.316164 
L 100.075774 287.023391 
L 100.240825 290.034127 
L 100.405875 285.616736 
L 100.405875 285.919044 
L 100.570926 284.901069 
L 100.735976 294.188283 
L 100.735976 290.034127 
L 100.901027 288.413593 
L 100.901027 290.614063 
L 101.066078 290.774471 
L 101.231128 290.342604 
L 101.231128 292.088583 
L 101.396179 271.064847 
L 101.396179 282.137116 
L 101.561229 287.181331 
L 101.561229 284.44041 
L 101.72628 275.95935 
L 101.72628 267.823783 
L 101.891331 269.863845 
L 101.891331 269.847392 
L 102.056381 290.291485 
L 102.056381 290.182196 
L 102.221432 289.775006 
L 102.386482 285.246564 
L 102.386482 274.783024 
L 102.551533 280.820948 
L 102.551533 291.218678 
L 102.716584 274.388173 
L 102.716584 284.308794 
L 102.881634 285.462498 
L 102.881634 275.170824 
L 103.211735 293.131236 
L 103.211735 281.421449 
L 103.376786 289.688632 
L 103.376786 200.978873 
L 103.541837 294.657168 
L 103.541837 287.9735 
L 103.706887 282.548419 
L 103.706887 294.069006 
L 103.871938 171.875098 
L 104.036988 292.625333 
L 104.202039 274.190748 
L 104.202039 256.455377 
L 104.36709 256.32376 
L 104.53214 291.662885 
L 104.53214 283.068716 
L 104.697191 262.067602 
L 104.697191 262.203332 
L 104.862242 291.724581 
L 104.862242 269.514237 
L 105.027292 289.886058 
L 105.192343 269.847392 
L 105.192343 282.692374 
L 105.357393 271.652424 
L 105.357393 278.080026 
L 105.522444 291.613529 
L 105.687495 292.384721 
L 105.687495 282.260506 
L 105.852545 271.495893 
L 105.852545 275.128518 
L 106.182646 291.416104 
L 106.182646 272.216495 
L 106.347697 291.391425 
L 106.347697 286.633476 
L 106.512748 287.325699 
L 106.677798 289.084018 
L 106.677798 290.540029 
L 106.842849 286.702575 
L 106.842849 288.612665 
L 107.007899 217.875188 
L 107.17295 289.310235 
L 107.17295 279.558248 
L 107.338001 254.633307 
L 107.338001 286.653219 
L 107.503051 289.264168 
L 107.668102 267.33022 
L 107.668102 279.12638 
L 107.833152 291.638207 
L 107.998203 289.700972 
L 108.163254 292.909132 
L 108.163254 252.76188 
L 108.328304 267.657205 
L 108.328304 286.243561 
L 108.493355 294.790842 
L 108.658406 286.77661 
L 108.823456 265.257254 
L 108.823456 287.763736 
L 108.988507 274.980449 
L 109.153557 293.4829 
L 109.318608 285.369955 
L 109.318608 276.485817 
L 109.483659 257.985422 
L 109.648709 267.823783 
L 109.648709 292.853606 
L 109.81376 286.529828 
L 109.97881 231.814821 
L 110.143861 285.542702 
L 110.308912 290.25623 
L 110.308912 285.305791 
L 110.473962 290.540029 
L 110.473962 289.900159 
L 110.639013 282.647132 
L 110.804063 292.208273 
L 110.804063 278.32434 
L 110.969114 293.618629 
L 111.134165 288.397143 
L 111.134165 295.142506 
L 111.464266 286.768384 
L 111.464266 251.24006 
L 111.629316 263.793018 
L 111.794367 289.071678 
L 111.794367 288.479403 
L 111.959418 293.256389 
L 112.454569 278.114576 
L 112.454569 264.6403 
L 112.61962 58.503632 
L 112.784671 291.761598 
L 112.784671 284.650761 
L 112.949721 294.574908 
L 113.114772 291.899796 
L 113.279823 291.268035 
L 113.444873 288.627472 
L 113.444873 261.330685 
L 113.609924 286.784835 
L 113.774974 292.115317 
L 113.774974 212.015497 
L 113.940025 290.848506 
L 114.105076 287.078231 
L 114.105076 284.123707 
L 114.270126 293.556934 
L 114.435177 265.8557 
L 114.435177 130.070295 
L 114.600227 286.067113 
L 114.765278 290.786811 
L 115.095379 282.137116 
L 115.26043 286.202842 
L 115.42548 268.054112 
L 115.42548 286.756867 
L 115.590531 290.848506 
L 115.755582 289.244426 
L 115.920632 292.94615 
L 115.920632 289.014097 
L 116.085683 289.269104 
L 116.250733 291.052101 
L 116.250733 292.816589 
L 116.415784 214.181689 
L 116.580835 292.955404 
L 116.745885 272.87458 
L 116.745885 281.149989 
L 116.910936 285.082042 
L 117.075987 272.142461 
L 117.075987 289.614598 
L 117.241037 267.766201 
L 117.406088 291.687563 
L 117.571138 285.209546 
L 117.90124 294.173888 
L 118.231341 281.038937 
L 118.396391 289.145713 
L 118.396391 283.074886 
L 118.561442 266.960047 
L 118.726493 292.896793 
L 118.891543 291.539494 
L 119.056594 291.632038 
L 119.056594 290.971897 
L 119.221644 291.767767 
L 119.386695 286.986374 
L 119.551746 286.811159 
L 119.551746 271.142995 
L 119.881847 293.336886 
L 119.881847 290.152582 
L 120.046897 287.464072 
L 120.211948 275.506916 
L 120.376999 279.570587 
L 120.376999 201.735671 
L 120.542049 289.488964 
L 120.7071 281.742265 
L 120.87215 289.137488 
L 120.87215 222.017005 
L 121.037201 280.886755 
L 121.202252 238.263461 
L 121.367302 293.081879 
L 121.532353 290.071144 
L 121.697404 292.098867 
L 121.862454 291.962108 
L 121.862454 291.144644 
L 122.027505 279.027667 
L 122.192555 287.072748 
L 122.522657 291.638207 
L 122.522657 279.192189 
L 122.687707 280.944339 
L 122.852758 292.865946 
L 123.017808 291.70237 
L 123.017808 292.298348 
L 123.182859 293.283419 
L 123.34791 290.428977 
L 123.51296 293.180592 
L 123.51296 291.959023 
L 123.678011 286.912339 
L 123.843061 202.130522 
L 124.008112 287.220816 
L 124.173163 255.830197 
L 124.173163 292.543074 
L 124.338213 269.60061 
L 124.503264 293.600121 
L 124.668314 286.751931 
L 124.668314 280.520696 
L 124.833365 283.859651 
L 124.998416 282.939156 
L 125.163466 271.982053 
L 125.163466 293.145631 
L 125.328517 291.490138 
L 125.658618 281.828639 
L 125.658618 290.206874 
L 125.823669 290.317926 
L 125.988719 288.479403 
L 126.15377 290.042352 
L 126.318821 295.253557 
L 126.318821 281.947916 
L 126.483871 206.805661 
L 126.648922 290.758019 
L 126.813972 280.631748 
L 126.813972 249.043703 
L 126.979023 289.299951 
L 127.144074 288.016687 
L 127.309124 290.675759 
L 127.474175 277.826663 
L 127.474175 289.836701 
L 127.639225 292.384721 
L 127.804276 277.908925 
L 127.969327 292.304517 
L 127.969327 253.337703 
L 128.134377 288.041365 
L 128.299428 285.604397 
L 128.464478 293.434777 
L 128.629529 291.576512 
L 128.629529 289.935414 
L 128.79458 294.124532 
L 129.124681 290.083483 
L 129.289731 289.145713 
L 129.289731 292.323026 
L 129.454782 289.214812 
L 129.619833 280.668765 
L 129.784883 285.999248 
L 129.949934 286.788949 
L 129.949934 288.658319 
L 130.114985 293.544595 
L 130.280035 290.546199 
L 130.445086 294.673621 
L 130.445086 291.792446 
L 130.610136 205.061053 
L 130.775187 290.754729 
L 130.940238 287.706154 
L 131.105288 292.798081 
L 131.105288 287.992009 
L 131.270339 285.29592 
L 131.435389 292.773402 
L 131.60044 279.373162 
L 131.930541 293.094219 
L 132.095592 283.543771 
L 132.260642 214.815096 
L 132.425693 279.002989 
L 132.590744 293.538425 
L 132.920845 286.875322 
L 133.085895 288.170926 
L 133.250946 292.96836 
L 133.415997 289.047 
L 133.415997 289.330799 
L 133.581047 290.963672 
L 133.746098 280.563883 
L 133.911148 284.185403 
L 134.076199 269.699323 
L 134.24125 290.840281 
L 134.24125 289.700972 
L 134.4063 294.346635 
L 134.571351 291.632038 
L 134.736402 279.570587 
L 134.901452 288.726184 
L 135.066503 288.022857 
L 135.066503 279.299127 
L 135.231553 295.144974 
L 135.561655 291.514816 
L 135.726705 290.881409 
L 135.891756 294.155379 
L 136.056806 292.369298 
L 136.056806 289.777474 
L 136.221857 287.413306 
L 136.386908 289.195069 
L 136.551958 256.662204 
L 136.717009 292.164674 
L 136.882059 289.162166 
L 137.04711 289.960092 
L 137.04711 289.713311 
L 137.212161 289.799684 
L 137.377211 207.136662 
L 137.542262 289.121035 
L 137.707312 272.364564 
L 137.872363 288.738523 
L 138.037414 290.938993 
L 138.037414 288.898931 
L 138.202464 292.261331 
L 138.367515 288.207943 
L 138.532566 291.687563 
L 138.697616 292.076244 
L 138.862667 262.024415 
L 139.027717 288.318995 
L 139.192768 285.970456 
L 139.192768 290.396074 
L 139.357819 201.901368 
L 139.522869 279.619943 
L 139.68792 280.623523 
L 139.85297 289.170391 
L 140.018021 288.331334 
L 140.018021 290.914315 
L 140.183072 290.546199 
L 140.348122 280.886755 
L 140.513173 196.613191 
L 140.678223 291.924062 
L 140.843274 291.302584 
L 141.008325 291.629982 
L 141.173375 294.387766 
L 141.338426 213.667561 
L 141.503476 294.412032 
L 141.833578 277.579881 
L 141.998628 289.836701 
L 142.163679 281.520162 
L 142.328729 251.147516 
L 142.49378 285.555041 
L 142.823881 287.71438 
L 142.988932 286.616202 
L 143.319033 289.133374 
L 143.484084 293.332775 
L 143.814185 285.70311 
L 143.979236 289.133374 
L 144.144286 266.082211 
L 144.309337 290.243891 
L 144.474387 288.388915 
L 144.804489 291.578979 
L 144.969539 290.330265 
L 145.13459 274.190748 
L 145.29964 287.571246 
L 145.464691 281.254871 
L 145.629742 286.579184 
L 145.794792 278.089897 
L 146.124893 291.974447 
L 146.289944 274.585599 
L 146.454995 290.241423 
L 146.620045 290.428977 
L 146.785096 292.634588 
L 147.115197 276.426589 
L 147.280248 293.507578 
L 147.445298 271.138882 
L 147.610349 287.289915 
L 147.94045 291.218678 
L 148.105501 212.180016 
L 148.435602 293.236118 
L 148.765703 275.918219 
L 148.930754 284.345811 
L 149.260855 289.733875 
L 149.425906 289.618124 
L 149.590956 291.749259 
L 149.756007 282.540191 
L 149.921057 289.625175 
L 150.086108 284.35815 
L 150.251159 285.954005 
L 150.58126 280.60707 
L 150.74631 288.553437 
L 150.911361 282.951495 
L 151.076412 248.031899 
L 151.406513 289.273218 
L 151.571564 270.748145 
L 151.736614 288.744693 
L 151.901665 292.020719 
L 152.066715 283.913943 
L 152.231766 292.637673 
L 152.561867 290.38579 
L 152.726918 264.813047 
L 152.891968 294.106023 
L 153.057019 266.491162 
L 153.22207 290.310522 
L 153.38712 264.146737 
L 153.552171 191.416086 
L 153.717221 289.86138 
L 153.882272 289.651615 
L 154.047323 279.971607 
L 154.212373 291.564173 
L 154.377424 287.097426 
L 154.707525 289.269104 
L 154.872576 284.530897 
L 155.037626 286.974035 
L 155.202677 291.625868 
L 155.367728 291.662885 
L 155.532778 279.644621 
L 155.697829 242.355922 
L 155.862879 290.142711 
L 156.02793 286.786481 
L 156.358031 291.416104 
L 156.523082 291.662885 
L 156.688132 280.755139 
L 156.853183 281.692909 
L 157.018234 286.909872 
L 157.183284 283.716518 
L 157.348335 243.137398 
L 157.513385 292.94615 
L 157.678436 290.404299 
L 157.843487 281.742265 
L 158.008537 291.564173 
L 158.338638 291.73692 
L 158.503689 283.395702 
L 158.66874 286.838305 
L 158.83379 286.786481 
L 159.163891 293.581612 
L 159.328942 272.586668 
L 159.493993 284.216251 
L 159.824094 290.914315 
L 159.989145 291.73075 
L 160.154195 271.772288 
L 160.319246 289.700972 
L 160.484296 271.031944 
L 160.649347 271.360985 
L 160.814398 294.188283 
L 161.144499 243.836612 
L 161.309549 242.65206 
L 161.4746 279.619943 
L 161.639651 217.38985 
L 161.804701 291.076779 
L 161.969752 289.096357 
L 162.134802 292.798081 
L 162.299853 290.079369 
L 162.629954 292.980082 
L 162.795005 289.232087 
L 162.960055 288.701506 
L 163.125106 254.941784 
L 163.290157 259.433209 
L 163.455207 289.709197 
L 163.785308 280.421983 
L 164.11541 294.513213 
L 164.28046 288.121569 
L 164.445511 289.626937 
L 164.610562 294.394758 
L 165.105713 276.273585 
L 165.270764 291.669055 
L 165.435815 290.577046 
L 165.600865 282.951495 
L 165.765916 289.731819 
L 165.930966 288.078383 
L 166.261068 289.313524 
L 166.426118 289.071678 
L 166.591169 283.050207 
L 166.92127 294.562569 
L 167.251371 280.187541 
L 167.416422 293.007845 
L 167.581472 295.488 
L 167.746523 268.991882 
L 167.911574 289.629405 
L 168.241675 292.27367 
L 168.406726 288.151536 
L 168.571776 276.329523 
L 168.736827 231.781331 
L 168.901877 266.972386 
L 169.231979 290.52769 
L 169.397029 287.71438 
L 169.56208 290.192067 
L 169.892181 281.754604 
L 170.057232 289.762667 
L 170.222282 260.716473 
L 170.387333 279.6693 
L 170.717434 290.589385 
L 170.882485 287.586875 
L 171.047535 214.963165 
L 171.212586 284.284115 
L 171.377636 270.99904 
L 171.707738 291.206339 
L 171.872788 290.197003 
L 172.037839 284.308794 
L 172.202889 287.381225 
L 172.532991 289.186844 
L 172.698041 289.047 
L 172.863092 254.407089 
L 173.358244 290.749793 
L 173.523294 293.320436 
L 173.688345 287.220816 
L 174.018446 290.856731 
L 174.183497 195.146602 
L 174.348547 283.772044 
L 174.513598 279.98518 
L 174.843699 291.724581 
L 175.00875 273.137812 
L 175.1738 286.110299 
L 175.503902 290.543114 
L 175.668952 284.395167 
L 175.834003 247.820372 
L 176.164104 286.751931 
L 176.329155 287.383692 
L 176.494205 290.273858 
L 176.659256 287.421768 
L 176.989357 290.354943 
L 177.154408 293.024298 
L 177.319458 272.027295 
L 177.64956 53.568 
L 177.81461 289.559758 
L 177.979661 284.22242 
L 178.144711 290.52152 
L 178.474813 288.016687 
L 178.639863 263.786436 
L 178.804914 283.543771 
L 178.969964 278.307065 
L 179.300066 193.585709 
L 179.465116 284.497994 
L 179.630167 281.180837 
L 179.795217 251.702775 
L 180.125319 292.335365 
L 180.290369 276.15513 
L 180.45542 292.93381 
L 180.62047 289.877833 
L 180.950572 291.699902 
L 181.115622 283.486189 
L 181.280673 281.828639 
L 181.445724 293.501408 
L 181.775825 254.99114 
L 181.940875 283.28465 
L 182.105926 277.645691 
L 182.270977 287.210945 
L 182.601078 284.160725 
L 182.766128 251.702775 
L 182.931179 290.503012 
L 183.26128 286.02804 
L 183.426331 286.060943 
L 183.756432 282.696488 
L 183.921483 270.772823 
L 184.086533 224.993075 
L 184.416634 232.566918 
L 184.581685 290.243891 
L 184.746736 290.132839 
L 184.911786 284.234759 
L 185.241888 224.973243 
L 185.406938 254.201439 
L 185.571989 232.978221 
L 185.737039 290.577046 
L 185.90209 265.38887 
L 186.232191 278.583461 
L 186.562292 197.491028 
L 186.727343 282.963834 
L 186.892394 288.964741 
L 187.222495 279.381387 
L 187.387545 288.495856 
L 187.552596 278.99065 
L 187.717647 188.532856 
L 188.047748 280.533035 
L 188.377849 289.047 
L 188.5429 282.680035 
L 188.873001 261.63779 
L 189.038051 293.427374 
L 189.203102 277.5223 
L 189.368153 274.042679 
L 189.533203 175.576822 
L 189.863305 233.009069 
L 190.028355 284.944256 
L 190.193406 258.19225 
L 190.358456 275.10384 
L 190.688558 289.063453 
L 190.853608 289.071678 
L 191.018659 274.634955 
L 191.183709 222.415969 
L 191.513811 202.500694 
L 191.678861 288.207943 
L 191.843912 291.835632 
L 192.008962 281.742265 
L 192.339064 291.638207 
L 192.669165 253.64618 
L 192.834215 236.087669 
L 193.164317 292.637673 
L 193.329367 244.576956 
L 193.494418 281.27338 
L 193.659469 229.831756 
L 193.98957 284.259437 
L 194.15462 223.207913 
L 194.319671 289.195069 
L 194.484722 292.135884 
L 194.814823 288.198072 
L 194.979873 231.138576 
L 195.144924 285.221886 
L 195.309975 286.603862 
L 195.640076 147.283312 
L 195.805126 290.73334 
L 195.970177 292.798081 
L 196.135228 285.065591 
L 196.465329 284.247098 
L 196.630379 251.504469 
L 196.79543 291.712242 
L 197.125531 293.445882 
L 197.455632 282.416801 
L 197.620683 288.49703 
L 197.950784 289.756497 
L 198.115835 289.258137 
L 198.280886 285.752466 
L 198.610987 185.719545 
L 199.271189 285.164304 
L 199.43624 286.998713 
L 199.60129 238.119504 
L 199.931392 223.333175 
L 200.096442 289.330799 
L 200.591594 276.202018 
L 200.756645 289.244426 
L 200.921695 290.459825 
L 201.086746 252.741313 
L 201.416847 256.965393 
L 201.581898 290.815603 
L 202.077049 225.327992 
L 202.2421 244.823738 
L 202.407151 232.011659 
L 202.902303 293.424906 
L 203.067353 286.23369 
L 203.397454 201.513568 
L 203.562505 289.256765 
L 203.727556 290.503012 
L 204.057657 285.805936 
L 204.222707 290.142711 
L 204.387758 284.999782 
L 204.717859 289.916905 
L 204.88291 289.277329 
L 205.213011 271.994392 
L 205.543112 189.033469 
L 205.708163 211.076355 
L 206.038264 295.376948 
L 206.203315 244.552278 
L 206.533416 250.211802 
L 206.698467 281.964368 
L 206.863517 286.719028 
L 207.193618 291.366747 
L 207.358669 279.545909 
L 207.52372 174.676069 
L 208.018871 292.088583 
L 208.183922 288.24496 
L 208.514023 284.407506 
L 208.679074 284.08669 
L 208.844124 289.047 
L 209.174226 235.877905 
L 209.339276 290.124614 
L 209.669377 282.647132 
L 209.834428 292.372382 
L 209.999479 295.327592 
L 210.32958 287.681476 
L 210.824732 292.859776 
L 210.989782 250.781752 
L 211.154833 289.18273 
L 211.484934 279.254707 
L 211.649985 289.478868 
L 211.815035 240.073192 
L 212.145137 286.628541 
L 212.310187 249.990728 
L 212.640288 260.469691 
L 212.97039 290.472164 
L 213.465541 249.867337 
L 213.630592 292.248992 
L 213.960693 277.530525 
L 214.125744 291.296827 
L 214.455845 286.202842 
L 214.785946 292.160562 
L 215.116048 245.863747 
L 215.446149 291.342069 
L 215.77625 259.729347 
L 215.941301 281.865656 
L 216.271402 276.794294 
L 216.436452 291.132305 
L 216.931604 238.530807 
L 217.096655 284.950426 
L 217.426756 281.495483 
L 217.591807 289.071678 
L 218.086958 289.285557 
L 218.252009 294.722977 
L 218.58211 292.841267 
L 218.747161 287.549858 
L 219.077262 286.246029 
L 219.242313 294.069006 
L 219.572414 277.786709 
L 219.737465 287.553972 
L 219.902515 285.394633 
L 220.232616 288.726184 
L 220.397667 279.142833 
L 220.727768 292.4094 
L 220.892819 292.983167 
L 221.22292 277.843116 
L 221.387971 291.625868 
L 221.553021 278.756208 
L 221.883122 290.348773 
L 222.048173 269.242777 
L 222.378274 269.279794 
L 222.543325 279.954471 
L 222.873426 235.516545 
L 223.038477 290.287959 
L 223.368578 265.495811 
L 223.533629 288.721249 
L 223.86373 289.244426 
L 224.02878 285.678432 
L 224.193831 264.862404 
L 224.523932 278.603203 
L 224.688983 290.620233 
L 225.184135 285.690771 
L 225.514236 284.259437 
L 225.679286 224.546516 
L 226.009388 292.950263 
L 226.174438 280.014794 
L 226.504539 189.333134 
L 226.66959 288.960627 
L 226.999691 293.690608 
L 227.164742 288.207943 
L 227.494843 287.706154 
L 227.659894 288.252364 
L 227.989995 290.790924 
L 228.155046 281.643552 
L 228.485147 289.31846 
L 228.650197 289.232087 
L 228.815248 277.053415 
L 229.145349 284.094915 
L 229.3104 274.388173 
L 229.640501 286.09796 
L 229.805552 286.714914 
L 230.135653 213.852648 
L 230.300703 289.121035 
L 230.630805 288.084552 
L 230.795855 291.841802 
L 231.125956 291.679338 
L 231.456058 290.552368 
L 231.621108 279.225093 
L 231.95121 291.095288 
L 232.11626 285.315663 
L 232.446361 265.528714 
L 232.611412 290.672232 
L 232.941513 287.83777 
L 233.106564 272.275723 
L 233.436665 273.233236 
L 233.766766 289.713311 
L 234.096867 287.665023 
L 234.261918 272.043748 
L 234.592019 291.101457 
L 234.75707 292.497829 
L 235.087171 254.620967 
L 235.252222 285.828968 
L 235.582323 279.977777 
L 235.747373 237.790463 
L 236.077475 289.31846 
L 236.242525 286.653219 
L 236.572627 293.150978 
L 236.902728 287.948822 
L 237.067778 280.900123 
L 237.56293 287.948822 
L 237.893031 287.83777 
L 238.058082 289.428562 
L 238.388183 284.333472 
L 238.553234 290.840281 
L 238.883335 293.556934 
L 239.048386 274.973399 
L 239.543537 293.575443 
L 239.873639 284.543236 
L 240.038689 291.416104 
L 240.36879 277.004058 
L 240.863942 289.269104 
L 241.194044 286.850644 
L 241.359094 290.428977 
L 241.689195 290.219213 
L 241.854246 276.839536 
L 242.184347 280.619409 
L 242.349398 290.192773 
L 242.679499 290.145178 
L 242.84455 294.22201 
L 243.174651 282.622454 
L 243.339701 287.335982 
L 243.669803 281.421449 
L 243.834853 289.45419 
L 244.164954 283.864587 
L 244.495056 259.512179 
L 244.660106 293.624799 
L 244.990208 287.9735 
L 245.155258 288.740991 
L 245.485359 288.522589 
L 245.815461 283.403927 
L 245.980511 289.238256 
L 246.310612 262.641369 
L 246.475663 284.901069 
L 246.805764 289.281443 
L 247.135865 290.675759 
L 247.300916 290.68563 
L 247.631017 291.761598 
L 248.126169 280.020963 
L 248.29122 288.633641 
L 248.621321 250.052423 
L 248.951422 288.286913 
L 249.116473 77.505815 
L 249.446574 262.838795 
L 249.611625 286.875322 
L 249.941726 274.141392 
L 250.106776 289.524111 
L 250.436878 282.988512 
L 250.766979 287.590989 
L 250.932029 282.704713 
L 251.262131 289.723182 
L 251.427181 290.465994 
L 251.757282 222.588716 
L 252.087384 288.948288 
L 252.252434 287.541633 
L 252.582535 294.424371 
L 252.747586 277.363654 
L 253.077687 281.108858 
L 253.407789 269.699323 
L 253.572839 286.196673 
L 253.90294 226.544272 
L 254.067991 291.841802 
L 254.398092 288.701506 
L 254.728193 292.316856 
L 254.893244 279.661074 
L 255.223345 292.426146 
L 255.553446 292.992421 
L 255.718497 286.677897 
L 256.048598 287.992009 
L 256.378699 290.598198 
L 256.708801 235.075865 
L 256.873851 269.370282 
L 257.203952 261.456818 
L 257.534054 281.847147 
L 258.029206 288.608963 
L 258.359307 237.687636 
L 258.689408 290.540029 
L 259.019509 279.323805 
L 259.34961 286.542167 
L 259.514661 293.266966 
L 259.844762 284.802357 
L 260.174863 290.864959 
L 260.339914 283.118072 
L 260.670015 289.524111 
L 261.000116 292.094753 
L 261.165167 292.13177 
L 261.495268 289.649147 
L 261.82537 279.881532 
L 262.320521 291.687563 
L 262.650623 276.967041 
L 262.815673 263.250098 
L 263.145774 287.800753 
L 263.475876 286.09796 
L 263.640926 273.49976 
L 263.971027 290.864959 
L 264.301129 286.835837 
L 264.63123 276.880668 
L 264.79628 285.542702 
L 265.126382 267.034082 
L 265.456483 279.6693 
L 265.621533 262.184823 
L 265.951635 288.388915 
L 266.281736 289.088131 
L 266.446787 287.948822 
L 266.776888 291.087062 
L 267.106989 286.862983 
L 267.27204 277.127449 
L 267.602141 281.890334 
L 267.932242 289.108696 
L 268.097293 281.865656 
L 268.427394 202.994257 
L 268.757495 286.529828 
L 268.922546 286.77661 
L 269.252647 248.432919 
L 269.582748 284.333472 
L 269.747799 197.836522 
L 270.0779 276.847764 
L 270.408001 287.023391 
L 270.738102 284.983329 
L 270.903153 289.417173 
L 271.233254 284.465088 
L 271.563355 281.692909 
L 271.728406 269.534801 
L 272.058507 282.265442 
L 272.388608 281.775168 
L 272.553659 292.151513 
L 273.378912 283.675387 
L 273.709013 289.178616 
L 274.039114 280.668765 
L 274.204165 294.038158 
L 274.534266 290.058805 
L 274.864368 219.79597 
L 275.029418 279.496552 
L 275.359519 290.087597 
L 275.689621 268.761553 
L 276.019722 290.042352 
L 276.349823 282.808362 
L 276.514874 288.035196 
L 276.844975 271.287698 
L 277.175076 289.549818 
L 277.505177 283.050207 
L 277.670228 285.143737 
L 278.000329 204.875967 
L 278.33043 274.610277 
L 278.660531 284.958651 
L 278.825582 275.918219 
L 279.155683 271.684543 
L 279.485785 284.111368 
L 279.815886 289.244426 
L 279.980936 288.430046 
L 280.311038 284.415732 
L 280.641139 285.43165 
L 280.806189 277.187383 
L 281.136291 287.599214 
L 281.466392 274.190748 
L 281.631442 289.121035 
L 282.291645 266.412192 
L 282.621746 284.654288 
L 282.786797 283.081055 
L 283.116898 284.144272 
L 283.7771 289.108696 
L 283.942151 291.391425 
L 284.272252 281.771879 
L 284.602353 283.264086 
L 284.932455 266.0117 
L 285.097505 285.369955 
L 285.427606 279.373162 
L 285.757708 284.012656 
L 286.087809 235.171836 
L 286.582961 287.924144 
L 286.913062 285.653753 
L 287.243163 286.357081 
L 287.408214 283.161259 
L 287.738315 285.879971 
L 288.068416 292.547185 
L 288.398517 252.84414 
L 288.728619 291.888515 
L 288.893669 201.848485 
L 289.22377 286.875322 
L 289.553872 290.416638 
L 289.883973 284.432184 
L 290.049023 285.266306 
L 290.379125 247.743986 
L 290.709226 291.983701 
L 291.039327 258.544795 
L 291.369428 279.225093 
L 291.69953 288.158587 
L 291.86458 275.029806 
L 292.194681 278.494619 
L 292.524783 277.503791 
L 292.854884 223.106957 
L 293.019934 285.361729 
L 293.350036 292.168788 
L 293.680137 201.852892 
L 294.010238 284.543236 
L 294.175289 289.047 
L 294.50539 292.979053 
L 294.835491 267.498031 
L 295.165592 283.050207 
L 295.495693 283.321667 
L 295.825795 264.91176 
L 295.990845 292.48549 
L 296.651048 282.090844 
L 296.981149 290.523576 
L 297.1462 288.072213 
L 297.476301 290.241423 
L 297.806402 227.36394 
L 298.136503 276.880668 
L 298.466604 275.3753 
L 298.796706 149.812823 
L 299.126807 288.602793 
L 299.456908 291.741855 
L 299.787009 287.992009 
L 299.95206 291.992956 
L 300.282161 243.614508 
L 300.612262 225.303314 
L 300.942364 292.916536 
L 301.272465 279.681639 
L 301.437515 287.109765 
L 301.767617 286.795118 
L 302.097718 288.190315 
L 302.427819 277.695047 
L 303.088021 287.717464 
L 303.418123 290.231552 
L 303.748224 272.552118 
L 304.078325 153.884719 
L 304.408426 288.726184 
L 304.738528 289.158052 
L 305.068629 144.507019 
L 305.39873 203.179343 
L 305.728831 284.407506 
L 306.058932 239.90867 
L 306.389034 280.212219 
L 306.719135 285.231757 
L 307.049236 287.899466 
L 307.214287 284.407506 
L 307.709438 211.261441 
L 308.03954 283.362798 
L 308.20459 282.013725 
L 308.534692 284.062012 
L 308.864793 291.819179 
L 309.194894 291.720467 
L 309.524995 286.50515 
L 310.020147 291.440782 
L 310.350248 284.481541 
L 310.680349 271.765238 
L 311.010451 155.40654 
L 311.340552 291.107627 
L 311.670653 142.436795 
L 312.000754 281.018373 
L 312.165805 285.678432 
L 312.495906 291.070609 
L 312.826007 289.249361 
L 313.156109 290.503012 
L 313.48621 289.034661 
L 313.816311 292.127656 
L 314.146412 214.134684 
L 314.311463 275.11001 
L 314.641564 288.454724 
L 314.971665 286.178164 
L 315.301766 281.845464 
L 315.631868 291.780106 
L 315.961969 291.835632 
L 316.29207 284.160725 
L 316.622171 286.23369 
L 316.952272 254.201439 
L 317.117323 202.130522 
L 317.447424 286.258368 
L 317.777526 286.431115 
L 318.107627 287.473768 
L 318.437728 289.303653 
L 319.09793 208.999275 
L 319.593082 274.240104 
L 319.923183 290.215099 
L 320.253285 293.495239 
L 320.583386 290.145178 
L 320.913487 285.419311 
L 321.243588 269.403185 
L 321.57369 273.203622 
L 321.903791 272.542247 
L 322.068841 288.571946 
L 322.398943 274.388173 
L 323.059145 292.991392 
L 323.389246 284.49388 
L 323.719347 282.038403 
L 324.049449 223.456566 
L 324.37955 282.847847 
L 324.5446 287.985839 
L 324.874702 281.54484 
L 325.204803 283.050207 
L 325.865005 208.485148 
L 326.195107 287.381225 
L 326.525208 293.600121 
L 326.855309 280.045642 
L 327.18541 286.184334 
L 327.515511 289.211522 
L 327.845613 286.801288 
L 328.010663 287.122104 
L 328.340764 291.675224 
L 328.670866 240.546191 
L 329.000967 246.263297 
L 329.331068 281.684683 
L 329.661169 286.677897 
L 329.991271 256.558203 
L 330.321372 289.343138 
L 330.651473 287.558085 
L 330.816524 281.791621 
L 331.146625 289.968317 
L 331.476726 269.468994 
L 331.806827 294.167718 
L 332.136928 245.733745 
L 332.46703 289.639276 
L 332.797131 288.290203 
L 333.127232 226.085964 
L 333.457333 281.775168 
L 333.787434 286.612088 
L 334.117536 280.360288 
L 334.447637 290.165743 
L 334.612688 248.833939 
L 334.942789 292.304517 
L 335.27289 293.011959 
L 335.602991 289.250595 
L 335.933092 292.970828 
L 336.593295 287.072748 
L 336.923396 123.24267 
L 337.253497 289.552903 
L 337.583598 286.875322 
L 337.9137 290.614063 
L 338.243801 285.995134 
L 338.573902 295.278236 
L 338.904003 289.31846 
L 339.234105 258.084135 
L 339.564206 280.360288 
L 339.894307 286.838305 
L 340.224408 290.533859 
L 340.554509 288.1154 
L 340.884611 192.536887 
L 341.049661 287.353462 
L 341.544813 285.114948 
L 341.874914 287.146782 
L 342.205015 285.555041 
L 342.370066 290.268569 
L 342.700167 279.441027 
L 343.195319 279.452132 
L 343.36037 284.185403 
L 343.855522 285.308259 
L 344.020572 288.495856 
L 344.350673 290.293247 
L 344.680775 278.928955 
L 345.175926 290.271037 
L 345.340977 290.124614 
L 345.836129 293.581612 
L 346.001179 284.296455 
L 346.331281 274.528017 
L 346.826432 180.018891 
L 347.156534 280.973128 
L 347.486635 289.663954 
L 347.816736 254.365961 
L 348.146837 280.631748 
L 348.476939 291.679338 
L 348.80704 291.73692 
L 349.137141 288.22557 
L 349.467242 280.863723 
L 349.797343 292.909132 
L 350.127445 277.418651 
L 350.457546 205.256423 
L 350.787647 290.441316 
L 351.117748 279.459535 
L 351.44785 221.27666 
L 351.777951 252.330012 
L 352.438153 290.404299 
L 352.768254 199.662706 
L 353.098356 290.459825 
L 353.428457 269.464881 
L 353.758558 289.933171 
L 354.088659 227.22821 
L 354.41876 288.372465 
L 354.748862 292.822759 
L 355.078963 217.883413 
L 355.409064 286.760157 
L 355.904216 290.252704 
L 356.234317 251.292942 
L 356.564418 288.397143 
L 357.05957 289.532338 
L 357.389671 292.977878 
L 357.719773 291.687563 
L 358.545026 282.95643 
L 358.875127 282.531966 
L 359.205228 287.302254 
L 359.535329 286.838305 
L 360.030481 244.065766 
L 360.360582 235.254096 
L 360.690684 291.021253 
L 361.020785 256.027623 
L 361.350886 283.062547 
L 361.680987 287.880957 
L 362.011088 268.021208 
L 362.34119 286.721084 
L 362.671291 285.180754 
L 363.166443 288.010518 
L 363.496544 285.382294 
L 364.156746 252.700185 
L 364.486848 285.604397 
L 364.816949 287.48875 
L 365.14705 286.850644 
L 365.477151 231.127359 
L 365.807252 280.298593 
L 366.137354 271.525507 
L 366.467455 288.997644 
L 366.797556 290.523576 
L 367.127657 288.676828 
L 367.457758 226.109468 
L 367.95291 288.010518 
L 368.283012 287.705125 
L 368.613113 286.727253 
L 368.943214 288.38069 
L 369.273315 200.304338 
L 369.603416 283.050207 
L 369.933518 261.36633 
L 370.263619 284.481541 
L 370.59372 269.353829 
L 371.088872 278.830242 
L 371.418973 268.021208 
L 371.749074 272.191817 
L 372.079175 248.309528 
L 372.409277 274.092035 
L 372.739378 210.90498 
L 373.069479 286.287982 
L 373.39958 239.116914 
L 373.894732 260.61776 
L 374.224833 261.226489 
L 374.554935 285.443989 
L 374.885036 284.185403 
L 375.215137 213.934907 
L 375.545238 289.635162 
L 375.875339 285.666092 
L 376.370491 282.280249 
L 376.700593 287.481699 
L 377.030694 243.944579 
L 377.360795 283.453283 
L 377.690896 285.251499 
L 378.020997 282.428318 
L 378.351099 282.161794 
L 378.6812 203.261603 
L 379.506453 283.510867 
L 379.836554 283.722687 
L 380.166655 289.444319 
L 380.496756 285.530363 
L 380.826858 211.549353 
L 381.156959 232.780796 
L 381.652111 280.894982 
L 381.982212 278.369582 
L 382.312313 281.859486 
L 382.642414 274.277122 
L 382.972516 284.127821 
L 383.302617 148.578915 
L 383.797769 293.553849 
L 384.12787 289.622823 
L 384.457971 288.681764 
L 384.788072 269.107047 
L 385.118173 294.044328 
L 385.778376 286.77661 
L 386.273528 287.673249 
L 386.603629 279.225093 
L 386.93373 275.868863 
L 387.263831 224.231186 
L 387.593933 281.976708 
L 387.924034 175.05858 
L 388.254135 179.550006 
L 388.749287 222.465325 
L 389.079388 225.402026 
L 389.409489 287.212591 
L 389.739591 291.971362 
L 390.069692 287.694637 
L 390.399793 288.376576 
L 390.894945 286.807457 
L 391.225046 253.995788 
L 391.555147 277.448265 
L 391.885248 289.079904 
L 392.21535 280.619409 
L 392.545451 285.937552 
L 393.040603 214.017169 
L 393.370704 288.586341 
L 394.030906 250.56141 
L 394.361008 252.288881 
L 394.856159 259.959675 
L 395.186261 279.146123 
L 395.516362 284.185403 
L 395.846463 285.437819 
L 396.176564 282.762295 
L 396.671716 285.954005 
L 397.001817 141.422249 
L 397.331918 285.382294 
L 397.66202 280.908143 
L 398.157172 284.904154 
L 398.487273 293.094219 
L 398.487273 293.094219 
" clip-path="url(#p805ae0469c)" style="fill: none; stroke: #0000ff; stroke-opacity: 0.6; stroke-linecap: square"/>
   </g>
   <g id="patch_3">
    <path d="M 57.6 307.584 
L 57.6 41.472 
" style="fill: none; stroke: #000000; stroke-width: 0.8; stroke-linejoin: miter; stroke-linecap: square"/>
   </g>
   <g id="patch_4">
    <path d="M 414.72 307.584 
L 414.72 41.472 
" style="fill: none; stroke: #000000; stroke-width: 0.8; stroke-linejoin: miter; stroke-linecap: square"/>
   </g>
   <g id="patch_5">
    <path d="M 57.6 307.584 
L 414.72 307.584 
" style="fill: none; stroke: #000000; stroke-width: 0.8; stroke-linejoin: miter; stroke-linecap: square"/>
   </g>
   <g id="patch_6">
    <path d="M 57.6 41.472 
L 414.72 41.472 
" style="fill: none; stroke: #000000; stroke-width: 0.8; stroke-linejoin: miter; stroke-linecap: square"/>
   </g>
  </g>
 </g>
 <defs>
  <clipPath id="p805ae0469c">
   <rect x="57.6" y="41.472" width="357.12" height="266.112"/>
  </clipPath>
 </defs>
</svg>
