<?xml version="1.0" encoding="utf-8" standalone="no"?>
<!DOCTYPE svg PUBLIC "-//W3C//DTD SVG 1.1//EN"
  "http://www.w3.org/Graphics/SVG/1.1/DTD/svg11.dtd">
<svg xmlns:xlink="http://www.w3.org/1999/xlink" width="460.8pt" height="345.6pt" viewBox="0 0 460.8 345.6" xmlns="http://www.w3.org/2000/svg" version="1.1">
 <metadata>
  <rdf:RDF xmlns:dc="http://purl.org/dc/elements/1.1/" xmlns:cc="http://creativecommons.org/ns#" xmlns:rdf="http://www.w3.org/1999/02/22-rdf-syntax-ns#">
   <cc:Work>
    <dc:type rdf:resource="http://purl.org/dc/dcmitype/StillImage"/>
    <dc:date>2022-10-06T10:35:46.959196</dc:date>
    <dc:format>image/svg+xml</dc:format>
    <dc:creator>
     <cc:Agent>
      <dc:title>Matplotlib v3.6.0, https://matplotlib.org/</dc:title>
     </cc:Agent>
    </dc:creator>
   </cc:Work>
  </rdf:RDF>
 </metadata>
 <defs>
  <style type="text/css">*{stroke-linejoin: round; stroke-linecap: butt}</style>
 </defs>
 <g id="figure_1">
  <g id="patch_1">
   <path d="M 0 345.6 
L 460.8 345.6 
L 460.8 0 
L 0 0 
z
" style="fill: #ffffff"/>
  </g>
  <g id="axes_1">
   <g id="patch_2">
    <path d="M 57.6 307.584 
L 414.72 307.584 
L 414.72 41.472 
L 57.6 41.472 
z
" style="fill: #ffffff"/>
   </g>
   <g id="matplotlib.axis_1">
    <g id="xtick_1">
     <g id="line2d_1">
      <defs>
       <path id="m1dec88d09c" d="M 0 0 
L 0 3.5 
" style="stroke: #000000; stroke-width: 0.8"/>
      </defs>
      <g>
       <use xlink:href="#m1dec88d09c" x="73.832727" y="307.584" style="stroke: #000000; stroke-width: 0.8"/>
      </g>
     </g>
     <g id="text_1">
      <!-- 0 -->
      <g transform="translate(70.651477 322.182437) scale(0.1 -0.1)">
       <defs>
        <path id="DejaVuSans-30" d="M 2034 4250 
Q 1547 4250 1301 3770 
Q 1056 3291 1056 2328 
Q 1056 1369 1301 889 
Q 1547 409 2034 409 
Q 2525 409 2770 889 
Q 3016 1369 3016 2328 
Q 3016 3291 2770 3770 
Q 2525 4250 2034 4250 
z
M 2034 4750 
Q 2819 4750 3233 4129 
Q 3647 3509 3647 2328 
Q 3647 1150 3233 529 
Q 2819 -91 2034 -91 
Q 1250 -91 836 529 
Q 422 1150 422 2328 
Q 422 3509 836 4129 
Q 1250 4750 2034 4750 
z
" transform="scale(0.015625)"/>
       </defs>
       <use xlink:href="#DejaVuSans-30"/>
      </g>
     </g>
    </g>
    <g id="xtick_2">
     <g id="line2d_2">
      <g>
       <use xlink:href="#m1dec88d09c" x="115.095379" y="307.584" style="stroke: #000000; stroke-width: 0.8"/>
      </g>
     </g>
     <g id="text_2">
      <!-- 250 -->
      <g transform="translate(105.551629 322.182437) scale(0.1 -0.1)">
       <defs>
        <path id="DejaVuSans-32" d="M 1228 531 
L 3431 531 
L 3431 0 
L 469 0 
L 469 531 
Q 828 903 1448 1529 
Q 2069 2156 2228 2338 
Q 2531 2678 2651 2914 
Q 2772 3150 2772 3378 
Q 2772 3750 2511 3984 
Q 2250 4219 1831 4219 
Q 1534 4219 1204 4116 
Q 875 4013 500 3803 
L 500 4441 
Q 881 4594 1212 4672 
Q 1544 4750 1819 4750 
Q 2544 4750 2975 4387 
Q 3406 4025 3406 3419 
Q 3406 3131 3298 2873 
Q 3191 2616 2906 2266 
Q 2828 2175 2409 1742 
Q 1991 1309 1228 531 
z
" transform="scale(0.015625)"/>
        <path id="DejaVuSans-35" d="M 691 4666 
L 3169 4666 
L 3169 4134 
L 1269 4134 
L 1269 2991 
Q 1406 3038 1543 3061 
Q 1681 3084 1819 3084 
Q 2600 3084 3056 2656 
Q 3513 2228 3513 1497 
Q 3513 744 3044 326 
Q 2575 -91 1722 -91 
Q 1428 -91 1123 -41 
Q 819 9 494 109 
L 494 744 
Q 775 591 1075 516 
Q 1375 441 1709 441 
Q 2250 441 2565 725 
Q 2881 1009 2881 1497 
Q 2881 1984 2565 2268 
Q 2250 2553 1709 2553 
Q 1456 2553 1204 2497 
Q 953 2441 691 2322 
L 691 4666 
z
" transform="scale(0.015625)"/>
       </defs>
       <use xlink:href="#DejaVuSans-32"/>
       <use xlink:href="#DejaVuSans-35" x="63.623047"/>
       <use xlink:href="#DejaVuSans-30" x="127.246094"/>
      </g>
     </g>
    </g>
    <g id="xtick_3">
     <g id="line2d_3">
      <g>
       <use xlink:href="#m1dec88d09c" x="156.358031" y="307.584" style="stroke: #000000; stroke-width: 0.8"/>
      </g>
     </g>
     <g id="text_3">
      <!-- 500 -->
      <g transform="translate(146.814281 322.182437) scale(0.1 -0.1)">
       <use xlink:href="#DejaVuSans-35"/>
       <use xlink:href="#DejaVuSans-30" x="63.623047"/>
       <use xlink:href="#DejaVuSans-30" x="127.246094"/>
      </g>
     </g>
    </g>
    <g id="xtick_4">
     <g id="line2d_4">
      <g>
       <use xlink:href="#m1dec88d09c" x="197.620683" y="307.584" style="stroke: #000000; stroke-width: 0.8"/>
      </g>
     </g>
     <g id="text_4">
      <!-- 750 -->
      <g transform="translate(188.076933 322.182437) scale(0.1 -0.1)">
       <defs>
        <path id="DejaVuSans-37" d="M 525 4666 
L 3525 4666 
L 3525 4397 
L 1831 0 
L 1172 0 
L 2766 4134 
L 525 4134 
L 525 4666 
z
" transform="scale(0.015625)"/>
       </defs>
       <use xlink:href="#DejaVuSans-37"/>
       <use xlink:href="#DejaVuSans-35" x="63.623047"/>
       <use xlink:href="#DejaVuSans-30" x="127.246094"/>
      </g>
     </g>
    </g>
    <g id="xtick_5">
     <g id="line2d_5">
      <g>
       <use xlink:href="#m1dec88d09c" x="238.883335" y="307.584" style="stroke: #000000; stroke-width: 0.8"/>
      </g>
     </g>
     <g id="text_5">
      <!-- 1000 -->
      <g transform="translate(226.158335 322.182437) scale(0.1 -0.1)">
       <defs>
        <path id="DejaVuSans-31" d="M 794 531 
L 1825 531 
L 1825 4091 
L 703 3866 
L 703 4441 
L 1819 4666 
L 2450 4666 
L 2450 531 
L 3481 531 
L 3481 0 
L 794 0 
L 794 531 
z
" transform="scale(0.015625)"/>
       </defs>
       <use xlink:href="#DejaVuSans-31"/>
       <use xlink:href="#DejaVuSans-30" x="63.623047"/>
       <use xlink:href="#DejaVuSans-30" x="127.246094"/>
       <use xlink:href="#DejaVuSans-30" x="190.869141"/>
      </g>
     </g>
    </g>
    <g id="xtick_6">
     <g id="line2d_6">
      <g>
       <use xlink:href="#m1dec88d09c" x="280.145987" y="307.584" style="stroke: #000000; stroke-width: 0.8"/>
      </g>
     </g>
     <g id="text_6">
      <!-- 1250 -->
      <g transform="translate(267.420987 322.182437) scale(0.1 -0.1)">
       <use xlink:href="#DejaVuSans-31"/>
       <use xlink:href="#DejaVuSans-32" x="63.623047"/>
       <use xlink:href="#DejaVuSans-35" x="127.246094"/>
       <use xlink:href="#DejaVuSans-30" x="190.869141"/>
      </g>
     </g>
    </g>
    <g id="xtick_7">
     <g id="line2d_7">
      <g>
       <use xlink:href="#m1dec88d09c" x="321.408639" y="307.584" style="stroke: #000000; stroke-width: 0.8"/>
      </g>
     </g>
     <g id="text_7">
      <!-- 1500 -->
      <g transform="translate(308.683639 322.182437) scale(0.1 -0.1)">
       <use xlink:href="#DejaVuSans-31"/>
       <use xlink:href="#DejaVuSans-35" x="63.623047"/>
       <use xlink:href="#DejaVuSans-30" x="127.246094"/>
       <use xlink:href="#DejaVuSans-30" x="190.869141"/>
      </g>
     </g>
    </g>
    <g id="xtick_8">
     <g id="line2d_8">
      <g>
       <use xlink:href="#m1dec88d09c" x="362.671291" y="307.584" style="stroke: #000000; stroke-width: 0.8"/>
      </g>
     </g>
     <g id="text_8">
      <!-- 1750 -->
      <g transform="translate(349.946291 322.182437) scale(0.1 -0.1)">
       <use xlink:href="#DejaVuSans-31"/>
       <use xlink:href="#DejaVuSans-37" x="63.623047"/>
       <use xlink:href="#DejaVuSans-35" x="127.246094"/>
       <use xlink:href="#DejaVuSans-30" x="190.869141"/>
      </g>
     </g>
    </g>
    <g id="xtick_9">
     <g id="line2d_9">
      <g>
       <use xlink:href="#m1dec88d09c" x="403.933943" y="307.584" style="stroke: #000000; stroke-width: 0.8"/>
      </g>
     </g>
     <g id="text_9">
      <!-- 2000 -->
      <g transform="translate(391.208943 322.182437) scale(0.1 -0.1)">
       <use xlink:href="#DejaVuSans-32"/>
       <use xlink:href="#DejaVuSans-30" x="63.623047"/>
       <use xlink:href="#DejaVuSans-30" x="127.246094"/>
       <use xlink:href="#DejaVuSans-30" x="190.869141"/>
      </g>
     </g>
    </g>
    <g id="text_10">
     <!-- time -->
     <g transform="translate(224.863906 335.860562) scale(0.1 -0.1)">
      <defs>
       <path id="DejaVuSans-74" d="M 1172 4494 
L 1172 3500 
L 2356 3500 
L 2356 3053 
L 1172 3053 
L 1172 1153 
Q 1172 725 1289 603 
Q 1406 481 1766 481 
L 2356 481 
L 2356 0 
L 1766 0 
Q 1100 0 847 248 
Q 594 497 594 1153 
L 594 3053 
L 172 3053 
L 172 3500 
L 594 3500 
L 594 4494 
L 1172 4494 
z
" transform="scale(0.015625)"/>
       <path id="DejaVuSans-69" d="M 603 3500 
L 1178 3500 
L 1178 0 
L 603 0 
L 603 3500 
z
M 603 4863 
L 1178 4863 
L 1178 4134 
L 603 4134 
L 603 4863 
z
" transform="scale(0.015625)"/>
       <path id="DejaVuSans-6d" d="M 3328 2828 
Q 3544 3216 3844 3400 
Q 4144 3584 4550 3584 
Q 5097 3584 5394 3201 
Q 5691 2819 5691 2113 
L 5691 0 
L 5113 0 
L 5113 2094 
Q 5113 2597 4934 2840 
Q 4756 3084 4391 3084 
Q 3944 3084 3684 2787 
Q 3425 2491 3425 1978 
L 3425 0 
L 2847 0 
L 2847 2094 
Q 2847 2600 2669 2842 
Q 2491 3084 2119 3084 
Q 1678 3084 1418 2786 
Q 1159 2488 1159 1978 
L 1159 0 
L 581 0 
L 581 3500 
L 1159 3500 
L 1159 2956 
Q 1356 3278 1631 3431 
Q 1906 3584 2284 3584 
Q 2666 3584 2933 3390 
Q 3200 3197 3328 2828 
z
" transform="scale(0.015625)"/>
       <path id="DejaVuSans-65" d="M 3597 1894 
L 3597 1613 
L 953 1613 
Q 991 1019 1311 708 
Q 1631 397 2203 397 
Q 2534 397 2845 478 
Q 3156 559 3463 722 
L 3463 178 
Q 3153 47 2828 -22 
Q 2503 -91 2169 -91 
Q 1331 -91 842 396 
Q 353 884 353 1716 
Q 353 2575 817 3079 
Q 1281 3584 2069 3584 
Q 2775 3584 3186 3129 
Q 3597 2675 3597 1894 
z
M 3022 2063 
Q 3016 2534 2758 2815 
Q 2500 3097 2075 3097 
Q 1594 3097 1305 2825 
Q 1016 2553 972 2059 
L 3022 2063 
z
" transform="scale(0.015625)"/>
      </defs>
      <use xlink:href="#DejaVuSans-74"/>
      <use xlink:href="#DejaVuSans-69" x="39.208984"/>
      <use xlink:href="#DejaVuSans-6d" x="66.992188"/>
      <use xlink:href="#DejaVuSans-65" x="164.404297"/>
     </g>
    </g>
   </g>
   <g id="matplotlib.axis_2">
    <g id="ytick_1">
     <g id="line2d_10">
      <defs>
       <path id="m25db8a54df" d="M 0 0 
L -3.5 0 
" style="stroke: #000000; stroke-width: 0.8"/>
      </defs>
      <g>
       <use xlink:href="#m25db8a54df" x="57.6" y="299.910464" style="stroke: #000000; stroke-width: 0.8"/>
      </g>
     </g>
     <g id="text_11">
      <!-- 0 -->
      <g transform="translate(44.2375 303.709683) scale(0.1 -0.1)">
       <use xlink:href="#DejaVuSans-30"/>
      </g>
     </g>
    </g>
    <g id="ytick_2">
     <g id="line2d_11">
      <g>
       <use xlink:href="#m25db8a54df" x="57.6" y="253.259996" style="stroke: #000000; stroke-width: 0.8"/>
      </g>
     </g>
     <g id="text_12">
      <!-- 5000 -->
      <g transform="translate(25.15 257.059215) scale(0.1 -0.1)">
       <use xlink:href="#DejaVuSans-35"/>
       <use xlink:href="#DejaVuSans-30" x="63.623047"/>
       <use xlink:href="#DejaVuSans-30" x="127.246094"/>
       <use xlink:href="#DejaVuSans-30" x="190.869141"/>
      </g>
     </g>
    </g>
    <g id="ytick_3">
     <g id="line2d_12">
      <g>
       <use xlink:href="#m25db8a54df" x="57.6" y="206.609527" style="stroke: #000000; stroke-width: 0.8"/>
      </g>
     </g>
     <g id="text_13">
      <!-- 10000 -->
      <g transform="translate(18.7875 210.408746) scale(0.1 -0.1)">
       <use xlink:href="#DejaVuSans-31"/>
       <use xlink:href="#DejaVuSans-30" x="63.623047"/>
       <use xlink:href="#DejaVuSans-30" x="127.246094"/>
       <use xlink:href="#DejaVuSans-30" x="190.869141"/>
       <use xlink:href="#DejaVuSans-30" x="254.492188"/>
      </g>
     </g>
    </g>
    <g id="ytick_4">
     <g id="line2d_13">
      <g>
       <use xlink:href="#m25db8a54df" x="57.6" y="159.959059" style="stroke: #000000; stroke-width: 0.8"/>
      </g>
     </g>
     <g id="text_14">
      <!-- 15000 -->
      <g transform="translate(18.7875 163.758277) scale(0.1 -0.1)">
       <use xlink:href="#DejaVuSans-31"/>
       <use xlink:href="#DejaVuSans-35" x="63.623047"/>
       <use xlink:href="#DejaVuSans-30" x="127.246094"/>
       <use xlink:href="#DejaVuSans-30" x="190.869141"/>
       <use xlink:href="#DejaVuSans-30" x="254.492188"/>
      </g>
     </g>
    </g>
    <g id="ytick_5">
     <g id="line2d_14">
      <g>
       <use xlink:href="#m25db8a54df" x="57.6" y="113.30859" style="stroke: #000000; stroke-width: 0.8"/>
      </g>
     </g>
     <g id="text_15">
      <!-- 20000 -->
      <g transform="translate(18.7875 117.107809) scale(0.1 -0.1)">
       <use xlink:href="#DejaVuSans-32"/>
       <use xlink:href="#DejaVuSans-30" x="63.623047"/>
       <use xlink:href="#DejaVuSans-30" x="127.246094"/>
       <use xlink:href="#DejaVuSans-30" x="190.869141"/>
       <use xlink:href="#DejaVuSans-30" x="254.492188"/>
      </g>
     </g>
    </g>
    <g id="ytick_6">
     <g id="line2d_15">
      <g>
       <use xlink:href="#m25db8a54df" x="57.6" y="66.658121" style="stroke: #000000; stroke-width: 0.8"/>
      </g>
     </g>
     <g id="text_16">
      <!-- 25000 -->
      <g transform="translate(18.7875 70.45734) scale(0.1 -0.1)">
       <use xlink:href="#DejaVuSans-32"/>
       <use xlink:href="#DejaVuSans-35" x="63.623047"/>
       <use xlink:href="#DejaVuSans-30" x="127.246094"/>
       <use xlink:href="#DejaVuSans-30" x="190.869141"/>
       <use xlink:href="#DejaVuSans-30" x="254.492188"/>
      </g>
     </g>
    </g>
    <g id="text_17">
     <!-- latency -->
     <g transform="translate(12.707812 192.895187) rotate(-90) scale(0.1 -0.1)">
      <defs>
       <path id="DejaVuSans-6c" d="M 603 4863 
L 1178 4863 
L 1178 0 
L 603 0 
L 603 4863 
z
" transform="scale(0.015625)"/>
       <path id="DejaVuSans-61" d="M 2194 1759 
Q 1497 1759 1228 1600 
Q 959 1441 959 1056 
Q 959 750 1161 570 
Q 1363 391 1709 391 
Q 2188 391 2477 730 
Q 2766 1069 2766 1631 
L 2766 1759 
L 2194 1759 
z
M 3341 1997 
L 3341 0 
L 2766 0 
L 2766 531 
Q 2569 213 2275 61 
Q 1981 -91 1556 -91 
Q 1019 -91 701 211 
Q 384 513 384 1019 
Q 384 1609 779 1909 
Q 1175 2209 1959 2209 
L 2766 2209 
L 2766 2266 
Q 2766 2663 2505 2880 
Q 2244 3097 1772 3097 
Q 1472 3097 1187 3025 
Q 903 2953 641 2809 
L 641 3341 
Q 956 3463 1253 3523 
Q 1550 3584 1831 3584 
Q 2591 3584 2966 3190 
Q 3341 2797 3341 1997 
z
" transform="scale(0.015625)"/>
       <path id="DejaVuSans-6e" d="M 3513 2113 
L 3513 0 
L 2938 0 
L 2938 2094 
Q 2938 2591 2744 2837 
Q 2550 3084 2163 3084 
Q 1697 3084 1428 2787 
Q 1159 2491 1159 1978 
L 1159 0 
L 581 0 
L 581 3500 
L 1159 3500 
L 1159 2956 
Q 1366 3272 1645 3428 
Q 1925 3584 2291 3584 
Q 2894 3584 3203 3211 
Q 3513 2838 3513 2113 
z
" transform="scale(0.015625)"/>
       <path id="DejaVuSans-63" d="M 3122 3366 
L 3122 2828 
Q 2878 2963 2633 3030 
Q 2388 3097 2138 3097 
Q 1578 3097 1268 2742 
Q 959 2388 959 1747 
Q 959 1106 1268 751 
Q 1578 397 2138 397 
Q 2388 397 2633 464 
Q 2878 531 3122 666 
L 3122 134 
Q 2881 22 2623 -34 
Q 2366 -91 2075 -91 
Q 1284 -91 818 406 
Q 353 903 353 1747 
Q 353 2603 823 3093 
Q 1294 3584 2113 3584 
Q 2378 3584 2631 3529 
Q 2884 3475 3122 3366 
z
" transform="scale(0.015625)"/>
       <path id="DejaVuSans-79" d="M 2059 -325 
Q 1816 -950 1584 -1140 
Q 1353 -1331 966 -1331 
L 506 -1331 
L 506 -850 
L 844 -850 
Q 1081 -850 1212 -737 
Q 1344 -625 1503 -206 
L 1606 56 
L 191 3500 
L 800 3500 
L 1894 763 
L 2988 3500 
L 3597 3500 
L 2059 -325 
z
" transform="scale(0.015625)"/>
      </defs>
      <use xlink:href="#DejaVuSans-6c"/>
      <use xlink:href="#DejaVuSans-61" x="27.783203"/>
      <use xlink:href="#DejaVuSans-74" x="89.0625"/>
      <use xlink:href="#DejaVuSans-65" x="128.271484"/>
      <use xlink:href="#DejaVuSans-6e" x="189.794922"/>
      <use xlink:href="#DejaVuSans-63" x="253.173828"/>
      <use xlink:href="#DejaVuSans-79" x="308.154297"/>
     </g>
    </g>
   </g>
   <g id="line2d_16">
    <path d="M 73.832727 290.365779 
L 73.832727 226.258705 
L 73.832727 242.567708 
L 73.997778 292.371749 
L 73.997778 274.056775 
L 73.997778 59.623231 
L 73.997778 290.393769 
L 73.997778 274.336678 
L 74.162828 265.846292 
L 74.162828 286.978955 
L 74.162828 178.815178 
L 74.162828 219.708979 
L 74.327879 289.852623 
L 74.327879 289.199517 
L 74.327879 138.873047 
L 74.327879 292.026535 
L 74.327879 283.872033 
L 74.49293 293.351409 
L 74.49293 66.079656 
L 74.65798 273.375678 
L 74.65798 86.540551 
L 74.65798 294.601641 
L 74.65798 292.558351 
L 74.823031 290.46841 
L 74.823031 264.791992 
L 74.823031 292.063856 
L 74.823031 291.709312 
L 74.988082 285.933984 
L 74.988082 246.72893 
L 74.988082 292.035865 
L 75.153132 272.405348 
L 75.153132 275.988104 
L 75.153132 293.808583 
L 75.153132 289.572721 
L 75.318183 286.53111 
L 75.318183 232.248625 
L 75.318183 293.080836 
L 75.483233 292.306438 
L 75.483233 261.563779 
L 75.483233 293.883224 
L 75.483233 293.043515 
L 75.648284 291.588021 
L 75.648284 183.526875 
L 75.648284 293.295428 
L 75.813335 291.224147 
L 75.813335 163.849708 
L 75.813335 293.267438 
L 75.978385 250.367667 
L 75.978385 173.310423 
L 75.978385 289.703342 
L 75.978385 270.399378 
L 76.143436 276.342648 
L 76.143436 294.209777 
L 76.143436 291.905244 
L 76.308486 125.605654 
L 76.308486 290.785633 
L 76.308486 288.089236 
L 76.473537 271.910853 
L 76.473537 278.208666 
L 76.473537 167.469784 
L 76.473537 291.886584 
L 76.638588 150.948054 
L 76.638588 292.978205 
L 76.638588 140.011318 
L 76.638588 156.590895 
L 76.803638 289.180857 
L 76.803638 142.605084 
L 76.803638 290.113866 
L 76.803638 272.60128 
L 76.968689 292.987535 
L 76.968689 291.252137 
L 77.133739 253.017413 
L 77.133739 292.175817 
L 77.133739 106.450971 
L 77.133739 107.785175 
L 77.29879 295.021495 
L 77.29879 215.911631 
L 77.463841 291.056205 
L 77.463841 283.163133 
L 77.463841 230.839781 
L 77.628891 284.049305 
L 77.628891 211.181273 
L 77.628891 292.996865 
L 77.628891 291.961225 
L 77.793942 257.225286 
L 77.793942 148.203141 
L 77.793942 293.929874 
L 77.958992 278.031395 
L 77.958992 282.995005 
L 77.958992 238.527778 
L 77.958992 285.756712 
L 78.124043 288.51842 
L 78.124043 220.446056 
L 78.124043 266.788632 
L 78.289094 284.002655 
L 78.289094 294.368389 
L 78.454144 289.012915 
L 78.454144 248.930832 
L 78.454144 292.409069 
L 78.619195 291.989215 
L 78.619195 261.246556 
L 78.784246 275.334998 
L 78.784246 292.325098 
L 78.784246 208.148993 
L 78.949296 293.220787 
L 78.949296 266.014234 
L 79.114347 291.354768 
L 79.114347 274.924473 
L 79.279397 252.504258 
L 79.279397 289.955254 
L 79.279397 284.814373 
L 79.444448 291.597351 
L 79.444448 278.759142 
L 79.609499 290.804293 
L 79.609499 290.393769 
L 79.774549 277.667521 
L 79.774549 292.744952 
L 79.9396 287.939954 
L 79.9396 292.194477 
L 79.9396 263.224536 
L 80.10465 292.968875 
L 80.10465 222.396046 
L 80.269701 165.967639 
L 80.269701 274.943134 
L 80.269701 265.426438 
L 80.434752 291.718642 
L 80.434752 289.52607 
L 80.599802 219.345105 
L 80.599802 292.670312 
L 80.764853 291.018885 
L 80.764853 281.959364 
L 80.764853 291.364099 
L 80.929903 231.623509 
L 81.094954 279.057705 
L 81.094954 116.079628 
L 81.094954 222.965182 
L 81.260005 285.299538 
L 81.425055 220.194144 
L 81.425055 290.057885 
L 81.425055 277.779482 
L 81.590106 292.278448 
L 81.590106 290.263148 
L 81.590106 269.979524 
L 81.755156 293.202127 
L 81.755156 122.862606 
L 81.920207 292.46505 
L 81.920207 290.832283 
L 82.085258 279.701481 
L 82.085258 232.827091 
L 82.250308 234.963682 
L 82.250308 290.253817 
L 82.415359 284.627771 
L 82.415359 181.754158 
L 82.580409 292.437059 
L 82.580409 292.409069 
L 82.74546 251.067424 
L 82.74546 290.55238 
L 82.910511 295.002835 
L 82.910511 293.248778 
L 83.075561 292.409069 
L 83.075561 293.295428 
L 83.240612 280.018705 
L 83.240612 292.605001 
L 83.240612 290.561711 
L 83.405663 237.174914 
L 83.405663 265.902273 
L 83.570713 278.992394 
L 83.570713 290.664342 
L 83.735764 275.185716 
L 83.735764 284.49715 
L 83.735764 286.232547 
L 83.900814 88.145327 
L 83.900814 290.766973 
L 84.065865 216.399595 
L 84.065865 197.391395 
L 84.230916 281.250277 
L 84.230916 216.82598 
L 84.395966 234.161294 
L 84.395966 287.352158 
L 84.561017 191.485445 
L 84.561017 290.869604 
L 84.726067 259.837712 
L 84.726067 293.230117 
L 84.726067 291.662662 
L 84.891118 277.928764 
L 85.056169 275.913463 
L 85.056169 291.839933 
L 85.221219 279.710812 
L 85.221219 288.257177 
L 85.221219 279.729472 
L 85.38627 279.878753 
L 85.38627 275.773512 
L 85.55132 291.681322 
L 85.55132 288.844973 
L 85.55132 246.72893 
L 85.716371 289.619371 
L 85.881422 292.567681 
L 85.881422 243.649999 
L 85.881422 252.065744 
L 86.046472 233.088333 
L 86.046472 292.838253 
L 86.211523 292.091846 
L 86.211523 292.744952 
L 86.211523 284.021315 
L 86.376573 288.984925 
L 86.376573 247.410027 
L 86.541624 154.622245 
L 86.541624 283.825383 
L 86.706675 284.198587 
L 86.706675 162.300912 
L 86.706675 292.632991 
L 86.871725 292.185147 
L 86.871725 267.484657 
L 86.871725 293.248778 
L 87.036776 285.327528 
L 87.036776 273.394338 
L 87.201827 267.395088 
L 87.201827 279.067035 
L 87.366877 276.417288 
L 87.366877 291.000225 
L 87.531928 289.283488 
L 87.531928 271.5843 
L 87.696978 293.45404 
L 87.696978 147.11152 
L 87.862029 289.208847 
L 88.02708 287.258857 
L 88.02708 290.011235 
L 88.19213 291.261468 
L 88.19213 115.33322 
L 88.357181 292.166487 
L 88.357181 291.233477 
L 88.522231 271.220426 
L 88.522231 291.382759 
L 88.522231 291.074866 
L 88.687282 294.657622 
L 88.852333 294.694942 
L 88.852333 292.912894 
L 89.017383 244.984203 
L 89.017383 116.620773 
L 89.182434 295.198767 
L 89.182434 292.819593 
L 89.347484 294.806903 
L 89.347484 280.223967 
L 89.512535 292.838253 
L 89.512535 292.157157 
L 89.677586 235.78473 
L 89.677586 291.895914 
L 89.842636 290.393769 
L 89.842636 247.438017 
L 90.007687 291.420079 
L 90.007687 268.290777 
L 90.172737 285.073936 
L 90.172737 123.683654 
L 90.337788 290.701662 
L 90.502839 293.4727 
L 90.502839 202.86816 
L 90.667889 291.606681 
L 90.83294 171.798948 
L 90.83294 294.405709 
L 90.99799 292.707632 
L 90.99799 286.176566 
L 90.99799 292.567681 
L 91.163041 286.447139 
L 91.163041 254.109034 
L 91.328092 293.789923 
L 91.328092 292.940884 
L 91.328092 63.168666 
L 91.493142 288.229187 
L 91.493142 217.973581 
L 91.658193 227.014442 
L 91.658193 254.248986 
L 91.823244 286.017955 
L 91.823244 284.870353 
L 91.988294 137.473533 
L 91.988294 293.435379 
L 92.153345 292.838253 
L 92.153345 193.108882 
L 92.318395 169.02791 
L 92.318395 294.51767 
L 92.483446 226.165404 
L 92.483446 139.059649 
L 92.483446 286.381829 
L 92.648497 287.772012 
L 92.648497 285.280877 
L 92.813547 174.887209 
L 92.813547 288.098566 
L 92.978598 291.5507 
L 92.978598 282.640461 
L 92.978598 291.727972 
L 93.143648 291.046875 
L 93.143648 152.998809 
L 93.308699 122.480072 
L 93.308699 293.407389 
L 93.47375 170.182975 
L 93.47375 275.204376 
L 93.6388 292.101176 
L 93.6388 233.144314 
L 93.803851 292.950215 
L 93.803851 256.320267 
L 93.968901 291.410749 
L 93.968901 287.54809 
L 94.133952 292.623661 
L 94.299003 289.815303 
L 94.299003 165.622426 
L 94.464053 229.057733 
L 94.464053 160.285612 
L 94.629104 289.320808 
L 94.794154 293.789923 
L 94.794154 239.479447 
L 94.959205 295.488 
L 94.959205 225.530957 
L 95.124256 294.993505 
L 95.289306 139.843377 
L 95.289306 294.172457 
L 95.454357 275.6149 
L 95.454357 290.207167 
L 95.784458 252.215025 
L 95.784458 263.187216 
L 95.784458 289.759322 
L 95.949509 180.9611 
L 95.949509 293.51935 
L 96.114559 185.224952 
L 96.114559 293.911214 
L 96.27961 281.474199 
L 96.444661 284.114616 
L 96.444661 293.892554 
L 96.609711 279.309617 
L 96.609711 290.263148 
L 96.774762 286.344508 
L 96.774762 294.834893 
L 96.774762 293.873894 
L 96.939812 225.269715 
L 96.939812 282.855053 
L 97.104863 253.567889 
L 97.104863 275.241697 
L 97.269914 165.211901 
L 97.269914 190.580426 
L 97.434964 294.769583 
L 97.434964 293.817913 
L 97.600015 231.017052 
L 97.600015 281.007695 
L 97.765065 273.487639 
L 97.765065 167.768347 
L 97.930116 286.54044 
L 97.930116 284.982314 
L 98.095167 292.577011 
L 98.095167 288.4811 
L 98.260217 253.110714 
L 98.260217 291.662662 
L 98.425268 292.558351 
L 98.425268 288.53708 
L 98.590318 251.291346 
L 98.590318 293.836573 
L 98.755369 264.754671 
L 98.755369 283.162946 
L 98.92042 283.050985 
L 98.92042 287.454789 
L 99.08547 293.332748 
L 99.08547 291.140176 
L 99.250521 290.365779 
L 99.250521 280.811763 
L 99.415571 290.757642 
L 99.415571 273.5996 
L 99.580622 290.281808 
L 99.745673 288.686362 
L 99.745673 208.494206 
L 99.910723 290.281808 
L 99.910723 287.081586 
L 100.075774 259.464508 
L 100.075774 288.882294 
L 100.240825 289.040905 
L 100.240825 288.806906 
L 100.405875 289.908604 
L 100.405875 179.04843 
L 100.570926 288.247847 
L 100.735976 292.688972 
L 100.735976 241.70934 
L 100.901027 256.366917 
L 100.901027 292.577011 
L 101.066078 293.547341 
L 101.231128 293.51935 
L 101.231128 292.959545 
L 101.561229 257.234616 
L 101.561229 196.262453 
L 101.72628 287.613401 
L 101.72628 282.481849 
L 101.891331 285.719392 
L 101.891331 279.962724 
L 102.056381 292.399739 
L 102.056381 276.435949 
L 102.221432 253.539899 
L 102.386482 289.47009 
L 102.386482 159.315282 
L 102.551533 259.221926 
L 102.551533 211.610457 
L 102.716584 288.210527 
L 102.881634 277.368958 
L 102.881634 240.104564 
L 103.046685 289.964585 
L 103.211735 293.136816 
L 103.211735 289.731332 
L 103.376786 293.192797 
L 103.376786 146.383772 
L 103.541837 291.028215 
L 103.541837 286.297858 
L 103.706887 273.972804 
L 103.706887 256.544189 
L 103.871938 249.938482 
L 104.036988 293.211457 
L 104.036988 279.169666 
L 104.202039 285.448819 
L 104.202039 144.508423 
L 104.36709 231.595518 
L 104.53214 215.725029 
L 104.53214 285.383509 
L 104.697191 282.967014 
L 104.697191 283.032325 
L 104.862242 291.979885 
L 104.862242 285.196907 
L 105.027292 289.740662 
L 105.192343 140.291221 
L 105.192343 289.796643 
L 105.357393 285.224897 
L 105.357393 288.47177 
L 105.522444 291.289458 
L 105.687495 291.270798 
L 105.687495 187.566806 
L 105.852545 284.823703 
L 105.852545 280.653151 
L 106.017596 290.925584 
L 106.182646 292.996865 
L 106.182646 286.932304 
L 106.347697 251.533928 
L 106.347697 292.996865 
L 106.677798 288.50909 
L 106.677798 291.186827 
L 106.842849 163.849708 
L 106.842849 293.146146 
L 107.007899 266.844612 
L 107.17295 290.729652 
L 107.17295 270.893873 
L 107.338001 258.438198 
L 107.338001 290.281808 
L 107.503051 290.104536 
L 107.668102 285.654081 
L 107.833152 291.47606 
L 107.833152 286.251207 
L 107.998203 242.409097 
L 108.163254 283.368208 
L 108.163254 279.001724 
L 108.328304 285.187577 
L 108.328304 291.914574 
L 108.493355 294.573651 
L 108.658406 287.333498 
L 108.658406 288.900954 
L 108.823456 253.735831 
L 108.823456 292.49304 
L 108.988507 281.045015 
L 109.153557 231.101023 
L 109.153557 294.965515 
L 109.318608 143.239531 
L 109.318608 163.243252 
L 109.483659 280.475879 
L 109.648709 173.095831 
L 109.648709 235.052318 
L 109.81376 288.54641 
L 109.97881 215.221204 
L 110.143861 255.611179 
L 110.308912 261.65708 
L 110.308912 288.938274 
L 110.473962 267.721641 
L 110.473962 283.50816 
L 110.639013 218.915921 
L 110.804063 294.433699 
L 110.804063 179.925459 
L 110.969114 293.248778 
L 111.134165 270.492679 
L 111.134165 291.298788 
L 111.299215 293.948535 
L 111.464266 291.774623 
L 111.464266 277.910103 
L 111.629316 283.713422 
L 111.794367 179.925459 
L 111.794367 283.321558 
L 111.959418 293.929874 
L 112.124468 288.956934 
L 112.289519 291.196157 
L 112.454569 257.243946 
L 112.454569 155.984439 
L 112.61962 195.572026 
L 112.784671 294.069826 
L 112.784671 288.807093 
L 112.949721 293.239447 
L 113.114772 292.632991 
L 113.114772 293.752603 
L 113.279823 291.578691 
L 113.444873 279.160336 
L 113.444873 185.187632 
L 113.774974 294.918864 
L 113.774974 264.801322 
L 113.940025 290.449749 
L 114.105076 291.905244 
L 114.105076 258.858052 
L 114.270126 294.806903 
L 114.435177 153.344022 
L 114.435177 199.639947 
L 114.600227 288.807653 
L 114.765278 294.49901 
L 115.095379 279.54287 
L 115.26043 291.168167 
L 115.42548 283.610791 
L 115.42548 292.660982 
L 115.590531 293.687292 
L 115.755582 171.948229 
L 115.920632 293.799253 
L 115.920632 275.288347 
L 116.085683 290.179177 
L 116.250733 291.280128 
L 116.250733 289.628701 
L 116.415784 251.198045 
L 116.580835 293.267438 
L 116.745885 286.241877 
L 116.745885 287.202877 
L 116.910936 289.619371 
L 117.075987 283.816053 
L 117.075987 291.345438 
L 117.241037 284.767722 
L 117.406088 291.242807 
L 117.571138 288.453109 
L 117.736189 293.043515 
L 117.90124 290.4964 
L 117.90124 242.129194 
L 118.06629 288.826313 
L 118.396391 290.51506 
L 118.561442 283.993325 
L 118.726493 293.976525 
L 118.891543 281.045015 
L 119.056594 293.351409 
L 119.056594 291.382759 
L 119.221644 286.764362 
L 119.551746 289.768653 
L 119.551746 263.485779 
L 119.716796 220.418066 
L 119.881847 293.687292 
L 120.046897 290.46841 
L 120.211948 285.074682 
L 120.376999 226.697219 
L 120.376999 261.227896 
L 120.542049 293.995185 
L 120.7071 284.898344 
L 120.87215 290.216497 
L 120.87215 186.064661 
L 121.037201 289.908604 
L 121.202252 206.376275 
L 121.367302 294.172457 
L 121.532353 291.849263 
L 121.697404 292.017205 
L 121.862454 290.850943 
L 121.862454 294.004515 
L 122.192555 247.475338 
L 122.357606 289.628701 
L 122.522657 292.399739 
L 122.522657 177.583606 
L 122.687707 290.337788 
L 123.017808 294.368389 
L 123.017808 292.343758 
L 123.182859 293.276768 
L 123.34791 292.054526 
L 123.51296 293.407389 
L 123.678011 127.341051 
L 123.843061 222.955851 
L 124.008112 149.276101 
L 124.173163 179.197712 
L 124.173163 292.950215 
L 124.338213 177.191742 
L 124.503264 286.157906 
L 124.668314 262.888653 
L 124.668314 288.117226 
L 124.833365 266.732651 
L 124.998416 284.926334 
L 125.163466 227.592908 
L 125.163466 293.668632 
L 125.493568 288.984925 
L 125.658618 212.412846 
L 125.658618 264.418788 
L 125.823669 287.837323 
L 125.988719 292.52103 
L 126.15377 292.418399 
L 126.318821 293.444709 
L 126.318821 131.007778 
L 126.483871 134.973068 
L 126.648922 293.015525 
L 126.813972 287.230867 
L 126.813972 250.162405 
L 126.979023 293.435379 
L 127.144074 185.364904 
L 127.309124 292.54902 
L 127.474175 286.465799 
L 127.474175 292.082516 
L 127.639225 284.058635 
L 127.804276 285.271547 
L 127.969327 264.512089 
L 127.969327 275.736192 
L 128.134377 290.141856 
L 128.299428 290.076546 
L 128.464478 293.883224 
L 128.629529 282.58448 
L 128.629529 289.47009 
L 128.79458 294.004515 
L 128.95963 294.629631 
L 129.124681 289.861953 
L 129.289731 247.204765 
L 129.289731 293.183467 
L 129.454782 293.51002 
L 129.619833 137.762766 
L 129.949934 291.401419 
L 130.280035 294.247098 
L 130.445086 122.918587 
L 130.445086 293.743272 
L 130.610136 154.07177 
L 130.775187 293.239447 
L 130.940238 291.867924 
L 131.105288 292.866244 
L 131.105288 142.15724 
L 131.270339 289.404779 
L 131.435389 294.135136 
L 131.60044 234.562488 
L 131.765491 292.119836 
L 131.930541 227.145064 
L 132.095592 270.949854 
L 132.260642 262.076934 
L 132.425693 274.504619 
L 132.590744 171.826938 
L 132.590744 291.037545 
L 132.755794 291.821273 
L 132.920845 180.737177 
L 133.085895 289.945924 
L 133.250946 291.233477 
L 133.415997 290.990895 
L 133.415997 291.261468 
L 133.581047 292.567681 
L 133.746098 289.694012 
L 133.911148 283.480169 
L 134.076199 200.274394 
L 134.24125 292.884904 
L 134.4063 291.625341 
L 134.571351 294.172457 
L 134.736402 278.432589 
L 134.901452 291.951894 
L 135.066503 289.442099 
L 135.066503 178.600586 
L 135.231553 294.200447 
L 135.396604 282.192616 
L 135.561655 292.50237 
L 135.726705 293.967195 
L 135.891756 293.239447 
L 136.056806 293.929874 
L 136.056806 256.049694 
L 136.221857 281.446209 
L 136.386908 164.241572 
L 136.551958 176.389354 
L 136.882059 291.401419 
L 137.04711 291.755963 
L 137.04711 292.800933 
L 137.212161 291.559098 
L 137.377211 146.990228 
L 137.542262 291.074866 
L 137.707312 286.50312 
L 137.872363 292.409069 
L 138.037414 292.912894 
L 138.037414 292.315768 
L 138.202464 243.099524 
L 138.532566 291.690652 
L 138.697616 278.162016 
L 138.862667 244.862911 
L 139.192768 289.115546 
L 139.192768 281.166306 
L 139.357819 260.60278 
L 139.522869 289.255497 
L 139.68792 289.955254 
L 139.85297 284.870353 
L 140.018021 292.735622 
L 140.183072 290.925584 
L 140.348122 285.840683 
L 140.513173 226.137413 
L 140.678223 293.267438 
L 140.843274 292.996865 
L 141.008325 294.004515 
L 141.173375 289.703342 
L 141.338426 261.563779 
L 141.503476 294.433699 
L 141.668527 280.615831 
L 141.998628 293.211457 
L 142.163679 287.193547 
L 142.328729 212.263564 
L 142.49378 284.711742 
L 142.658831 253.120044 
L 142.823881 289.059565 
L 142.988932 165.892998 
L 143.153983 290.710992 
L 143.319033 290.253817 
L 143.484084 289.003585 
L 143.649134 292.073186 
L 143.814185 289.55406 
L 143.979236 291.690652 
L 144.309337 251.72053 
L 144.474387 285.178246 
L 144.804489 294.377719 
L 144.969539 292.754283 
L 145.13459 283.396199 
L 145.29964 291.923904 
L 145.464691 284.217247 
L 145.629742 289.936594 
L 145.794792 286.157906 
L 145.959843 271.854873 
L 146.124893 294.275088 
L 146.289944 236.671089 
L 146.454995 293.099496 
L 146.620045 290.860274 
L 146.785096 293.556671 
L 146.950147 261.871672 
L 147.115197 288.070575 
L 147.280248 292.558351 
L 147.445298 285.364848 
L 147.610349 286.279198 
L 147.7754 292.800933 
L 147.94045 286.48446 
L 148.105501 263.009944 
L 148.270551 206.152353 
L 148.435602 286.53111 
L 148.600653 198.744258 
L 148.765703 280.746452 
L 148.930754 282.957684 
L 149.425906 292.4936 
L 149.590956 293.090166 
L 149.756007 275.204376 
L 149.921057 291.830603 
L 150.086108 287.202877 
L 150.251159 278.5912 
L 150.58126 289.796643 
L 150.74631 292.147826 
L 151.241462 268.216136 
L 151.406513 292.278448 
L 151.571564 207.92507 
L 151.736614 290.748312 
L 151.901665 292.595671 
L 152.066715 283.060315 
L 152.231766 294.069826 
L 152.561867 293.575331 
L 152.726918 281.763432 
L 152.891968 279.001724 
L 153.22207 290.431089 
L 153.38712 278.040725 
L 153.552171 253.623869 
L 153.717221 284.53447 
L 153.882272 293.080836 
L 154.047323 289.320808 
L 154.212373 289.5354 
L 154.377424 288.677032 
L 154.707525 291.037545 
L 154.872576 278.647181 
L 155.037626 252.093734 
L 155.202677 290.850943 
L 155.367728 266.891263 
L 155.532778 284.049305 
L 155.697829 271.463009 
L 155.862879 293.52868 
L 156.02793 185.392894 
L 156.358031 292.735622 
L 156.523082 289.180857 
L 156.688132 288.443779 
L 156.853183 282.976344 
L 157.018234 287.883974 
L 157.183284 262.707649 
L 157.348335 184.599836 
L 157.513385 293.52868 
L 157.678436 291.448069 
L 157.843487 53.568 
L 158.008537 292.586341 
L 158.338638 293.911214 
L 158.503689 286.820343 
L 158.66874 183.088361 
L 158.998841 291.326778 
L 159.163891 291.886584 
L 159.328942 286.755032 
L 159.493993 289.815303 
L 159.824094 291.429409 
L 160.154195 282.481849 
L 160.319246 288.079906 
L 160.649347 283.657441 
L 160.814398 290.832283 
L 161.144499 260.369527 
L 161.309549 207.197323 
L 161.4746 252.896122 
L 161.639651 167.880308 
L 161.804701 288.686362 
L 161.969752 287.930624 
L 162.134802 294.097816 
L 162.299853 288.658371 
L 162.629954 292.53969 
L 162.795005 292.586341 
L 162.960055 292.259788 
L 163.125106 183.704147 
L 163.290157 200.451665 
L 163.455207 289.675352 
L 163.785308 286.363168 
L 164.11541 293.006195 
L 164.28046 289.311478 
L 164.610562 293.48203 
L 164.775612 293.603321 
L 165.105713 285.775372 
L 165.270764 293.45404 
L 165.435815 291.616011 
L 165.600865 282.51917 
L 165.765916 293.957865 
L 165.930966 287.734692 
L 166.426118 291.653331 
L 166.591169 290.244487 
L 166.756219 283.284237 
L 166.92127 295.329388 
L 167.251371 157.953089 
L 167.416422 284.823703 
L 167.581472 279.841433 
L 167.911574 284.151936 
L 168.241675 245.385397 
L 168.406726 293.360739 
L 168.571776 287.827993 
L 168.736827 187.585466 
L 168.901877 282.453859 
L 169.231979 291.168167 
L 169.397029 289.871284 
L 169.56208 292.399739 
L 169.892181 284.963654 
L 170.057232 288.811572 
L 170.387333 195.91724 
L 170.717434 292.735622 
L 170.882485 289.376789 
L 171.047535 151.869867 
L 171.212586 288.359808 
L 171.377636 284.338538 
L 171.707738 293.071506 
L 171.872788 287.622731 
L 172.037839 289.955254 
L 172.202889 289.47942 
L 172.698041 292.847583 
L 172.863092 270.6233 
L 173.028143 284.55313 
L 173.358244 293.566001 
L 173.523294 290.179177 
L 173.688345 291.224147 
L 174.018446 292.5117 
L 174.183497 187.594796 
L 174.348547 291.345438 
L 174.513598 288.033255 
L 174.843699 292.754283 
L 175.00875 183.816108 
L 175.1738 271.55631 
L 175.503902 293.799253 
L 175.668952 170.27441 
L 175.834003 276.174706 
L 176.164104 287.967944 
L 176.329155 284.49715 
L 176.494205 293.566001 
L 176.659256 293.071506 
L 177.154408 284.357198 
L 177.319458 285.999295 
L 177.64956 162.860718 
L 177.81461 289.880614 
L 177.979661 288.621051 
L 178.144711 291.644001 
L 178.474813 287.604071 
L 178.639863 282.127306 
L 178.804914 253.054734 
L 178.969964 245.842571 
L 179.300066 241.70001 
L 179.465116 154.547604 
L 179.630167 275.269687 
L 179.795217 152.08446 
L 180.125319 288.369138 
L 180.290369 288.798323 
L 180.62047 292.381079 
L 180.950572 292.492947 
L 181.115622 291.373429 
L 181.280673 283.52682 
L 181.445724 293.425116 
L 181.775825 266.816622 
L 181.940875 286.689722 
L 182.105926 286.372498 
L 182.270977 290.431089 
L 182.601078 285.122266 
L 182.766128 275.708201 
L 182.931179 288.369138 
L 183.26128 292.026535 
L 183.426331 288.47177 
L 183.756432 288.761376 
L 184.086533 263.933623 
L 184.416634 271.276407 
L 184.581685 292.595671 
L 184.746736 291.755963 
L 185.241888 267.376428 
L 185.406938 165.622426 
L 185.571989 267.964224 
L 185.737039 291.793283 
L 185.90209 245.189465 
L 186.232191 289.460759 
L 186.397242 109.912436 
L 186.562292 256.031034 
L 186.727343 286.939955 
L 186.892394 291.681322 
L 187.222495 130.447972 
L 187.387545 288.611721 
L 187.552596 282.929694 
L 187.717647 232.845751 
L 188.047748 288.014595 
L 188.212798 291.364099 
L 188.5429 288.4811 
L 188.873001 179.785508 
L 189.203102 288.816983 
L 189.368153 246.579649 
L 189.533203 235.063514 
L 189.863305 244.390809 
L 190.028355 290.692332 
L 190.358456 268.682641 
L 190.688558 292.884904 
L 190.853608 258.120975 
L 191.018659 286.083266 
L 191.513811 240.617719 
L 191.678861 177.163751 
L 191.843912 292.670312 
L 192.008962 287.296178 
L 192.339064 147.14884 
L 192.504114 285.784703 
L 192.669165 232.528528 
L 192.834215 273.077115 
L 193.164317 294.984175 
L 193.329367 265.398448 
L 193.494418 288.331818 
L 193.659469 266.760641 
L 193.98957 291.867924 
L 194.15462 267.842932 
L 194.319671 264.008264 
L 194.484722 289.395449 
L 194.814823 293.108826 
L 194.979873 192.772998 
L 195.309975 289.572721 
L 195.640076 237.865341 
L 195.970177 292.446389 
L 196.135228 285.803363 
L 196.465329 287.034935 
L 196.630379 279.113686 
L 196.79543 164.08296 
L 197.125531 292.987535 
L 197.290582 293.575331 
L 197.455632 272.825202 
L 197.620683 293.398059 
L 197.950784 240.897622 
L 198.115835 273.254387 
L 198.280886 271.677601 
L 198.610987 252.998753 
L 199.271189 291.606681 
L 199.43624 151.595563 
L 199.60129 138.18262 
L 199.931392 263.784342 
L 200.096442 244.402938 
L 200.261493 290.347118 
L 200.756645 285.803363 
L 200.921695 274.066105 
L 201.086746 279.59885 
L 201.416847 244.452387 
L 201.581898 290.048555 
L 201.746948 286.073935 
L 202.077049 97.223509 
L 202.2421 255.965723 
L 202.407151 244.393608 
L 202.737252 288.714352 
L 202.902303 294.191117 
L 203.067353 248.119114 
L 203.397454 256.133665 
L 203.562505 289.339468 
L 203.727556 291.942564 
L 204.057657 190.97229 
L 204.222707 292.231797 
L 204.387758 259.371207 
L 204.717859 233.209624 
L 204.88291 284.739732 
L 205.213011 283.078975 
L 205.543112 255.993713 
L 205.708163 151.972498 
L 206.038264 294.704272 
L 206.203315 156.609555 
L 206.533416 275.027104 
L 206.698467 277.59288 
L 206.863517 287.967944 
L 207.193618 166.256872 
L 207.358669 286.064605 
L 207.52372 220.530027 
L 207.853821 286.325848 
L 208.018871 292.250457 
L 208.183922 145.665355 
L 208.514023 109.753824 
L 208.679074 288.844973 
L 208.844124 211.339885 
L 209.174226 235.224925 
L 209.339276 286.997615 
L 209.669377 279.58019 
L 209.834428 293.146146 
L 209.999479 294.918864 
L 210.32958 291.839933 
L 210.49463 292.52103 
L 210.824732 293.155477 
L 210.989782 278.871103 
L 211.154833 292.642321 
L 211.484934 289.50741 
L 211.649985 291.373429 
L 211.815035 275.167056 
L 212.145137 173.730277 
L 212.310187 276.622551 
L 212.640288 226.76253 
L 212.805339 289.619371 
L 212.97039 292.800933 
L 213.300491 285.066285 
L 213.465541 277.947424 
L 213.630592 292.343758 
L 213.960693 111.33994 
L 214.125744 294.610971 
L 214.455845 290.104536 
L 214.620896 290.291138 
L 214.785946 294.284418 
L 215.116048 275.810832 
L 215.281098 284.889014 
L 215.446149 277.462259 
L 215.77625 229.664189 
L 215.941301 284.49715 
L 216.271402 129.822856 
L 216.436452 293.995185 
L 216.601503 186.139302 
L 216.931604 273.702231 
L 217.096655 285.56078 
L 217.426756 288.928944 
L 217.591807 285.150256 
L 217.921908 293.677962 
L 218.086958 198.585647 
L 218.252009 292.875574 
L 218.58211 292.959545 
L 218.747161 292.101176 
L 219.077262 291.914574 
L 219.242313 292.884904 
L 219.572414 289.386119 
L 219.737465 290.832283 
L 219.902515 142.483793 
L 220.232616 290.804293 
L 220.397667 274.299357 
L 220.727768 291.561243 
L 220.892819 290.169847 
L 221.22292 285.076922 
L 221.387971 292.5117 
L 221.553021 288.947604 
L 221.883122 209.977691 
L 222.048173 280.933054 
L 222.378274 240.197865 
L 222.543325 287.697372 
L 222.873426 151.608625 
L 223.038477 293.444709 
L 223.368578 265.846292 
L 223.533629 291.616011 
L 223.86373 289.666022 
L 224.02878 285.299538 
L 224.193831 274.383328 
L 224.523932 262.833605 
L 224.688983 291.578691 
L 225.019084 170.856608 
L 225.184135 288.695692 
L 225.514236 183.03238 
L 225.679286 268.076185 
L 226.009388 293.566001 
L 226.174438 213.149923 
L 226.504539 255.209985 
L 226.66959 291.410749 
L 226.999691 292.707632 
L 227.164742 282.733762 
L 227.659894 289.218177 
L 227.989995 218.150853 
L 228.155046 266.480739 
L 228.485147 289.55406 
L 228.650197 287.967944 
L 228.815248 160.714796 
L 229.145349 281.604821 
L 229.3104 203.008111 
L 229.640501 291.065536 
L 229.805552 241.858621 
L 230.135653 265.808972 
L 230.300703 157.710506 
L 230.795855 287.128236 
L 231.125956 222.675949 
L 231.456058 289.861953 
L 231.621108 257.001363 
L 231.95121 290.253817 
L 232.11626 291.018885 
L 232.446361 284.665091 
L 232.611412 294.191117 
L 232.941513 291.112186 
L 233.106564 208.186313 
L 233.436665 286.400489 
L 233.601716 290.52439 
L 233.766766 242.166514 
L 234.261918 271.836212 
L 234.592019 292.623661 
L 234.75707 284.189257 
L 235.087171 278.54455 
L 235.252222 291.177497 
L 235.582323 290.048555 
L 235.747373 269.121155 
L 236.077475 291.625341 
L 236.242525 232.547188 
L 236.572627 292.651652 
L 236.902728 223.692929 
L 237.067778 290.664342 
L 237.39788 290.673672 
L 237.56293 292.035865 
L 237.893031 283.704092 
L 238.058082 291.242807 
L 238.388183 288.695692 
L 238.553234 292.614331 
L 238.883335 284.57179 
L 239.048386 160.985369 
L 239.378487 287.417469 
L 239.543537 294.293748 
L 239.873639 288.751672 
L 240.038689 291.923904 
L 240.36879 274.150076 
L 240.698892 286.419149 
L 240.863942 280.149326 
L 241.194044 223.375706 
L 241.359094 293.45404 
L 241.689195 252.336317 
L 241.854246 282.687111 
L 242.349398 292.157157 
L 242.679499 292.437059 
L 243.174651 282.276587 
L 243.339701 244.825591 
L 243.669803 288.47177 
L 243.834853 291.233477 
L 244.164954 188.39905 
L 244.495056 282.425869 
L 244.660106 294.135136 
L 244.990208 283.246917 
L 245.155258 293.230117 
L 245.815461 290.580371 
L 245.980511 228.376636 
L 246.310612 182.397934 
L 246.475663 288.956934 
L 246.805764 244.965543 
L 247.135865 290.51506 
L 247.300916 267.180496 
L 247.631017 290.628514 
L 247.796068 288.434449 
L 248.126169 289.348798 
L 248.29122 292.297108 
L 248.621321 278.628521 
L 248.951422 291.401419 
L 249.116473 203.745188 
L 249.611625 227.107743 
L 249.941726 283.209597 
L 250.106776 280.895733 
L 250.436878 227.238364 
L 250.766979 281.073005 
L 250.932029 124.625994 
L 251.262131 287.5201 
L 251.757282 266.032894 
L 252.087384 288.322488 
L 252.252434 175.521655 
L 252.582535 295.198767 
L 252.747586 286.671061 
L 253.077687 290.300468 
L 253.407789 282.127306 
L 253.572839 263.765681 
L 253.90294 268.766612 
L 254.067991 228.572568 
L 254.398092 291.709312 
L 254.728193 187.202932 
L 254.893244 288.928944 
L 255.223345 292.493506 
L 255.553446 293.099496 
L 255.718497 290.48707 
L 256.048598 264.773331 
L 256.378699 290.683002 
L 256.708801 157.216011 
L 256.873851 283.778732 
L 257.203952 281.138316 
L 257.534054 176.249402 
L 257.864155 290.766973 
L 258.029206 289.54473 
L 258.359307 221.612318 
L 258.689408 291.401419 
L 259.019509 209.716448 
L 259.34961 231.343606 
L 259.514661 291.858594 
L 259.844762 237.464147 
L 260.174863 292.287778 
L 260.339914 121.854956 
L 260.670015 289.889944 
L 261.000116 292.847583 
L 261.495268 291.625341 
L 261.82537 270.725931 
L 261.99042 289.843293 
L 262.320521 182.836448 
L 262.650623 286.176566 
L 262.815673 174.672616 
L 263.145774 173.151811 
L 263.475876 290.655011 
L 263.640926 285.850013 
L 263.971027 292.101176 
L 264.301129 286.57776 
L 264.63123 288.47177 
L 264.79628 219.942231 
L 265.456483 280.447889 
L 265.621533 240.440447 
L 265.951635 292.996865 
L 266.281736 216.658038 
L 266.446787 290.766973 
L 266.776888 252.075074 
L 267.27204 155.984439 
L 267.602141 288.733161 
L 267.932242 289.236837 
L 268.097293 287.221537 
L 268.427394 222.675949 
L 268.757495 289.647361 
L 268.922546 289.376789 
L 269.252647 267.721641 
L 269.582748 286.409819 
L 269.747799 256.422898 
L 270.0779 265.566389 
L 270.408001 289.964585 
L 270.738102 290.039225 
L 270.903153 292.185147 
L 271.233254 288.145216 
L 271.563355 280.018705 
L 271.728406 284.56246 
L 272.058507 232.267285 
L 272.388608 289.48875 
L 272.553659 293.967195 
L 272.88376 293.593991 
L 273.213861 290.169847 
L 273.378912 286.945926 
L 273.709013 291.205487 
L 274.039114 290.328458 
L 274.204165 293.724612 
L 274.534266 278.367278 
L 274.864368 243.789951 
L 275.029418 284.385188 
L 275.359519 257.869062 
L 275.689621 283.694762 
L 276.019722 168.216192 
L 276.349823 282.136636 
L 276.514874 289.908604 
L 276.844975 286.689722 
L 277.175076 229.365626 
L 277.505177 290.748312 
L 277.670228 194.321794 
L 278.33043 287.062925 
L 278.660531 255.228646 
L 278.825582 287.370818 
L 279.155683 286.615081 
L 279.485785 289.983245 
L 279.815886 173.506355 
L 279.980936 264.540079 
L 280.311038 280.195976 
L 280.641139 284.609111 
L 280.806189 284.301218 
L 281.136291 126.24943 
L 281.466392 284.347868 
L 281.631442 292.194477 
L 281.961544 285.318198 
L 282.291645 170.865938 
L 282.786797 291.000225 
L 283.446999 289.992575 
L 283.7771 290.46841 
L 283.942151 290.123196 
L 284.272252 291.074866 
L 284.602353 287.576081 
L 284.932455 208.998031 
L 285.097505 290.869604 
L 285.427606 285.308868 
L 285.757708 290.001905 
L 286.087809 271.490999 
L 286.582961 290.664342 
L 286.913062 282.407209 
L 287.243163 292.642321 
L 287.408214 283.078975 
L 287.738315 251.151395 
L 288.068416 293.164807 
L 288.398517 177.369014 
L 288.893669 258.466188 
L 289.22377 292.48371 
L 289.553872 290.608361 
L 289.883973 289.908604 
L 290.049023 290.888264 
L 290.379125 243.183495 
L 290.709226 168.710687 
L 291.039327 281.203627 
L 291.369428 288.406459 
L 291.69953 290.897594 
L 291.86458 229.207014 
L 292.194681 288.714352 
L 292.524783 288.919614 
L 292.854884 252.64421 
L 293.019934 179.263023 
L 293.350036 286.391159 
L 293.680137 256.170985 
L 294.010238 262.916643 
L 294.175289 287.594741 
L 294.50539 293.649972 
L 294.835491 164.372193 
L 295.495693 290.813623 
L 295.825795 172.694637 
L 295.990845 294.592311 
L 296.320947 290.888264 
L 296.651048 123.972887 
L 296.981149 289.815303 
L 297.1462 283.890694 
L 297.476301 290.141856 
L 297.806402 263.317837 
L 298.136503 248.856192 
L 298.466604 278.273977 
L 298.796706 218.897261 
L 299.126807 289.096886 
L 299.456908 293.52868 
L 299.787009 289.096886 
L 299.95206 292.922224 
L 300.282161 247.633949 
L 300.612262 181.380954 
L 300.942364 295.320058 
L 301.272465 286.988285 
L 301.437515 252.70952 
L 301.767617 291.48539 
L 302.097718 292.968875 
L 302.427819 114.237867 
L 302.75792 253.138705 
L 303.088021 291.877254 
L 303.418123 189.162252 
L 303.748224 286.615081 
L 304.078325 161.657136 
L 304.408426 285.756712 
L 304.738528 291.336108 
L 305.068629 93.472811 
L 305.39873 258.400877 
L 305.728831 286.624411 
L 306.058932 274.60725 
L 306.389034 182.341953 
L 306.719135 283.676101 
L 307.049236 281.875393 
L 307.214287 290.029895 
L 307.709438 264.829312 
L 308.03954 289.47942 
L 308.20459 214.269534 
L 308.534692 287.072255 
L 308.864793 293.136816 
L 309.194894 159.184661 
L 309.690046 282.883043 
L 310.020147 293.659302 
L 310.350248 266.760641 
L 310.680349 282.929694 
L 311.010451 133.573554 
L 311.340552 290.123196 
L 311.670653 234.469187 
L 312.000754 286.941634 
L 312.165805 276.249347 
L 312.495906 294.116476 
L 312.826007 289.983245 
L 313.156109 280.625161 
L 313.48621 288.55574 
L 313.816311 292.782273 
L 314.146412 263.243196 
L 314.311463 208.671478 
L 314.641564 291.382759 
L 314.971665 292.054526 
L 315.301766 270.912533 
L 315.631868 291.186827 
L 315.961969 98.623023 
L 316.29207 268.58934 
L 316.622171 286.251207 
L 316.952272 278.171346 
L 317.117323 176.081461 
L 317.447424 289.833963 
L 317.777526 177.173082 
L 318.107627 291.4574 
L 318.437728 210.070992 
L 318.767829 88.835754 
L 319.09793 250.358337 
L 319.428032 264.5774 
L 319.593082 264.409458 
L 319.923183 290.916254 
L 320.253285 291.270798 
L 320.583386 293.360739 
L 320.913487 288.425119 
L 321.243588 280.074685 
L 321.57369 284.338538 
L 321.903791 285.794033 
L 322.068841 291.690652 
L 322.398943 285.999295 
L 322.729044 247.279406 
L 323.059145 291.989215 
L 323.389246 181.651527 
L 323.719347 281.100995 
L 324.049449 266.63002 
L 324.37955 289.712672 
L 324.5446 292.50237 
L 324.874702 289.815303 
L 325.204803 254.090374 
L 325.534904 198.455025 
L 325.865005 261.815692 
L 326.195107 292.334428 
L 326.525208 292.577011 
L 326.855309 288.266507 
L 327.18541 291.46673 
L 327.515511 288.919614 
L 327.845613 201.384675 
L 328.010663 292.558351 
L 328.340764 231.222314 
L 328.670866 273.860843 
L 329.000967 141.812026 
L 329.331068 290.104536 
L 329.661169 289.703342 
L 329.991271 279.234977 
L 330.321372 280.811763 
L 330.651473 264.64271 
L 330.816524 271.425688 
L 331.146625 291.270798 
L 331.476726 282.024675 
L 331.806827 146.738316 
L 332.136928 134.068049 
L 332.46703 289.050235 
L 332.797131 288.126556 
L 333.127232 267.852262 
L 333.457333 279.841433 
L 333.787434 287.324168 
L 334.117536 238.872991 
L 334.447637 289.955254 
L 334.612688 276.156046 
L 334.942789 283.918684 
L 335.602991 291.644001 
L 335.933092 293.043515 
L 336.263194 286.167236 
L 336.593295 288.882294 
L 336.923396 138.042669 
L 337.253497 292.334428 
L 337.583598 286.475129 
L 337.9137 292.371749 
L 338.243801 289.852623 
L 338.573902 292.017205 
L 338.904003 272.461329 
L 339.234105 151.552644 
L 339.564206 284.627771 
L 339.894307 287.716032 
L 340.224408 292.894234 
L 340.554509 190.132582 
L 341.049661 290.636351 
L 341.544813 288.928944 
L 341.874914 292.353089 
L 342.205015 289.899274 
L 342.370066 226.268035 
L 342.700167 158.046389 
L 343.195319 289.768653 
L 343.36037 290.748312 
L 343.855522 268.188146 
L 344.020572 291.569361 
L 344.350673 240.981593 
L 344.680775 241.373456 
L 345.175926 292.744952 
L 345.340977 293.332748 
L 346.001179 289.908604 
L 346.331281 288.163876 
L 346.826432 244.349756 
L 347.156534 288.219857 
L 347.486635 173.804918 
L 347.816736 182.687167 
L 348.146837 285.215567 
L 348.476939 292.222467 
L 348.80704 293.314088 
L 349.137141 292.819593 
L 349.467242 290.319128 
L 349.797343 289.47942 
L 350.127445 287.883974 
L 350.457546 236.577788 
L 350.787647 293.062176 
L 351.117748 282.099316 
L 351.44785 266.64868 
L 352.108052 287.594741 
L 352.438153 293.202127 
L 352.768254 152.504314 
L 353.098356 293.062176 
L 353.428457 254.66884 
L 353.758558 292.437059 
L 354.088659 270.865883 
L 354.41876 289.330138 
L 354.748862 279.346938 
L 355.078963 258.064994 
L 355.409064 292.334428 
L 355.904216 290.421759 
L 356.234317 277.52757 
L 356.564418 148.781606 
L 357.389671 293.108826 
L 357.719773 290.934914 
L 358.049874 214.082932 
L 358.545026 290.860274 
L 358.875127 289.386119 
L 359.205228 291.644001 
L 359.535329 290.832283 
L 360.030481 261.087944 
L 360.360582 270.511339 
L 360.690684 251.002113 
L 361.020785 240.73901 
L 361.350886 222.890541 
L 361.680987 291.671992 
L 362.011088 285.262217 
L 362.34119 291.699982 
L 362.671291 286.447139 
L 363.166443 291.951894 
L 363.496544 259.511159 
L 363.826645 170.203502 
L 364.156746 277.406278 
L 364.486848 291.877254 
L 364.816949 290.55238 
L 365.14705 286.727042 
L 365.477151 153.372012 
L 365.807252 288.863633 
L 366.137354 285.374178 
L 366.467455 241.401447 
L 366.797556 293.920544 
L 367.127657 178.899149 
L 367.457758 128.768555 
L 367.95291 287.137566 
L 368.283012 292.222467 
L 368.613113 291.849263 
L 368.943214 288.639711 
L 369.273315 257.458538 
L 369.603416 289.54473 
L 369.933518 109.828465 
L 370.263619 281.59549 
L 370.59372 272.004154 
L 371.088872 204.062412 
L 371.749074 285.122266 
L 372.079175 262.705083 
L 372.409277 285.775372 
L 372.739378 262.394158 
L 373.069479 289.48875 
L 373.39958 271.61229 
L 373.894732 262.925973 
L 374.224833 273.487639 
L 374.554935 289.52607 
L 374.885036 124.784605 
L 375.215137 232.351256 
L 375.545238 283.293568 
L 375.875339 288.583731 
L 376.370491 266.844612 
L 376.700593 292.138496 
L 377.030694 245.432047 
L 377.360795 289.106216 
L 377.690896 289.339468 
L 378.351099 286.53111 
L 378.6812 260.714741 
L 379.176352 168.580065 
L 379.506453 291.46673 
L 379.836554 288.107896 
L 380.166655 292.688972 
L 380.496756 290.692332 
L 380.826858 261.955643 
L 381.156959 156.553574 
L 381.652111 289.339468 
L 381.982212 288.798323 
L 382.312313 285.53279 
L 382.642414 284.133276 
L 382.972516 288.583731 
L 383.302617 235.616789 
L 383.797769 293.034185 
L 384.12787 274.859163 
L 384.457971 292.362419 
L 384.788072 233.582828 
L 385.118173 254.986063 
L 385.448275 258.260926 
L 385.778376 271.033824 
L 386.273528 274.877823 
L 386.603629 284.301218 
L 386.93373 283.56414 
L 387.263831 269.429048 
L 387.593933 283.601461 
L 387.924034 251.142065 
L 388.254135 181.01708 
L 388.749287 266.163515 
L 389.079388 270.175456 
L 389.409489 260.098955 
L 389.739591 142.278531 
L 390.069692 291.49472 
L 390.399793 292.586341 
L 390.894945 290.878934 
L 391.225046 275.390978 
L 391.555147 287.576081 
L 391.885248 284.058635 
L 392.21535 132.905519 
L 392.545451 292.091846 
L 393.040603 258.195615 
L 393.370704 292.894234 
L 393.700805 138.667785 
L 394.030906 274.290027 
L 394.361008 278.087375 
L 394.856159 158.876768 
L 395.186261 289.106216 
L 395.516362 273.832852 
L 395.846463 291.569361 
L 396.176564 286.083266 
L 396.671716 264.353477 
L 397.001817 108.559572 
L 397.331918 289.628701 
L 397.66202 289.973915 
L 398.157172 291.168167 
L 398.487273 290.785633 
L 398.487273 290.785633 
" clip-path="url(#p59b2e5bf7d)" style="fill: none; stroke: #0000ff; stroke-opacity: 0.6; stroke-linecap: square"/>
   </g>
   <g id="patch_3">
    <path d="M 57.6 307.584 
L 57.6 41.472 
" style="fill: none; stroke: #000000; stroke-width: 0.8; stroke-linejoin: miter; stroke-linecap: square"/>
   </g>
   <g id="patch_4">
    <path d="M 414.72 307.584 
L 414.72 41.472 
" style="fill: none; stroke: #000000; stroke-width: 0.8; stroke-linejoin: miter; stroke-linecap: square"/>
   </g>
   <g id="patch_5">
    <path d="M 57.6 307.584 
L 414.72 307.584 
" style="fill: none; stroke: #000000; stroke-width: 0.8; stroke-linejoin: miter; stroke-linecap: square"/>
   </g>
   <g id="patch_6">
    <path d="M 57.6 41.472 
L 414.72 41.472 
" style="fill: none; stroke: #000000; stroke-width: 0.8; stroke-linejoin: miter; stroke-linecap: square"/>
   </g>
  </g>
 </g>
 <defs>
  <clipPath id="p59b2e5bf7d">
   <rect x="57.6" y="41.472" width="357.12" height="266.112"/>
  </clipPath>
 </defs>
</svg>
