<?xml version="1.0" encoding="utf-8" standalone="no"?>
<!DOCTYPE svg PUBLIC "-//W3C//DTD SVG 1.1//EN"
  "http://www.w3.org/Graphics/SVG/1.1/DTD/svg11.dtd">
<svg xmlns:xlink="http://www.w3.org/1999/xlink" width="460.8pt" height="345.6pt" viewBox="0 0 460.8 345.6" xmlns="http://www.w3.org/2000/svg" version="1.1">
 <metadata>
  <rdf:RDF xmlns:dc="http://purl.org/dc/elements/1.1/" xmlns:cc="http://creativecommons.org/ns#" xmlns:rdf="http://www.w3.org/1999/02/22-rdf-syntax-ns#">
   <cc:Work>
    <dc:type rdf:resource="http://purl.org/dc/dcmitype/StillImage"/>
    <dc:date>2022-10-06T10:35:18.304654</dc:date>
    <dc:format>image/svg+xml</dc:format>
    <dc:creator>
     <cc:Agent>
      <dc:title>Matplotlib v3.6.0, https://matplotlib.org/</dc:title>
     </cc:Agent>
    </dc:creator>
   </cc:Work>
  </rdf:RDF>
 </metadata>
 <defs>
  <style type="text/css">*{stroke-linejoin: round; stroke-linecap: butt}</style>
 </defs>
 <g id="figure_1">
  <g id="patch_1">
   <path d="M 0 345.6 
L 460.8 345.6 
L 460.8 0 
L 0 0 
z
" style="fill: #ffffff"/>
  </g>
  <g id="axes_1">
   <g id="patch_2">
    <path d="M 57.6 307.584 
L 414.72 307.584 
L 414.72 41.472 
L 57.6 41.472 
z
" style="fill: #ffffff"/>
   </g>
   <g id="matplotlib.axis_1">
    <g id="xtick_1">
     <g id="line2d_1">
      <defs>
       <path id="ma4b59d5ab6" d="M 0 0 
L 0 3.5 
" style="stroke: #000000; stroke-width: 0.8"/>
      </defs>
      <g>
       <use xlink:href="#ma4b59d5ab6" x="73.832727" y="307.584" style="stroke: #000000; stroke-width: 0.8"/>
      </g>
     </g>
     <g id="text_1">
      <!-- 0 -->
      <g transform="translate(70.651477 322.182437) scale(0.1 -0.1)">
       <defs>
        <path id="DejaVuSans-30" d="M 2034 4250 
Q 1547 4250 1301 3770 
Q 1056 3291 1056 2328 
Q 1056 1369 1301 889 
Q 1547 409 2034 409 
Q 2525 409 2770 889 
Q 3016 1369 3016 2328 
Q 3016 3291 2770 3770 
Q 2525 4250 2034 4250 
z
M 2034 4750 
Q 2819 4750 3233 4129 
Q 3647 3509 3647 2328 
Q 3647 1150 3233 529 
Q 2819 -91 2034 -91 
Q 1250 -91 836 529 
Q 422 1150 422 2328 
Q 422 3509 836 4129 
Q 1250 4750 2034 4750 
z
" transform="scale(0.015625)"/>
       </defs>
       <use xlink:href="#DejaVuSans-30"/>
      </g>
     </g>
    </g>
    <g id="xtick_2">
     <g id="line2d_2">
      <g>
       <use xlink:href="#ma4b59d5ab6" x="115.095379" y="307.584" style="stroke: #000000; stroke-width: 0.8"/>
      </g>
     </g>
     <g id="text_2">
      <!-- 250 -->
      <g transform="translate(105.551629 322.182437) scale(0.1 -0.1)">
       <defs>
        <path id="DejaVuSans-32" d="M 1228 531 
L 3431 531 
L 3431 0 
L 469 0 
L 469 531 
Q 828 903 1448 1529 
Q 2069 2156 2228 2338 
Q 2531 2678 2651 2914 
Q 2772 3150 2772 3378 
Q 2772 3750 2511 3984 
Q 2250 4219 1831 4219 
Q 1534 4219 1204 4116 
Q 875 4013 500 3803 
L 500 4441 
Q 881 4594 1212 4672 
Q 1544 4750 1819 4750 
Q 2544 4750 2975 4387 
Q 3406 4025 3406 3419 
Q 3406 3131 3298 2873 
Q 3191 2616 2906 2266 
Q 2828 2175 2409 1742 
Q 1991 1309 1228 531 
z
" transform="scale(0.015625)"/>
        <path id="DejaVuSans-35" d="M 691 4666 
L 3169 4666 
L 3169 4134 
L 1269 4134 
L 1269 2991 
Q 1406 3038 1543 3061 
Q 1681 3084 1819 3084 
Q 2600 3084 3056 2656 
Q 3513 2228 3513 1497 
Q 3513 744 3044 326 
Q 2575 -91 1722 -91 
Q 1428 -91 1123 -41 
Q 819 9 494 109 
L 494 744 
Q 775 591 1075 516 
Q 1375 441 1709 441 
Q 2250 441 2565 725 
Q 2881 1009 2881 1497 
Q 2881 1984 2565 2268 
Q 2250 2553 1709 2553 
Q 1456 2553 1204 2497 
Q 953 2441 691 2322 
L 691 4666 
z
" transform="scale(0.015625)"/>
       </defs>
       <use xlink:href="#DejaVuSans-32"/>
       <use xlink:href="#DejaVuSans-35" x="63.623047"/>
       <use xlink:href="#DejaVuSans-30" x="127.246094"/>
      </g>
     </g>
    </g>
    <g id="xtick_3">
     <g id="line2d_3">
      <g>
       <use xlink:href="#ma4b59d5ab6" x="156.358031" y="307.584" style="stroke: #000000; stroke-width: 0.8"/>
      </g>
     </g>
     <g id="text_3">
      <!-- 500 -->
      <g transform="translate(146.814281 322.182437) scale(0.1 -0.1)">
       <use xlink:href="#DejaVuSans-35"/>
       <use xlink:href="#DejaVuSans-30" x="63.623047"/>
       <use xlink:href="#DejaVuSans-30" x="127.246094"/>
      </g>
     </g>
    </g>
    <g id="xtick_4">
     <g id="line2d_4">
      <g>
       <use xlink:href="#ma4b59d5ab6" x="197.620683" y="307.584" style="stroke: #000000; stroke-width: 0.8"/>
      </g>
     </g>
     <g id="text_4">
      <!-- 750 -->
      <g transform="translate(188.076933 322.182437) scale(0.1 -0.1)">
       <defs>
        <path id="DejaVuSans-37" d="M 525 4666 
L 3525 4666 
L 3525 4397 
L 1831 0 
L 1172 0 
L 2766 4134 
L 525 4134 
L 525 4666 
z
" transform="scale(0.015625)"/>
       </defs>
       <use xlink:href="#DejaVuSans-37"/>
       <use xlink:href="#DejaVuSans-35" x="63.623047"/>
       <use xlink:href="#DejaVuSans-30" x="127.246094"/>
      </g>
     </g>
    </g>
    <g id="xtick_5">
     <g id="line2d_5">
      <g>
       <use xlink:href="#ma4b59d5ab6" x="238.883335" y="307.584" style="stroke: #000000; stroke-width: 0.8"/>
      </g>
     </g>
     <g id="text_5">
      <!-- 1000 -->
      <g transform="translate(226.158335 322.182437) scale(0.1 -0.1)">
       <defs>
        <path id="DejaVuSans-31" d="M 794 531 
L 1825 531 
L 1825 4091 
L 703 3866 
L 703 4441 
L 1819 4666 
L 2450 4666 
L 2450 531 
L 3481 531 
L 3481 0 
L 794 0 
L 794 531 
z
" transform="scale(0.015625)"/>
       </defs>
       <use xlink:href="#DejaVuSans-31"/>
       <use xlink:href="#DejaVuSans-30" x="63.623047"/>
       <use xlink:href="#DejaVuSans-30" x="127.246094"/>
       <use xlink:href="#DejaVuSans-30" x="190.869141"/>
      </g>
     </g>
    </g>
    <g id="xtick_6">
     <g id="line2d_6">
      <g>
       <use xlink:href="#ma4b59d5ab6" x="280.145987" y="307.584" style="stroke: #000000; stroke-width: 0.8"/>
      </g>
     </g>
     <g id="text_6">
      <!-- 1250 -->
      <g transform="translate(267.420987 322.182437) scale(0.1 -0.1)">
       <use xlink:href="#DejaVuSans-31"/>
       <use xlink:href="#DejaVuSans-32" x="63.623047"/>
       <use xlink:href="#DejaVuSans-35" x="127.246094"/>
       <use xlink:href="#DejaVuSans-30" x="190.869141"/>
      </g>
     </g>
    </g>
    <g id="xtick_7">
     <g id="line2d_7">
      <g>
       <use xlink:href="#ma4b59d5ab6" x="321.408639" y="307.584" style="stroke: #000000; stroke-width: 0.8"/>
      </g>
     </g>
     <g id="text_7">
      <!-- 1500 -->
      <g transform="translate(308.683639 322.182437) scale(0.1 -0.1)">
       <use xlink:href="#DejaVuSans-31"/>
       <use xlink:href="#DejaVuSans-35" x="63.623047"/>
       <use xlink:href="#DejaVuSans-30" x="127.246094"/>
       <use xlink:href="#DejaVuSans-30" x="190.869141"/>
      </g>
     </g>
    </g>
    <g id="xtick_8">
     <g id="line2d_8">
      <g>
       <use xlink:href="#ma4b59d5ab6" x="362.671291" y="307.584" style="stroke: #000000; stroke-width: 0.8"/>
      </g>
     </g>
     <g id="text_8">
      <!-- 1750 -->
      <g transform="translate(349.946291 322.182437) scale(0.1 -0.1)">
       <use xlink:href="#DejaVuSans-31"/>
       <use xlink:href="#DejaVuSans-37" x="63.623047"/>
       <use xlink:href="#DejaVuSans-35" x="127.246094"/>
       <use xlink:href="#DejaVuSans-30" x="190.869141"/>
      </g>
     </g>
    </g>
    <g id="xtick_9">
     <g id="line2d_9">
      <g>
       <use xlink:href="#ma4b59d5ab6" x="403.933943" y="307.584" style="stroke: #000000; stroke-width: 0.8"/>
      </g>
     </g>
     <g id="text_9">
      <!-- 2000 -->
      <g transform="translate(391.208943 322.182437) scale(0.1 -0.1)">
       <use xlink:href="#DejaVuSans-32"/>
       <use xlink:href="#DejaVuSans-30" x="63.623047"/>
       <use xlink:href="#DejaVuSans-30" x="127.246094"/>
       <use xlink:href="#DejaVuSans-30" x="190.869141"/>
      </g>
     </g>
    </g>
    <g id="text_10">
     <!-- time -->
     <g transform="translate(224.863906 335.860562) scale(0.1 -0.1)">
      <defs>
       <path id="DejaVuSans-74" d="M 1172 4494 
L 1172 3500 
L 2356 3500 
L 2356 3053 
L 1172 3053 
L 1172 1153 
Q 1172 725 1289 603 
Q 1406 481 1766 481 
L 2356 481 
L 2356 0 
L 1766 0 
Q 1100 0 847 248 
Q 594 497 594 1153 
L 594 3053 
L 172 3053 
L 172 3500 
L 594 3500 
L 594 4494 
L 1172 4494 
z
" transform="scale(0.015625)"/>
       <path id="DejaVuSans-69" d="M 603 3500 
L 1178 3500 
L 1178 0 
L 603 0 
L 603 3500 
z
M 603 4863 
L 1178 4863 
L 1178 4134 
L 603 4134 
L 603 4863 
z
" transform="scale(0.015625)"/>
       <path id="DejaVuSans-6d" d="M 3328 2828 
Q 3544 3216 3844 3400 
Q 4144 3584 4550 3584 
Q 5097 3584 5394 3201 
Q 5691 2819 5691 2113 
L 5691 0 
L 5113 0 
L 5113 2094 
Q 5113 2597 4934 2840 
Q 4756 3084 4391 3084 
Q 3944 3084 3684 2787 
Q 3425 2491 3425 1978 
L 3425 0 
L 2847 0 
L 2847 2094 
Q 2847 2600 2669 2842 
Q 2491 3084 2119 3084 
Q 1678 3084 1418 2786 
Q 1159 2488 1159 1978 
L 1159 0 
L 581 0 
L 581 3500 
L 1159 3500 
L 1159 2956 
Q 1356 3278 1631 3431 
Q 1906 3584 2284 3584 
Q 2666 3584 2933 3390 
Q 3200 3197 3328 2828 
z
" transform="scale(0.015625)"/>
       <path id="DejaVuSans-65" d="M 3597 1894 
L 3597 1613 
L 953 1613 
Q 991 1019 1311 708 
Q 1631 397 2203 397 
Q 2534 397 2845 478 
Q 3156 559 3463 722 
L 3463 178 
Q 3153 47 2828 -22 
Q 2503 -91 2169 -91 
Q 1331 -91 842 396 
Q 353 884 353 1716 
Q 353 2575 817 3079 
Q 1281 3584 2069 3584 
Q 2775 3584 3186 3129 
Q 3597 2675 3597 1894 
z
M 3022 2063 
Q 3016 2534 2758 2815 
Q 2500 3097 2075 3097 
Q 1594 3097 1305 2825 
Q 1016 2553 972 2059 
L 3022 2063 
z
" transform="scale(0.015625)"/>
      </defs>
      <use xlink:href="#DejaVuSans-74"/>
      <use xlink:href="#DejaVuSans-69" x="39.208984"/>
      <use xlink:href="#DejaVuSans-6d" x="66.992188"/>
      <use xlink:href="#DejaVuSans-65" x="164.404297"/>
     </g>
    </g>
   </g>
   <g id="matplotlib.axis_2">
    <g id="ytick_1">
     <g id="line2d_10">
      <defs>
       <path id="m2b1639745e" d="M 0 0 
L -3.5 0 
" style="stroke: #000000; stroke-width: 0.8"/>
      </defs>
      <g>
       <use xlink:href="#m2b1639745e" x="57.6" y="299.261027" style="stroke: #000000; stroke-width: 0.8"/>
      </g>
     </g>
     <g id="text_11">
      <!-- 0 -->
      <g transform="translate(44.2375 303.060246) scale(0.1 -0.1)">
       <use xlink:href="#DejaVuSans-30"/>
      </g>
     </g>
    </g>
    <g id="ytick_2">
     <g id="line2d_11">
      <g>
       <use xlink:href="#m2b1639745e" x="57.6" y="258.690844" style="stroke: #000000; stroke-width: 0.8"/>
      </g>
     </g>
     <g id="text_12">
      <!-- 5000 -->
      <g transform="translate(25.15 262.490063) scale(0.1 -0.1)">
       <use xlink:href="#DejaVuSans-35"/>
       <use xlink:href="#DejaVuSans-30" x="63.623047"/>
       <use xlink:href="#DejaVuSans-30" x="127.246094"/>
       <use xlink:href="#DejaVuSans-30" x="190.869141"/>
      </g>
     </g>
    </g>
    <g id="ytick_3">
     <g id="line2d_12">
      <g>
       <use xlink:href="#m2b1639745e" x="57.6" y="218.120661" style="stroke: #000000; stroke-width: 0.8"/>
      </g>
     </g>
     <g id="text_13">
      <!-- 10000 -->
      <g transform="translate(18.7875 221.91988) scale(0.1 -0.1)">
       <use xlink:href="#DejaVuSans-31"/>
       <use xlink:href="#DejaVuSans-30" x="63.623047"/>
       <use xlink:href="#DejaVuSans-30" x="127.246094"/>
       <use xlink:href="#DejaVuSans-30" x="190.869141"/>
       <use xlink:href="#DejaVuSans-30" x="254.492188"/>
      </g>
     </g>
    </g>
    <g id="ytick_4">
     <g id="line2d_13">
      <g>
       <use xlink:href="#m2b1639745e" x="57.6" y="177.550479" style="stroke: #000000; stroke-width: 0.8"/>
      </g>
     </g>
     <g id="text_14">
      <!-- 15000 -->
      <g transform="translate(18.7875 181.349697) scale(0.1 -0.1)">
       <use xlink:href="#DejaVuSans-31"/>
       <use xlink:href="#DejaVuSans-35" x="63.623047"/>
       <use xlink:href="#DejaVuSans-30" x="127.246094"/>
       <use xlink:href="#DejaVuSans-30" x="190.869141"/>
       <use xlink:href="#DejaVuSans-30" x="254.492188"/>
      </g>
     </g>
    </g>
    <g id="ytick_5">
     <g id="line2d_14">
      <g>
       <use xlink:href="#m2b1639745e" x="57.6" y="136.980296" style="stroke: #000000; stroke-width: 0.8"/>
      </g>
     </g>
     <g id="text_15">
      <!-- 20000 -->
      <g transform="translate(18.7875 140.779515) scale(0.1 -0.1)">
       <use xlink:href="#DejaVuSans-32"/>
       <use xlink:href="#DejaVuSans-30" x="63.623047"/>
       <use xlink:href="#DejaVuSans-30" x="127.246094"/>
       <use xlink:href="#DejaVuSans-30" x="190.869141"/>
       <use xlink:href="#DejaVuSans-30" x="254.492188"/>
      </g>
     </g>
    </g>
    <g id="ytick_6">
     <g id="line2d_15">
      <g>
       <use xlink:href="#m2b1639745e" x="57.6" y="96.410113" style="stroke: #000000; stroke-width: 0.8"/>
      </g>
     </g>
     <g id="text_16">
      <!-- 25000 -->
      <g transform="translate(18.7875 100.209332) scale(0.1 -0.1)">
       <use xlink:href="#DejaVuSans-32"/>
       <use xlink:href="#DejaVuSans-35" x="63.623047"/>
       <use xlink:href="#DejaVuSans-30" x="127.246094"/>
       <use xlink:href="#DejaVuSans-30" x="190.869141"/>
       <use xlink:href="#DejaVuSans-30" x="254.492188"/>
      </g>
     </g>
    </g>
    <g id="ytick_7">
     <g id="line2d_16">
      <g>
       <use xlink:href="#m2b1639745e" x="57.6" y="55.83993" style="stroke: #000000; stroke-width: 0.8"/>
      </g>
     </g>
     <g id="text_17">
      <!-- 30000 -->
      <g transform="translate(18.7875 59.639149) scale(0.1 -0.1)">
       <defs>
        <path id="DejaVuSans-33" d="M 2597 2516 
Q 3050 2419 3304 2112 
Q 3559 1806 3559 1356 
Q 3559 666 3084 287 
Q 2609 -91 1734 -91 
Q 1441 -91 1130 -33 
Q 819 25 488 141 
L 488 750 
Q 750 597 1062 519 
Q 1375 441 1716 441 
Q 2309 441 2620 675 
Q 2931 909 2931 1356 
Q 2931 1769 2642 2001 
Q 2353 2234 1838 2234 
L 1294 2234 
L 1294 2753 
L 1863 2753 
Q 2328 2753 2575 2939 
Q 2822 3125 2822 3475 
Q 2822 3834 2567 4026 
Q 2313 4219 1838 4219 
Q 1578 4219 1281 4162 
Q 984 4106 628 3988 
L 628 4550 
Q 988 4650 1302 4700 
Q 1616 4750 1894 4750 
Q 2613 4750 3031 4423 
Q 3450 4097 3450 3541 
Q 3450 3153 3228 2886 
Q 3006 2619 2597 2516 
z
" transform="scale(0.015625)"/>
       </defs>
       <use xlink:href="#DejaVuSans-33"/>
       <use xlink:href="#DejaVuSans-30" x="63.623047"/>
       <use xlink:href="#DejaVuSans-30" x="127.246094"/>
       <use xlink:href="#DejaVuSans-30" x="190.869141"/>
       <use xlink:href="#DejaVuSans-30" x="254.492188"/>
      </g>
     </g>
    </g>
    <g id="text_18">
     <!-- latency -->
     <g transform="translate(12.707812 192.895187) rotate(-90) scale(0.1 -0.1)">
      <defs>
       <path id="DejaVuSans-6c" d="M 603 4863 
L 1178 4863 
L 1178 0 
L 603 0 
L 603 4863 
z
" transform="scale(0.015625)"/>
       <path id="DejaVuSans-61" d="M 2194 1759 
Q 1497 1759 1228 1600 
Q 959 1441 959 1056 
Q 959 750 1161 570 
Q 1363 391 1709 391 
Q 2188 391 2477 730 
Q 2766 1069 2766 1631 
L 2766 1759 
L 2194 1759 
z
M 3341 1997 
L 3341 0 
L 2766 0 
L 2766 531 
Q 2569 213 2275 61 
Q 1981 -91 1556 -91 
Q 1019 -91 701 211 
Q 384 513 384 1019 
Q 384 1609 779 1909 
Q 1175 2209 1959 2209 
L 2766 2209 
L 2766 2266 
Q 2766 2663 2505 2880 
Q 2244 3097 1772 3097 
Q 1472 3097 1187 3025 
Q 903 2953 641 2809 
L 641 3341 
Q 956 3463 1253 3523 
Q 1550 3584 1831 3584 
Q 2591 3584 2966 3190 
Q 3341 2797 3341 1997 
z
" transform="scale(0.015625)"/>
       <path id="DejaVuSans-6e" d="M 3513 2113 
L 3513 0 
L 2938 0 
L 2938 2094 
Q 2938 2591 2744 2837 
Q 2550 3084 2163 3084 
Q 1697 3084 1428 2787 
Q 1159 2491 1159 1978 
L 1159 0 
L 581 0 
L 581 3500 
L 1159 3500 
L 1159 2956 
Q 1366 3272 1645 3428 
Q 1925 3584 2291 3584 
Q 2894 3584 3203 3211 
Q 3513 2838 3513 2113 
z
" transform="scale(0.015625)"/>
       <path id="DejaVuSans-63" d="M 3122 3366 
L 3122 2828 
Q 2878 2963 2633 3030 
Q 2388 3097 2138 3097 
Q 1578 3097 1268 2742 
Q 959 2388 959 1747 
Q 959 1106 1268 751 
Q 1578 397 2138 397 
Q 2388 397 2633 464 
Q 2878 531 3122 666 
L 3122 134 
Q 2881 22 2623 -34 
Q 2366 -91 2075 -91 
Q 1284 -91 818 406 
Q 353 903 353 1747 
Q 353 2603 823 3093 
Q 1294 3584 2113 3584 
Q 2378 3584 2631 3529 
Q 2884 3475 3122 3366 
z
" transform="scale(0.015625)"/>
       <path id="DejaVuSans-79" d="M 2059 -325 
Q 1816 -950 1584 -1140 
Q 1353 -1331 966 -1331 
L 506 -1331 
L 506 -850 
L 844 -850 
Q 1081 -850 1212 -737 
Q 1344 -625 1503 -206 
L 1606 56 
L 191 3500 
L 800 3500 
L 1894 763 
L 2988 3500 
L 3597 3500 
L 2059 -325 
z
" transform="scale(0.015625)"/>
      </defs>
      <use xlink:href="#DejaVuSans-6c"/>
      <use xlink:href="#DejaVuSans-61" x="27.783203"/>
      <use xlink:href="#DejaVuSans-74" x="89.0625"/>
      <use xlink:href="#DejaVuSans-65" x="128.271484"/>
      <use xlink:href="#DejaVuSans-6e" x="189.794922"/>
      <use xlink:href="#DejaVuSans-63" x="253.173828"/>
      <use xlink:href="#DejaVuSans-79" x="308.154297"/>
     </g>
    </g>
   </g>
   <g id="line2d_17">
    <path d="M 73.832727 291.901596 
L 73.832727 236.612551 
L 73.832727 246.430535 
L 73.997778 172.844337 
L 73.997778 292.599403 
L 73.997778 95.249806 
L 73.997778 277.912997 
L 74.162828 283.828129 
L 74.162828 280.420234 
L 74.162828 187.571314 
L 74.162828 293.418921 
L 74.162828 208.172853 
L 74.327879 293.094359 
L 74.327879 290.22199 
L 74.327879 188.536884 
L 74.327879 291.755543 
L 74.327879 287.430762 
L 74.49293 289.483613 
L 74.49293 222.429215 
L 74.49293 294.920017 
L 74.49293 239.785139 
L 74.65798 276.152251 
L 74.65798 113.384678 
L 74.65798 294.319579 
L 74.65798 292.485806 
L 74.823031 291.958394 
L 74.823031 266.56146 
L 74.823031 288.136683 
L 74.988082 287.438876 
L 74.988082 222.453557 
L 74.988082 292.380324 
L 75.153132 278.294357 
L 75.153132 287.828349 
L 75.153132 293.118701 
L 75.153132 287.000718 
L 75.153132 287.333393 
L 75.318183 239.249613 
L 75.318183 293.816508 
L 75.318183 170.207276 
L 75.318183 284.542165 
L 75.483233 293.053789 
L 75.483233 292.461464 
L 75.483233 264.07045 
L 75.483233 294.960588 
L 75.648284 292.542605 
L 75.648284 191.60399 
L 75.648284 291.52835 
L 75.813335 292.015192 
L 75.813335 180.771751 
L 75.813335 293.848965 
L 75.813335 292.420894 
L 75.978385 291.641947 
L 75.978385 230.916497 
L 75.978385 273.71804 
L 76.143436 291.203789 
L 76.143436 290.376157 
L 76.143436 243.225491 
L 76.143436 293.792166 
L 76.143436 293.354008 
L 76.308486 147.155298 
L 76.308486 295.14721 
L 76.308486 290.700718 
L 76.473537 271.137776 
L 76.473537 280.37155 
L 76.473537 241.448517 
L 76.473537 291.422868 
L 76.638588 260.305537 
L 76.638588 280.477032 
L 76.638588 292.811585 
L 76.638588 160.048502 
L 76.638588 174.710566 
L 76.803638 293.775938 
L 76.803638 183.011225 
L 76.803638 277.158391 
L 76.968689 293.280982 
L 76.968689 263.161678 
L 76.968689 292.631859 
L 77.133739 259.412993 
L 77.133739 292.29107 
L 77.133739 131.900909 
L 77.29879 291.463438 
L 77.29879 53.568 
L 77.463841 288.842604 
L 77.463841 282.911243 
L 77.628891 270.115408 
L 77.628891 292.810043 
L 77.628891 224.960794 
L 77.628891 292.201815 
L 77.793942 289.751376 
L 77.793942 286.546332 
L 77.793942 294.019359 
L 77.958992 281.25598 
L 77.958992 186.477542 
L 77.958992 286.862779 
L 78.124043 291.812341 
L 78.124043 293.638 
L 78.124043 270.594136 
L 78.289094 279.519576 
L 78.289094 247.298737 
L 78.289094 294.189754 
L 78.454144 289.313218 
L 78.454144 255.493914 
L 78.454144 292.988877 
L 78.619195 293.629886 
L 78.619195 265.384924 
L 78.784246 277.831856 
L 78.784246 292.41278 
L 78.784246 187.157498 
L 78.949296 293.564973 
L 78.949296 273.158171 
L 79.114347 293.881421 
L 79.114347 292.258613 
L 79.279397 258.285142 
L 79.279397 267.291723 
L 79.279397 285.954007 
L 79.444448 293.362122 
L 79.444448 281.63734 
L 79.609499 233.237112 
L 79.609499 288.785806 
L 79.774549 279.219357 
L 79.774549 291.382298 
L 79.774549 287.722867 
L 79.9396 291.609491 
L 79.9396 237.115621 
L 80.10465 293.970675 
L 80.10465 198.655088 
L 80.269701 182.621751 
L 80.269701 281.020673 
L 80.269701 269.312118 
L 80.434752 292.907736 
L 80.434752 289.483613 
L 80.599802 164.243459 
L 80.599802 292.940193 
L 80.764853 293.702912 
L 80.764853 291.244359 
L 80.929903 249.367816 
L 80.929903 177.948066 
L 80.929903 277.564093 
L 81.094954 282.383831 
L 81.094954 135.422401 
L 81.094954 284.071551 
L 81.260005 271.502908 
L 81.260005 281.661682 
L 81.425055 229.545225 
L 81.425055 293.134929 
L 81.425055 279.616944 
L 81.590106 293.370236 
L 81.590106 272.809268 
L 81.755156 291.771771 
L 81.755156 244.775272 
L 81.920207 218.536911 
L 81.920207 291.99085 
L 81.920207 291.633833 
L 82.085258 291.82857 
L 82.085258 279.173107 
L 82.250308 290.871113 
L 82.415359 292.461464 
L 82.415359 196.034254 
L 82.580409 293.013219 
L 82.580409 290.887341 
L 82.74546 256.654221 
L 82.74546 291.747429 
L 82.910511 292.826596 
L 82.910511 294.254666 
L 82.910511 289.329446 
L 83.075561 292.859052 
L 83.075561 186.548945 
L 83.240612 293.483833 
L 83.405663 181.83469 
L 83.405663 270.375057 
L 83.570713 281.345234 
L 83.570713 291.236245 
L 83.735764 281.710366 
L 83.735764 286.497647 
L 83.735764 291.747429 
L 83.900814 141.524156 
L 83.900814 292.75357 
L 84.065865 293.061903 
L 84.065865 181.242365 
L 84.065865 209.260133 
L 84.230916 283.925498 
L 84.230916 256.646107 
L 84.395966 290.311245 
L 84.561017 289.962341 
L 84.561017 290.992824 
L 84.726067 263.997424 
L 84.726067 293.029447 
L 84.726067 291.10642 
L 84.891118 280.193041 
L 84.891118 270.845671 
L 85.056169 278.927251 
L 85.056169 294.165412 
L 85.056169 289.856859 
L 85.221219 281.645454 
L 85.221219 129.677663 
L 85.221219 281.045015 
L 85.38627 281.661682 
L 85.38627 277.766944 
L 85.55132 292.79414 
L 85.55132 282.716506 
L 85.716371 243.087552 
L 85.881422 291.284929 
L 85.881422 159.1803 
L 86.046472 150.230518 
L 86.046472 293.840851 
L 86.211523 292.388438 
L 86.211523 282.98427 
L 86.376573 291.544578 
L 86.376573 157.127449 
L 86.541624 174.653768 
L 86.541624 284.91541 
L 86.706675 168.048942 
L 86.706675 216.733161 
L 86.871725 291.747429 
L 86.871725 182.921971 
L 86.871725 292.75357 
L 87.036776 287.560586 
L 87.036776 277.921111 
L 87.366877 291.138876 
L 87.366877 193.802894 
L 87.531928 177.315172 
L 87.531928 292.461464 
L 87.696978 257.270888 
L 87.696978 166.385564 
L 87.862029 291.284929 
L 88.02708 290.26256 
L 88.02708 290.895455 
L 88.19213 290.213876 
L 88.19213 137.91341 
L 88.357181 285.929665 
L 88.522231 274.797207 
L 88.522231 293.995017 
L 88.687282 291.138876 
L 88.687282 293.938219 
L 88.852333 291.186749 
L 88.852333 293.345894 
L 89.017383 245.976149 
L 89.182434 295.06607 
L 89.182434 293.280982 
L 89.347484 293.881421 
L 89.347484 292.339754 
L 89.512535 241.521543 
L 89.512535 293.824623 
L 89.512535 290.400499 
L 89.677586 209.844344 
L 89.677586 284.152691 
L 89.842636 292.120675 
L 89.842636 169.160565 
L 89.842636 288.209709 
L 90.007687 291.852912 
L 90.007687 271.559706 
L 90.172737 285.880981 
L 90.172737 113.595642 
L 90.337788 291.260587 
L 90.502839 290.432955 
L 90.502839 253.611457 
L 90.667889 291.349841 
L 90.83294 197.275701 
L 90.83294 294.879447 
L 90.99799 293.264754 
L 90.99799 272.857952 
L 90.99799 292.355982 
L 91.163041 286.68427 
L 91.163041 227.386891 
L 91.328092 291.925938 
L 91.328092 224.644347 
L 91.493142 287.349621 
L 91.493142 232.571761 
L 91.658193 156.080738 
L 91.658193 257.230318 
L 91.823244 293.021333 
L 91.988294 157.776572 
L 91.988294 293.620879 
L 92.153345 260.500274 
L 92.153345 291.52835 
L 92.153345 206.030747 
L 92.318395 235.460358 
L 92.318395 259.153344 
L 92.483446 293.25664 
L 92.483446 235.573954 
L 92.483446 288.79392 
L 92.648497 289.288876 
L 92.648497 252.53229 
L 92.813547 166.052889 
L 92.813547 270.456197 
L 92.978598 293.532517 
L 92.978598 292.631859 
L 93.143648 293.199842 
L 93.143648 170.694118 
L 93.308699 218.786012 
L 93.308699 290.157078 
L 93.47375 186.497015 
L 93.47375 291.739315 
L 93.6388 292.469578 
L 93.6388 240.977902 
L 93.803851 293.248526 
L 93.803851 281.953787 
L 93.968901 291.033394 
L 93.968901 275.535584 
L 94.133952 295.082298 
L 94.299003 292.672429 
L 94.299003 196.472412 
L 94.299003 275.52747 
L 94.464053 226.650948 
L 94.464053 174.856618 
L 94.629104 291.998964 
L 94.629104 279.746769 
L 94.794154 292.136903 
L 94.794154 180.682497 
L 94.959205 292.33164 
L 94.959205 187.514516 
L 95.124256 294.692824 
L 95.289306 160.60837 
L 95.289306 293.370236 
L 95.454357 285.580761 
L 95.454357 291.44721 
L 95.784458 268.419574 
L 95.784458 290.368043 
L 95.949509 240.669569 
L 95.949509 293.711026 
L 96.114559 165.768898 
L 96.114559 254.017159 
L 96.27961 284.785586 
L 96.27961 283.552252 
L 96.444661 284.899182 
L 96.444661 265.774398 
L 96.609711 290.278789 
L 96.774762 283.170893 
L 96.774762 283.641507 
L 96.774762 292.193701 
L 96.939812 234.738208 
L 96.939812 284.785586 
L 97.104863 129.604637 
L 97.104863 292.347868 
L 97.269914 246.746982 
L 97.269914 204.06715 
L 97.434964 293.061903 
L 97.434964 291.374183 
L 97.600015 270.699618 
L 97.600015 281.840191 
L 97.765065 288.428788 
L 97.765065 184.195875 
L 97.930116 287.739095 
L 97.930116 285.734928 
L 98.095167 293.362122 
L 98.095167 289.21585 
L 98.260217 257.903783 
L 98.260217 294.027473 
L 98.425268 293.199842 
L 98.425268 289.475499 
L 98.590318 294.116728 
L 98.755369 284.734143 
L 98.755369 284.777472 
L 98.92042 293.573087 
L 98.92042 279.081824 
L 99.08547 294.238438 
L 99.08547 290.814315 
L 99.250521 170.734688 
L 99.250521 282.52177 
L 99.415571 271.049739 
L 99.415571 290.124622 
L 99.415571 271.066778 
L 99.580622 290.700718 
L 99.745673 293.126815 
L 99.745673 220.149171 
L 99.910723 292.355982 
L 99.910723 289.864973 
L 100.075774 292.258613 
L 100.075774 282.773305 
L 100.240825 291.682517 
L 100.240825 288.972429 
L 100.405875 291.017166 
L 100.405875 228.100926 
L 100.570926 254.033387 
L 100.570926 291.925938 
L 100.735976 292.258613 
L 100.735976 281.126155 
L 100.901027 278.708172 
L 100.901027 291.560806 
L 101.066078 211.889081 
L 101.231128 292.656201 
L 101.396179 287.730981 
L 101.396179 283.503568 
L 101.561229 280.631199 
L 101.561229 212.091932 
L 101.72628 287.601156 
L 101.891331 286.319139 
L 101.891331 281.499401 
L 102.056381 260.581415 
L 102.056381 278.7244 
L 102.221432 201.673509 
L 102.386482 291.747429 
L 102.386482 175.830303 
L 102.551533 260.703125 
L 102.551533 156.900256 
L 102.716584 290.595236 
L 102.881634 284.49348 
L 102.881634 247.387991 
L 103.046685 251.128562 
L 103.211735 292.672429 
L 103.211735 290.351815 
L 103.376786 293.394579 
L 103.376786 165.574161 
L 103.541837 294.238438 
L 103.541837 287.981705 
L 103.706887 275.98997 
L 103.706887 293.905763 
L 103.871938 255.615624 
L 104.036988 292.088219 
L 104.036988 279.170672 
L 104.202039 287.276595 
L 104.202039 280.006418 
L 104.36709 206.898949 
L 104.53214 225.918251 
L 104.53214 287.698525 
L 104.697191 285.004665 
L 104.697191 260.45159 
L 104.862242 289.021113 
L 104.862242 286.035147 
L 105.027292 289.856859 
L 105.192343 155.009685 
L 105.192343 290.68449 
L 105.357393 288.777692 
L 105.357393 283.925498 
L 105.522444 291.585148 
L 105.687495 292.047648 
L 105.687495 281.75905 
L 105.852545 285.288656 
L 105.852545 280.939532 
L 106.017596 292.282956 
L 106.182646 293.443263 
L 106.182646 287.089972 
L 106.347697 206.103773 
L 106.347697 288.931858 
L 106.512748 290.546552 
L 106.677798 289.126595 
L 106.677798 291.617605 
L 106.842849 287.520016 
L 106.842849 292.258613 
L 107.007899 270.56168 
L 107.17295 294.124842 
L 107.17295 275.14611 
L 107.338001 263.291503 
L 107.338001 292.071991 
L 107.503051 290.579008 
L 107.668102 283.998524 
L 107.668102 258.382511 
L 107.833152 292.364096 
L 107.833152 256.402686 
L 107.998203 184.358155 
L 108.163254 285.053349 
L 108.163254 194.565613 
L 108.328304 288.29085 
L 108.493355 293.694798 
L 108.658406 293.25664 
L 108.658406 290.749403 
L 108.823456 259.356195 
L 108.823456 292.704885 
L 108.988507 282.708392 
L 109.153557 172.957934 
L 109.153557 294.1005 
L 109.318608 146.603543 
L 109.483659 282.700278 
L 109.648709 288.266507 
L 109.648709 294.822649 
L 109.81376 293.80028 
L 109.97881 200.602456 
L 110.143861 289.370016 
L 110.308912 292.315412 
L 110.308912 290.278789 
L 110.804063 172.584688 
L 110.969114 291.033394 
L 111.134165 253.140843 
L 111.134165 267.129442 
L 111.299215 293.134929 
L 111.464266 290.895455 
L 111.464266 280.071331 
L 111.794367 293.029447 
L 111.959418 291.979328 
L 112.124468 285.848525 
L 112.289519 292.258613 
L 112.454569 290.830543 
L 112.454569 262.455757 
L 112.61962 208.878774 
L 112.784671 291.017166 
L 112.949721 293.21607 
L 113.114772 291.187561 
L 113.114772 293.986903 
L 113.279823 292.811179 
L 113.444873 271.851812 
L 113.444873 247.323079 
L 113.609924 234.747134 
L 113.774974 289.402473 
L 113.774974 268.127469 
L 113.940025 292.355982 
L 114.105076 287.495674 
L 114.105076 264.776372 
L 114.270126 293.070017 
L 114.435177 201.267807 
L 114.435177 217.75553 
L 114.600227 291.284929 
L 114.765278 294.189754 
L 114.930329 259.339967 
L 114.930329 290.384271 
L 115.095379 284.923524 
L 115.26043 290.611464 
L 115.42548 282.391945 
L 115.42548 291.852912 
L 115.590531 293.840851 
L 115.755582 223.768031 
L 115.920632 292.75357 
L 115.920632 277.75883 
L 116.085683 294.327693 
L 116.250733 290.497868 
L 116.415784 256.53251 
L 116.580835 292.502035 
L 116.745885 287.122428 
L 116.745885 288.745236 
L 116.910936 288.104227 
L 117.075987 284.558393 
L 117.075987 287.268481 
L 117.241037 272.906636 
L 117.406088 294.830763 
L 117.571138 289.045455 
L 117.736189 293.597429 
L 117.90124 291.779885 
L 117.90124 184.707059 
L 118.06629 287.284709 
L 118.231341 289.80006 
L 118.396391 289.605323 
L 118.396391 289.954227 
L 118.561442 285.897209 
L 118.726493 294.027473 
L 118.891543 292.218043 
L 119.056594 292.355982 
L 119.056594 292.810368 
L 119.221644 284.461024 
L 119.386695 289.621552 
L 119.551746 289.602889 
L 119.551746 265.928565 
L 119.716796 230.494567 
L 119.881847 294.408833 
L 120.046897 286.651814 
L 120.211948 287.284709 
L 120.376999 290.619578 
L 120.376999 265.831196 
L 120.542049 293.873307 
L 120.7071 268.654881 
L 120.87215 170.312758 
L 120.87215 267.835363 
L 121.037201 289.881201 
L 121.202252 228.4904 
L 121.367302 293.435149 
L 121.532353 288.104227 
L 121.697404 181.607497 
L 121.862454 293.775938 
L 122.192555 252.840624 
L 122.357606 289.970455 
L 122.522657 292.631859 
L 122.522657 189.786446 
L 122.687707 291.041508 
L 122.852758 290.927911 
L 123.017808 293.451377 
L 123.017808 293.313438 
L 123.182859 293.622583 
L 123.34791 293.573087 
L 123.51296 292.729228 
L 123.51296 294.165412 
L 123.843061 161.014072 
L 124.008112 292.388438 
L 124.173163 229.496541 
L 124.173163 289.751376 
L 124.338213 192.480306 
L 124.503264 292.193701 
L 124.668314 267.275495 
L 124.668314 283.276375 
L 124.833365 291.739315 
L 124.998416 288.79392 
L 125.163466 237.805314 
L 125.163466 288.558613 
L 125.328517 292.007078 
L 125.493568 293.037561 
L 125.658618 257.619791 
L 125.658618 269.182293 
L 125.823669 291.706859 
L 125.988719 290.205762 
L 126.15377 286.481419 
L 126.318821 291.187966 
L 126.318821 249.286676 
L 126.483871 162.434029 
L 126.648922 291.398526 
L 126.813972 291.341727 
L 126.813972 250.187334 
L 126.979023 293.354008 
L 127.144074 287.357735 
L 127.309124 294.214096 
L 127.474175 288.858832 
L 127.474175 291.650061 
L 127.639225 292.769798 
L 127.804276 209.252019 
L 128.134377 294.197868 
L 128.299428 256.459484 
L 128.464478 294.473745 
L 128.79458 275.462558 
L 128.95963 294.52243 
L 129.124681 290.611464 
L 129.289731 221.536671 
L 129.289731 293.751596 
L 129.454782 293.313438 
L 129.619833 159.318238 
L 129.784883 154.579641 
L 129.949934 292.315412 
L 130.114985 292.534491 
L 130.280035 291.009052 
L 130.445086 178.369996 
L 130.445086 291.552692 
L 130.610136 172.576574 
L 130.775187 286.465191 
L 131.105288 294.64414 
L 131.105288 257.863212 
L 131.270339 290.611464 
L 131.435389 293.913877 
L 131.60044 241.667596 
L 131.765491 290.481639 
L 131.930541 204.627019 
L 132.095592 289.094139 
L 132.260642 260.630099 
L 132.425693 290.595236 
L 132.590744 188.496314 
L 132.590744 293.272868 
L 132.755794 293.978789 
L 132.920845 193.202455 
L 133.085895 290.514096 
L 133.250946 210.404213 
L 133.415997 293.167386 
L 133.581047 292.396552 
L 133.746098 291.06585 
L 134.076199 281.369576 
L 134.24125 293.613658 
L 134.24125 292.469578 
L 134.571351 294.636026 
L 134.736402 280.046988 
L 134.901452 292.080105 
L 135.066503 291.52835 
L 135.066503 193.486446 
L 135.231553 291.317385 
L 135.396604 284.87484 
L 135.561655 291.934052 
L 136.056806 293.946333 
L 136.056806 258.528563 
L 136.221857 285.840411 
L 136.551958 192.220657 
L 136.717009 293.727254 
L 136.882059 292.315412 
L 137.04711 292.088219 
L 137.04711 293.483833 
L 137.212161 291.333613 
L 137.542262 255.834703 
L 137.707312 286.360033 
L 137.872363 289.601104 
L 138.037414 290.246332 
L 138.037414 290.051596 
L 138.202464 293.280982 
L 138.367515 264.257073 
L 138.697616 293.207956 
L 138.862667 251.461238 
L 139.027717 293.619094 
L 139.192768 293.021333 
L 139.192768 293.881421 
L 139.357819 265.279442 
L 139.522869 289.183394 
L 139.68792 289.775718 
L 139.85297 236.515182 
L 140.018021 293.264754 
L 140.018021 272.005978 
L 140.183072 290.992824 
L 140.513173 265.814968 
L 140.678223 290.871113 
L 141.008325 293.978789 
L 141.173375 293.767824 
L 141.338426 268.346548 
L 141.503476 292.518263 
L 141.668527 287.349621 
L 141.833578 285.978349 
L 141.998628 293.094359 
L 142.328729 279.130102 
L 142.49378 291.552692 
L 142.658831 267.616284 
L 142.823881 287.236025 
L 142.988932 279.600716 
L 143.153983 291.114534 
L 143.319033 289.645894 
L 143.649134 293.638 
L 143.814185 289.069797 
L 143.979236 292.33164 
L 144.144286 209.722634 
L 144.474387 290.903569 
L 144.639438 290.449183 
L 144.804489 289.613438 
L 144.969539 292.201815 
L 145.13459 284.136463 
L 145.29964 293.435149 
L 145.464691 290.716947 
L 145.629742 289.856859 
L 145.794792 283.771331 
L 145.959843 143.68249 
L 146.124893 293.289096 
L 146.289944 246.105974 
L 146.454995 293.045675 
L 146.620045 290.64392 
L 146.785096 293.362122 
L 146.950147 285.37791 
L 147.115197 290.295017 
L 147.280248 272.41168 
L 147.445298 287.511902 
L 147.610349 288.087999 
L 147.7754 292.45335 
L 147.94045 287.219797 
L 148.105501 267.202469 
L 148.270551 189.096753 
L 148.435602 290.52221 
L 148.600653 217.366056 
L 148.765703 287.536244 
L 148.930754 287.357735 
L 149.425906 293.459491 
L 149.590956 287.438876 
L 149.921057 291.747429 
L 150.086108 290.725061 
L 150.251159 291.252473 
L 150.416209 289.751376 
L 150.58126 290.416727 
L 150.74631 292.542605 
L 151.076412 282.270234 
L 151.241462 210.120221 
L 151.406513 291.48778 
L 151.571564 170.410126 
L 151.736614 292.867166 
L 151.901665 294.035587 
L 152.066715 285.288656 
L 152.231766 294.068044 
L 152.561867 291.617605 
L 152.891968 278.870453 
L 153.057019 279.168644 
L 153.22207 292.088219 
L 153.38712 279.027561 
L 153.552171 209.957941 
L 153.717221 288.534271 
L 153.882272 291.796113 
L 154.047323 288.996771 
L 154.212373 292.87528 
L 154.377424 290.384271 
L 154.707525 292.932078 
L 154.872576 280.436462 
L 155.037626 256.897642 
L 155.202677 294.214096 
L 155.367728 270.756417 
L 155.532778 287.016946 
L 155.862879 258.897752 
L 156.02793 199.22307 
L 156.358031 292.404666 
L 156.523082 290.303131 
L 156.688132 255.201808 
L 156.853183 265.530977 
L 157.018234 291.430982 
L 157.348335 233.042375 
L 157.513385 292.396552 
L 157.678436 291.934052 
L 157.843487 154.384904 
L 158.008537 290.343701 
L 158.338638 291.536464 
L 158.503689 287.422648 
L 158.83379 239.768911 
L 158.998841 292.007078 
L 159.163891 284.980323 
L 159.493993 290.56278 
L 159.989145 292.891508 
L 160.154195 280.655541 
L 160.319246 292.664315 
L 160.484296 286.757297 
L 160.649347 285.605103 
L 160.814398 288.83449 
L 161.309549 251.753343 
L 161.4746 258.350055 
L 161.639651 191.238858 
L 161.804701 294.506202 
L 161.969752 287.390192 
L 162.134802 287.414534 
L 162.299853 290.52221 
L 162.629954 290.98471 
L 162.795005 289.199622 
L 162.960055 293.370236 
L 163.125106 156.811001 
L 163.455207 291.852912 
L 163.785308 286.432735 
L 164.11541 291.512122 
L 164.28046 290.311245 
L 164.610562 293.954447 
L 164.775612 292.071991 
L 165.105713 282.56234 
L 165.270764 293.191728 
L 165.435815 293.767824 
L 165.600865 282.992384 
L 165.765916 291.073964 
L 165.930966 260.037774 
L 166.261068 290.879227 
L 166.426118 293.029447 
L 166.756219 288.964315 
L 166.92127 288.858832 
L 167.251371 176.958154 
L 167.416422 291.10642 
L 167.581472 279.982076 
L 167.911574 287.787779 
L 168.241675 286.862779 
L 168.406726 276.947426 
L 168.571776 288.745236 
L 168.736827 203.710132 
L 168.901877 286.505762 
L 169.397029 291.187561 
L 169.56208 290.368043 
L 169.892181 285.272428 
L 170.057232 291.698745 
L 170.222282 191.255086 
L 170.387333 208.886888 
L 170.717434 287.674183 
L 170.882485 291.650061 
L 171.047535 229.155751 
L 171.212586 289.426815 
L 171.377636 263.161678 
L 171.707738 294.270895 
L 171.872788 236.020226 
L 172.037839 251.866939 
L 172.202889 284.931638 
L 172.532991 292.599403 
L 172.698041 290.652034 
L 172.863092 264.257073 
L 173.028143 285.63756 
L 173.358244 289.491727 
L 173.523294 294.165412 
L 173.688345 290.968482 
L 174.018446 292.737342 
L 174.183497 263.096766 
L 174.348547 290.067824 
L 174.513598 284.598963 
L 174.843699 289.191508 
L 175.00875 199.774825 
L 175.1738 274.496987 
L 175.503902 293.816508 
L 175.668952 247.071544 
L 175.834003 277.872427 
L 176.164104 289.159051 
L 176.329155 289.524183 
L 176.494205 290.595236 
L 176.659256 292.493921 
L 176.989357 288.29085 
L 177.154408 292.242385 
L 177.319458 276.606637 
L 177.64956 180.114514 
L 177.81461 291.10642 
L 177.979661 267.478346 
L 178.144711 293.500061 
L 178.474813 292.786026 
L 178.804914 261.912117 
L 178.969964 290.505982 
L 179.300066 258.634046 
L 179.465116 291.349841 
L 179.630167 291.439096 
L 179.795217 127.089285 
L 180.125319 288.161025 
L 180.290369 288.152911 
L 180.45542 291.414754 
L 180.62047 288.996771 
L 180.950572 292.388438 
L 181.115622 290.871113 
L 181.280673 285.572647 
L 181.445724 294.960588 
L 181.775825 155.756176 
L 181.940875 287.138656 
L 182.105926 285.856639 
L 182.270977 290.798087 
L 182.601078 285.394139 
L 182.766128 271.819355 
L 182.931179 290.197648 
L 183.26128 291.820455 
L 183.426331 264.987337 
L 183.756432 288.250279 
L 183.921483 282.026813 
L 184.086533 270.626592 
L 184.416634 274.066943 
L 184.581685 292.907736 
L 184.746736 290.94414 
L 184.911786 291.041508 
L 185.241888 271.575934 
L 185.406938 182.629866 
L 185.571989 277.596549 
L 185.737039 292.177473 
L 185.90209 227.90619 
L 186.232191 272.898522 
L 186.397242 133.986216 
L 186.562292 261.895889 
L 186.727343 290.416727 
L 186.892394 292.445236 
L 187.222495 138.651787 
L 187.387545 288.75335 
L 187.552596 287.986249 
L 187.717647 256.978782 
L 188.047748 288.810148 
L 188.212798 291.877254 
L 188.377849 291.18821 
L 188.5429 273.904663 
L 188.873001 201.37329 
L 189.038051 295.488 
L 189.203102 277.994137 
L 189.368153 228.214523 
L 189.533203 256.986897 
L 189.863305 199.14193 
L 190.028355 289.118481 
L 190.193406 283.641507 
L 190.358456 265.328126 
L 190.688558 266.731854 
L 190.853608 290.976596 
L 191.018659 287.325279 
L 191.183709 269.506855 
L 191.513811 265.425495 
L 191.678861 192.374823 
L 191.843912 293.581201 
L 192.008962 287.203569 
L 192.339064 237.448296 
L 192.504114 290.18142 
L 192.669165 243.509482 
L 192.834215 275.000058 
L 193.164317 279.625059 
L 193.329367 268.581855 
L 193.494418 273.847864 
L 193.659469 271.154004 
L 193.98957 292.120675 
L 194.15462 268.111241 
L 194.319671 266.480319 
L 194.484722 293.500061 
L 194.814823 292.29107 
L 194.979873 206.996317 
L 195.144924 278.172646 
L 195.309975 289.978569 
L 195.640076 227.573514 
L 195.805126 290.911683 
L 195.970177 293.954447 
L 196.135228 288.850718 
L 196.465329 253.100273 
L 196.630379 280.063217 
L 196.79543 117.750029 
L 197.125531 292.015192 
L 197.290582 269.125495 
L 197.455632 274.918917 
L 197.620683 293.905763 
L 197.950784 293.264754 
L 198.115835 291.382298 
L 198.280886 287.714753 
L 198.610987 253.814308 
L 198.941088 272.939092 
L 199.271189 275.592382 
L 199.43624 169.395872 
L 199.60129 168.219337 
L 200.096442 283.4062 
L 200.261493 289.142823 
L 200.591594 288.850718 
L 200.756645 291.14699 
L 200.921695 244.345228 
L 201.086746 281.483173 
L 201.416847 273.344794 
L 201.581898 289.702692 
L 201.746948 287.544358 
L 202.077049 272.322426 
L 202.2421 277.848085 
L 202.407151 150.222403 
L 202.737252 290.692604 
L 202.902303 290.473525 
L 203.067353 291.885368 
L 203.397454 262.496327 
L 203.562505 287.292823 
L 203.727556 292.591289 
L 204.057657 212.043248 
L 204.222707 291.666289 
L 204.387758 262.528783 
L 204.717859 291.658175 
L 204.88291 278.472865 
L 205.213011 287.625499 
L 205.543112 261.392818 
L 205.708163 221.536671 
L 206.038264 295.001158 
L 206.203315 278.975936 
L 206.533416 277.555979 
L 206.698467 291.317385 
L 206.863517 288.120455 
L 207.193618 248.83229 
L 207.358669 288.234051 
L 207.52372 254.60137 
L 207.853821 287.747209 
L 208.018871 292.810368 
L 208.183922 164.681617 
L 208.514023 213.276582 
L 208.679074 291.179447 
L 208.844124 237.529437 
L 209.339276 294.311465 
L 209.669377 291.122648 
L 209.834428 293.240412 
L 209.999479 293.134929 
L 210.32958 291.398526 
L 210.49463 293.370236 
L 210.824732 291.804227 
L 210.989782 279.689971 
L 211.154833 292.680543 
L 211.484934 271.202689 
L 211.649985 288.688437 
L 211.815035 277.710146 
L 212.145137 188.439516 
L 212.310187 281.945673 
L 212.640288 233.220883 
L 212.805339 288.858832 
L 212.97039 293.556859 
L 213.300491 286.952034 
L 213.465541 279.973962 
L 213.630592 292.672429 
L 213.960693 197.105307 
L 214.125744 281.345234 
L 214.455845 245.318912 
L 214.620896 290.692604 
L 214.785946 293.329666 
L 215.116048 278.489093 
L 215.281098 289.045455 
L 215.446149 291.852912 
L 215.77625 238.324612 
L 215.941301 290.408613 
L 216.271402 203.393685 
L 216.436452 287.422648 
L 216.601503 167.64324 
L 216.931604 180.033374 
L 217.096655 288.956201 
L 217.426756 288.607297 
L 217.591807 286.384051 
L 217.921908 147.844991 
L 218.086958 276.720233 
L 218.252009 293.37835 
L 218.58211 294.457517 
L 218.747161 292.907736 
L 219.077262 288.177253 
L 219.242313 292.575061 
L 219.572414 289.694578 
L 219.737465 291.893482 
L 219.902515 164.925038 
L 220.232616 291.877254 
L 220.397667 248.734921 
L 220.727768 292.477692 
L 221.22292 285.613218 
L 221.387971 277.328786 
L 221.553021 288.696551 
L 221.883122 292.769798 
L 222.378274 247.509702 
L 222.543325 287.779665 
L 222.873426 165.127889 
L 223.038477 293.646114 
L 223.368578 270.26146 
L 223.533629 288.177253 
L 223.86373 290.051596 
L 224.193831 283.032954 
L 224.523932 287.187341 
L 224.688983 292.380324 
L 225.019084 186.06048 
L 225.184135 289.443043 
L 225.514236 143.041481 
L 225.679286 271.511022 
L 226.009388 294.311465 
L 226.174438 259.129002 
L 226.504539 262.050055 
L 226.66959 291.633833 
L 227.164742 293.475719 
L 227.494843 289.63778 
L 227.659894 293.946333 
L 227.989995 129.604637 
L 228.155046 291.260587 
L 228.485147 293.516289 
L 228.650197 284.461024 
L 228.815248 291.593262 
L 229.145349 289.434929 
L 229.3104 287.560586 
L 229.640501 289.783832 
L 229.805552 249.854658 
L 230.135653 269.368916 
L 230.300703 141.678323 
L 230.630805 118.975249 
L 230.795855 283.462998 
L 231.125956 200.002018 
L 231.456058 293.33778 
L 231.621108 262.366503 
L 231.95121 249.708606 
L 232.11626 292.145017 
L 232.446361 285.694358 
L 232.611412 294.303351 
L 232.941513 284.590849 
L 233.106564 288.347648 
L 233.436665 287.877034 
L 233.766766 293.694798 
L 234.096867 269.904443 
L 234.261918 291.544578 
L 234.592019 291.479666 
L 234.75707 293.240412 
L 235.087171 281.077471 
L 235.252222 292.218043 
L 235.582323 291.090192 
L 235.747373 274.367163 
L 236.572627 293.946333 
L 236.902728 250.008825 
L 237.067778 288.729008 
L 237.39788 292.03142 
L 237.56293 292.388438 
L 237.893031 281.872647 
L 238.058082 287.666069 
L 238.388183 289.443043 
L 238.553234 253.546545 
L 238.883335 286.627472 
L 239.048386 186.889735 
L 239.378487 291.357955 
L 239.543537 262.325933 
L 239.873639 288.33142 
L 240.038689 289.775718 
L 240.36879 288.055543 
L 240.698892 287.000718 
L 240.863942 289.524183 
L 241.194044 232.725927 
L 241.359094 291.544578 
L 241.854246 284.112121 
L 242.349398 290.676376 
L 242.679499 243.176806 
L 242.84455 293.126815 
L 243.174651 290.733175 
L 243.339701 258.617818 
L 243.669803 287.081858 
L 243.834853 286.027033 
L 244.164954 204.391712 
L 244.495056 284.079665 
L 244.660106 293.6195 
L 244.990208 282.383831 
L 245.155258 259.843037 
L 245.485359 281.913217 
L 245.815461 289.937999 
L 245.980511 170.815828 
L 246.310612 282.797647 
L 246.475663 289.605323 
L 246.805764 154.952887 
L 247.135865 294.05993 
L 247.300916 273.596329 
L 247.631017 289.562806 
L 247.796068 289.686464 
L 248.126169 290.489753 
L 248.29122 271.924838 
L 248.621321 279.900936 
L 248.951422 285.126375 
L 249.116473 215.451143 
L 249.446574 283.811901 
L 249.611625 207.255966 
L 249.941726 287.260367 
L 250.106776 283.14655 
L 250.436878 263.672863 
L 250.766979 285.434709 
L 250.932029 153.998676 
L 251.262131 290.376157 
L 251.427181 287.057516 
L 251.757282 236.312331 
L 252.252434 292.810287 
L 252.582535 295.317605 
L 252.747586 288.112341 
L 253.077687 290.668262 
L 253.407789 283.276375 
L 253.572839 292.850938 
L 253.90294 271.300057 
L 254.067991 152.94872 
L 254.398092 291.512122 
L 254.728193 291.650061 
L 254.893244 289.645894 
L 255.223345 294.076158 
L 255.553446 293.646114 
L 255.718497 290.903569 
L 256.048598 293.621772 
L 256.378699 293.516289 
L 256.708801 175.968241 
L 256.873851 285.726814 
L 257.203952 284.826156 
L 257.534054 191.547192 
L 257.864155 290.652034 
L 258.029206 290.611464 
L 258.359307 165.720213 
L 258.689408 291.090192 
L 259.019509 225.512549 
L 259.34961 290.936025 
L 259.514661 292.518263 
L 259.844762 244.199175 
L 260.174863 294.481859 
L 260.339914 141.207709 
L 260.670015 259.875494 
L 261.000116 292.258613 
L 261.165167 291.333613 
L 261.495268 293.25664 
L 261.82537 289.832517 
L 261.99042 289.962341 
L 262.320521 264.87374 
L 262.650623 290.392385 
L 262.815673 285.134489 
L 263.145774 239.02242 
L 263.475876 291.114534 
L 263.640926 278.148304 
L 263.971027 292.396552 
L 264.301129 263.827029 
L 264.63123 289.223964 
L 264.79628 244.588649 
L 265.126382 286.538218 
L 265.456483 283.203349 
L 265.621533 249.100053 
L 265.951635 293.775938 
L 266.281736 291.471552 
L 266.446787 291.195675 
L 266.776888 292.080105 
L 267.106989 136.209462 
L 267.27204 240.020446 
L 267.602141 289.426815 
L 267.932242 290.449183 
L 268.097293 289.994797 
L 268.427394 232.401366 
L 268.757495 138.635559 
L 268.922546 291.504008 
L 269.252647 280.614971 
L 269.582748 249.814088 
L 270.0779 290.514096 
L 270.738102 290.741289 
L 270.903153 293.289096 
L 271.233254 289.881201 
L 271.563355 268.654881 
L 271.728406 285.929665 
L 272.058507 241.188867 
L 272.388608 290.335587 
L 272.553659 293.978789 
L 272.88376 293.25664 
L 273.213861 290.668262 
L 273.378912 283.479226 
L 273.709013 288.964315 
L 274.039114 178.2564 
L 274.204165 179.700698 
L 274.534266 285.767384 
L 274.864368 248.767377 
L 275.029418 286.408393 
L 275.359519 288.161025 
L 275.689621 284.988437 
L 276.019722 186.094559 
L 276.349823 290.733175 
L 276.514874 242.186894 
L 276.844975 288.623525 
L 277.175076 251.014966 
L 277.505177 291.06585 
L 277.670228 128.18468 
L 278.000329 266.147644 
L 278.33043 285.743042 
L 278.660531 195.790833 
L 278.825582 287.804007 
L 279.155683 287.48756 
L 279.485785 292.388438 
L 279.815886 222.331846 
L 279.980936 237.229218 
L 280.311038 291.56892 
L 280.641139 232.823296 
L 280.806189 289.970455 
L 281.136291 144.542578 
L 281.466392 286.927691 
L 281.631442 292.761684 
L 282.291645 183.149164 
L 282.786797 289.937999 
L 283.116898 285.905323 
L 283.446999 289.345674 
L 283.7771 289.775718 
L 283.942151 288.923744 
L 284.272252 289.735148 
L 284.602353 285.905323 
L 284.932455 219.978776 
L 285.097505 289.21585 
L 285.427606 286.927691 
L 285.757708 291.723087 
L 286.41791 263.372643 
L 286.582961 288.014972 
L 286.913062 279.787339 
L 287.243163 287.195455 
L 287.408214 285.386024 
L 287.738315 158.474379 
L 288.068416 257.83887 
L 288.398517 192.764297 
L 288.893669 263.559266 
L 289.22377 261.863433 
L 289.553872 289.551067 
L 289.883973 292.299184 
L 290.049023 287.325279 
L 290.379125 282.018699 
L 290.709226 284.988437 
L 291.039327 178.288856 
L 291.369428 289.012999 
L 291.69953 292.185587 
L 291.86458 243.176806 
L 292.194681 288.558613 
L 292.524783 280.817822 
L 292.854884 214.972415 
L 293.019934 288.047428 
L 293.350036 167.675696 
L 293.680137 262.463871 
L 294.010238 290.278789 
L 294.175289 290.806201 
L 294.50539 255.453344 
L 294.835491 180.812321 
L 295.165592 177.355742 
L 295.495693 291.536464 
L 295.825795 137.767357 
L 295.990845 293.021333 
L 296.320947 292.37221 
L 296.651048 245.619131 
L 296.981149 290.384271 
L 297.1462 271.803127 
L 297.476301 292.932078 
L 297.806402 270.618478 
L 298.136503 155.13951 
L 298.466604 280.728567 
L 298.796706 260.565187 
L 299.126807 285.824182 
L 299.456908 291.997341 
L 299.787009 292.75357 
L 299.95206 292.83471 
L 300.282161 255.372203 
L 300.612262 270.707732 
L 300.942364 294.392605 
L 301.272465 289.629666 
L 301.437515 275.178566 
L 301.767617 289.280762 
L 302.097718 282.156638 
L 302.427819 182.792146 
L 302.75792 258.60159 
L 303.088021 292.039534 
L 303.418123 267.283609 
L 303.748224 289.094139 
L 304.078325 182.053769 
L 304.408426 291.293043 
L 304.738528 271.202689 
L 305.068629 116.816915 
L 305.39873 262.796547 
L 305.728831 291.593262 
L 306.058932 278.586462 
L 306.389034 252.91365 
L 306.719135 292.566947 
L 307.049236 277.531637 
L 307.214287 287.755323 
L 307.709438 268.760364 
L 308.03954 264.971109 
L 308.20459 290.14085 
L 308.864793 293.329666 
L 309.194894 144.818455 
L 309.690046 270.464311 
L 310.020147 294.441289 
L 310.350248 237.091279 
L 310.680349 285.945893 
L 311.010451 154.814948 
L 311.340552 290.124622 
L 311.670653 242.446543 
L 312.000754 287.479446 
L 312.165805 291.02528 
L 312.495906 268.208609 
L 312.826007 294.376377 
L 313.156109 277.945453 
L 313.48621 293.094359 
L 313.816311 292.37221 
L 314.146412 267.794793 
L 314.311463 219.581188 
L 314.641564 294.132956 
L 314.971665 272.979663 
L 315.301766 291.512122 
L 315.631868 291.179447 
L 315.961969 266.56146 
L 316.29207 291.901596 
L 316.952272 281.280322 
L 317.117323 189.778332 
L 317.447424 288.242165 
L 317.777526 192.163858 
L 318.107627 290.94414 
L 318.437728 260.695011 
L 318.767829 115.632266 
L 319.09793 257.141063 
L 319.428032 282.976156 
L 319.593082 185.307498 
L 319.923183 292.096333 
L 320.253285 293.594806 
L 320.913487 261.206196 
L 321.243588 285.629446 
L 321.57369 286.805981 
L 321.903791 286.716726 
L 322.068841 290.692604 
L 322.398943 287.966288 
L 322.729044 261.790406 
L 323.059145 291.309271 
L 323.389246 197.162105 
L 323.719347 283.536024 
L 324.049449 271.113434 
L 324.37955 291.934052 
L 324.5446 292.591289 
L 324.874702 290.530324 
L 325.204803 286.375937 
L 325.534904 210.428555 
L 325.865005 265.368696 
L 326.195107 293.345894 
L 326.525208 239.971762 
L 326.855309 288.41256 
L 327.18541 291.349841 
L 327.515511 291.512122 
L 327.845613 213.406406 
L 328.010663 292.485806 
L 328.340764 291.114534 
L 329.000967 260.021546 
L 329.331068 288.672209 
L 329.661169 270.431855 
L 329.991271 211.994564 
L 330.321372 292.120675 
L 330.651473 292.623745 
L 330.816524 292.015192 
L 331.146625 294.457517 
L 331.476726 283.682077 
L 331.806827 164.421967 
L 332.136928 155.439729 
L 332.46703 287.390192 
L 332.797131 293.25664 
L 333.127232 269.750276 
L 333.457333 290.327473 
L 333.787434 289.75949 
L 334.117536 288.680323 
L 334.447637 234.080971 
L 334.612688 277.791286 
L 334.942789 285.329226 
L 335.27289 288.907516 
L 335.602991 286.570674 
L 335.933092 294.051816 
L 336.263194 291.479666 
L 336.593295 253.140843 
L 336.923396 158.750256 
L 337.253497 249.262334 
L 337.583598 287.390192 
L 337.9137 292.607517 
L 338.243801 284.809928 
L 338.573902 290.733175 
L 338.904003 265.612117 
L 339.234105 268.103127 
L 339.564206 286.611244 
L 339.894307 290.286903 
L 340.224408 251.56672 
L 340.554509 292.518263 
L 340.884611 262.463871 
L 341.049661 292.023306 
L 341.544813 289.321332 
L 341.874914 291.349841 
L 342.205015 291.341727 
L 342.370066 289.29699 
L 342.700167 275.11406 
L 343.195319 289.572867 
L 343.36037 269.863873 
L 343.855522 273.012119 
L 344.020572 292.380324 
L 344.350673 248.288649 
L 344.680775 236.758603 
L 345.340977 293.80028 
L 345.836129 291.706859 
L 346.001179 287.40642 
L 346.331281 288.193481 
L 346.826432 252.102247 
L 347.156534 271.065967 
L 347.486635 188.585568 
L 347.816736 198.21693 
L 348.146837 288.436902 
L 348.476939 292.307298 
L 348.80704 290.968482 
L 349.137141 290.919797 
L 349.467242 289.29699 
L 349.797343 290.392385 
L 350.127445 289.524183 
L 350.457546 243.493254 
L 350.787647 272.257513 
L 351.117748 284.704445 
L 351.44785 270.569794 
L 351.777951 279.657515 
L 352.108052 271.356855 
L 352.438153 292.790245 
L 352.768254 142.465385 
L 353.098356 292.380324 
L 353.428457 179.72504 
L 353.758558 294.238438 
L 354.088659 274.594356 
L 354.41876 292.550719 
L 354.748862 280.858392 
L 355.078963 262.846651 
L 355.409064 276.541725 
L 355.904216 280.014532 
L 356.564418 227.573514 
L 357.05957 246.097859 
L 357.389671 295.244579 
L 357.719773 291.244359 
L 358.049874 235.038428 
L 358.545026 291.463438 
L 358.875127 291.017166 
L 359.205228 285.33734 
L 359.535329 290.254446 
L 360.030481 265.279442 
L 360.360582 218.534477 
L 360.690684 294.230324 
L 361.020785 252.280755 
L 361.350886 291.925938 
L 361.680987 291.804227 
L 362.011088 284.525937 
L 362.34119 292.209929 
L 362.671291 287.187341 
L 363.166443 292.315412 
L 363.826645 219.589302 
L 364.156746 278.505321 
L 364.486848 292.502035 
L 364.816949 292.769798 
L 365.14705 292.558833 
L 365.477151 173.83425 
L 365.807252 284.769358 
L 366.137354 286.375937 
L 366.467455 225.001364 
L 367.127657 280.75291 
L 367.457758 150.814728 
L 367.95291 285.751156 
L 368.283012 293.475719 
L 368.943214 289.743262 
L 369.273315 262.98317 
L 369.603416 285.840411 
L 369.933518 263.624178 
L 370.263619 293.078131 
L 370.59372 275.284049 
L 371.088872 201.681623 
L 371.418973 276.712119 
L 371.749074 282.716506 
L 372.079175 216.44917 
L 372.409277 284.047208 
L 372.739378 268.346548 
L 373.069479 292.729228 
L 373.39958 273.709926 
L 373.894732 280.49326 
L 374.224833 268.882074 
L 374.554935 290.919797 
L 374.885036 291.463438 
L 375.215137 240.296323 
L 375.545238 290.927911 
L 375.875339 273.83975 
L 376.370491 290.286903 
L 376.700593 293.191728 
L 377.030694 251.842597 
L 377.360795 292.923964 
L 377.690896 289.402473 
L 378.020997 170.20403 
L 378.351099 270.245232 
L 378.6812 263.786459 
L 379.176352 267.916504 
L 379.506453 291.293043 
L 379.836554 168.657495 
L 380.166655 291.52835 
L 380.496756 292.615631 
L 380.826858 262.926371 
L 381.156959 267.884048 
L 381.652111 257.449397 
L 381.982212 289.483613 
L 382.312313 284.006638 
L 382.642414 286.213656 
L 382.972516 282.60291 
L 383.302617 242.836017 
L 383.797769 206.533817 
L 384.12787 290.52221 
L 384.457971 289.353788 
L 384.788072 241.627025 
L 385.118173 293.711026 
L 385.448275 293.913877 
L 385.778376 292.266727 
L 386.273528 292.128789 
L 386.603629 287.560586 
L 386.93373 285.134489 
L 387.263831 270.431855 
L 387.593933 284.882954 
L 387.924034 257.246546 
L 388.254135 195.953114 
L 388.749287 264.346328 
L 389.079388 273.6369 
L 389.409489 264.443696 
L 389.739591 161.890388 
L 390.069692 290.668262 
L 390.399793 293.638 
L 390.894945 288.964315 
L 391.225046 276.395672 
L 391.555147 284.939752 
L 391.885248 288.956201 
L 392.21535 103.931825 
L 392.545451 290.652034 
L 393.040603 260.849178 
L 393.370704 294.035587 
L 393.700805 263.810801 
L 394.030906 276.395672 
L 394.361008 281.288436 
L 394.856159 183.481839 
L 395.186261 289.929885 
L 395.516362 290.043481 
L 395.846463 291.804227 
L 396.176564 288.980543 
L 396.671716 288.339534 
L 397.001817 158.344554 
L 397.331918 290.903569 
L 397.66202 291.252473 
L 398.157172 216.603337 
L 398.487273 292.169359 
L 398.487273 292.169359 
" clip-path="url(#p8c9e8a19f9)" style="fill: none; stroke: #0000ff; stroke-opacity: 0.6; stroke-linecap: square"/>
   </g>
   <g id="patch_3">
    <path d="M 57.6 307.584 
L 57.6 41.472 
" style="fill: none; stroke: #000000; stroke-width: 0.8; stroke-linejoin: miter; stroke-linecap: square"/>
   </g>
   <g id="patch_4">
    <path d="M 414.72 307.584 
L 414.72 41.472 
" style="fill: none; stroke: #000000; stroke-width: 0.8; stroke-linejoin: miter; stroke-linecap: square"/>
   </g>
   <g id="patch_5">
    <path d="M 57.6 307.584 
L 414.72 307.584 
" style="fill: none; stroke: #000000; stroke-width: 0.8; stroke-linejoin: miter; stroke-linecap: square"/>
   </g>
   <g id="patch_6">
    <path d="M 57.6 41.472 
L 414.72 41.472 
" style="fill: none; stroke: #000000; stroke-width: 0.8; stroke-linejoin: miter; stroke-linecap: square"/>
   </g>
  </g>
 </g>
 <defs>
  <clipPath id="p8c9e8a19f9">
   <rect x="57.6" y="41.472" width="357.12" height="266.112"/>
  </clipPath>
 </defs>
</svg>
