<?xml version="1.0" encoding="utf-8" standalone="no"?>
<!DOCTYPE svg PUBLIC "-//W3C//DTD SVG 1.1//EN"
  "http://www.w3.org/Graphics/SVG/1.1/DTD/svg11.dtd">
<svg xmlns:xlink="http://www.w3.org/1999/xlink" width="460.8pt" height="345.6pt" viewBox="0 0 460.8 345.6" xmlns="http://www.w3.org/2000/svg" version="1.1">
 <metadata>
  <rdf:RDF xmlns:dc="http://purl.org/dc/elements/1.1/" xmlns:cc="http://creativecommons.org/ns#" xmlns:rdf="http://www.w3.org/1999/02/22-rdf-syntax-ns#">
   <cc:Work>
    <dc:type rdf:resource="http://purl.org/dc/dcmitype/StillImage"/>
    <dc:date>2022-10-06T10:35:01.165358</dc:date>
    <dc:format>image/svg+xml</dc:format>
    <dc:creator>
     <cc:Agent>
      <dc:title>Matplotlib v3.6.0, https://matplotlib.org/</dc:title>
     </cc:Agent>
    </dc:creator>
   </cc:Work>
  </rdf:RDF>
 </metadata>
 <defs>
  <style type="text/css">*{stroke-linejoin: round; stroke-linecap: butt}</style>
 </defs>
 <g id="figure_1">
  <g id="patch_1">
   <path d="M 0 345.6 
L 460.8 345.6 
L 460.8 0 
L 0 0 
z
" style="fill: #ffffff"/>
  </g>
  <g id="axes_1">
   <g id="patch_2">
    <path d="M 57.6 307.584 
L 414.72 307.584 
L 414.72 41.472 
L 57.6 41.472 
z
" style="fill: #ffffff"/>
   </g>
   <g id="matplotlib.axis_1">
    <g id="xtick_1">
     <g id="line2d_1">
      <defs>
       <path id="m1f6a00b74e" d="M 0 0 
L 0 3.5 
" style="stroke: #000000; stroke-width: 0.8"/>
      </defs>
      <g>
       <use xlink:href="#m1f6a00b74e" x="73.832727" y="307.584" style="stroke: #000000; stroke-width: 0.8"/>
      </g>
     </g>
     <g id="text_1">
      <!-- 0 -->
      <g transform="translate(70.651477 322.182437) scale(0.1 -0.1)">
       <defs>
        <path id="DejaVuSans-30" d="M 2034 4250 
Q 1547 4250 1301 3770 
Q 1056 3291 1056 2328 
Q 1056 1369 1301 889 
Q 1547 409 2034 409 
Q 2525 409 2770 889 
Q 3016 1369 3016 2328 
Q 3016 3291 2770 3770 
Q 2525 4250 2034 4250 
z
M 2034 4750 
Q 2819 4750 3233 4129 
Q 3647 3509 3647 2328 
Q 3647 1150 3233 529 
Q 2819 -91 2034 -91 
Q 1250 -91 836 529 
Q 422 1150 422 2328 
Q 422 3509 836 4129 
Q 1250 4750 2034 4750 
z
" transform="scale(0.015625)"/>
       </defs>
       <use xlink:href="#DejaVuSans-30"/>
      </g>
     </g>
    </g>
    <g id="xtick_2">
     <g id="line2d_2">
      <g>
       <use xlink:href="#m1f6a00b74e" x="115.095379" y="307.584" style="stroke: #000000; stroke-width: 0.8"/>
      </g>
     </g>
     <g id="text_2">
      <!-- 250 -->
      <g transform="translate(105.551629 322.182437) scale(0.1 -0.1)">
       <defs>
        <path id="DejaVuSans-32" d="M 1228 531 
L 3431 531 
L 3431 0 
L 469 0 
L 469 531 
Q 828 903 1448 1529 
Q 2069 2156 2228 2338 
Q 2531 2678 2651 2914 
Q 2772 3150 2772 3378 
Q 2772 3750 2511 3984 
Q 2250 4219 1831 4219 
Q 1534 4219 1204 4116 
Q 875 4013 500 3803 
L 500 4441 
Q 881 4594 1212 4672 
Q 1544 4750 1819 4750 
Q 2544 4750 2975 4387 
Q 3406 4025 3406 3419 
Q 3406 3131 3298 2873 
Q 3191 2616 2906 2266 
Q 2828 2175 2409 1742 
Q 1991 1309 1228 531 
z
" transform="scale(0.015625)"/>
        <path id="DejaVuSans-35" d="M 691 4666 
L 3169 4666 
L 3169 4134 
L 1269 4134 
L 1269 2991 
Q 1406 3038 1543 3061 
Q 1681 3084 1819 3084 
Q 2600 3084 3056 2656 
Q 3513 2228 3513 1497 
Q 3513 744 3044 326 
Q 2575 -91 1722 -91 
Q 1428 -91 1123 -41 
Q 819 9 494 109 
L 494 744 
Q 775 591 1075 516 
Q 1375 441 1709 441 
Q 2250 441 2565 725 
Q 2881 1009 2881 1497 
Q 2881 1984 2565 2268 
Q 2250 2553 1709 2553 
Q 1456 2553 1204 2497 
Q 953 2441 691 2322 
L 691 4666 
z
" transform="scale(0.015625)"/>
       </defs>
       <use xlink:href="#DejaVuSans-32"/>
       <use xlink:href="#DejaVuSans-35" x="63.623047"/>
       <use xlink:href="#DejaVuSans-30" x="127.246094"/>
      </g>
     </g>
    </g>
    <g id="xtick_3">
     <g id="line2d_3">
      <g>
       <use xlink:href="#m1f6a00b74e" x="156.358031" y="307.584" style="stroke: #000000; stroke-width: 0.8"/>
      </g>
     </g>
     <g id="text_3">
      <!-- 500 -->
      <g transform="translate(146.814281 322.182437) scale(0.1 -0.1)">
       <use xlink:href="#DejaVuSans-35"/>
       <use xlink:href="#DejaVuSans-30" x="63.623047"/>
       <use xlink:href="#DejaVuSans-30" x="127.246094"/>
      </g>
     </g>
    </g>
    <g id="xtick_4">
     <g id="line2d_4">
      <g>
       <use xlink:href="#m1f6a00b74e" x="197.620683" y="307.584" style="stroke: #000000; stroke-width: 0.8"/>
      </g>
     </g>
     <g id="text_4">
      <!-- 750 -->
      <g transform="translate(188.076933 322.182437) scale(0.1 -0.1)">
       <defs>
        <path id="DejaVuSans-37" d="M 525 4666 
L 3525 4666 
L 3525 4397 
L 1831 0 
L 1172 0 
L 2766 4134 
L 525 4134 
L 525 4666 
z
" transform="scale(0.015625)"/>
       </defs>
       <use xlink:href="#DejaVuSans-37"/>
       <use xlink:href="#DejaVuSans-35" x="63.623047"/>
       <use xlink:href="#DejaVuSans-30" x="127.246094"/>
      </g>
     </g>
    </g>
    <g id="xtick_5">
     <g id="line2d_5">
      <g>
       <use xlink:href="#m1f6a00b74e" x="238.883335" y="307.584" style="stroke: #000000; stroke-width: 0.8"/>
      </g>
     </g>
     <g id="text_5">
      <!-- 1000 -->
      <g transform="translate(226.158335 322.182437) scale(0.1 -0.1)">
       <defs>
        <path id="DejaVuSans-31" d="M 794 531 
L 1825 531 
L 1825 4091 
L 703 3866 
L 703 4441 
L 1819 4666 
L 2450 4666 
L 2450 531 
L 3481 531 
L 3481 0 
L 794 0 
L 794 531 
z
" transform="scale(0.015625)"/>
       </defs>
       <use xlink:href="#DejaVuSans-31"/>
       <use xlink:href="#DejaVuSans-30" x="63.623047"/>
       <use xlink:href="#DejaVuSans-30" x="127.246094"/>
       <use xlink:href="#DejaVuSans-30" x="190.869141"/>
      </g>
     </g>
    </g>
    <g id="xtick_6">
     <g id="line2d_6">
      <g>
       <use xlink:href="#m1f6a00b74e" x="280.145987" y="307.584" style="stroke: #000000; stroke-width: 0.8"/>
      </g>
     </g>
     <g id="text_6">
      <!-- 1250 -->
      <g transform="translate(267.420987 322.182437) scale(0.1 -0.1)">
       <use xlink:href="#DejaVuSans-31"/>
       <use xlink:href="#DejaVuSans-32" x="63.623047"/>
       <use xlink:href="#DejaVuSans-35" x="127.246094"/>
       <use xlink:href="#DejaVuSans-30" x="190.869141"/>
      </g>
     </g>
    </g>
    <g id="xtick_7">
     <g id="line2d_7">
      <g>
       <use xlink:href="#m1f6a00b74e" x="321.408639" y="307.584" style="stroke: #000000; stroke-width: 0.8"/>
      </g>
     </g>
     <g id="text_7">
      <!-- 1500 -->
      <g transform="translate(308.683639 322.182437) scale(0.1 -0.1)">
       <use xlink:href="#DejaVuSans-31"/>
       <use xlink:href="#DejaVuSans-35" x="63.623047"/>
       <use xlink:href="#DejaVuSans-30" x="127.246094"/>
       <use xlink:href="#DejaVuSans-30" x="190.869141"/>
      </g>
     </g>
    </g>
    <g id="xtick_8">
     <g id="line2d_8">
      <g>
       <use xlink:href="#m1f6a00b74e" x="362.671291" y="307.584" style="stroke: #000000; stroke-width: 0.8"/>
      </g>
     </g>
     <g id="text_8">
      <!-- 1750 -->
      <g transform="translate(349.946291 322.182437) scale(0.1 -0.1)">
       <use xlink:href="#DejaVuSans-31"/>
       <use xlink:href="#DejaVuSans-37" x="63.623047"/>
       <use xlink:href="#DejaVuSans-35" x="127.246094"/>
       <use xlink:href="#DejaVuSans-30" x="190.869141"/>
      </g>
     </g>
    </g>
    <g id="xtick_9">
     <g id="line2d_9">
      <g>
       <use xlink:href="#m1f6a00b74e" x="403.933943" y="307.584" style="stroke: #000000; stroke-width: 0.8"/>
      </g>
     </g>
     <g id="text_9">
      <!-- 2000 -->
      <g transform="translate(391.208943 322.182437) scale(0.1 -0.1)">
       <use xlink:href="#DejaVuSans-32"/>
       <use xlink:href="#DejaVuSans-30" x="63.623047"/>
       <use xlink:href="#DejaVuSans-30" x="127.246094"/>
       <use xlink:href="#DejaVuSans-30" x="190.869141"/>
      </g>
     </g>
    </g>
    <g id="text_10">
     <!-- time -->
     <g transform="translate(224.863906 335.860562) scale(0.1 -0.1)">
      <defs>
       <path id="DejaVuSans-74" d="M 1172 4494 
L 1172 3500 
L 2356 3500 
L 2356 3053 
L 1172 3053 
L 1172 1153 
Q 1172 725 1289 603 
Q 1406 481 1766 481 
L 2356 481 
L 2356 0 
L 1766 0 
Q 1100 0 847 248 
Q 594 497 594 1153 
L 594 3053 
L 172 3053 
L 172 3500 
L 594 3500 
L 594 4494 
L 1172 4494 
z
" transform="scale(0.015625)"/>
       <path id="DejaVuSans-69" d="M 603 3500 
L 1178 3500 
L 1178 0 
L 603 0 
L 603 3500 
z
M 603 4863 
L 1178 4863 
L 1178 4134 
L 603 4134 
L 603 4863 
z
" transform="scale(0.015625)"/>
       <path id="DejaVuSans-6d" d="M 3328 2828 
Q 3544 3216 3844 3400 
Q 4144 3584 4550 3584 
Q 5097 3584 5394 3201 
Q 5691 2819 5691 2113 
L 5691 0 
L 5113 0 
L 5113 2094 
Q 5113 2597 4934 2840 
Q 4756 3084 4391 3084 
Q 3944 3084 3684 2787 
Q 3425 2491 3425 1978 
L 3425 0 
L 2847 0 
L 2847 2094 
Q 2847 2600 2669 2842 
Q 2491 3084 2119 3084 
Q 1678 3084 1418 2786 
Q 1159 2488 1159 1978 
L 1159 0 
L 581 0 
L 581 3500 
L 1159 3500 
L 1159 2956 
Q 1356 3278 1631 3431 
Q 1906 3584 2284 3584 
Q 2666 3584 2933 3390 
Q 3200 3197 3328 2828 
z
" transform="scale(0.015625)"/>
       <path id="DejaVuSans-65" d="M 3597 1894 
L 3597 1613 
L 953 1613 
Q 991 1019 1311 708 
Q 1631 397 2203 397 
Q 2534 397 2845 478 
Q 3156 559 3463 722 
L 3463 178 
Q 3153 47 2828 -22 
Q 2503 -91 2169 -91 
Q 1331 -91 842 396 
Q 353 884 353 1716 
Q 353 2575 817 3079 
Q 1281 3584 2069 3584 
Q 2775 3584 3186 3129 
Q 3597 2675 3597 1894 
z
M 3022 2063 
Q 3016 2534 2758 2815 
Q 2500 3097 2075 3097 
Q 1594 3097 1305 2825 
Q 1016 2553 972 2059 
L 3022 2063 
z
" transform="scale(0.015625)"/>
      </defs>
      <use xlink:href="#DejaVuSans-74"/>
      <use xlink:href="#DejaVuSans-69" x="39.208984"/>
      <use xlink:href="#DejaVuSans-6d" x="66.992188"/>
      <use xlink:href="#DejaVuSans-65" x="164.404297"/>
     </g>
    </g>
   </g>
   <g id="matplotlib.axis_2">
    <g id="ytick_1">
     <g id="line2d_10">
      <defs>
       <path id="m35b206d2a2" d="M 0 0 
L -3.5 0 
" style="stroke: #000000; stroke-width: 0.8"/>
      </defs>
      <g>
       <use xlink:href="#m35b206d2a2" x="57.6" y="302.930345" style="stroke: #000000; stroke-width: 0.8"/>
      </g>
     </g>
     <g id="text_11">
      <!-- 0 -->
      <g transform="translate(44.2375 306.729564) scale(0.1 -0.1)">
       <use xlink:href="#DejaVuSans-30"/>
      </g>
     </g>
    </g>
    <g id="ytick_2">
     <g id="line2d_11">
      <g>
       <use xlink:href="#m35b206d2a2" x="57.6" y="256.233277" style="stroke: #000000; stroke-width: 0.8"/>
      </g>
     </g>
     <g id="text_12">
      <!-- 2000 -->
      <g transform="translate(25.15 260.032496) scale(0.1 -0.1)">
       <use xlink:href="#DejaVuSans-32"/>
       <use xlink:href="#DejaVuSans-30" x="63.623047"/>
       <use xlink:href="#DejaVuSans-30" x="127.246094"/>
       <use xlink:href="#DejaVuSans-30" x="190.869141"/>
      </g>
     </g>
    </g>
    <g id="ytick_3">
     <g id="line2d_12">
      <g>
       <use xlink:href="#m35b206d2a2" x="57.6" y="209.536208" style="stroke: #000000; stroke-width: 0.8"/>
      </g>
     </g>
     <g id="text_13">
      <!-- 4000 -->
      <g transform="translate(25.15 213.335427) scale(0.1 -0.1)">
       <defs>
        <path id="DejaVuSans-34" d="M 2419 4116 
L 825 1625 
L 2419 1625 
L 2419 4116 
z
M 2253 4666 
L 3047 4666 
L 3047 1625 
L 3713 1625 
L 3713 1100 
L 3047 1100 
L 3047 0 
L 2419 0 
L 2419 1100 
L 313 1100 
L 313 1709 
L 2253 4666 
z
" transform="scale(0.015625)"/>
       </defs>
       <use xlink:href="#DejaVuSans-34"/>
       <use xlink:href="#DejaVuSans-30" x="63.623047"/>
       <use xlink:href="#DejaVuSans-30" x="127.246094"/>
       <use xlink:href="#DejaVuSans-30" x="190.869141"/>
      </g>
     </g>
    </g>
    <g id="ytick_4">
     <g id="line2d_13">
      <g>
       <use xlink:href="#m35b206d2a2" x="57.6" y="162.83914" style="stroke: #000000; stroke-width: 0.8"/>
      </g>
     </g>
     <g id="text_14">
      <!-- 6000 -->
      <g transform="translate(25.15 166.638359) scale(0.1 -0.1)">
       <defs>
        <path id="DejaVuSans-36" d="M 2113 2584 
Q 1688 2584 1439 2293 
Q 1191 2003 1191 1497 
Q 1191 994 1439 701 
Q 1688 409 2113 409 
Q 2538 409 2786 701 
Q 3034 994 3034 1497 
Q 3034 2003 2786 2293 
Q 2538 2584 2113 2584 
z
M 3366 4563 
L 3366 3988 
Q 3128 4100 2886 4159 
Q 2644 4219 2406 4219 
Q 1781 4219 1451 3797 
Q 1122 3375 1075 2522 
Q 1259 2794 1537 2939 
Q 1816 3084 2150 3084 
Q 2853 3084 3261 2657 
Q 3669 2231 3669 1497 
Q 3669 778 3244 343 
Q 2819 -91 2113 -91 
Q 1303 -91 875 529 
Q 447 1150 447 2328 
Q 447 3434 972 4092 
Q 1497 4750 2381 4750 
Q 2619 4750 2861 4703 
Q 3103 4656 3366 4563 
z
" transform="scale(0.015625)"/>
       </defs>
       <use xlink:href="#DejaVuSans-36"/>
       <use xlink:href="#DejaVuSans-30" x="63.623047"/>
       <use xlink:href="#DejaVuSans-30" x="127.246094"/>
       <use xlink:href="#DejaVuSans-30" x="190.869141"/>
      </g>
     </g>
    </g>
    <g id="ytick_5">
     <g id="line2d_14">
      <g>
       <use xlink:href="#m35b206d2a2" x="57.6" y="116.142072" style="stroke: #000000; stroke-width: 0.8"/>
      </g>
     </g>
     <g id="text_15">
      <!-- 8000 -->
      <g transform="translate(25.15 119.94129) scale(0.1 -0.1)">
       <defs>
        <path id="DejaVuSans-38" d="M 2034 2216 
Q 1584 2216 1326 1975 
Q 1069 1734 1069 1313 
Q 1069 891 1326 650 
Q 1584 409 2034 409 
Q 2484 409 2743 651 
Q 3003 894 3003 1313 
Q 3003 1734 2745 1975 
Q 2488 2216 2034 2216 
z
M 1403 2484 
Q 997 2584 770 2862 
Q 544 3141 544 3541 
Q 544 4100 942 4425 
Q 1341 4750 2034 4750 
Q 2731 4750 3128 4425 
Q 3525 4100 3525 3541 
Q 3525 3141 3298 2862 
Q 3072 2584 2669 2484 
Q 3125 2378 3379 2068 
Q 3634 1759 3634 1313 
Q 3634 634 3220 271 
Q 2806 -91 2034 -91 
Q 1263 -91 848 271 
Q 434 634 434 1313 
Q 434 1759 690 2068 
Q 947 2378 1403 2484 
z
M 1172 3481 
Q 1172 3119 1398 2916 
Q 1625 2713 2034 2713 
Q 2441 2713 2670 2916 
Q 2900 3119 2900 3481 
Q 2900 3844 2670 4047 
Q 2441 4250 2034 4250 
Q 1625 4250 1398 4047 
Q 1172 3844 1172 3481 
z
" transform="scale(0.015625)"/>
       </defs>
       <use xlink:href="#DejaVuSans-38"/>
       <use xlink:href="#DejaVuSans-30" x="63.623047"/>
       <use xlink:href="#DejaVuSans-30" x="127.246094"/>
       <use xlink:href="#DejaVuSans-30" x="190.869141"/>
      </g>
     </g>
    </g>
    <g id="ytick_6">
     <g id="line2d_15">
      <g>
       <use xlink:href="#m35b206d2a2" x="57.6" y="69.445003" style="stroke: #000000; stroke-width: 0.8"/>
      </g>
     </g>
     <g id="text_16">
      <!-- 10000 -->
      <g transform="translate(18.7875 73.244222) scale(0.1 -0.1)">
       <use xlink:href="#DejaVuSans-31"/>
       <use xlink:href="#DejaVuSans-30" x="63.623047"/>
       <use xlink:href="#DejaVuSans-30" x="127.246094"/>
       <use xlink:href="#DejaVuSans-30" x="190.869141"/>
       <use xlink:href="#DejaVuSans-30" x="254.492188"/>
      </g>
     </g>
    </g>
    <g id="text_17">
     <!-- latency -->
     <g transform="translate(12.707812 192.895187) rotate(-90) scale(0.1 -0.1)">
      <defs>
       <path id="DejaVuSans-6c" d="M 603 4863 
L 1178 4863 
L 1178 0 
L 603 0 
L 603 4863 
z
" transform="scale(0.015625)"/>
       <path id="DejaVuSans-61" d="M 2194 1759 
Q 1497 1759 1228 1600 
Q 959 1441 959 1056 
Q 959 750 1161 570 
Q 1363 391 1709 391 
Q 2188 391 2477 730 
Q 2766 1069 2766 1631 
L 2766 1759 
L 2194 1759 
z
M 3341 1997 
L 3341 0 
L 2766 0 
L 2766 531 
Q 2569 213 2275 61 
Q 1981 -91 1556 -91 
Q 1019 -91 701 211 
Q 384 513 384 1019 
Q 384 1609 779 1909 
Q 1175 2209 1959 2209 
L 2766 2209 
L 2766 2266 
Q 2766 2663 2505 2880 
Q 2244 3097 1772 3097 
Q 1472 3097 1187 3025 
Q 903 2953 641 2809 
L 641 3341 
Q 956 3463 1253 3523 
Q 1550 3584 1831 3584 
Q 2591 3584 2966 3190 
Q 3341 2797 3341 1997 
z
" transform="scale(0.015625)"/>
       <path id="DejaVuSans-6e" d="M 3513 2113 
L 3513 0 
L 2938 0 
L 2938 2094 
Q 2938 2591 2744 2837 
Q 2550 3084 2163 3084 
Q 1697 3084 1428 2787 
Q 1159 2491 1159 1978 
L 1159 0 
L 581 0 
L 581 3500 
L 1159 3500 
L 1159 2956 
Q 1366 3272 1645 3428 
Q 1925 3584 2291 3584 
Q 2894 3584 3203 3211 
Q 3513 2838 3513 2113 
z
" transform="scale(0.015625)"/>
       <path id="DejaVuSans-63" d="M 3122 3366 
L 3122 2828 
Q 2878 2963 2633 3030 
Q 2388 3097 2138 3097 
Q 1578 3097 1268 2742 
Q 959 2388 959 1747 
Q 959 1106 1268 751 
Q 1578 397 2138 397 
Q 2388 397 2633 464 
Q 2878 531 3122 666 
L 3122 134 
Q 2881 22 2623 -34 
Q 2366 -91 2075 -91 
Q 1284 -91 818 406 
Q 353 903 353 1747 
Q 353 2603 823 3093 
Q 1294 3584 2113 3584 
Q 2378 3584 2631 3529 
Q 2884 3475 3122 3366 
z
" transform="scale(0.015625)"/>
       <path id="DejaVuSans-79" d="M 2059 -325 
Q 1816 -950 1584 -1140 
Q 1353 -1331 966 -1331 
L 506 -1331 
L 506 -850 
L 844 -850 
Q 1081 -850 1212 -737 
Q 1344 -625 1503 -206 
L 1606 56 
L 191 3500 
L 800 3500 
L 1894 763 
L 2988 3500 
L 3597 3500 
L 2059 -325 
z
" transform="scale(0.015625)"/>
      </defs>
      <use xlink:href="#DejaVuSans-6c"/>
      <use xlink:href="#DejaVuSans-61" x="27.783203"/>
      <use xlink:href="#DejaVuSans-74" x="89.0625"/>
      <use xlink:href="#DejaVuSans-65" x="128.271484"/>
      <use xlink:href="#DejaVuSans-6e" x="189.794922"/>
      <use xlink:href="#DejaVuSans-63" x="253.173828"/>
      <use xlink:href="#DejaVuSans-79" x="308.154297"/>
     </g>
    </g>
   </g>
   <g id="line2d_16">
    <path d="M 73.832727 287.629273 
L 73.832727 185.020248 
L 73.997778 289.084664 
L 73.997778 278.657209 
L 73.997778 124.335285 
L 73.997778 288.158505 
L 73.997778 244.185433 
L 74.162828 268.763658 
L 74.162828 266.459935 
L 74.162828 289.02796 
L 74.162828 117.076013 
L 74.162828 211.131691 
L 74.327879 288.065111 
L 74.327879 278.75683 
L 74.327879 112.639792 
L 74.327879 287.018319 
L 74.327879 280.500186 
L 74.49293 291.104313 
L 74.49293 197.161485 
L 74.49293 291.542098 
L 74.49293 231.950801 
L 74.65798 242.418727 
L 74.65798 208.485524 
L 74.65798 292.003231 
L 74.65798 286.026007 
L 74.823031 285.313876 
L 74.823031 218.735531 
L 74.823031 287.531987 
L 74.823031 284.126993 
L 74.988082 284.018033 
L 74.988082 241.040052 
L 74.988082 290.678202 
L 74.988082 288.533639 
L 75.153132 254.268108 
L 75.153132 291.23273 
L 75.153132 278.928052 
L 75.318183 280.336746 
L 75.318183 291.868977 
L 75.318183 277.68591 
L 75.318183 290.298788 
L 75.483233 290.147023 
L 75.483233 280.083805 
L 75.483233 292.885806 
L 75.648284 284.088078 
L 75.648284 264.517337 
L 75.648284 288.765567 
L 75.813335 287.660404 
L 75.813335 137.622723 
L 75.813335 290.709722 
L 75.813335 290.238082 
L 75.978385 282.827257 
L 75.978385 292.804863 
L 75.978385 237.771257 
L 76.143436 290.789107 
L 76.143436 290.135349 
L 76.308486 290.240417 
L 76.308486 264.638749 
L 76.308486 293.966453 
L 76.308486 286.072704 
L 76.473537 288.851179 
L 76.473537 275.052195 
L 76.473537 291.250241 
L 76.473537 285.273016 
L 76.638588 282.838932 
L 76.638588 255.719609 
L 76.638588 290.176208 
L 76.638588 284.239844 
L 76.803638 292.998463 
L 76.803638 227.10598 
L 76.803638 239.328938 
L 76.968689 289.691726 
L 76.968689 287.893889 
L 77.133739 261.510046 
L 77.133739 255.182593 
L 77.133739 289.94856 
L 77.29879 292.411831 
L 77.29879 188.1723 
L 77.463841 291.178251 
L 77.463841 287.341306 
L 77.628891 224.662722 
L 77.628891 288.897876 
L 77.628891 288.843397 
L 77.793942 284.356586 
L 77.793942 281.332951 
L 77.793942 291.279427 
L 77.958992 287.898559 
L 77.958992 265.610048 
L 77.958992 284.5317 
L 78.124043 287.205107 
L 78.124043 286.944381 
L 78.124043 291.6997 
L 78.124043 227.84813 
L 78.289094 290.106163 
L 78.454144 287.68959 
L 78.454144 221.152104 
L 78.454144 290.147023 
L 78.619195 292.427397 
L 78.619195 213.388717 
L 78.784246 246.232322 
L 78.784246 287.364655 
L 78.949296 284.06473 
L 78.949296 289.507857 
L 78.949296 236.834537 
L 79.114347 291.649111 
L 79.114347 287.333524 
L 79.279397 216.307283 
L 79.279397 288.413394 
L 79.444448 289.67616 
L 79.444448 289.446567 
L 79.444448 275.052195 
L 79.609499 279.021446 
L 79.609499 287.0907 
L 79.774549 258.801616 
L 79.774549 291.240512 
L 79.9396 288.932899 
L 79.9396 270.444752 
L 80.10465 290.649016 
L 80.10465 218.000052 
L 80.269701 289.002945 
L 80.434752 287.333524 
L 80.434752 285.220482 
L 80.434752 286.547456 
L 80.599802 285.839218 
L 80.599802 289.668378 
L 80.764853 293.392469 
L 80.764853 286.633068 
L 80.929903 270.117873 
L 80.929903 237.110827 
L 80.929903 285.847 
L 81.094954 257.377355 
L 81.094954 224.245785 
L 81.094954 286.294515 
L 81.260005 236.985329 
L 81.260005 287.788821 
L 81.425055 162.372169 
L 81.425055 289.845827 
L 81.425055 251.070657 
L 81.590106 288.36086 
L 81.590106 246.180435 
L 81.755156 289.808469 
L 81.755156 263.132769 
L 81.920207 289.586658 
L 82.085258 290.267658 
L 82.085258 262.572404 
L 82.250308 287.531987 
L 82.250308 285.360573 
L 82.415359 286.037681 
L 82.415359 287.769365 
L 82.580409 287.202773 
L 82.580409 278.391036 
L 82.580409 287.006645 
L 82.74546 189.71914 
L 82.74546 290.012769 
L 82.910511 290.07114 
L 82.910511 292.405993 
L 82.910511 290.70155 
L 83.075561 289.214749 
L 83.075561 284.298215 
L 83.240612 283.90129 
L 83.240612 289.878515 
L 83.405663 226.23041 
L 83.405663 227.047609 
L 83.570713 256.046489 
L 83.570713 287.788821 
L 83.900814 282.78056 
L 83.900814 287.619544 
L 84.065865 286.581702 
L 84.065865 279.535114 
L 84.065865 287.123388 
L 84.230916 266.658397 
L 84.230916 289.510775 
L 84.395966 285.940394 
L 84.395966 290.182046 
L 84.561017 285.453967 
L 84.561017 286.387909 
L 84.726067 215.314971 
L 84.726067 289.061316 
L 84.726067 288.158505 
L 84.891118 252.831062 
L 84.891118 253.618241 
L 85.056169 289.416214 
L 85.056169 288.290814 
L 85.221219 286.625286 
L 85.221219 253.781681 
L 85.38627 252.287375 
L 85.38627 250.629629 
L 85.55132 290.654853 
L 85.55132 286.784834 
L 85.55132 259.52542 
L 85.716371 263.222271 
L 85.716371 287.19927 
L 85.881422 287.375552 
L 85.881422 234.085525 
L 86.046472 245.741029 
L 86.046472 291.625763 
L 86.211523 289.528287 
L 86.211523 273.768026 
L 86.376573 286.306189 
L 86.376573 271.658876 
L 86.376573 283.90129 
L 86.541624 265.922919 
L 86.541624 286.516326 
L 86.706675 259.36198 
L 86.706675 293.520886 
L 86.871725 286.586371 
L 86.871725 288.421566 
L 87.036776 288.36086 
L 87.036776 242.12687 
L 87.201827 286.600964 
L 87.201827 257.251273 
L 87.366877 287.185651 
L 87.366877 286.703114 
L 87.531928 287.68959 
L 87.531928 289.355507 
L 87.696978 287.759635 
L 87.696978 280.725889 
L 87.862029 257.758714 
L 87.862029 282.691058 
L 88.02708 286.679765 
L 88.02708 289.722857 
L 88.19213 284.041381 
L 88.357181 283.889616 
L 88.357181 293.013055 
L 88.522231 286.916587 
L 88.522231 290.90118 
L 88.687282 288.874528 
L 88.687282 291.833954 
L 88.852333 291.649111 
L 88.852333 288.804482 
L 88.852333 288.95041 
L 89.017383 276.957436 
L 89.017383 287.310176 
L 89.182434 293.236811 
L 89.182434 292.927165 
L 89.182434 289.03213 
L 89.347484 293.272808 
L 89.347484 292.804863 
L 89.512535 288.296651 
L 89.512535 292.341785 
L 89.512535 287.095369 
L 89.677586 285.722476 
L 89.677586 291.186033 
L 89.842636 291.162684 
L 89.842636 281.98671 
L 89.842636 288.921225 
L 90.007687 287.436258 
L 90.007687 230.82229 
L 90.172737 281.928339 
L 90.172737 212.046176 
L 90.337788 288.430906 
L 90.337788 284.111427 
L 90.502839 289.52245 
L 90.667889 295.488 
L 90.667889 284.204821 
L 90.83294 137.856208 
L 90.83294 292.758166 
L 91.163041 279.395023 
L 91.163041 290.041954 
L 91.328092 288.866746 
L 91.328092 290.975896 
L 91.328092 285.32555 
L 91.493142 285.348899 
L 91.493142 189.612127 
L 91.658193 290.240417 
L 91.658193 214.439401 
L 91.823244 289.543853 
L 91.988294 266.459935 
L 91.988294 291.991557 
L 92.153345 290.006932 
L 92.153345 92.093081 
L 92.318395 291.139336 
L 92.483446 292.335948 
L 92.483446 274.164951 
L 92.648497 279.301629 
L 92.648497 289.213081 
L 92.813547 246.059987 
L 92.813547 279.597378 
L 92.978598 292.365134 
L 92.978598 287.835518 
L 93.143648 289.919375 
L 93.143648 289.452404 
L 93.308699 271.281407 
L 93.308699 288.355023 
L 93.47375 257.654201 
L 93.47375 291.285264 
L 93.6388 291.261915 
L 93.6388 200.313537 
L 93.803851 292.05771 
L 93.803851 285.64776 
L 93.968901 287.461941 
L 93.968901 286.819857 
L 94.133952 293.036404 
L 94.299003 284.998671 
L 94.299003 243.00244 
L 94.464053 222.72813 
L 94.464053 288.99127 
L 94.629104 290.317467 
L 94.629104 280.550775 
L 94.794154 290.438879 
L 94.794154 282.967349 
L 94.959205 293.120069 
L 94.959205 122.913147 
L 95.124256 294.991844 
L 95.289306 281.98671 
L 95.289306 294.711661 
L 95.454357 290.337703 
L 95.454357 287.317958 
L 95.619407 244.792495 
L 95.619407 284.088078 
L 95.784458 277.732607 
L 95.784458 287.847192 
L 95.949509 287.64873 
L 95.949509 293.590932 
L 96.114559 287.40357 
L 96.114559 291.641329 
L 96.27961 281.683179 
L 96.27961 265.479296 
L 96.444661 271.339779 
L 96.444661 291.483726 
L 96.774762 279.581811 
L 96.774762 290.462228 
L 96.774762 288.936791 
L 96.939812 288.150723 
L 96.939812 263.856573 
L 97.104863 244.55901 
L 97.104863 288.407557 
L 97.269914 269.448547 
L 97.269914 287.076691 
L 97.434964 291.174358 
L 97.434964 290.3844 
L 97.600015 285.990984 
L 97.600015 256.443414 
L 97.765065 285.950124 
L 97.765065 276.188492 
L 97.930116 277.060169 
L 97.930116 271.993537 
L 98.095167 291.291101 
L 98.095167 278.297642 
L 98.260217 290.329919 
L 98.425268 289.563309 
L 98.425268 279.348326 
L 98.590318 292.423505 
L 98.755369 281.519739 
L 98.755369 287.388004 
L 98.92042 288.416896 
L 98.92042 283.644456 
L 99.08547 291.279427 
L 99.08547 287.56701 
L 99.250521 283.947987 
L 99.250521 258.311296 
L 99.415571 289.738423 
L 99.580622 284.041381 
L 99.745673 289.845827 
L 99.745673 88.668629 
L 99.910723 291.510577 
L 100.075774 286.516326 
L 100.075774 274.631922 
L 100.240825 291.162684 
L 100.405875 284.920843 
L 100.405875 285.797191 
L 100.570926 283.504365 
L 100.570926 284.648443 
L 100.735976 288.804482 
L 100.735976 286.492977 
L 100.901027 285.337225 
L 100.901027 285.660212 
L 101.066078 290.123674 
L 101.231128 290.252091 
L 101.231128 288.570997 
L 101.396179 264.638749 
L 101.561229 286.026007 
L 101.891331 269.962215 
L 101.891331 262.226068 
L 102.056381 285.360573 
L 102.056381 281.745443 
L 102.221432 286.633068 
L 102.386482 286.072704 
L 102.386482 230.316404 
L 102.551533 287.893889 
L 102.716584 268.318478 
L 102.716584 278.741264 
L 102.881634 279.698554 
L 102.881634 278.535797 
L 103.211735 289.294801 
L 103.211735 278.873573 
L 103.376786 289.168051 
L 103.376786 210.807405 
L 103.541837 293.45084 
L 103.541837 287.345199 
L 103.706887 279.721902 
L 103.706887 293.826752 
L 103.871938 177.46116 
L 104.036988 289.738423 
L 104.202039 284.414958 
L 104.202039 250.850142 
L 104.36709 250.221029 
L 104.53214 288.851179 
L 104.53214 279.47285 
L 104.697191 262.654124 
L 104.862242 287.695427 
L 104.862242 271.092284 
L 105.027292 293.45084 
L 105.192343 275.822697 
L 105.192343 282.31359 
L 105.357393 279.379456 
L 105.357393 272.156977 
L 105.522444 291.162684 
L 105.687495 288.010632 
L 105.687495 291.547935 
L 105.852545 259.478723 
L 106.017596 285.129423 
L 106.182646 291.302775 
L 106.182646 272.082262 
L 106.347697 288.96014 
L 106.347697 285.889808 
L 106.512748 286.598046 
L 106.677798 285.477316 
L 106.677798 288.617694 
L 106.842849 287.963935 
L 106.842849 288.999052 
L 107.007899 230.176313 
L 107.17295 290.210064 
L 107.17295 278.507779 
L 107.338001 209.372769 
L 107.338001 286.043518 
L 107.503051 284.111427 
L 107.668102 270.102306 
L 107.668102 270.1957 
L 107.833152 288.897876 
L 107.998203 289.945224 
L 108.163254 289.831818 
L 108.163254 247.89785 
L 108.328304 268.848156 
L 108.328304 285.65243 
L 108.493355 291.942525 
L 108.658406 284.788534 
L 108.823456 194.159532 
L 108.823456 289.061316 
L 108.988507 278.694567 
L 109.153557 221.443961 
L 109.153557 292.832104 
L 109.318608 292.791244 
L 109.318608 277.352026 
L 109.483659 260.80959 
L 109.648709 277.713928 
L 109.648709 293.618172 
L 109.81376 292.563596 
L 109.97881 236.425938 
L 109.97881 238.43002 
L 110.143861 288.874528 
L 110.308912 286.664199 
L 110.308912 283.395404 
L 110.473962 286.28284 
L 110.473962 284.391609 
L 110.639013 234.71371 
L 110.804063 292.723144 
L 111.134165 288.804482 
L 111.134165 293.754371 
L 111.464266 284.169798 
L 111.464266 250.889057 
L 111.794367 291.933186 
L 111.959418 291.933186 
L 112.124468 286.294515 
L 112.124468 275.687276 
L 112.289519 287.08136 
L 112.454569 283.289558 
L 112.454569 266.541655 
L 112.61962 290.952547 
L 112.784671 291.582958 
L 112.784671 284.212603 
L 112.949721 293.731023 
L 113.114772 288.711088 
L 113.114772 291.933186 
L 113.279823 291.372821 
L 113.444873 283.481016 
L 113.444873 263.097746 
L 113.609924 284.959756 
L 113.774974 291.209381 
L 113.774974 217.958359 
L 113.940025 292.612238 
L 114.105076 283.831244 
L 114.105076 203.699075 
L 114.270126 291.209381 
L 114.435177 266.347862 
L 114.435177 162.488912 
L 114.600227 288.937569 
L 114.765278 289.228092 
L 114.930329 286.580534 
L 114.930329 282.389472 
L 115.095379 269.931084 
L 115.26043 284.648443 
L 115.42548 266.973603 
L 115.42548 285.16678 
L 115.590531 292.388482 
L 115.755582 289.458241 
L 115.920632 290.415531 
L 115.920632 286.679765 
L 116.085683 289.829483 
L 116.250733 288.913443 
L 116.250733 289.224756 
L 116.415784 218.338606 
L 116.580835 293.462515 
L 116.745885 273.810053 
L 116.745885 274.289476 
L 116.910936 279.558463 
L 117.075987 266.895775 
L 117.075987 288.987378 
L 117.241037 267.341342 
L 117.406088 292.878801 
L 117.571138 284.69514 
L 117.736189 290.15286 
L 117.90124 288.570997 
L 117.90124 291.174358 
L 118.06629 290.625668 
L 118.231341 281.037202 
L 118.396391 288.921225 
L 118.396391 284.158124 
L 118.561442 267.915326 
L 118.726493 292.429342 
L 119.056594 289.605003 
L 119.056594 289.178059 
L 119.221644 279.184886 
L 119.551746 288.804482 
L 119.551746 236.328651 
L 119.716796 279.791948 
L 119.881847 290.053629 
L 119.881847 289.768443 
L 120.046897 285.638421 
L 120.211948 277.560496 
L 120.376999 286.492977 
L 120.376999 214.579492 
L 120.542049 288.84184 
L 120.7071 270.242397 
L 120.87215 283.512147 
L 120.87215 230.106267 
L 121.037201 284.288876 
L 121.202252 251.991626 
L 121.367302 292.073277 
L 121.532353 290.150915 
L 121.697404 285.792521 
L 121.862454 287.818007 
L 121.862454 290.353267 
L 122.027505 278.118635 
L 122.192555 284.018033 
L 122.357606 284.193147 
L 122.522657 287.372439 
L 122.522657 281.951687 
L 122.687707 284.257355 
L 122.852758 290.147023 
L 123.182859 291.898163 
L 123.34791 288.36086 
L 123.51296 288.407557 
L 123.51296 291.614088 
L 123.678011 281.473042 
L 123.843061 225.802355 
L 124.008112 287.450267 
L 124.173163 235.703245 
L 124.173163 287.695427 
L 124.338213 287.613707 
L 124.503264 291.092638 
L 124.668314 287.672078 
L 124.668314 277.704589 
L 124.833365 288.788916 
L 125.163466 272.472182 
L 125.163466 288.862853 
L 125.328517 288.03398 
L 125.493568 289.140701 
L 125.658618 286.504651 
L 125.658618 292.405993 
L 125.823669 287.40357 
L 125.988719 287.666241 
L 126.318821 290.516707 
L 126.318821 283.309794 
L 126.483871 197.278228 
L 126.648922 291.571283 
L 126.813972 288.687739 
L 126.813972 248.859032 
L 126.979023 287.654567 
L 127.144074 285.313876 
L 127.309124 290.094489 
L 127.474175 278.250945 
L 127.474175 290.649016 
L 127.639225 290.345485 
L 127.804276 272.133629 
L 127.969327 289.48159 
L 127.969327 242.294202 
L 128.134377 291.154902 
L 128.299428 280.089642 
L 128.464478 290.568964 
L 128.629529 288.99127 
L 128.629529 287.333524 
L 128.79458 288.929007 
L 128.95963 291.80185 
L 129.124681 286.352886 
L 129.289731 287.333524 
L 129.289731 291.621873 
L 129.454782 292.02658 
L 129.619833 280.089642 
L 129.784883 141.591974 
L 129.949934 289.598332 
L 130.114985 292.365134 
L 130.280035 289.329824 
L 130.445086 284.06473 
L 130.445086 287.979501 
L 130.610136 205.664244 
L 130.775187 291.758072 
L 130.940238 288.430906 
L 131.105288 292.432844 
L 131.105288 284.193147 
L 131.270339 284.391609 
L 131.435389 290.707388 
L 131.60044 162.372169 
L 131.765491 284.269029 
L 131.765491 281.402997 
L 131.930541 291.723049 
L 132.095592 282.996534 
L 132.260642 216.340639 
L 132.425693 289.75399 
L 132.590744 287.683752 
L 132.590744 291.629655 
L 132.755794 290.765759 
L 132.920845 288.049547 
L 133.085895 288.430906 
L 133.250946 290.859153 
L 133.415997 289.699508 
L 133.415997 288.08457 
L 133.581047 287.654567 
L 133.746098 281.908882 
L 134.076199 251.446827 
L 134.24125 291.637437 
L 134.24125 288.962085 
L 134.4063 289.680052 
L 134.571351 293.744156 
L 134.736402 249.695687 
L 134.901452 287.87521 
L 135.066503 284.198984 
L 135.066503 270.008912 
L 135.231553 292.816538 
L 135.396604 288.99127 
L 135.561655 291.256078 
L 135.726705 291.798932 
L 135.891756 291.475554 
L 136.056806 289.757102 
L 136.056806 260.155831 
L 136.221857 287.854974 
L 136.386908 288.874528 
L 136.551958 257.476586 
L 136.717009 292.318436 
L 136.882059 286.633068 
L 137.04711 287.40357 
L 137.04711 288.119593 
L 137.212161 288.930564 
L 137.377211 217.708195 
L 137.542262 287.718775 
L 137.707312 272.924142 
L 137.872363 288.185746 
L 138.037414 287.873877 
L 138.037414 288.99127 
L 138.202464 292.762059 
L 138.367515 277.667231 
L 138.697616 291.544043 
L 138.862667 265.596039 
L 139.027717 291.063453 
L 139.192768 290.399964 
L 139.192768 288.99127 
L 139.357819 214.993928 
L 139.522869 277.88515 
L 139.68792 281.393657 
L 139.85297 279.348326 
L 140.018021 290.123674 
L 140.018021 285.337225 
L 140.183072 283.556899 
L 140.348122 284.344912 
L 140.678223 288.664391 
L 140.843274 289.796795 
L 141.008325 291.851466 
L 141.173375 292.105381 
L 141.338426 232.378857 
L 141.503476 292.400156 
L 141.833578 277.480443 
L 141.998628 289.493264 
L 142.163679 279.698554 
L 142.328729 254.423765 
L 142.49378 283.61527 
L 142.823881 291.302775 
L 142.988932 285.675779 
L 143.153983 286.485195 
L 143.319033 286.598046 
L 143.484084 292.02658 
L 143.814185 285.173785 
L 143.979236 288.944573 
L 144.144286 275.311623 
L 144.309337 289.049642 
L 144.474387 284.998671 
L 144.639438 291.407844 
L 144.804489 289.773446 
L 144.969539 291.092638 
L 145.13459 271.830098 
L 145.29964 287.666241 
L 145.464691 283.008208 
L 145.629742 283.130788 
L 145.794792 274.81871 
L 146.124893 291.276508 
L 146.289944 283.994684 
L 146.454995 288.843397 
L 146.620045 284.220387 
L 146.785096 288.880365 
L 146.950147 282.600443 
L 147.115197 280.685029 
L 147.280248 286.598046 
L 147.445298 271.744486 
L 147.7754 288.664391 
L 147.94045 283.224182 
L 148.105501 217.758229 
L 148.435602 292.415723 
L 148.600653 280.07213 
L 148.765703 279.588482 
L 148.930754 276.990124 
L 149.260855 289.347336 
L 149.756007 286.668091 
L 149.921057 288.547648 
L 150.086108 280.898668 
L 150.251159 284.06473 
L 150.416209 280.772586 
L 150.58126 281.286254 
L 150.74631 287.600365 
L 151.076412 271.363127 
L 151.406513 288.746111 
L 151.571564 273.215443 
L 151.736614 287.294609 
L 151.901665 288.987378 
L 152.066715 287.800495 
L 152.231766 290.057521 
L 152.561867 292.450746 
L 152.726918 261.450007 
L 152.891968 290.135349 
L 153.057019 269.853254 
L 153.22207 289.51272 
L 153.552171 229.26572 
L 153.717221 288.150723 
L 153.882272 288.757785 
L 154.047323 282.360287 
L 154.212373 290.065303 
L 154.377424 289.263671 
L 154.707525 289.766442 
L 154.872576 288.314163 
L 155.037626 281.636482 
L 155.202677 290.085733 
L 155.367728 289.287019 
L 155.532778 285.660212 
L 155.697829 242.457642 
L 155.862879 286.703114 
L 156.02793 287.695427 
L 156.358031 286.679765 
L 156.523082 284.111427 
L 156.853183 272.530554 
L 157.018234 287.092257 
L 157.183284 290.975896 
L 157.348335 273.651283 
L 157.513385 290.446662 
L 157.678436 289.528287 
L 157.843487 267.81415 
L 158.008537 286.563023 
L 158.338638 289.94856 
L 158.503689 272.016886 
L 158.66874 268.483475 
L 158.83379 274.445134 
L 158.998841 289.15471 
L 159.163891 292.260065 
L 159.328942 278.28986 
L 159.493993 284.333238 
L 159.824094 289.613899 
L 159.989145 289.613899 
L 160.154195 274.912104 
L 160.319246 287.504746 
L 160.484296 271.783401 
L 160.649347 271.269733 
L 160.814398 291.022593 
L 161.144499 204.72641 
L 161.309549 255.649564 
L 161.4746 195.760573 
L 161.804701 292.404049 
L 161.969752 282.869285 
L 162.134802 291.442866 
L 162.299853 286.500759 
L 162.629954 289.977746 
L 162.795005 288.096244 
L 162.960055 290.170371 
L 163.125106 262.649454 
L 163.290157 265.572691 
L 163.455207 289.151792 
L 163.785308 280.414576 
L 163.950359 283.356492 
L 164.11541 291.320287 
L 164.28046 286.189446 
L 164.610562 292.481876 
L 165.105713 278.703906 
L 165.270764 290.47001 
L 165.435815 291.162684 
L 165.600865 282.906642 
L 165.765916 289.07299 
L 165.930966 285.73415 
L 166.426118 289.402205 
L 166.591169 284.111427 
L 166.756219 283.924638 
L 166.92127 288.90955 
L 167.251371 276.289668 
L 167.581472 292.19002 
L 167.746523 267.008625 
L 167.911574 285.582384 
L 168.241675 292.038254 
L 168.571776 275.631239 
L 168.736827 229.907805 
L 168.901877 270.214379 
L 169.231979 288.851179 
L 169.397029 287.041668 
L 169.56208 288.337511 
L 169.892181 279.535114 
L 170.057232 290.917524 
L 170.222282 263.844899 
L 170.387333 278.64787 
L 170.717434 289.168051 
L 170.882485 288.104026 
L 171.047535 277.410397 
L 171.377636 280.367879 
L 171.707738 291.104313 
L 171.872788 274.896538 
L 172.202889 284.204821 
L 172.532991 287.982614 
L 172.698041 286.975514 
L 172.863092 240.628674 
L 173.028143 269.028274 
L 173.358244 289.544965 
L 173.523294 289.510775 
L 173.688345 281.328281 
L 174.018446 288.874528 
L 174.183497 244.704938 
L 174.348547 281.426345 
L 174.513598 274.538528 
L 174.843699 288.843397 
L 175.00875 252.847739 
L 175.1738 284.473329 
L 175.503902 289.825147 
L 175.668952 284.730163 
L 175.834003 251.991626 
L 176.164104 284.088078 
L 176.329155 287.375552 
L 176.494205 286.586371 
L 176.659256 286.673095 
L 176.989357 293.789394 
L 177.319458 273.838072 
L 177.64956 54.424114 
L 177.81461 286.88601 
L 177.979661 274.896538 
L 178.144711 289.582766 
L 178.474813 289.346168 
L 178.639863 260.451579 
L 178.804914 282.78056 
L 178.969964 281.332951 
L 179.300066 202.123049 
L 179.465116 285.862567 
L 179.795217 279.324977 
L 180.125319 286.481303 
L 180.290369 277.433746 
L 180.45542 291.115987 
L 180.62047 290.594537 
L 181.115622 284.788534 
L 181.280673 279.254932 
L 181.445724 292.429342 
L 181.775825 159.570345 
L 181.940875 278.414384 
L 182.105926 277.176912 
L 182.270977 286.633068 
L 182.601078 282.033407 
L 182.766128 255.805221 
L 182.931179 289.660596 
L 183.26128 283.407078 
L 183.426331 288.205202 
L 183.756432 281.636482 
L 183.921483 271.627743 
L 184.086533 227.497902 
L 184.416634 235.517939 
L 184.581685 291.688026 
L 184.911786 283.65613 
L 185.241888 228.784156 
L 185.406938 67.577121 
L 185.571989 242.691127 
L 185.737039 289.201407 
L 185.90209 268.623566 
L 186.232191 280.266701 
L 186.397242 53.568 
L 186.727343 282.69884 
L 186.892394 286.889902 
L 187.222495 279.847401 
L 187.387545 284.053055 
L 187.552596 278.862676 
L 187.717647 184.926853 
L 188.047748 282.679384 
L 188.212798 287.835518 
L 188.377849 286.77316 
L 188.5429 284.662452 
L 188.873001 248.645003 
L 189.038051 292.998463 
L 189.203102 277.900717 
L 189.368153 194.943375 
L 189.533203 214.089173 
L 189.863305 209.419466 
L 190.028355 284.667122 
L 190.193406 259.128495 
L 190.358456 275.54431 
L 190.688558 289.364847 
L 190.853608 287.164248 
L 191.018659 269.308456 
L 191.513811 288.934844 
L 191.678861 285.138762 
L 191.843912 290.929199 
L 192.008962 279.488417 
L 192.339064 292.878801 
L 192.504114 283.726176 
L 192.669165 244.734124 
L 192.834215 242.613299 
L 193.164317 287.302394 
L 193.329367 247.627675 
L 193.494418 283.877941 
L 193.659469 232.838046 
L 193.98957 285.442293 
L 194.15462 232.855557 
L 194.319671 288.874528 
L 194.484722 291.775583 
L 194.814823 289.730641 
L 194.979873 235.126202 
L 195.144924 287.275153 
L 195.309975 285.854785 
L 195.640076 150.406046 
L 195.805126 288.40172 
L 195.970177 291.279427 
L 196.135228 283.084091 
L 196.465329 288.903713 
L 196.630379 251.46142 
L 196.79543 289.817808 
L 197.290582 288.897876 
L 197.455632 280.293941 
L 197.620683 288.267466 
L 197.950784 288.963252 
L 198.115835 289.936886 
L 198.280886 281.624808 
L 198.610987 276.188492 
L 198.776037 265.806176 
L 198.941088 229.39914 
L 199.271189 283.014046 
L 199.43624 206.500899 
L 199.60129 244.364439 
L 199.931392 225.322412 
L 200.096442 288.026198 
L 200.261493 281.083899 
L 200.591594 278.118635 
L 200.756645 286.825045 
L 200.921695 285.769173 
L 201.086746 267.604013 
L 201.416847 260.436013 
L 201.581898 288.150723 
L 201.746948 274.616355 
L 202.077049 231.055775 
L 202.2421 244.909238 
L 202.407151 237.437707 
L 202.902303 292.804863 
L 203.067353 285.426727 
L 203.397454 204.282788 
L 203.562505 289.983583 
L 203.727556 291.147118 
L 204.057657 270.709368 
L 204.222707 287.442485 
L 204.387758 203.407218 
L 204.717859 285.220482 
L 204.88291 282.430332 
L 205.213011 288.711088 
L 205.378062 229.440834 
L 205.543112 285.940394 
L 205.708163 248.922267 
L 206.038264 293.868195 
L 206.203315 249.786487 
L 206.533416 249.345459 
L 206.698467 281.476935 
L 206.863517 281.893316 
L 207.193618 289.076882 
L 207.358669 276.235189 
L 207.52372 286.329537 
L 207.853821 275.58143 
L 208.018871 289.738423 
L 208.183922 284.041381 
L 208.514023 288.641042 
L 208.679074 282.733863 
L 208.844124 287.753798 
L 209.174226 240.356274 
L 209.339276 290.719062 
L 209.669377 284.111427 
L 209.999479 295.377094 
L 210.32958 287.64873 
L 210.49463 291.147118 
L 210.824732 288.913443 
L 210.989782 251.226314 
L 211.154833 288.463593 
L 211.484934 279.628508 
L 211.649985 288.60602 
L 211.815035 240.916638 
L 212.145137 287.100039 
L 212.310187 256.163231 
L 212.640288 262.922632 
L 212.97039 290.006932 
L 213.465541 252.98116 
L 213.630592 288.477603 
L 213.960693 279.628508 
L 214.125744 290.75642 
L 214.455845 286.236143 
L 214.620896 286.376235 
L 214.785946 289.98942 
L 215.116048 248.314232 
L 215.446149 290.532274 
L 215.77625 262.797551 
L 215.941301 280.459716 
L 216.271402 280.755075 
L 216.436452 289.423218 
L 216.601503 286.586371 
L 216.931604 241.903114 
L 217.096655 279.184886 
L 217.591807 284.228169 
L 217.921908 286.889902 
L 218.086958 289.598332 
L 218.252009 289.598332 
L 218.58211 291.866059 
L 218.747161 291.637437 
L 219.077262 285.549696 
L 219.242313 290.485577 
L 219.572414 278.361017 
L 219.902515 290.104218 
L 220.232616 287.465834 
L 220.397667 276.286331 
L 220.727768 287.508638 
L 220.892819 288.03398 
L 221.22292 265.432599 
L 221.387971 287.356873 
L 221.553021 277.768407 
L 221.883122 289.185063 
L 222.048173 268.787006 
L 222.378274 267.919218 
L 222.543325 277.713928 
L 222.873426 231.717316 
L 223.038477 290.303458 
L 223.368578 262.132674 
L 223.533629 289.378856 
L 223.86373 284.06473 
L 224.02878 267.81882 
L 224.193831 267.4806 
L 224.523932 277.791756 
L 224.688983 287.123388 
L 225.184135 279.348326 
L 225.514236 288.096244 
L 225.679286 229.39914 
L 226.009388 292.318436 
L 226.174438 280.550775 
L 226.504539 242.224156 
L 226.66959 283.589977 
L 226.999691 291.320287 
L 227.164742 290.096434 
L 227.494843 286.463792 
L 227.659894 288.888537 
L 227.989995 285.839218 
L 228.155046 289.699508 
L 228.485147 291.170466 
L 228.650197 287.712938 
L 228.815248 281.851289 
L 229.145349 283.401631 
L 229.3104 280.313398 
L 229.640501 285.823652 
L 229.805552 285.784739 
L 230.135653 218.041746 
L 230.300703 232.797186 
L 230.630805 284.088078 
L 230.795855 289.014619 
L 231.125956 290.446662 
L 231.456058 291.092638 
L 231.621108 277.667231 
L 231.95121 288.014524 
L 232.11626 285.596393 
L 232.446361 268.296687 
L 232.611412 292.372916 
L 233.106564 277.375375 
L 233.436665 275.565863 
L 233.601716 286.516326 
L 233.766766 288.907216 
L 234.096867 290.322137 
L 234.261918 285.38684 
L 234.75707 292.429342 
L 235.087171 250.60628 
L 235.252222 285.110744 
L 235.582323 281.115032 
L 235.747373 234.888824 
L 236.077475 284.123101 
L 236.572627 292.847671 
L 236.902728 287.039333 
L 237.067778 280.348421 
L 237.56293 284.237509 
L 237.893031 289.722857 
L 238.058082 285.360573 
L 238.388183 280.290049 
L 238.883335 290.006932 
L 239.048386 274.995122 
L 239.543537 290.368834 
L 239.873639 280.149958 
L 240.038689 288.934566 
L 240.36879 277.153564 
L 240.698892 282.90314 
L 240.863942 288.804482 
L 241.194044 115.628404 
L 241.359094 287.501634 
L 241.689195 287.829681 
L 241.854246 276.185662 
L 242.184347 277.188586 
L 242.349398 288.022306 
L 242.679499 288.921225 
L 242.84455 290.964221 
L 243.174651 282.294133 
L 243.339701 283.364274 
L 243.669803 277.317003 
L 243.834853 285.613515 
L 244.164954 283.142463 
L 244.495056 266.179752 
L 244.660106 292.096625 
L 244.990208 263.121094 
L 245.155258 286.539674 
L 245.485359 286.656417 
L 245.815461 282.512052 
L 245.980511 286.422932 
L 246.310612 266.389889 
L 246.475663 283.037394 
L 246.805764 283.387622 
L 247.300916 291.839792 
L 247.631017 286.026007 
L 247.796068 280.597472 
L 248.126169 281.613134 
L 248.29122 286.376235 
L 248.621321 251.753277 
L 248.951422 286.259492 
L 249.116473 267.48727 
L 249.446574 263.202814 
L 249.611625 287.613707 
L 249.941726 271.783401 
L 250.106776 287.006645 
L 250.436878 285.64776 
L 250.766979 287.954595 
L 250.932029 284.150342 
L 251.427181 288.874528 
L 251.757282 223.019987 
L 252.087384 287.395788 
L 252.252434 288.915388 
L 252.582535 293.278645 
L 252.747586 277.067951 
L 253.077687 278.655652 
L 253.407789 279.208235 
L 253.572839 286.520995 
L 253.90294 227.553495 
L 254.067991 290.252091 
L 254.398092 282.915982 
L 254.728193 288.874528 
L 254.893244 282.582098 
L 255.223345 291.180195 
L 255.553446 290.538111 
L 255.718497 284.251518 
L 256.048598 288.897876 
L 256.378699 288.174072 
L 256.708801 239.585772 
L 256.873851 276.468674 
L 257.203952 264.560922 
L 257.534054 282.341608 
L 257.864155 282.115127 
L 258.029206 289.122872 
L 258.359307 241.037273 
L 258.689408 285.926775 
L 259.019509 275.997811 
L 259.34961 289.785121 
L 259.514661 291.448704 
L 259.844762 268.934879 
L 260.174863 291.637437 
L 260.339914 231.133603 
L 260.670015 287.695427 
L 261.000116 292.411831 
L 261.165167 285.730258 
L 261.495268 288.181854 
L 261.82537 279.479078 
L 262.320521 288.757785 
L 262.650623 284.88971 
L 262.815673 284.671792 
L 263.145774 292.441016 
L 263.475876 283.488798 
L 263.640926 272.922809 
L 263.971027 288.104026 
L 264.301129 285.65243 
L 264.63123 277.547152 
L 264.79628 287.123388 
L 265.126382 268.854827 
L 265.456483 260.716195 
L 265.621533 266.895775 
L 265.951635 292.034362 
L 266.446787 287.341306 
L 266.776888 289.31815 
L 267.106989 208.952495 
L 267.27204 278.110853 
L 267.602141 277.500455 
L 267.932242 285.453967 
L 268.097293 285.920938 
L 268.427394 282.78056 
L 268.757495 278.056374 
L 268.922546 284.788534 
L 269.252647 254.248651 
L 269.582748 285.360573 
L 269.747799 209.380551 
L 270.0779 281.90499 
L 270.408001 284.811883 
L 270.738102 284.368261 
L 270.903153 290.001094 
L 271.233254 284.041381 
L 271.563355 285.395596 
L 271.728406 271.923492 
L 272.058507 283.154137 
L 272.388608 285.418945 
L 272.553659 291.296938 
L 272.88376 288.226606 
L 273.213861 287.128057 
L 273.378912 285.821707 
L 273.709013 285.418945 
L 274.039114 279.161537 
L 274.204165 286.703114 
L 274.534266 267.527297 
L 274.864368 217.970866 
L 275.029418 286.876561 
L 275.359519 288.617694 
L 275.689621 268.794788 
L 276.019722 280.690866 
L 276.514874 284.111427 
L 276.844975 274.856068 
L 277.175076 285.753606 
L 277.505177 286.563023 
L 277.670228 231.600573 
L 278.000329 256.314997 
L 278.660531 279.885342 
L 278.825582 275.550297 
L 279.155683 273.922126 
L 279.485785 286.156758 
L 279.815886 285.32555 
L 279.980936 284.14645 
L 280.311038 284.773941 
L 280.641139 270.265746 
L 280.806189 278.819092 
L 281.136291 255.299336 
L 281.466392 270.214379 
L 281.631442 290.100326 
L 281.961544 268.032069 
L 282.291645 270.35914 
L 282.621746 273.884769 
L 282.786797 282.471192 
L 283.116898 280.453489 
L 283.446999 283.136625 
L 283.7771 290.123674 
L 284.272252 280.602476 
L 284.602353 282.98069 
L 284.932455 267.028082 
L 285.097505 278.48443 
L 285.427606 269.40185 
L 285.757708 287.940586 
L 286.087809 242.924612 
L 286.582961 287.742124 
L 286.913062 286.973957 
L 287.243163 285.383922 
L 287.408214 281.566436 
L 287.738315 283.095765 
L 288.068416 288.273303 
L 288.398517 280.830958 
L 288.728619 287.949926 
L 288.893669 204.217931 
L 289.22377 285.278853 
L 289.553872 283.049068 
L 289.883973 286.434606 
L 290.049023 284.204821 
L 290.379125 260.879635 
L 290.709226 292.919661 
L 291.039327 250.454515 
L 291.369428 277.994111 
L 291.69953 288.454254 
L 291.86458 153.499726 
L 292.194681 276.786658 
L 292.524783 277.986329 
L 292.854884 224.812821 
L 293.019934 286.885233 
L 293.350036 289.005279 
L 293.680137 202.312756 
L 294.010238 279.329647 
L 294.175289 287.170085 
L 294.50539 288.7967 
L 294.835491 265.455948 
L 295.165592 279.395023 
L 295.495693 283.653795 
L 295.825795 276.235189 
L 295.990845 288.472933 
L 296.320947 287.445597 
L 296.651048 282.824339 
L 296.981149 288.477603 
L 297.1462 284.111427 
L 297.476301 286.539674 
L 297.806402 237.437707 
L 298.136503 255.824678 
L 298.466604 285.261342 
L 298.796706 221.872017 
L 299.126807 290.065303 
L 299.456908 289.232538 
L 299.787009 287.140899 
L 299.95206 291.84271 
L 300.282161 185.720704 
L 300.942364 294.197993 
L 301.272465 281.531414 
L 301.437515 283.877941 
L 301.767617 284.165906 
L 302.097718 289.11438 
L 302.75792 277.130215 
L 303.088021 286.434606 
L 303.418123 285.745824 
L 303.748224 290.345485 
L 304.078325 281.98671 
L 304.408426 282.356394 
L 304.738528 289.695619 
L 305.068629 143.132977 
L 305.728831 284.765186 
L 306.058932 247.58459 
L 306.389034 279.426153 
L 306.719135 287.6037 
L 307.214287 285.232156 
L 307.709438 221.023687 
L 308.03954 281.971144 
L 308.20459 281.659831 
L 308.534692 287.893889 
L 308.864793 290.991462 
L 309.524995 252.458596 
L 309.690046 287.590358 
L 310.020147 292.456193 
L 310.350248 287.578684 
L 310.680349 274.57355 
L 311.010451 151.04813 
L 311.340552 288.687739 
L 311.670653 207.901811 
L 312.000754 279.488417 
L 312.165805 287.995065 
L 312.495906 289.574984 
L 312.826007 290.059466 
L 313.156109 251.952713 
L 313.48621 288.947492 
L 313.816311 288.851179 
L 314.311463 161.516056 
L 314.641564 291.115987 
L 315.301766 282.266893 
L 315.961969 286.376235 
L 316.29207 284.309889 
L 316.622171 267.97292 
L 316.952272 286.726463 
L 317.117323 272.997524 
L 317.447424 284.704479 
L 317.777526 286.656417 
L 318.107627 287.282935 
L 318.437728 292.734818 
L 318.767829 284.811883 
L 319.09793 209.623765 
L 319.428032 284.321564 
L 319.593082 224.0123 
L 319.923183 285.979309 
L 320.253285 293.02473 
L 321.57369 269.021603 
L 321.903791 271.223036 
L 322.068841 287.368547 
L 322.398943 278.367687 
L 322.729044 286.563023 
L 323.059145 289.551635 
L 323.389246 287.619544 
L 323.719347 284.06473 
L 324.049449 228.667414 
L 324.37955 286.928817 
L 324.5446 287.23346 
L 324.874702 285.434511 
L 325.204803 280.130502 
L 325.865005 215.178772 
L 326.195107 289.67616 
L 326.525208 288.388878 
L 326.855309 277.095192 
L 327.18541 285.596393 
L 327.515511 290.649016 
L 327.845613 279.379456 
L 328.010663 287.847192 
L 328.340764 291.226893 
L 328.670866 244.092039 
L 329.000967 244.675752 
L 329.331068 280.229733 
L 329.661169 277.96298 
L 329.991271 258.007765 
L 330.321372 287.177867 
L 330.651473 287.718775 
L 330.816524 283.358436 
L 331.146625 290.097991 
L 331.476726 265.432599 
L 331.806827 288.421566 
L 332.136928 253.268013 
L 332.46703 286.679765 
L 332.797131 289.551635 
L 333.127232 228.131649 
L 333.457333 280.360095 
L 333.787434 287.576349 
L 334.117536 278.554476 
L 334.447637 285.185459 
L 334.612688 244.138736 
L 334.942789 288.874528 
L 335.27289 292.143322 
L 335.602991 287.64873 
L 335.933092 291.186033 
L 336.593295 285.559036 
L 336.923396 277.869586 
L 337.253497 285.32555 
L 337.583598 279.270498 
L 337.9137 285.891752 
L 338.243801 269.938866 
L 338.573902 289.248104 
L 338.904003 285.290528 
L 339.234105 263.798202 
L 339.894307 286.992636 
L 340.224408 288.010632 
L 340.554509 287.656512 
L 340.884611 280.830958 
L 341.049661 286.60972 
L 341.544813 285.633751 
L 342.205015 284.951974 
L 342.370066 288.951244 
L 342.700167 280.990505 
L 343.195319 279.357665 
L 343.36037 281.899153 
L 344.020572 287.232348 
L 344.350673 287.835518 
L 344.680775 285.81587 
L 345.175926 290.415531 
L 345.340977 288.851179 
L 345.836129 288.057329 
L 346.331281 274.734655 
L 346.826432 182.490824 
L 347.156534 282.864615 
L 347.486635 287.695427 
L 347.816736 289.15471 
L 348.146837 280.609147 
L 348.476939 291.162684 
L 348.80704 291.178251 
L 349.137141 287.898559 
L 349.467242 282.967349 
L 349.797343 288.804482 
L 350.127445 285.302202 
L 350.457546 236.120182 
L 350.787647 286.594153 
L 351.117748 279.231583 
L 351.44785 229.324091 
L 351.777951 261.066423 
L 352.438153 288.934566 
L 352.768254 114.274189 
L 353.098356 289.493264 
L 353.428457 269.016599 
L 353.758558 289.612701 
L 354.088659 270.242397 
L 354.41876 287.73045 
L 354.748862 290.112 
L 355.078963 215.1204 
L 355.409064 286.539674 
L 355.904216 286.726463 
L 356.234317 250.177251 
L 356.564418 288.430906 
L 357.05957 286.714788 
L 357.389671 292.969277 
L 357.719773 288.08846 
L 358.049874 220.743505 
L 358.545026 286.189446 
L 358.875127 284.298215 
L 359.205228 285.554366 
L 359.535329 285.343062 
L 360.030481 250.104287 
L 360.360582 240.862159 
L 360.690684 291.115987 
L 361.020785 261.074206 
L 361.350886 291.092638 
L 361.680987 287.465834 
L 362.011088 279.60516 
L 362.34119 289.392865 
L 362.671291 286.259492 
L 363.166443 288.416896 
L 363.496544 274.989932 
L 363.826645 285.076499 
L 364.156746 252.127827 
L 364.486848 285.738042 
L 365.14705 288.788916 
L 365.477151 220.548935 
L 365.807252 283.282554 
L 366.137354 271.258059 
L 366.467455 289.516612 
L 366.797556 288.226606 
L 367.127657 287.928912 
L 367.457758 261.410814 
L 367.95291 288.827831 
L 368.283012 288.868691 
L 368.613113 283.756529 
L 368.943214 281.881642 
L 369.273315 203.652378 
L 369.603416 283.068525 
L 369.933518 263.016026 
L 370.263619 290.361052 
L 370.59372 272.063583 
L 371.088872 287.187596 
L 371.418973 273.884769 
L 371.749074 267.224599 
L 372.079175 232.768 
L 372.409277 269.063296 
L 372.739378 218.992365 
L 373.069479 287.294609 
L 373.39958 255.883049 
L 373.894732 265.852873 
L 374.224833 264.381915 
L 374.554935 282.500378 
L 374.885036 286.850987 
L 375.215137 219.692821 
L 375.545238 290.07114 
L 375.875339 284.041381 
L 376.370491 281.463703 
L 376.700593 287.333524 
L 377.030694 177.110932 
L 377.360795 287.73045 
L 377.690896 285.424782 
L 378.020997 277.604968 
L 378.351099 281.671505 
L 378.6812 206.083962 
L 379.176352 278.414384 
L 379.506453 282.318259 
L 379.836554 278.974749 
L 380.166655 287.571679 
L 380.496756 288.08846 
L 380.826858 207.395925 
L 381.652111 279.622671 
L 381.982212 279.690772 
L 382.312313 284.944192 
L 382.642414 276.546502 
L 382.972516 282.249381 
L 383.302617 156.234841 
L 383.797769 291.810606 
L 384.12787 288.921225 
L 384.457971 287.411352 
L 384.788072 271.629968 
L 385.118173 291.291101 
L 385.448275 288.879197 
L 385.778376 291.162684 
L 386.273528 284.172133 
L 386.603629 281.940013 
L 386.93373 273.875429 
L 387.263831 230.876769 
L 387.593933 265.395242 
L 387.924034 182.179508 
L 388.254135 285.430619 
L 388.749287 229.907805 
L 389.079388 266.973603 
L 389.409489 283.029612 
L 389.739591 289.919375 
L 390.069692 286.656417 
L 390.399793 288.05441 
L 390.894945 285.926775 
L 391.225046 245.609694 
L 391.555147 278.731924 
L 391.885248 290.158697 
L 392.21535 280.215558 
L 392.545451 283.457668 
L 393.040603 206.757733 
L 393.370704 289.59055 
L 394.030906 245.916143 
L 394.361008 251.213342 
L 394.856159 262.717499 
L 395.186261 287.123388 
L 395.516362 280.714215 
L 395.846463 285.878133 
L 396.176564 282.967349 
L 396.671716 282.990697 
L 397.001817 128.400052 
L 397.331918 285.477316 
L 397.66202 281.453586 
L 398.157172 283.312907 
L 398.487273 288.220769 
L 398.487273 288.220769 
" clip-path="url(#p41db1de503)" style="fill: none; stroke: #0000ff; stroke-opacity: 0.6; stroke-linecap: square"/>
   </g>
   <g id="patch_3">
    <path d="M 57.6 307.584 
L 57.6 41.472 
" style="fill: none; stroke: #000000; stroke-width: 0.8; stroke-linejoin: miter; stroke-linecap: square"/>
   </g>
   <g id="patch_4">
    <path d="M 414.72 307.584 
L 414.72 41.472 
" style="fill: none; stroke: #000000; stroke-width: 0.8; stroke-linejoin: miter; stroke-linecap: square"/>
   </g>
   <g id="patch_5">
    <path d="M 57.6 307.584 
L 414.72 307.584 
" style="fill: none; stroke: #000000; stroke-width: 0.8; stroke-linejoin: miter; stroke-linecap: square"/>
   </g>
   <g id="patch_6">
    <path d="M 57.6 41.472 
L 414.72 41.472 
" style="fill: none; stroke: #000000; stroke-width: 0.8; stroke-linejoin: miter; stroke-linecap: square"/>
   </g>
  </g>
 </g>
 <defs>
  <clipPath id="p41db1de503">
   <rect x="57.6" y="41.472" width="357.12" height="266.112"/>
  </clipPath>
 </defs>
</svg>
