<?xml version="1.0" encoding="utf-8" standalone="no"?>
<!DOCTYPE svg PUBLIC "-//W3C//DTD SVG 1.1//EN"
  "http://www.w3.org/Graphics/SVG/1.1/DTD/svg11.dtd">
<svg xmlns:xlink="http://www.w3.org/1999/xlink" width="460.8pt" height="345.6pt" viewBox="0 0 460.8 345.6" xmlns="http://www.w3.org/2000/svg" version="1.1">
 <metadata>
  <rdf:RDF xmlns:dc="http://purl.org/dc/elements/1.1/" xmlns:cc="http://creativecommons.org/ns#" xmlns:rdf="http://www.w3.org/1999/02/22-rdf-syntax-ns#">
   <cc:Work>
    <dc:type rdf:resource="http://purl.org/dc/dcmitype/StillImage"/>
    <dc:date>2022-10-06T20:54:01.969704</dc:date>
    <dc:format>image/svg+xml</dc:format>
    <dc:creator>
     <cc:Agent>
      <dc:title>Matplotlib v3.6.0, https://matplotlib.org/</dc:title>
     </cc:Agent>
    </dc:creator>
   </cc:Work>
  </rdf:RDF>
 </metadata>
 <defs>
  <style type="text/css">*{stroke-linejoin: round; stroke-linecap: butt}</style>
 </defs>
 <g id="figure_1">
  <g id="patch_1">
   <path d="M 0 345.6 
L 460.8 345.6 
L 460.8 0 
L 0 0 
z
" style="fill: #ffffff"/>
  </g>
  <g id="axes_1">
   <g id="patch_2">
    <path d="M 57.6 307.584 
L 414.72 307.584 
L 414.72 41.472 
L 57.6 41.472 
z
" style="fill: #ffffff"/>
   </g>
   <g id="matplotlib.axis_1">
    <g id="xtick_1">
     <g id="line2d_1">
      <defs>
       <path id="mdd3d0cd56c" d="M 0 0 
L 0 3.5 
" style="stroke: #000000; stroke-width: 0.8"/>
      </defs>
      <g>
       <use xlink:href="#mdd3d0cd56c" x="73.832727" y="307.584" style="stroke: #000000; stroke-width: 0.8"/>
      </g>
     </g>
     <g id="text_1">
      <!-- 0 -->
      <g transform="translate(70.651477 322.182437) scale(0.1 -0.1)">
       <defs>
        <path id="DejaVuSans-30" d="M 2034 4250 
Q 1547 4250 1301 3770 
Q 1056 3291 1056 2328 
Q 1056 1369 1301 889 
Q 1547 409 2034 409 
Q 2525 409 2770 889 
Q 3016 1369 3016 2328 
Q 3016 3291 2770 3770 
Q 2525 4250 2034 4250 
z
M 2034 4750 
Q 2819 4750 3233 4129 
Q 3647 3509 3647 2328 
Q 3647 1150 3233 529 
Q 2819 -91 2034 -91 
Q 1250 -91 836 529 
Q 422 1150 422 2328 
Q 422 3509 836 4129 
Q 1250 4750 2034 4750 
z
" transform="scale(0.015625)"/>
       </defs>
       <use xlink:href="#DejaVuSans-30"/>
      </g>
     </g>
    </g>
    <g id="xtick_2">
     <g id="line2d_2">
      <g>
       <use xlink:href="#mdd3d0cd56c" x="114.374004" y="307.584" style="stroke: #000000; stroke-width: 0.8"/>
      </g>
     </g>
     <g id="text_2">
      <!-- 250 -->
      <g transform="translate(104.830254 322.182437) scale(0.1 -0.1)">
       <defs>
        <path id="DejaVuSans-32" d="M 1228 531 
L 3431 531 
L 3431 0 
L 469 0 
L 469 531 
Q 828 903 1448 1529 
Q 2069 2156 2228 2338 
Q 2531 2678 2651 2914 
Q 2772 3150 2772 3378 
Q 2772 3750 2511 3984 
Q 2250 4219 1831 4219 
Q 1534 4219 1204 4116 
Q 875 4013 500 3803 
L 500 4441 
Q 881 4594 1212 4672 
Q 1544 4750 1819 4750 
Q 2544 4750 2975 4387 
Q 3406 4025 3406 3419 
Q 3406 3131 3298 2873 
Q 3191 2616 2906 2266 
Q 2828 2175 2409 1742 
Q 1991 1309 1228 531 
z
" transform="scale(0.015625)"/>
        <path id="DejaVuSans-35" d="M 691 4666 
L 3169 4666 
L 3169 4134 
L 1269 4134 
L 1269 2991 
Q 1406 3038 1543 3061 
Q 1681 3084 1819 3084 
Q 2600 3084 3056 2656 
Q 3513 2228 3513 1497 
Q 3513 744 3044 326 
Q 2575 -91 1722 -91 
Q 1428 -91 1123 -41 
Q 819 9 494 109 
L 494 744 
Q 775 591 1075 516 
Q 1375 441 1709 441 
Q 2250 441 2565 725 
Q 2881 1009 2881 1497 
Q 2881 1984 2565 2268 
Q 2250 2553 1709 2553 
Q 1456 2553 1204 2497 
Q 953 2441 691 2322 
L 691 4666 
z
" transform="scale(0.015625)"/>
       </defs>
       <use xlink:href="#DejaVuSans-32"/>
       <use xlink:href="#DejaVuSans-35" x="63.623047"/>
       <use xlink:href="#DejaVuSans-30" x="127.246094"/>
      </g>
     </g>
    </g>
    <g id="xtick_3">
     <g id="line2d_3">
      <g>
       <use xlink:href="#mdd3d0cd56c" x="154.915281" y="307.584" style="stroke: #000000; stroke-width: 0.8"/>
      </g>
     </g>
     <g id="text_3">
      <!-- 500 -->
      <g transform="translate(145.371531 322.182437) scale(0.1 -0.1)">
       <use xlink:href="#DejaVuSans-35"/>
       <use xlink:href="#DejaVuSans-30" x="63.623047"/>
       <use xlink:href="#DejaVuSans-30" x="127.246094"/>
      </g>
     </g>
    </g>
    <g id="xtick_4">
     <g id="line2d_4">
      <g>
       <use xlink:href="#mdd3d0cd56c" x="195.456558" y="307.584" style="stroke: #000000; stroke-width: 0.8"/>
      </g>
     </g>
     <g id="text_4">
      <!-- 750 -->
      <g transform="translate(185.912808 322.182437) scale(0.1 -0.1)">
       <defs>
        <path id="DejaVuSans-37" d="M 525 4666 
L 3525 4666 
L 3525 4397 
L 1831 0 
L 1172 0 
L 2766 4134 
L 525 4134 
L 525 4666 
z
" transform="scale(0.015625)"/>
       </defs>
       <use xlink:href="#DejaVuSans-37"/>
       <use xlink:href="#DejaVuSans-35" x="63.623047"/>
       <use xlink:href="#DejaVuSans-30" x="127.246094"/>
      </g>
     </g>
    </g>
    <g id="xtick_5">
     <g id="line2d_5">
      <g>
       <use xlink:href="#mdd3d0cd56c" x="235.997835" y="307.584" style="stroke: #000000; stroke-width: 0.8"/>
      </g>
     </g>
     <g id="text_5">
      <!-- 1000 -->
      <g transform="translate(223.272835 322.182437) scale(0.1 -0.1)">
       <defs>
        <path id="DejaVuSans-31" d="M 794 531 
L 1825 531 
L 1825 4091 
L 703 3866 
L 703 4441 
L 1819 4666 
L 2450 4666 
L 2450 531 
L 3481 531 
L 3481 0 
L 794 0 
L 794 531 
z
" transform="scale(0.015625)"/>
       </defs>
       <use xlink:href="#DejaVuSans-31"/>
       <use xlink:href="#DejaVuSans-30" x="63.623047"/>
       <use xlink:href="#DejaVuSans-30" x="127.246094"/>
       <use xlink:href="#DejaVuSans-30" x="190.869141"/>
      </g>
     </g>
    </g>
    <g id="xtick_6">
     <g id="line2d_6">
      <g>
       <use xlink:href="#mdd3d0cd56c" x="276.539112" y="307.584" style="stroke: #000000; stroke-width: 0.8"/>
      </g>
     </g>
     <g id="text_6">
      <!-- 1250 -->
      <g transform="translate(263.814112 322.182437) scale(0.1 -0.1)">
       <use xlink:href="#DejaVuSans-31"/>
       <use xlink:href="#DejaVuSans-32" x="63.623047"/>
       <use xlink:href="#DejaVuSans-35" x="127.246094"/>
       <use xlink:href="#DejaVuSans-30" x="190.869141"/>
      </g>
     </g>
    </g>
    <g id="xtick_7">
     <g id="line2d_7">
      <g>
       <use xlink:href="#mdd3d0cd56c" x="317.080389" y="307.584" style="stroke: #000000; stroke-width: 0.8"/>
      </g>
     </g>
     <g id="text_7">
      <!-- 1500 -->
      <g transform="translate(304.355389 322.182437) scale(0.1 -0.1)">
       <use xlink:href="#DejaVuSans-31"/>
       <use xlink:href="#DejaVuSans-35" x="63.623047"/>
       <use xlink:href="#DejaVuSans-30" x="127.246094"/>
       <use xlink:href="#DejaVuSans-30" x="190.869141"/>
      </g>
     </g>
    </g>
    <g id="xtick_8">
     <g id="line2d_8">
      <g>
       <use xlink:href="#mdd3d0cd56c" x="357.621666" y="307.584" style="stroke: #000000; stroke-width: 0.8"/>
      </g>
     </g>
     <g id="text_8">
      <!-- 1750 -->
      <g transform="translate(344.896666 322.182437) scale(0.1 -0.1)">
       <use xlink:href="#DejaVuSans-31"/>
       <use xlink:href="#DejaVuSans-37" x="63.623047"/>
       <use xlink:href="#DejaVuSans-35" x="127.246094"/>
       <use xlink:href="#DejaVuSans-30" x="190.869141"/>
      </g>
     </g>
    </g>
    <g id="xtick_9">
     <g id="line2d_9">
      <g>
       <use xlink:href="#mdd3d0cd56c" x="398.162943" y="307.584" style="stroke: #000000; stroke-width: 0.8"/>
      </g>
     </g>
     <g id="text_9">
      <!-- 2000 -->
      <g transform="translate(385.437943 322.182437) scale(0.1 -0.1)">
       <use xlink:href="#DejaVuSans-32"/>
       <use xlink:href="#DejaVuSans-30" x="63.623047"/>
       <use xlink:href="#DejaVuSans-30" x="127.246094"/>
       <use xlink:href="#DejaVuSans-30" x="190.869141"/>
      </g>
     </g>
    </g>
    <g id="text_10">
     <!-- time -->
     <g transform="translate(224.863906 335.860562) scale(0.1 -0.1)">
      <defs>
       <path id="DejaVuSans-74" d="M 1172 4494 
L 1172 3500 
L 2356 3500 
L 2356 3053 
L 1172 3053 
L 1172 1153 
Q 1172 725 1289 603 
Q 1406 481 1766 481 
L 2356 481 
L 2356 0 
L 1766 0 
Q 1100 0 847 248 
Q 594 497 594 1153 
L 594 3053 
L 172 3053 
L 172 3500 
L 594 3500 
L 594 4494 
L 1172 4494 
z
" transform="scale(0.015625)"/>
       <path id="DejaVuSans-69" d="M 603 3500 
L 1178 3500 
L 1178 0 
L 603 0 
L 603 3500 
z
M 603 4863 
L 1178 4863 
L 1178 4134 
L 603 4134 
L 603 4863 
z
" transform="scale(0.015625)"/>
       <path id="DejaVuSans-6d" d="M 3328 2828 
Q 3544 3216 3844 3400 
Q 4144 3584 4550 3584 
Q 5097 3584 5394 3201 
Q 5691 2819 5691 2113 
L 5691 0 
L 5113 0 
L 5113 2094 
Q 5113 2597 4934 2840 
Q 4756 3084 4391 3084 
Q 3944 3084 3684 2787 
Q 3425 2491 3425 1978 
L 3425 0 
L 2847 0 
L 2847 2094 
Q 2847 2600 2669 2842 
Q 2491 3084 2119 3084 
Q 1678 3084 1418 2786 
Q 1159 2488 1159 1978 
L 1159 0 
L 581 0 
L 581 3500 
L 1159 3500 
L 1159 2956 
Q 1356 3278 1631 3431 
Q 1906 3584 2284 3584 
Q 2666 3584 2933 3390 
Q 3200 3197 3328 2828 
z
" transform="scale(0.015625)"/>
       <path id="DejaVuSans-65" d="M 3597 1894 
L 3597 1613 
L 953 1613 
Q 991 1019 1311 708 
Q 1631 397 2203 397 
Q 2534 397 2845 478 
Q 3156 559 3463 722 
L 3463 178 
Q 3153 47 2828 -22 
Q 2503 -91 2169 -91 
Q 1331 -91 842 396 
Q 353 884 353 1716 
Q 353 2575 817 3079 
Q 1281 3584 2069 3584 
Q 2775 3584 3186 3129 
Q 3597 2675 3597 1894 
z
M 3022 2063 
Q 3016 2534 2758 2815 
Q 2500 3097 2075 3097 
Q 1594 3097 1305 2825 
Q 1016 2553 972 2059 
L 3022 2063 
z
" transform="scale(0.015625)"/>
      </defs>
      <use xlink:href="#DejaVuSans-74"/>
      <use xlink:href="#DejaVuSans-69" x="39.208984"/>
      <use xlink:href="#DejaVuSans-6d" x="66.992188"/>
      <use xlink:href="#DejaVuSans-65" x="164.404297"/>
     </g>
    </g>
   </g>
   <g id="matplotlib.axis_2">
    <g id="ytick_1">
     <g id="line2d_10">
      <defs>
       <path id="mc5e533abeb" d="M 0 0 
L -3.5 0 
" style="stroke: #000000; stroke-width: 0.8"/>
      </defs>
      <g>
       <use xlink:href="#mc5e533abeb" x="57.6" y="296.156438" style="stroke: #000000; stroke-width: 0.8"/>
      </g>
     </g>
     <g id="text_11">
      <!-- 0 -->
      <g transform="translate(44.2375 299.955657) scale(0.1 -0.1)">
       <use xlink:href="#DejaVuSans-30"/>
      </g>
     </g>
    </g>
    <g id="ytick_2">
     <g id="line2d_11">
      <g>
       <use xlink:href="#mc5e533abeb" x="57.6" y="263.637881" style="stroke: #000000; stroke-width: 0.8"/>
      </g>
     </g>
     <g id="text_12">
      <!-- 1000 -->
      <g transform="translate(25.15 267.4371) scale(0.1 -0.1)">
       <use xlink:href="#DejaVuSans-31"/>
       <use xlink:href="#DejaVuSans-30" x="63.623047"/>
       <use xlink:href="#DejaVuSans-30" x="127.246094"/>
       <use xlink:href="#DejaVuSans-30" x="190.869141"/>
      </g>
     </g>
    </g>
    <g id="ytick_3">
     <g id="line2d_12">
      <g>
       <use xlink:href="#mc5e533abeb" x="57.6" y="231.119324" style="stroke: #000000; stroke-width: 0.8"/>
      </g>
     </g>
     <g id="text_13">
      <!-- 2000 -->
      <g transform="translate(25.15 234.918542) scale(0.1 -0.1)">
       <use xlink:href="#DejaVuSans-32"/>
       <use xlink:href="#DejaVuSans-30" x="63.623047"/>
       <use xlink:href="#DejaVuSans-30" x="127.246094"/>
       <use xlink:href="#DejaVuSans-30" x="190.869141"/>
      </g>
     </g>
    </g>
    <g id="ytick_4">
     <g id="line2d_13">
      <g>
       <use xlink:href="#mc5e533abeb" x="57.6" y="198.600766" style="stroke: #000000; stroke-width: 0.8"/>
      </g>
     </g>
     <g id="text_14">
      <!-- 3000 -->
      <g transform="translate(25.15 202.399985) scale(0.1 -0.1)">
       <defs>
        <path id="DejaVuSans-33" d="M 2597 2516 
Q 3050 2419 3304 2112 
Q 3559 1806 3559 1356 
Q 3559 666 3084 287 
Q 2609 -91 1734 -91 
Q 1441 -91 1130 -33 
Q 819 25 488 141 
L 488 750 
Q 750 597 1062 519 
Q 1375 441 1716 441 
Q 2309 441 2620 675 
Q 2931 909 2931 1356 
Q 2931 1769 2642 2001 
Q 2353 2234 1838 2234 
L 1294 2234 
L 1294 2753 
L 1863 2753 
Q 2328 2753 2575 2939 
Q 2822 3125 2822 3475 
Q 2822 3834 2567 4026 
Q 2313 4219 1838 4219 
Q 1578 4219 1281 4162 
Q 984 4106 628 3988 
L 628 4550 
Q 988 4650 1302 4700 
Q 1616 4750 1894 4750 
Q 2613 4750 3031 4423 
Q 3450 4097 3450 3541 
Q 3450 3153 3228 2886 
Q 3006 2619 2597 2516 
z
" transform="scale(0.015625)"/>
       </defs>
       <use xlink:href="#DejaVuSans-33"/>
       <use xlink:href="#DejaVuSans-30" x="63.623047"/>
       <use xlink:href="#DejaVuSans-30" x="127.246094"/>
       <use xlink:href="#DejaVuSans-30" x="190.869141"/>
      </g>
     </g>
    </g>
    <g id="ytick_5">
     <g id="line2d_14">
      <g>
       <use xlink:href="#mc5e533abeb" x="57.6" y="166.082209" style="stroke: #000000; stroke-width: 0.8"/>
      </g>
     </g>
     <g id="text_15">
      <!-- 4000 -->
      <g transform="translate(25.15 169.881427) scale(0.1 -0.1)">
       <defs>
        <path id="DejaVuSans-34" d="M 2419 4116 
L 825 1625 
L 2419 1625 
L 2419 4116 
z
M 2253 4666 
L 3047 4666 
L 3047 1625 
L 3713 1625 
L 3713 1100 
L 3047 1100 
L 3047 0 
L 2419 0 
L 2419 1100 
L 313 1100 
L 313 1709 
L 2253 4666 
z
" transform="scale(0.015625)"/>
       </defs>
       <use xlink:href="#DejaVuSans-34"/>
       <use xlink:href="#DejaVuSans-30" x="63.623047"/>
       <use xlink:href="#DejaVuSans-30" x="127.246094"/>
       <use xlink:href="#DejaVuSans-30" x="190.869141"/>
      </g>
     </g>
    </g>
    <g id="ytick_6">
     <g id="line2d_15">
      <g>
       <use xlink:href="#mc5e533abeb" x="57.6" y="133.563651" style="stroke: #000000; stroke-width: 0.8"/>
      </g>
     </g>
     <g id="text_16">
      <!-- 5000 -->
      <g transform="translate(25.15 137.36287) scale(0.1 -0.1)">
       <use xlink:href="#DejaVuSans-35"/>
       <use xlink:href="#DejaVuSans-30" x="63.623047"/>
       <use xlink:href="#DejaVuSans-30" x="127.246094"/>
       <use xlink:href="#DejaVuSans-30" x="190.869141"/>
      </g>
     </g>
    </g>
    <g id="ytick_7">
     <g id="line2d_16">
      <g>
       <use xlink:href="#mc5e533abeb" x="57.6" y="101.045094" style="stroke: #000000; stroke-width: 0.8"/>
      </g>
     </g>
     <g id="text_17">
      <!-- 6000 -->
      <g transform="translate(25.15 104.844313) scale(0.1 -0.1)">
       <defs>
        <path id="DejaVuSans-36" d="M 2113 2584 
Q 1688 2584 1439 2293 
Q 1191 2003 1191 1497 
Q 1191 994 1439 701 
Q 1688 409 2113 409 
Q 2538 409 2786 701 
Q 3034 994 3034 1497 
Q 3034 2003 2786 2293 
Q 2538 2584 2113 2584 
z
M 3366 4563 
L 3366 3988 
Q 3128 4100 2886 4159 
Q 2644 4219 2406 4219 
Q 1781 4219 1451 3797 
Q 1122 3375 1075 2522 
Q 1259 2794 1537 2939 
Q 1816 3084 2150 3084 
Q 2853 3084 3261 2657 
Q 3669 2231 3669 1497 
Q 3669 778 3244 343 
Q 2819 -91 2113 -91 
Q 1303 -91 875 529 
Q 447 1150 447 2328 
Q 447 3434 972 4092 
Q 1497 4750 2381 4750 
Q 2619 4750 2861 4703 
Q 3103 4656 3366 4563 
z
" transform="scale(0.015625)"/>
       </defs>
       <use xlink:href="#DejaVuSans-36"/>
       <use xlink:href="#DejaVuSans-30" x="63.623047"/>
       <use xlink:href="#DejaVuSans-30" x="127.246094"/>
       <use xlink:href="#DejaVuSans-30" x="190.869141"/>
      </g>
     </g>
    </g>
    <g id="ytick_8">
     <g id="line2d_17">
      <g>
       <use xlink:href="#mc5e533abeb" x="57.6" y="68.526536" style="stroke: #000000; stroke-width: 0.8"/>
      </g>
     </g>
     <g id="text_18">
      <!-- 7000 -->
      <g transform="translate(25.15 72.325755) scale(0.1 -0.1)">
       <use xlink:href="#DejaVuSans-37"/>
       <use xlink:href="#DejaVuSans-30" x="63.623047"/>
       <use xlink:href="#DejaVuSans-30" x="127.246094"/>
       <use xlink:href="#DejaVuSans-30" x="190.869141"/>
      </g>
     </g>
    </g>
    <g id="text_19">
     <!-- latency -->
     <g transform="translate(19.070312 192.895187) rotate(-90) scale(0.1 -0.1)">
      <defs>
       <path id="DejaVuSans-6c" d="M 603 4863 
L 1178 4863 
L 1178 0 
L 603 0 
L 603 4863 
z
" transform="scale(0.015625)"/>
       <path id="DejaVuSans-61" d="M 2194 1759 
Q 1497 1759 1228 1600 
Q 959 1441 959 1056 
Q 959 750 1161 570 
Q 1363 391 1709 391 
Q 2188 391 2477 730 
Q 2766 1069 2766 1631 
L 2766 1759 
L 2194 1759 
z
M 3341 1997 
L 3341 0 
L 2766 0 
L 2766 531 
Q 2569 213 2275 61 
Q 1981 -91 1556 -91 
Q 1019 -91 701 211 
Q 384 513 384 1019 
Q 384 1609 779 1909 
Q 1175 2209 1959 2209 
L 2766 2209 
L 2766 2266 
Q 2766 2663 2505 2880 
Q 2244 3097 1772 3097 
Q 1472 3097 1187 3025 
Q 903 2953 641 2809 
L 641 3341 
Q 956 3463 1253 3523 
Q 1550 3584 1831 3584 
Q 2591 3584 2966 3190 
Q 3341 2797 3341 1997 
z
" transform="scale(0.015625)"/>
       <path id="DejaVuSans-6e" d="M 3513 2113 
L 3513 0 
L 2938 0 
L 2938 2094 
Q 2938 2591 2744 2837 
Q 2550 3084 2163 3084 
Q 1697 3084 1428 2787 
Q 1159 2491 1159 1978 
L 1159 0 
L 581 0 
L 581 3500 
L 1159 3500 
L 1159 2956 
Q 1366 3272 1645 3428 
Q 1925 3584 2291 3584 
Q 2894 3584 3203 3211 
Q 3513 2838 3513 2113 
z
" transform="scale(0.015625)"/>
       <path id="DejaVuSans-63" d="M 3122 3366 
L 3122 2828 
Q 2878 2963 2633 3030 
Q 2388 3097 2138 3097 
Q 1578 3097 1268 2742 
Q 959 2388 959 1747 
Q 959 1106 1268 751 
Q 1578 397 2138 397 
Q 2388 397 2633 464 
Q 2878 531 3122 666 
L 3122 134 
Q 2881 22 2623 -34 
Q 2366 -91 2075 -91 
Q 1284 -91 818 406 
Q 353 903 353 1747 
Q 353 2603 823 3093 
Q 1294 3584 2113 3584 
Q 2378 3584 2631 3529 
Q 2884 3475 3122 3366 
z
" transform="scale(0.015625)"/>
       <path id="DejaVuSans-79" d="M 2059 -325 
Q 1816 -950 1584 -1140 
Q 1353 -1331 966 -1331 
L 506 -1331 
L 506 -850 
L 844 -850 
Q 1081 -850 1212 -737 
Q 1344 -625 1503 -206 
L 1606 56 
L 191 3500 
L 800 3500 
L 1894 763 
L 2988 3500 
L 3597 3500 
L 2059 -325 
z
" transform="scale(0.015625)"/>
      </defs>
      <use xlink:href="#DejaVuSans-6c"/>
      <use xlink:href="#DejaVuSans-61" x="27.783203"/>
      <use xlink:href="#DejaVuSans-74" x="89.0625"/>
      <use xlink:href="#DejaVuSans-65" x="128.271484"/>
      <use xlink:href="#DejaVuSans-6e" x="189.794922"/>
      <use xlink:href="#DejaVuSans-63" x="253.173828"/>
      <use xlink:href="#DejaVuSans-79" x="308.154297"/>
     </g>
    </g>
   </g>
   <g id="line2d_18">
    <path d="M 73.832727 240.744817 
L 73.832727 202.665586 
L 73.994892 221.758626 
L 73.994892 283.628664 
L 73.994892 276.271341 
L 74.157057 278.108639 
L 74.157057 237.525479 
L 74.157057 276.092489 
L 74.319223 273.34467 
L 74.319223 256.852341 
L 74.319223 281.70194 
L 74.319223 266.662107 
L 74.481388 211.380559 
L 74.481388 280.975693 
L 74.481388 181.907908 
L 74.481388 275.702266 
L 74.643553 276.255081 
L 74.643553 215.347823 
L 74.643553 282.238496 
L 74.643553 242.682923 
L 74.805718 278.791529 
L 74.805718 276.759119 
L 74.967883 276.840415 
L 74.967883 211.039114 
L 74.967883 281.414694 
L 74.967883 279.945938 
L 75.130048 270.997913 
L 75.130048 53.568 
L 75.130048 279.91071 
L 75.292213 276.363475 
L 75.292213 280.596309 
L 75.292213 180.552967 
L 75.292213 280.076012 
L 75.454378 276.5071 
L 75.454378 253.459573 
L 75.454378 278.452406 
L 75.454378 274.873043 
L 75.616543 281.181643 
L 75.616543 283.905072 
L 75.778709 279.93293 
L 75.778709 280.26751 
L 75.778709 257.13417 
L 75.940874 281.962088 
L 75.940874 273.328411 
L 76.103039 276.401415 
L 76.103039 276.027451 
L 76.103039 282.758793 
L 76.103039 274.068208 
L 76.265204 280.883555 
L 76.265204 285.222074 
L 76.265204 273.320282 
L 76.265204 284.238387 
L 76.427369 279.582813 
L 76.427369 268.206738 
L 76.427369 283.701831 
L 76.589534 271.491113 
L 76.589534 209.703532 
L 76.589534 280.612568 
L 76.751699 278.79695 
L 76.751699 283.567692 
L 76.751699 269.361147 
L 76.751699 272.606499 
L 76.913864 276.74286 
L 76.913864 281.563736 
L 76.913864 276.450193 
L 76.913864 279.903663 
L 77.076029 283.441683 
L 77.076029 274.030812 
L 77.076029 281.45805 
L 77.238195 276.238822 
L 77.238195 283.002682 
L 77.40036 281.490569 
L 77.40036 273.230855 
L 77.40036 282.037964 
L 77.40036 273.371768 
L 77.562525 282.82383 
L 77.562525 267.019811 
L 77.562525 284.39285 
L 77.72469 276.53691 
L 77.72469 280.12479 
L 77.72469 273.328411 
L 77.72469 281.035309 
L 77.886855 279.986586 
L 77.886855 283.035201 
L 77.886855 276.580267 
L 77.886855 278.834886 
L 78.04902 281.514958 
L 78.04902 284.002628 
L 78.04902 275.331554 
L 78.211185 280.043493 
L 78.211185 273.913745 
L 78.211185 282.428186 
L 78.211185 277.861498 
L 78.37335 282.36044 
L 78.37335 269.176874 
L 78.37335 279.962197 
L 78.535515 276.753698 
L 78.535515 284.040024 
L 78.535515 280.832068 
L 78.697681 274.596635 
L 78.697681 269.968161 
L 78.697681 281.561027 
L 78.697681 275.268686 
L 78.859846 280.295512 
L 78.859846 279.149233 
L 78.859846 269.466832 
L 79.022011 278.189935 
L 79.184176 276.677823 
L 79.184176 281.531217 
L 79.184176 271.268904 
L 79.184176 274.629153 
L 79.346341 282.165329 
L 79.346341 280.981111 
L 79.346341 276.937971 
L 79.508506 282.153948 
L 79.508506 274.655168 
L 79.508506 284.726166 
L 79.508506 280.616633 
L 79.670671 279.011029 
L 79.670671 276.753698 
L 79.670671 282.401089 
L 79.832836 283.284511 
L 79.832836 276.2876 
L 79.995001 282.672076 
L 79.995001 273.084522 
L 79.995001 279.637011 
L 80.157166 283.390583 
L 80.157166 270.152431 
L 80.157166 279.864641 
L 80.319332 260.971359 
L 80.319332 283.535173 
L 80.481497 281.957441 
L 80.481497 269.870606 
L 80.481497 282.238496 
L 80.481497 277.527952 
L 80.643662 278.401306 
L 80.643662 275.648067 
L 80.643662 279.905289 
L 80.805827 268.466887 
L 80.805827 281.925505 
L 80.805827 276.74286 
L 80.967992 277.344453 
L 80.967992 278.77527 
L 80.967992 272.298656 
L 81.130157 280.653216 
L 81.130157 273.198337 
L 81.130157 276.531489 
L 81.292322 275.463797 
L 81.292322 272.157743 
L 81.454487 279.978456 
L 81.454487 268.808332 
L 81.454487 278.352528 
L 81.616652 280.926915 
L 81.616652 277.044817 
L 81.778818 270.092815 
L 81.778818 279.872771 
L 81.940983 277.238768 
L 81.940983 271.138829 
L 81.940983 278.962251 
L 82.103148 273.442226 
L 82.103148 279.019159 
L 82.265313 279.87548 
L 82.265313 273.312152 
L 82.265313 281.490569 
L 82.427478 275.198228 
L 82.427478 275.645358 
L 82.589643 283.124627 
L 82.589643 281.279198 
L 82.751808 277.669639 
L 82.751808 270.43426 
L 82.751808 284.980217 
L 82.913973 281.485148 
L 82.913973 276.363475 
L 82.913973 276.775378 
L 83.076138 253.791262 
L 83.076138 279.8809 
L 83.076138 277.344453 
L 83.238304 274.607473 
L 83.238304 278.549961 
L 83.238304 274.580376 
L 83.400469 279.149233 
L 83.400469 273.117041 
L 83.562634 283.165275 
L 83.724799 271.78378 
L 83.724799 281.526339 
L 83.724799 279.945938 
L 83.886964 275.247006 
L 83.886964 270.401741 
L 83.886964 273.320282 
L 84.049129 283.831905 
L 84.049129 279.311826 
L 84.211294 274.542436 
L 84.211294 278.254973 
L 84.211294 276.450193 
L 84.373459 272.396211 
L 84.373459 278.108639 
L 84.535624 275.929896 
L 84.535624 276.580267 
L 84.697789 283.535173 
L 84.697789 269.686333 
L 84.859955 273.019485 
L 84.859955 276.461031 
L 85.02212 278.589914 
L 85.02212 201.586562 
L 85.02212 266.662107 
L 85.34645 283.19129 
L 85.34645 263.020028 
L 85.34645 277.263157 
L 85.508615 272.136063 
L 85.508615 284.905018 
L 85.67078 277.252318 
L 85.67078 281.823884 
L 85.99511 272.788603 
L 85.99511 274.542436 
L 86.157275 280.57192 
L 86.319441 277.828979 
L 86.319441 283.761447 
L 86.319441 277.178608 
L 86.481606 281.945829 
L 86.481606 275.019376 
L 86.643771 270.174111 
L 86.643771 279.832123 
L 86.643771 276.433933 
L 86.805936 280.672184 
L 86.805936 278.769849 
L 86.968101 276.612785 
L 86.968101 278.069617 
L 87.292431 271.53989 
L 87.292431 282.173459 
L 87.454596 278.352528 
L 87.454596 270.044037 
L 87.616761 275.710395 
L 87.616761 285.373285 
L 87.616761 272.840633 
L 87.778927 282.043385 
L 87.778927 276.547748 
L 87.778927 271.230964 
L 87.941092 281.924149 
L 87.941092 279.815863 
L 88.103257 278.157417 
L 88.103257 276.49897 
L 88.103257 277.100564 
L 88.265422 275.496316 
L 88.265422 283.864424 
L 88.589752 277.796461 
L 88.589752 282.311663 
L 88.751917 275.734784 
L 88.751917 284.704485 
L 88.914082 278.622432 
L 88.914082 273.149559 
L 89.076247 279.734567 
L 89.076247 272.125225 
L 89.076247 281.498699 
L 89.400578 277.393231 
L 89.400578 279.842961 
L 89.400578 278.650616 
L 89.562743 282.45637 
L 89.562743 269.52374 
L 89.724908 279.084196 
L 89.724908 281.393013 
L 90.049238 276.694082 
L 90.049238 284.829142 
L 90.211403 276.417674 
L 90.211403 282.650399 
L 90.373568 277.450138 
L 90.535733 281.941764 
L 90.535733 275.58303 
L 90.697898 283.848164 
L 90.697898 279.620752 
L 90.860064 280.84345 
L 90.860064 280.460814 
L 91.022229 281.013629 
L 91.022229 282.409218 
L 91.184394 278.54764 
L 91.346559 278.574737 
L 91.346559 190.796312 
L 91.508724 280.867296 
L 91.670889 283.358064 
L 91.670889 279.019159 
L 91.833054 274.195574 
L 91.833054 281.197902 
L 91.995219 280.823939 
L 91.995219 282.422769 
L 92.157384 276.905452 
L 92.157384 279.626173 
L 92.31955 276.775378 
L 92.31955 281.661291 
L 92.481715 279.832123 
L 92.481715 277.26966 
L 92.64388 281.535282 
L 92.64388 279.954067 
L 92.806045 276.558587 
L 92.806045 271.426076 
L 92.806045 276.554252 
L 92.96821 242.002202 
L 92.96821 272.970707 
L 93.130375 278.287491 
L 93.130375 276.255081 
L 93.29254 276.51523 
L 93.29254 276.466452 
L 93.454705 278.447762 
L 93.454705 279.886321 
L 93.61687 279.994715 
L 93.61687 281.482439 
L 93.779036 281.864532 
L 93.779036 274.043819 
L 93.941201 282.311663 
L 93.941201 277.458268 
L 93.941201 274.791746 
L 94.103366 281.628773 
L 94.103366 276.656142 
L 94.265531 279.767086 
L 94.265531 279.506937 
L 94.427696 278.845727 
L 94.427696 276.409544 
L 94.589861 278.189935 
L 94.589861 278.09238 
L 94.752026 271.756682 
L 94.752026 281.775106 
L 95.076356 274.618315 
L 95.076356 276.255081 
L 95.238521 282.10517 
L 95.238521 285.804699 
L 95.400687 279.929678 
L 95.562852 281.653162 
L 95.562852 279.88903 
L 95.725017 283.157145 
L 95.725017 276.645304 
L 95.887182 276.840415 
L 95.887182 280.815809 
L 96.049347 278.173676 
L 96.049347 283.157145 
L 96.211512 275.694136 
L 96.211512 276.623624 
L 96.373677 284.766814 
L 96.535842 279.66953 
L 96.535842 273.792961 
L 96.698007 275.463797 
L 96.698007 281.295458 
L 96.860173 281.279198 
L 96.860173 283.431927 
L 97.022338 281.002791 
L 97.022338 278.157417 
L 97.184503 278.309171 
L 97.184503 274.520759 
L 97.346668 281.197902 
L 97.346668 273.214596 
L 97.508833 279.019159 
L 97.508833 276.97049 
L 97.670998 276.157526 
L 97.670998 269.263591 
L 97.833163 262.272102 
L 97.833163 271.106311 
L 97.995328 277.479948 
L 98.157493 276.710341 
L 98.319659 282.238496 
L 98.319659 279.240285 
L 98.481824 273.556041 
L 98.481824 230.956731 
L 98.643989 277.604601 
L 98.806154 278.385047 
L 98.806154 279.181751 
L 98.968319 275.929896 
L 98.968319 279.962197 
L 99.130484 265.369494 
L 99.130484 278.417565 
L 99.292649 277.315186 
L 99.292649 281.490569 
L 99.454814 277.744431 
L 99.616979 280.076012 
L 99.616979 275.929896 
L 99.94131 282.682917 
L 100.103475 279.864641 
L 100.103475 279.929678 
L 100.26564 275.019376 
L 100.26564 275.133191 
L 100.427805 281.430953 
L 100.427805 275.181969 
L 100.58997 278.141158 
L 100.58997 277.490786 
L 100.752135 275.637229 
L 100.752135 278.715653 
L 100.9143 278.401306 
L 101.076465 279.173622 
L 101.076465 282.970163 
L 101.23863 276.710341 
L 101.23863 269.832666 
L 101.400796 273.556041 
L 101.400796 276.580267 
L 101.562961 278.189935 
L 101.562961 274.163055 
L 101.725126 274.742968 
L 101.887291 249.030545 
L 101.887291 271.062951 
L 102.049456 274.230801 
L 102.049456 278.108639 
L 102.211621 280.189827 
L 102.211621 279.718308 
L 102.373786 279.027288 
L 102.698116 281.604384 
L 102.698116 277.555824 
L 102.860282 279.750826 
L 102.860282 279.100455 
L 103.022447 276.450193 
L 103.184612 280.515012 
L 103.184612 222.86774 
L 103.346777 278.352528 
L 103.346777 277.913528 
L 103.508942 272.684544 
L 103.508942 276.564008 
L 103.671107 279.842961 
L 103.671107 284.693647 
L 103.833272 276.385156 
L 103.995437 283.555497 
L 103.995437 272.743077 
L 104.157602 275.561353 
L 104.157602 277.539564 
L 104.319768 253.506542 
L 104.481933 282.319792 
L 104.644098 274.808006 
L 104.644098 278.628936 
L 104.806263 277.978565 
L 104.806263 280.444554 
L 104.968428 269.588777 
L 105.292758 282.937645 
L 105.617088 280.636957 
L 105.617088 277.631699 
L 105.779253 275.003117 
L 105.779253 276.710341 
L 105.941419 281.024471 
L 106.103584 275.390088 
L 106.103584 269.930222 
L 106.427914 277.985069 
L 106.427914 273.371768 
L 106.590079 281.45805 
L 106.590079 271.236385 
L 106.752244 280.840198 
L 106.914409 275.702266 
L 106.914409 279.91884 
L 107.076574 276.688661 
L 107.238739 278.059861 
L 107.238739 276.51523 
L 107.400905 279.777924 
L 107.400905 277.198119 
L 107.56307 273.36093 
L 107.725235 281.149124 
L 107.8874 267.214922 
L 107.8874 280.010975 
L 108.049565 273.393448 
L 108.21173 284.923986 
L 108.21173 271.645576 
L 108.373895 281.393013 
L 108.53606 273.230855 
L 108.698225 284.864369 
L 108.698225 275.596581 
L 109.022556 281.563736 
L 109.022556 278.271232 
L 109.184721 282.775052 
L 109.184721 278.511869 
L 109.346886 281.547477 
L 109.509051 280.746707 
L 109.509051 276.572137 
L 109.671216 281.035309 
L 109.995546 269.75137 
L 110.157711 280.250799 
L 110.157711 277.287546 
L 110.319876 278.080767 
L 110.319876 277.794292 
L 110.482042 277.425749 
L 110.644207 276.74286 
L 110.644207 278.450084 
L 110.806372 280.384938 
L 110.968537 276.596526 
L 110.968537 270.629371 
L 111.130702 283.884748 
L 111.455032 280.039428 
L 111.617197 280.948592 
L 111.617197 275.051895 
L 111.779362 272.060187 
L 111.941528 283.970109 
L 112.265858 277.664218 
L 112.265858 279.983877 
L 112.428023 282.157199 
L 112.590188 282.010866 
L 112.590188 278.910765 
L 112.914518 283.002682 
L 112.914518 278.96496 
L 113.076683 279.637011 
L 113.238848 284.815592 
L 113.238848 278.970381 
L 113.401014 283.921331 
L 113.563179 275.068154 
L 113.563179 285.799278 
L 114.049674 277.772615 
L 114.211839 271.621187 
L 114.211839 283.173404 
L 114.374004 276.49897 
L 114.536169 283.978239 
L 114.698334 282.539293 
L 114.698334 283.154436 
L 114.8605 269.458703 
L 115.022665 270.141593 
L 115.022665 277.393231 
L 115.346995 280.363258 
L 115.346995 281.420111 
L 115.50916 275.463797 
L 115.671325 244.430252 
L 115.671325 282.612459 
L 115.83349 278.31188 
L 115.995655 267.566123 
L 115.995655 274.444881 
L 116.482151 284.563573 
L 116.482151 278.32001 
L 116.644316 274.434042 
L 116.806481 285.28169 
L 116.806481 282.460705 
L 117.130811 283.510332 
L 117.455141 267.832775 
L 117.617306 279.864641 
L 117.779471 273.36093 
L 117.941637 282.108422 
L 118.103802 278.585579 
L 118.103802 282.807571 
L 118.265967 279.702048 
L 118.428132 273.295893 
L 118.428132 282.710015 
L 118.590297 273.686115 
L 118.752462 281.002791 
L 118.914627 277.438757 
L 118.914627 279.539456 
L 119.076792 276.352637 
L 119.401123 280.246734 
L 119.401123 278.011083 
L 119.563288 280.79955 
L 119.725453 273.458485 
L 119.887618 275.181969 
L 119.887618 271.637446 
L 120.049783 278.970381 
L 120.211948 278.650616 
L 120.211948 276.759119 
L 120.374113 279.637011 
L 120.536278 276.2876 
L 120.698443 282.291339 
L 120.698443 278.832177 
L 120.860608 277.479948 
L 121.022774 278.076121 
L 121.184939 275.39876 
L 121.184939 278.043602 
L 121.347104 281.544768 
L 121.509269 276.401415 
L 121.671434 276.604656 
L 121.671434 280.518264 
L 121.833599 281.523088 
L 121.995764 277.599181 
L 122.157929 278.181806 
L 122.157929 281.547477 
L 122.320094 283.95385 
L 122.48226 282.607038 
L 122.644425 279.840252 
L 122.644425 280.027234 
L 122.80659 280.726383 
L 122.968755 258.473934 
L 123.293085 283.108367 
L 123.45525 283.682863 
L 123.617415 274.358167 
L 123.77958 276.775378 
L 123.941746 283.289437 
L 124.103911 281.539347 
L 124.266076 281.523088 
L 124.266076 276.406836 
L 124.428241 281.506828 
L 124.590406 281.91331 
L 124.752571 262.608126 
L 124.752571 224.583094 
L 124.914736 281.344236 
L 125.239066 279.002899 
L 125.239066 282.569102 
L 125.401231 271.621187 
L 125.563397 283.100238 
L 125.887727 273.230855 
L 125.887727 281.490569 
L 126.212057 276.634466 
L 126.374222 182.300839 
L 126.374222 268.515665 
L 126.536387 279.815863 
L 126.698552 278.206195 
L 126.860717 285.11964 
L 127.022883 268.17422 
L 127.022883 276.482711 
L 127.185048 283.550077 
L 127.509378 278.189935 
L 127.509378 276.620915 
L 127.671543 276.547748 
L 127.833708 284.222128 
L 127.995873 284.083924 
L 128.158038 271.106311 
L 128.320203 282.147444 
L 128.482369 279.913419 
L 128.644534 273.230855 
L 128.644534 276.591105 
L 128.806699 279.848382 
L 128.968864 275.658909 
L 129.131029 276.97049 
L 129.293194 279.555715 
L 129.293194 278.32001 
L 129.455359 277.664218 
L 129.617524 273.144138 
L 129.941855 278.897214 
L 129.941855 283.067719 
L 130.10402 277.682285 
L 130.266185 281.986477 
L 130.42835 276.450193 
L 130.590515 281.482439 
L 130.590515 271.523631 
L 130.75268 279.823993 
L 131.07701 283.615114 
L 131.239175 273.252536 
L 131.40134 286.270797 
L 131.40134 275.742914 
L 131.563506 278.09238 
L 131.725671 278.764431 
L 131.887836 280.281962 
L 132.050001 271.751261 
L 132.050001 283.75603 
L 132.212166 282.669367 
L 132.374331 282.4206 
L 132.536496 279.092325 
L 132.698661 278.466343 
L 132.860826 281.47431 
L 133.022992 279.819115 
L 133.185157 280.010975 
L 133.347322 207.308514 
L 133.509487 281.056989 
L 133.671652 283.120562 
L 133.671652 196.351565 
L 133.833817 278.157417 
L 133.995982 283.514849 
L 134.158147 272.060187 
L 134.320312 280.710124 
L 134.482478 281.376754 
L 134.644643 276.732021 
L 134.644643 279.970326 
L 134.806808 280.856457 
L 134.968973 282.921386 
L 135.131138 282.11926 
L 135.293303 276.027451 
L 135.617633 281.279198 
L 135.617633 275.076284 
L 135.779798 281.718199 
L 135.941963 276.596526 
L 136.104129 283.067719 
L 136.266294 283.872553 
L 136.428459 271.669965 
L 136.590624 276.612785 
L 136.752789 276.593274 
L 136.752789 278.271232 
L 136.914954 278.615929 
L 137.239284 280.685735 
L 137.401449 276.710341 
L 137.72578 282.807571 
L 137.887945 241.097874 
L 137.887945 269.735111 
L 138.05011 279.864641 
L 138.37444 282.075903 
L 138.69877 276.401415 
L 138.860935 282.108422 
L 139.185266 269.133517 
L 139.347431 281.490569 
L 139.509596 276.255081 
L 139.671761 285.474092 
L 139.833926 276.466452 
L 139.996091 276.629045 
L 140.158256 282.279144 
L 140.320421 281.051569 
L 140.482587 276.490841 
L 140.644752 282.57452 
L 140.806917 278.157417 
L 140.969082 277.978565 
L 140.969082 280.677605 
L 141.131247 279.734567 
L 141.293412 273.458485 
L 141.455577 282.466126 
L 141.617742 281.772398 
L 141.779907 280.395777 
L 141.942072 281.899083 
L 142.104238 280.775161 
L 142.266403 276.623624 
L 142.266403 279.750826 
L 142.428568 275.279525 
L 142.590733 283.840035 
L 142.915063 271.669965 
L 143.077228 273.33925 
L 143.239393 280.932333 
L 143.401558 278.124898 
L 143.563724 280.858779 
L 143.725889 272.276979 
L 144.050219 281.867784 
L 144.212384 276.385156 
L 144.374549 281.544768 
L 144.861044 279.760582 
L 145.02321 281.376754 
L 145.185375 285.858894 
L 145.34754 285.547259 
L 145.509705 278.856566 
L 145.67187 285.051351 
L 145.67187 276.320118 
L 145.834035 270.003389 
L 145.9962 280.043493 
L 146.32053 281.523088 
L 146.482695 280.319901 
L 146.644861 272.938188 
L 146.807026 283.035201 
L 146.969191 278.100509 
L 147.131356 279.201263 
L 147.293521 281.197902 
L 147.617851 272.276979 
L 147.780016 278.116769 
L 147.942181 273.783671 
L 148.104347 282.016287 
L 148.266512 276.105496 
L 148.428677 277.466398 
L 148.428677 277.328194 
L 148.590842 282.5962 
L 148.753007 274.358167 
L 148.915172 283.438431 
L 149.077337 276.677823 
L 149.239502 158.094838 
L 149.401667 280.665411 
L 149.563833 279.571974 
L 149.725998 279.986586 
L 150.050328 284.981667 
L 150.212493 276.51523 
L 150.374658 279.815863 
L 150.698988 278.492358 
L 150.861153 284.482276 
L 151.023318 276.775378 
L 151.185484 283.157145 
L 151.347649 281.571865 
L 151.671979 276.022031 
L 151.834144 275.344562 
L 151.996309 283.709961 
L 152.158474 279.628882 
L 152.320639 282.569102 
L 152.482804 280.539401 
L 152.64497 283.724594 
L 152.807135 281.978347 
L 152.9693 274.946209 
L 153.131465 278.479351 
L 153.29363 275.593872 
L 153.455795 281.360495 
L 153.61796 273.442226 
L 153.780125 280.807679 
L 153.94229 282.027125 
L 154.104456 278.011083 
L 154.266621 280.636957 
L 154.428786 276.718471 
L 154.590951 277.685898 
L 154.753116 276.564008 
L 154.915281 283.94572 
L 155.077446 277.295675 
L 155.239611 260.703081 
L 155.401776 278.607256 
L 155.563942 280.531272 
L 155.726107 278.791529 
L 155.888272 278.472847 
L 156.050437 276.72118 
L 156.212602 284.243808 
L 156.374767 280.937754 
L 156.536932 175.837776 
L 156.699097 279.842961 
L 156.861262 281.425532 
L 157.023427 281.604384 
L 157.185593 283.173404 
L 157.347758 280.043493 
L 157.509923 273.241694 
L 157.672088 280.981111 
L 157.996418 275.035635 
L 158.158583 278.271232 
L 158.320748 275.517993 
L 158.482913 283.588016 
L 158.645079 273.306731 
L 158.807244 273.182078 
L 158.969409 283.547368 
L 159.131574 278.116769 
L 159.293739 279.002899 
L 159.455904 283.840035 
L 159.618069 281.832014 
L 159.780234 281.531217 
L 159.942399 278.287491 
L 160.26673 284.742425 
L 160.59106 276.694082 
L 160.753225 282.157199 
L 160.91539 282.677496 
L 161.077555 283.634472 
L 161.23972 279.490678 
L 161.56405 284.276327 
L 161.726216 282.179962 
L 161.888381 284.095306 
L 162.050546 273.5723 
L 162.212711 282.124681 
L 162.537041 277.236059 
L 162.699206 278.748172 
L 163.023536 283.172243 
L 163.185702 283.194541 
L 163.347867 281.1288 
L 163.510032 282.279144 
L 163.672197 282.246626 
L 163.834362 280.762966 
L 163.996527 285.113136 
L 164.320857 273.1333 
L 164.483022 280.379517 
L 164.645188 279.2224 
L 164.807353 282.457996 
L 165.131683 281.70194 
L 165.293848 276.157526 
L 165.456013 282.027125 
L 165.618178 279.962197 
L 165.780343 268.572572 
L 165.942508 270.022357 
L 166.104674 281.957441 
L 166.266839 282.340116 
L 166.429004 284.184188 
L 166.591169 277.805134 
L 166.753334 279.832123 
L 166.915499 277.740097 
L 167.077664 283.766868 
L 167.401994 275.989512 
L 167.564159 280.181697 
L 167.726325 278.63544 
L 167.88849 282.775052 
L 168.050655 282.677496 
L 168.21282 277.929787 
L 168.374985 280.34429 
L 168.53715 182.081339 
L 168.699315 277.907024 
L 168.86148 274.848654 
L 169.023645 276.74286 
L 169.185811 284.718036 
L 169.672306 276.97049 
L 169.834471 277.77695 
L 169.996636 227.867468 
L 170.158801 285.110967 
L 170.320966 268.087503 
L 170.645297 281.636903 
L 170.807462 278.024091 
L 171.131792 276.851254 
L 171.293957 283.094817 
L 171.456122 278.325431 
L 171.618287 280.539401 
L 171.780452 273.165818 
L 172.104782 281.506828 
L 172.429113 278.96496 
L 172.591278 273.279633 
L 172.753443 280.417457 
L 172.915608 56.711462 
L 173.077773 282.921386 
L 173.239938 283.395613 
L 173.402103 278.910765 
L 173.726434 277.347705 
L 173.888599 273.230855 
L 174.050764 275.897377 
L 174.212929 280.99737 
L 174.375094 280.677605 
L 174.537259 278.73733 
L 174.699424 283.100238 
L 175.023754 274.986858 
L 175.18592 281.941764 
L 175.348085 279.002899 
L 175.51025 266.727144 
L 175.83458 281.453986 
L 175.996745 269.995259 
L 176.48324 281.68568 
L 176.645406 280.742642 
L 176.807571 274.325648 
L 176.969736 283.425423 
L 177.131901 218.948093 
L 177.294066 285.054603 
L 177.618396 281.441791 
L 177.780561 277.433879 
L 177.942726 284.396915 
L 178.104891 281.401143 
L 178.429222 283.116497 
L 178.915717 273.501842 
L 179.077882 281.571865 
L 179.564377 273.263374 
L 179.888708 278.834886 
L 180.050873 278.233292 
L 180.213038 279.637011 
L 180.375203 270.076555 
L 180.537368 273.295893 
L 180.699533 273.718634 
L 181.023863 276.190044 
L 181.186029 264.776031 
L 181.348194 279.376863 
L 181.510359 175.51259 
L 181.834689 279.311826 
L 181.996854 275.83234 
L 182.159019 277.523305 
L 182.321184 273.409708 
L 182.80768 61.372454 
L 182.969845 264.862748 
L 183.13201 283.342319 
L 183.294175 279.227277 
L 183.78067 284.804753 
L 183.942835 263.995585 
L 184.105 281.262939 
L 184.267166 277.308683 
L 184.591496 278.279362 
L 184.753661 285.547259 
L 184.915826 274.726709 
L 185.077991 280.910656 
L 185.726652 280.311771 
L 185.888817 282.5962 
L 186.050982 275.897377 
L 186.375312 278.549961 
L 186.537477 281.344236 
L 186.699642 278.498862 
L 186.861807 279.864641 
L 187.186137 279.832123 
L 187.348303 270.304185 
L 187.510468 278.198065 
L 187.672633 192.279972 
L 187.834798 280.292803 
L 188.159128 282.953904 
L 188.321293 282.722209 
L 188.483458 280.612568 
L 188.645623 282.970163 
L 188.969954 248.191566 
L 189.132119 279.4419 
L 189.294284 276.666984 
L 189.456449 278.043602 
L 189.780779 277.311934 
L 190.105109 228.192653 
L 190.267275 160.554054 
L 190.42944 280.981111 
L 190.915935 273.252536 
L 191.0781 282.197848 
L 191.240265 280.636957 
L 191.40243 276.092489 
L 191.888926 284.449758 
L 192.051091 277.382392 
L 192.375421 161.92448 
L 192.537586 273.523522 
L 192.699751 200.931264 
L 192.861916 285.579778 
L 193.024081 261.686768 
L 193.348412 280.173567 
L 193.510577 280.238605 
L 193.997072 277.236059 
L 194.159237 280.341581 
L 194.483567 274.92182 
L 194.807898 280.750772 
L 194.970063 261.231508 
L 195.132228 282.579941 
L 195.294393 275.816081 
L 195.618723 277.458268 
L 195.780888 273.214596 
L 195.943053 279.853803 
L 196.267384 283.593437 
L 196.591714 276.694082 
L 196.753879 284.124572 
L 197.078209 278.693973 
L 197.240374 280.043493 
L 197.402539 269.686333 
L 197.726869 269.897703 
L 198.0512 276.320118 
L 198.37553 278.602921 
L 198.537695 269.930222 
L 198.69986 269.859764 
L 199.02419 284.990961 
L 199.186355 277.393231 
L 199.348521 279.593654 
L 199.510686 277.198119 
L 199.997181 274.889302 
L 200.159346 279.571974 
L 200.483676 275.528835 
L 200.645841 282.8157 
L 200.808007 284.791203 
L 201.132337 277.881009 
L 201.456667 282.644978 
L 201.780997 282.016287 
L 201.943162 281.425532 
L 202.105327 270.987075 
L 202.267493 276.677823 
L 202.591823 283.05146 
L 202.753988 281.425532 
L 202.916153 281.563736 
L 203.240483 278.181806 
L 203.402648 282.840089 
L 203.564813 131.287352 
L 203.726978 278.287491 
L 204.051309 279.116714 
L 204.213474 276.2876 
L 204.375639 278.401306 
L 204.699969 285.169231 
L 204.862134 273.271504 
L 205.510795 283.254701 
L 205.67296 274.412362 
L 205.99729 278.63544 
L 206.32162 276.677823 
L 206.64595 281.230421 
L 206.970281 281.57593 
L 207.456776 275.713104 
L 207.618941 274.238931 
L 207.943271 267.90865 
L 208.105436 281.47431 
L 208.267601 274.564116 
L 208.591932 278.542219 
L 208.754097 285.040513 
L 208.916262 279.019159 
L 209.078427 279.929678 
L 209.564922 274.92995 
L 209.889253 281.013629 
L 210.051418 273.271504 
L 210.213583 279.937808 
L 210.537913 282.45637 
L 210.700078 281.669421 
L 210.862243 277.848491 
L 211.186573 279.750826 
L 211.348739 276.580267 
L 211.510904 276.596526 
L 211.997399 282.287274 
L 212.159564 277.523305 
L 212.483894 280.173567 
L 212.646059 277.881009 
L 212.97039 276.786217 
L 213.132555 278.574737 
L 213.29472 278.263102 
L 213.61905 278.753589 
L 213.781215 280.738577 
L 213.94338 272.287817 
L 214.26771 277.881009 
L 214.429876 270.092815 
L 214.592041 276.00794 
L 214.916371 275.851851 
L 215.078536 277.368842 
L 215.402866 281.604384 
L 215.565031 275.220991 
L 215.727196 279.734567 
L 216.051527 282.231527 
L 216.700187 273.035744 
L 216.862352 283.158771 
L 217.024517 278.295621 
L 217.348848 275.936399 
L 217.511013 285.206975 
L 217.673178 280.685735 
L 217.997508 281.531217 
L 218.159673 276.450193 
L 218.484003 279.758956 
L 218.646168 277.772615 
L 218.808333 281.376754 
L 219.132664 276.417674 
L 219.294829 260.418544 
L 219.456994 198.492372 
L 219.781324 277.544985 
L 219.943489 279.718308 
L 220.267819 280.750772 
L 220.429985 278.661455 
L 220.59215 283.559562 
L 220.91648 283.083978 
L 221.078645 273.5723 
L 221.402975 278.141158 
L 221.56514 273.165818 
L 221.889471 278.715653 
L 222.051636 278.206195 
L 222.538131 281.588125 
L 222.700296 278.570403 
L 223.024626 281.531217 
L 223.186791 279.780093 
L 223.511122 273.36093 
L 223.673287 282.994552 
L 224.159782 275.474636 
L 224.321947 278.693973 
L 224.646277 278.78069 
L 224.808442 279.799604 
L 225.132773 280.730448 
L 225.294938 279.842961 
L 225.619268 279.909354 
L 225.781433 285.140777 
L 225.943598 280.10853 
L 226.267928 278.368788 
L 226.430094 283.461194 
L 226.754424 281.029888 
L 227.240919 273.117041 
L 227.403084 279.092325 
L 227.727414 270.130754 
L 228.051745 276.601947 
L 228.376075 280.910656 
L 228.53824 279.328085 
L 228.86257 281.506828 
L 229.024735 281.24668 
L 229.349065 275.452956 
L 229.511231 270.304185 
L 229.835561 283.880683 
L 229.997726 277.675059 
L 230.322056 278.271232 
L 230.484221 280.482494 
L 230.646386 279.110211 
L 230.970717 280.210151 
L 231.132882 284.693647 
L 231.457212 278.254973 
L 231.619377 285.665139 
L 232.105872 279.962197 
L 232.430203 280.292803 
L 232.916698 272.808114 
L 233.241028 276.157526 
L 233.403193 269.263591 
L 233.727523 272.775596 
L 234.051854 280.180071 
L 234.214019 276.320118 
L 234.538349 279.954067 
L 234.700514 272.233619 
L 235.024844 279.723729 
L 235.187009 276.775378 
L 235.51134 284.319684 
L 235.673505 282.254755 
L 235.997835 283.376645 
L 236.16 272.374535 
L 236.48433 268.353072 
L 236.646495 276.49897 
L 236.970826 274.791746 
L 237.132991 277.653379 
L 237.457321 274.791746 
L 237.619486 283.384775 
L 237.943816 278.130319 
L 238.268146 277.544985 
L 238.430312 280.68167 
L 238.754642 279.734567 
L 238.916807 279.902581 
L 239.241137 278.576906 
L 239.403302 273.11162 
L 239.565467 282.441737 
L 239.889797 279.124844 
L 240.051963 282.097583 
L 240.376293 279.913419 
L 240.538458 281.425532 
L 240.862788 279.87548 
L 241.024953 279.710178 
L 241.349283 278.929733 
L 241.511449 282.501896 
L 241.835779 276.74286 
L 241.997944 276.466452 
L 242.322274 283.712669 
L 242.484439 279.702048 
L 242.808769 282.547422 
L 242.970935 177.301111 
L 243.295265 279.973035 
L 243.45743 279.173622 
L 243.78176 281.210909 
L 243.943925 276.677823 
L 244.268255 281.718199 
L 244.592586 279.685789 
L 244.916916 284.189609 
L 245.241246 281.184895 
L 245.403411 269.848925 
L 245.727741 276.482711 
L 246.052072 279.832123 
L 246.214237 277.442009 
L 246.538567 278.472847 
L 246.700732 282.363149 
L 247.025062 282.474255 
L 247.511558 276.222563 
L 247.673723 274.970598 
L 247.998053 273.458485 
L 248.160218 274.616146 
L 248.484548 275.615549 
L 248.646713 283.848164 
L 248.971044 282.059644 
L 249.295374 279.189881 
L 249.457539 274.808006 
L 249.781869 283.486848 
L 249.944034 276.433933 
L 250.430529 280.433716 
L 250.75486 276.222563 
L 250.917025 278.549961 
L 251.40352 273.58856 
L 252.052181 279.945938 
L 252.214346 278.141158 
L 252.538676 280.726383 
L 252.700841 275.856729 
L 253.025171 274.92182 
L 253.187336 276.937971 
L 253.511667 283.018941 
L 253.998162 278.641943 
L 254.322492 277.523305 
L 254.484657 282.856348 
L 254.808987 279.832123 
L 254.971152 280.291447 
L 255.295483 276.547748 
L 255.457648 281.527735 
L 255.781978 281.506828 
L 256.106308 284.661128 
L 256.268473 281.550185 
L 256.592804 282.807571 
L 256.754969 281.555606 
L 257.079299 280.12479 
L 257.403629 269.95732 
L 257.565794 272.840633 
L 257.890124 284.124572 
L 258.05229 276.385156 
L 258.37662 284.170098 
L 258.538785 268.754133 
L 258.863115 283.067719 
L 259.187445 278.580158 
L 259.34961 283.123001 
L 259.673941 284.596091 
L 259.836106 281.344236 
L 260.160436 279.962197 
L 260.322601 272.629262 
L 260.646931 214.567378 
L 260.971261 278.141158 
L 261.133427 271.29058 
L 261.457757 275.458377 
L 261.619922 275.420437 
L 261.944252 283.49859 
L 262.268582 278.450084 
L 262.430747 278.498862 
L 262.755078 276.108748 
L 263.079408 280.767031 
L 263.241573 270.239148 
L 263.565903 270.20663 
L 263.728068 280.954013 
L 264.052399 281.501407 
L 264.376729 267.843613 
L 264.538894 277.799713 
L 265.025389 281.838518 
L 265.349719 276.222563 
L 265.836215 282.697821 
L 266.160545 282.498644 
L 266.484875 273.247115 
L 266.64704 278.336269 
L 266.97137 279.921549 
L 267.295701 275.133191 
L 267.457866 281.525796 
L 267.782196 281.311717 
L 267.944361 282.3767 
L 268.268691 270.033198 
L 268.593022 282.352311 
L 268.755187 279.962197 
L 269.079517 279.832123 
L 269.241682 276.51523 
L 269.566012 279.116714 
L 269.890342 275.452956 
L 270.052507 279.783345 
L 270.376838 280.477073 
L 270.701168 280.52802 
L 270.863333 268.135198 
L 271.187663 276.531489 
L 271.511993 276.157526 
L 271.674159 284.726166 
L 271.998489 276.580267 
L 272.322819 281.945829 
L 272.484984 282.010866 
L 272.809314 278.79695 
L 273.133645 278.482602 
L 273.29581 276.580267 
L 273.62014 279.758956 
L 273.94447 270.304185 
L 274.430965 276.043711 
L 274.755296 278.217033 
L 274.917461 276.612785 
L 275.241791 275.913636 
L 275.566121 282.699177 
L 275.728286 277.425749 
L 276.052616 272.466669 
L 276.376947 280.620698 
L 276.539112 278.189935 
L 276.863442 279.011029 
L 277.187772 282.17888 
L 277.349937 268.515665 
L 277.674268 281.031244 
L 277.998598 273.409708 
L 278.160763 285.11964 
L 278.485093 275.366242 
L 278.809423 272.377243 
L 278.971588 273.653597 
L 279.295919 273.295893 
L 279.620249 278.458214 
L 279.782414 275.756465 
L 280.106744 280.035364 
L 280.755405 282.742534 
L 281.2419 263.231399 
L 281.728395 281.155628 
L 282.052725 280.35242 
L 282.377056 277.458268 
L 282.701386 275.83234 
L 282.863551 277.962306 
L 283.187881 280.346999 
L 283.512211 273.425967 
L 283.998707 280.880846 
L 284.323037 276.49897 
L 284.647367 275.962414 
L 284.971697 280.189827 
L 285.133863 266.710885 
L 285.458193 278.602921 
L 285.782523 283.105658 
L 286.106853 280.539401 
L 286.269018 278.043602 
L 286.593348 282.384829 
L 286.917679 277.26966 
L 287.079844 280.010975 
L 287.404174 280.848328 
L 287.728504 278.824047 
L 287.890669 282.027125 
L 288.215 273.198337 
L 288.53933 279.604493 
L 288.86366 280.214216 
L 289.025825 272.938188 
L 289.998816 276.547748 
L 290.160981 280.010975 
L 290.809641 275.954285 
L 291.133971 273.81619 
L 291.296137 269.800148 
L 291.620467 271.832557 
L 291.944797 279.832123 
L 292.269127 275.035635 
L 292.431292 283.018941 
L 292.755623 277.165601 
L 293.079953 273.621078 
L 293.404283 281.551541 
L 293.728613 276.74286 
L 293.890778 276.775378 
L 294.215109 280.636957 
L 294.863769 272.547966 
L 295.025934 283.100238 
L 295.350264 279.149233 
L 295.674594 281.596254 
L 295.998925 277.165601 
L 296.323255 280.258929 
L 296.48542 275.767303 
L 297.13408 278.791529 
L 297.458411 277.151663 
L 297.782741 254.792833 
L 298.107071 282.61788 
L 298.431401 278.124898 
L 298.755732 271.604928 
L 299.080062 278.589914 
L 299.404392 277.859329 
L 299.728722 280.57192 
L 300.053052 275.767303 
L 300.377383 274.051949 
L 300.539548 278.30375 
L 300.863878 280.677605 
L 301.188208 272.938188 
L 301.512538 277.939543 
L 301.674703 276.466452 
L 301.999034 280.685735 
L 302.323364 272.938188 
L 302.647694 277.191616 
L 302.972024 276.645304 
L 303.134189 280.515012 
L 303.45852 269.95732 
L 303.78285 278.498862 
L 304.10718 280.628827 
L 304.593675 276.791638 
L 304.918006 281.718199 
L 305.566666 271.523631 
L 305.890996 273.328411 
L 306.053161 270.109074 
L 306.377492 283.149015 
L 306.701822 282.303533 
L 307.026152 278.336269 
L 307.350482 276.401415 
L 307.674812 280.726383 
L 307.836978 280.883555 
L 308.161308 276.661563 
L 308.485638 278.726492 
L 308.809968 279.767086 
L 309.134298 281.47431 
L 309.458629 282.298112 
L 309.782959 282.384829 
L 309.945124 276.547748 
L 310.269454 273.913745 
L 310.593784 277.868002 
L 310.918115 275.83234 
L 311.242445 278.189935 
L 311.40461 271.588668 
L 312.05327 278.336269 
L 312.377601 278.650616 
L 312.701931 279.677659 
L 313.026261 277.133082 
L 313.350591 279.571974 
L 313.512756 275.279525 
L 313.837087 279.474418 
L 314.161417 276.482711 
L 314.485747 274.629153 
L 314.810077 281.957441 
L 315.134407 276.2876 
L 315.458738 275.084413 
L 315.620903 275.14945 
L 316.269563 277.897268 
L 316.593893 276.824156 
L 316.918224 273.230855 
L 317.242554 281.89163 
L 317.566884 277.577504 
L 317.729049 281.551541 
L 318.053379 279.712887 
L 318.37771 276.710341 
L 318.70204 279.832123 
L 319.3507 273.11162 
L 319.512865 277.881009 
L 319.837196 278.238713 
L 320.161526 280.506883 
L 320.485856 279.886321 
L 320.810186 276.840415 
L 321.134516 279.91884 
L 321.458847 281.409273 
L 321.783177 280.076012 
L 321.945342 278.540671 
L 322.594002 279.263048 
L 322.918333 269.881444 
L 323.242663 276.688661 
L 323.566993 277.870171 
L 323.891323 272.320336 
L 324.539984 277.767194 
L 324.864314 273.425967 
L 325.026479 276.474582 
L 325.350809 272.90567 
L 325.675139 275.116932 
L 325.99947 278.309171 
L 326.3238 276.862095 
L 326.64813 273.34467 
L 326.97246 274.520759 
L 327.29679 279.734567 
L 327.621121 279.2663 
L 327.945451 271.458594 
L 328.431946 281.531217 
L 328.756276 282.242561 
L 329.080607 280.076012 
L 329.404937 279.331337 
L 329.729267 279.108585 
L 330.053597 282.697821 
L 330.377928 275.962414 
L 330.702258 273.881227 
L 331.188753 276.320118 
L 331.513083 271.637446 
L 331.837413 276.807897 
L 332.161744 272.827625 
L 332.810404 276.474582 
L 333.134734 274.645413 
L 333.459065 274.401524 
L 333.783395 284.62861 
L 334.107725 269.621296 
L 334.26989 275.528835 
L 334.756385 279.815863 
L 334.918551 283.663892 
L 335.242881 273.214596 
L 335.567211 277.544985 
L 335.891541 278.263102 
L 336.215871 280.059753 
L 336.540202 278.731913 
L 336.864532 280.883555 
L 337.188862 271.653705 
L 337.513192 280.99737 
L 337.837522 274.100727 
L 338.161853 277.414911 
L 338.810513 279.718308 
L 339.134843 278.726492 
L 339.783504 273.230855 
L 340.107834 277.523305 
L 340.432164 278.295621 
L 340.756494 281.279198 
L 340.91866 280.449975 
L 341.24299 276.547748 
L 341.56732 278.511869 
L 341.89165 281.593546 
L 342.21598 279.810443 
L 342.540311 273.328411 
L 342.864641 274.905561 
L 343.188971 278.466343 
L 343.513301 274.873043 
L 343.837631 275.88437 
L 344.161962 279.8809 
L 344.486292 276.035581 
L 344.810622 279.409381 
L 345.134952 269.174165 
L 345.459283 282.623298 
L 345.783613 283.680151 
L 346.107943 219.107781 
L 346.432273 277.382392 
L 347.080934 283.345935 
L 347.405264 274.92182 
L 347.729594 274.163055 
L 348.053924 266.922255 
L 348.378254 278.295621 
L 348.702585 284.119151 
L 349.026915 277.994824 
L 349.351245 276.840415 
L 349.675575 276.51523 
L 349.999906 282.943066 
L 350.324236 280.607921 
L 350.648566 273.068263 
L 350.972896 283.197793 
L 351.297226 276.417674 
L 351.621557 274.011301 
L 351.945887 278.921603 
L 352.270217 280.685735 
L 352.594547 277.691319 
L 352.918877 282.032546 
L 353.405373 284.967733 
L 353.729703 277.756356 
L 354.054033 277.696736 
L 354.378363 279.593654 
L 354.702694 278.189935 
L 355.189189 278.336269 
L 355.513519 278.628936 
L 355.837849 278.704812 
L 356.16218 276.482711 
L 356.48651 279.783345 
L 356.81084 276.807897 
L 357.13517 278.693973 
L 357.4595 279.474418 
L 357.783831 276.206303 
L 358.432491 283.165275 
L 358.756821 278.693973 
L 359.081152 281.084087 
L 359.405482 280.840198 
L 359.729812 279.970326 
L 360.054142 279.856512 
L 360.378472 282.151779 
L 360.702803 276.125007 
L 361.027133 283.159854 
L 361.351463 275.710395 
L 361.675793 281.68568 
L 362.000124 285.00722 
L 362.324454 279.506937 
L 362.648784 279.170913 
L 362.973114 164.293688 
L 363.297444 275.954285 
L 363.78394 280.677605 
L 364.4326 274.927241 
L 364.75693 282.754728 
L 365.081261 276.547748 
L 365.405591 279.929678 
L 365.729921 281.539347 
L 366.054251 276.807897 
L 366.378581 278.051732 
L 366.702912 280.059753 
L 367.027242 283.604275 
L 367.351572 276.612785 
L 367.675902 275.550511 
L 368.000232 280.539401 
L 368.324563 280.3741 
L 368.648893 269.079319 
L 368.973223 278.98664 
L 369.297553 280.441846 
L 369.784049 251.692732 
L 370.108379 281.096282 
L 370.432709 279.89716 
L 370.757039 277.263157 
L 371.08137 281.376754 
L 371.4057 280.34429 
L 371.73003 283.04333 
L 372.216525 276.49355 
L 372.540856 279.116714 
L 372.865186 279.66953 
L 373.189516 276.72118 
L 373.513846 278.889084 
L 373.838176 272.103544 
L 374.162507 272.069478 
L 374.486837 280.645087 
L 374.811167 273.718634 
L 375.135497 275.864859 
L 375.459827 280.701994 
L 375.784158 276.937971 
L 376.270653 277.653379 
L 376.594983 279.059807 
L 376.919313 278.141158 
L 377.243644 278.672293 
L 377.567974 280.750772 
L 377.892304 281.45805 
L 378.216634 279.157363 
L 378.865295 280.379517 
L 379.189625 279.279307 
L 379.67612 280.531272 
L 380.00045 276.637174 
L 380.324781 279.620752 
L 380.649111 277.263157 
L 380.973441 278.238713 
L 381.297771 279.777924 
L 381.784267 277.950693 
L 382.108597 277.620861 
L 382.432927 278.45984 
L 382.757257 283.503468 
L 383.081588 278.511869 
L 383.568083 274.962469 
L 384.216743 278.206195 
L 384.865404 280.959434 
L 385.189734 281.46618 
L 385.514064 279.940517 
L 385.838394 177.910834 
L 386.32489 273.328411 
L 386.64922 278.059861 
L 386.97355 269.881444 
L 387.29788 282.287274 
L 387.946541 267.952011 
L 388.757366 285.100129 
L 389.081696 278.845727 
L 389.406027 281.084087 
L 389.730357 279.767086 
L 390.054687 279.637011 
L 390.379017 279.799604 
L 390.865513 277.076175 
L 391.514173 282.490515 
L 391.838503 275.409599 
L 392.162834 279.116714 
L 392.487164 268.255516 
L 392.973659 283.604275 
L 393.297989 279.986586 
L 393.622319 284.831851 
L 393.94665 283.04333 
L 394.27098 280.56379 
L 394.757475 274.639992 
L 395.081805 277.133082 
L 395.406136 282.037964 
L 395.730466 277.230638 
L 396.216961 275.279525 
L 396.541291 278.618098 
L 397.027787 279.832123 
L 397.352117 278.654951 
L 397.838612 281.880792 
L 398.162943 277.913528 
L 398.487273 278.254973 
L 398.487273 278.254973 
" clip-path="url(#pc8b8845599)" style="fill: none; stroke: #bfbf00; stroke-opacity: 0.6; stroke-linecap: square"/>
   </g>
   <g id="line2d_19">
    <path d="M 73.832727 294.26445 
L 73.832727 294.164677 
L 73.994892 293.676898 
L 73.994892 294.842146 
L 73.994892 292.863935 
L 74.157057 293.63625 
L 74.157057 294.794724 
L 74.157057 294.086089 
L 74.319223 294.969511 
L 74.319223 293.676898 
L 74.319223 295.064017 
L 74.319223 294.790659 
L 74.481388 293.671091 
L 74.481388 294.273071 
L 74.481388 294.868203 
L 74.481388 293.53463 
L 74.481388 294.32727 
L 74.643553 294.611807 
L 74.643553 294.611807 
L 74.643553 295.012481 
L 74.643553 293.697223 
L 74.643553 293.753678 
L 74.805718 294.68633 
L 74.805718 294.089188 
L 74.805718 295.018289 
L 74.805718 294.628066 
L 74.967883 294.80924 
L 74.967883 293.862072 
L 74.967883 295.088747 
L 75.130048 294.684974 
L 75.130048 294.693103 
L 75.130048 294.133062 
L 75.130048 294.684974 
L 75.292213 294.916668 
L 75.292213 294.042732 
L 75.292213 295.072488 
L 75.292213 294.828598 
L 75.454378 294.351659 
L 75.454378 294.684974 
L 75.454378 293.213509 
L 75.616543 294.465473 
L 75.616543 293.697223 
L 75.778709 294.308793 
L 75.778709 294.107769 
L 75.778709 295.44916 
L 75.940874 294.828598 
L 75.940874 294.300172 
L 75.940874 295.294697 
L 75.940874 294.445679 
L 76.103039 294.587418 
L 76.103039 294.463561 
L 76.103039 294.075251 
L 76.103039 294.530511 
L 76.103039 294.424471 
L 76.265204 294.323575 
L 76.265204 295.174628 
L 76.427369 293.717547 
L 76.427369 293.903367 
L 76.427369 293.79259 
L 76.427369 295.072488 
L 76.589534 294.595548 
L 76.589534 295.029901 
L 76.589534 293.466266 
L 76.589534 294.087075 
L 76.751699 294.476312 
L 76.751699 294.957317 
L 76.751699 293.880139 
L 76.751699 294.042732 
L 76.913864 294.518004 
L 76.913864 294.34082 
L 76.913864 293.65501 
L 77.076029 295.146041 
L 77.076029 294.725622 
L 77.238195 294.367918 
L 77.238195 294.465473 
L 77.238195 294.760849 
L 77.238195 293.464624 
L 77.238195 294.584709 
L 77.40036 294.918233 
L 77.40036 294.916668 
L 77.40036 294.302881 
L 77.40036 294.638905 
L 77.562525 293.815102 
L 77.562525 293.975783 
L 77.562525 295.206285 
L 77.562525 294.995061 
L 77.72469 294.251781 
L 77.72469 293.473657 
L 77.886855 294.882794 
L 77.886855 294.628066 
L 77.886855 293.798843 
L 78.04902 295.153784 
L 78.04902 294.733752 
L 78.04902 293.880139 
L 78.211185 295.075196 
L 78.211185 294.693103 
L 78.211185 293.668769 
L 78.535515 295.188624 
L 78.535515 294.286621 
L 78.535515 294.302881 
L 78.697681 295.080825 
L 78.697681 294.571159 
L 78.697681 293.327324 
L 78.859846 294.846663 
L 79.022011 294.581321 
L 79.022011 294.611807 
L 79.022011 293.717547 
L 79.022011 293.862072 
L 79.184176 294.86247 
L 79.184176 294.786012 
L 79.184176 293.619991 
L 79.346341 295.197996 
L 79.346341 294.367918 
L 79.508506 294.530511 
L 79.508506 293.619991 
L 79.508506 294.408566 
L 79.670671 294.72359 
L 79.670671 295.191044 
L 79.670671 294.042732 
L 79.832836 294.882794 
L 79.832836 293.252996 
L 79.832836 294.7744 
L 79.995001 294.497992 
L 79.995001 294.75814 
L 79.995001 293.973048 
L 80.157166 295.153784 
L 80.157166 294.672779 
L 80.319332 294.042732 
L 80.319332 294.869247 
L 80.319332 294.467974 
L 80.481497 294.720201 
L 80.481497 293.907237 
L 80.481497 294.205325 
L 80.643662 294.41226 
L 80.643662 294.158869 
L 80.643662 294.432955 
L 80.643662 294.31914 
L 80.805827 294.989253 
L 80.805827 294.042732 
L 80.967992 294.550835 
L 80.967992 294.918925 
L 81.130157 293.134921 
L 81.130157 294.185001 
L 81.292322 295.267986 
L 81.292322 294.655583 
L 81.454487 294.505497 
L 81.454487 293.278546 
L 81.454487 293.690449 
L 81.778818 294.806918 
L 81.778818 294.486168 
L 81.940983 294.110478 
L 81.940983 294.644326 
L 82.103148 294.395016 
L 82.103148 294.981335 
L 82.265313 294.140288 
L 82.265313 294.707883 
L 82.265313 294.786012 
L 82.427478 294.863088 
L 82.427478 294.08338 
L 82.427478 294.367918 
L 82.589643 294.652455 
L 82.589643 293.880139 
L 82.589643 295.368878 
L 82.751808 294.228553 
L 82.751808 294.367918 
L 82.913973 295.278437 
L 82.913973 294.367918 
L 83.076138 294.471385 
L 83.076138 293.533274 
L 83.238304 294.458248 
L 83.238304 294.662617 
L 83.562634 294.06983 
L 83.562634 293.676898 
L 83.562634 294.321462 
L 83.724799 294.530511 
L 83.724799 294.973124 
L 83.724799 294.632131 
L 83.886964 294.652455 
L 83.886964 294.902152 
L 83.886964 294.874456 
L 84.211294 294.571159 
L 84.211294 293.973048 
L 84.373459 294.790659 
L 84.373459 294.382697 
L 84.697789 295.053129 
L 84.697789 294.672779 
L 84.859955 294.449214 
L 84.859955 294.764238 
L 85.02212 294.500024 
L 85.02212 294.920733 
L 85.02212 294.107769 
L 85.184285 294.945122 
L 85.184285 294.842146 
L 85.34645 294.666006 
L 85.34645 293.817603 
L 85.508615 294.738268 
L 85.508615 295.488 
L 85.67078 294.982158 
L 85.67078 294.351659 
L 85.67078 295.140234 
L 85.832945 293.880139 
L 85.832945 294.484055 
L 85.832945 294.980769 
L 86.157275 294.06983 
L 86.157275 294.469538 
L 86.319441 294.737446 
L 86.319441 293.945177 
L 86.481606 293.807877 
L 86.481606 295.140234 
L 86.643771 294.623419 
L 86.643771 294.87602 
L 86.805936 294.909895 
L 86.805936 295.343475 
L 86.968101 294.563029 
L 86.968101 295.137525 
L 86.968101 294.996118 
L 87.130266 294.720201 
L 87.130266 294.845534 
L 87.292431 294.977641 
L 87.292431 294.950543 
L 87.292431 293.934338 
L 87.616761 295.257899 
L 87.616761 294.484055 
L 87.778927 295.018289 
L 87.778927 294.400436 
L 87.778927 294.704716 
L 87.941092 294.087075 
L 87.941092 294.828598 
L 88.103257 294.486168 
L 88.103257 294.783433 
L 88.265422 295.058937 
L 88.265422 294.916668 
L 88.427587 294.595548 
L 88.427587 294.991191 
L 88.589752 294.518004 
L 88.589752 295.034548 
L 88.751917 295.00203 
L 88.751917 294.26445 
L 88.751917 295.280245 
L 89.076247 294.019504 
L 89.076247 294.844084 
L 89.238412 294.367918 
L 89.238412 294.459376 
L 89.400578 294.432955 
L 89.400578 294.987803 
L 89.400578 294.346238 
L 89.562743 294.983449 
L 89.562743 293.825941 
L 89.724908 295.194432 
L 89.724908 294.530511 
L 89.887073 294.205325 
L 89.887073 294.855696 
L 90.049238 294.974512 
L 90.049238 294.916668 
L 90.211403 294.679553 
L 90.211403 295.157654 
L 90.211403 294.896344 
L 90.373568 295.150396 
L 90.373568 294.611807 
L 90.535733 295.033534 
L 90.535733 294.909895 
L 90.697898 294.638905 
L 90.697898 294.98577 
L 90.697898 294.890537 
L 90.860064 294.151126 
L 90.860064 295.228704 
L 91.022229 294.259524 
L 91.022229 294.792467 
L 91.184394 294.591483 
L 91.184394 295.302826 
L 91.184394 295.209335 
L 91.346559 294.733752 
L 91.346559 294.786012 
L 91.508724 294.7744 
L 91.508724 295.010897 
L 91.670889 295.036356 
L 91.670889 293.764003 
L 91.670889 294.237844 
L 91.833054 294.530511 
L 91.833054 295.093332 
L 91.995219 294.823178 
L 92.157384 293.853042 
L 92.157384 294.709363 
L 92.31955 294.376047 
L 92.31955 294.042732 
L 92.31955 295.069099 
L 92.481715 295.137525 
L 92.481715 294.98577 
L 92.64388 294.652455 
L 92.64388 294.684974 
L 92.806045 294.716331 
L 92.806045 294.936993 
L 92.806045 294.205325 
L 92.96821 294.936993 
L 92.96821 294.581321 
L 93.130375 294.388242 
L 93.130375 294.794724 
L 93.29254 294.391146 
L 93.29254 295.370572 
L 93.61687 294.286621 
L 93.779036 295.082165 
L 93.779036 293.920788 
L 93.941201 295.077414 
L 93.941201 294.530511 
L 94.103366 294.486168 
L 94.103366 294.764238 
L 94.265531 294.666006 
L 94.265531 294.280368 
L 94.427696 294.947155 
L 94.427696 294.178227 
L 94.589861 294.89265 
L 94.589861 294.877867 
L 94.752026 295.092194 
L 94.752026 294.571159 
L 94.914191 294.221584 
L 94.914191 293.63625 
L 95.238521 294.957317 
L 95.238521 293.903367 
L 95.238521 294.571159 
L 95.400687 294.936993 
L 95.562852 294.500948 
L 95.562852 294.792467 
L 95.725017 294.530511 
L 95.725017 295.20411 
L 95.887182 294.888215 
L 95.887182 294.943766 
L 96.049347 293.735614 
L 96.049347 294.652455 
L 96.211512 294.605033 
L 96.211512 294.741881 
L 96.373677 294.302881 
L 96.373677 294.571159 
L 96.535842 294.644326 
L 96.535842 294.997965 
L 96.698007 294.9939 
L 96.698007 294.155295 
L 97.022338 295.099585 
L 97.022338 294.515731 
L 97.184503 294.275009 
L 97.184503 294.494379 
L 97.346668 294.855696 
L 97.346668 294.579288 
L 97.508833 293.667517 
L 97.508833 294.873763 
L 97.670998 294.425303 
L 97.670998 294.741881 
L 97.833163 295.067067 
L 97.833163 295.037049 
L 97.995328 294.347594 
L 98.157493 294.882794 
L 98.319659 294.855696 
L 98.319659 294.144353 
L 98.481824 294.189066 
L 98.481824 294.054345 
L 98.643989 294.977641 
L 98.806154 295.122813 
L 98.806154 294.828598 
L 98.968319 294.510186 
L 99.130484 295.062326 
L 99.130484 294.672779 
L 99.292649 294.72359 
L 99.292649 294.557608 
L 99.454814 293.862072 
L 99.454814 295.012481 
L 99.616979 295.33128 
L 99.616979 294.130282 
L 99.779144 294.494379 
L 99.779144 295.200009 
L 99.94131 294.927959 
L 100.103475 294.305381 
L 100.103475 294.896344 
L 100.26564 294.672779 
L 100.26564 294.706654 
L 100.427805 294.220105 
L 100.427805 294.422116 
L 100.58997 294.96409 
L 100.58997 294.693103 
L 100.752135 294.565351 
L 100.752135 294.27923 
L 101.076465 294.550835 
L 101.076465 293.787231 
L 101.23863 293.86388 
L 101.23863 294.913765 
L 101.400796 294.449214 
L 101.400796 293.880139 
L 101.562961 293.767576 
L 101.562961 294.507283 
L 101.887291 293.63625 
L 101.887291 294.72359 
L 102.049456 294.700495 
L 102.049456 294.835372 
L 102.373786 294.652455 
L 102.535951 294.693103 
L 102.535951 293.961436 
L 102.860282 294.783433 
L 103.022447 294.270362 
L 103.184612 294.169194 
L 103.184612 295.099585 
L 103.346777 294.679553 
L 103.346777 294.353138 
L 103.508942 294.193713 
L 103.508942 294.752229 
L 103.671107 294.254103 
L 103.671107 294.463561 
L 103.833272 295.180882 
L 103.995437 294.571159 
L 103.995437 293.60141 
L 104.157602 294.870476 
L 104.157602 294.75814 
L 104.319768 293.83011 
L 104.481933 294.511383 
L 104.481933 293.847621 
L 104.644098 294.762787 
L 104.644098 294.08338 
L 104.806263 294.205325 
L 104.806263 295.008127 
L 104.968428 295.176602 
L 105.130593 294.530511 
L 105.292758 294.754076 
L 105.292758 294.422116 
L 105.454923 294.598256 
L 105.617088 294.01317 
L 105.617088 295.099585 
L 105.779253 294.68407 
L 105.779253 295.108619 
L 106.103584 294.185001 
L 106.103584 294.808629 
L 106.265749 294.330398 
L 106.590079 295.079261 
L 106.752244 295.121756 
L 106.914409 294.839437 
L 106.914409 294.553739 
L 107.076574 294.693103 
L 107.238739 294.440181 
L 107.238739 294.815048 
L 107.400905 294.880085 
L 107.400905 293.690449 
L 107.725235 294.818176 
L 107.725235 294.347594 
L 107.8874 294.871955 
L 107.8874 293.504144 
L 108.049565 294.530511 
L 108.21173 294.725622 
L 108.21173 295.018289 
L 108.373895 294.124029 
L 108.373895 294.563029 
L 108.53606 294.313719 
L 108.698225 294.497992 
L 108.698225 293.380749 
L 109.022556 294.459376 
L 109.022556 293.761889 
L 109.184721 294.411275 
L 109.184721 294.338355 
L 109.346886 294.456606 
L 109.509051 294.42889 
L 109.509051 294.456606 
L 109.671216 293.880139 
L 109.833381 295.012036 
L 109.833381 294.205325 
L 109.995546 293.717547 
L 110.157711 294.882794 
L 110.319876 293.961436 
L 110.319876 293.988534 
L 110.482042 294.765366 
L 110.644207 294.306946 
L 110.644207 294.738268 
L 110.806372 294.739559 
L 110.968537 294.456606 
L 110.968537 294.642293 
L 111.130702 294.792467 
L 111.292867 294.382697 
L 111.292867 294.756332 
L 111.455032 293.86388 
L 111.617197 295.115845 
L 111.617197 294.611807 
L 111.779362 294.333077 
L 111.941528 294.476312 
L 111.941528 295.089423 
L 112.265858 294.487154 
L 112.265858 295.207979 
L 112.590188 294.414374 
L 112.590188 294.347594 
L 112.752353 294.720201 
L 112.914518 294.476312 
L 112.914518 295.068319 
L 113.076683 294.977641 
L 113.238848 294.598256 
L 113.238848 294.716331 
L 113.401014 294.923442 
L 113.563179 294.82521 
L 113.563179 294.991191 
L 113.725344 294.06983 
L 113.887509 295.237789 
L 113.887509 294.205325 
L 114.049674 295.371753 
L 114.211839 295.214356 
L 114.211839 294.089188 
L 114.374004 294.713427 
L 114.536169 294.584709 
L 114.698334 294.965687 
L 114.698334 294.635035 
L 115.022665 294.752229 
L 115.022665 294.286621 
L 115.18483 295.148363 
L 115.346995 295.281533 
L 115.346995 294.877867 
L 115.50916 294.75814 
L 115.671325 294.953252 
L 115.671325 294.124029 
L 115.995655 295.184947 
L 116.15782 295.241854 
L 116.319985 294.913765 
L 116.482151 295.150396 
L 116.482151 293.941112 
L 116.806481 295.209918 
L 116.806481 295.128621 
L 116.968646 295.04046 
L 117.130811 294.669875 
L 117.292976 295.119909 
L 117.292976 294.135641 
L 117.455141 294.833525 
L 117.617306 294.006601 
L 117.617306 294.571159 
L 117.779471 295.037416 
L 118.103802 294.449214 
L 118.103802 294.865858 
L 118.428132 294.711171 
L 118.428132 294.321462 
L 118.590297 294.760849 
L 118.752462 294.693103 
L 118.914627 294.286621 
L 118.914627 293.63625 
L 119.076792 295.004738 
L 119.401123 294.155295 
L 119.401123 293.825941 
L 119.563288 295.027323 
L 119.725453 294.484055 
L 119.887618 294.709363 
L 119.887618 295.041517 
L 120.049783 293.392361 
L 120.374113 294.693103 
L 120.536278 294.86473 
L 120.860608 293.782584 
L 121.022774 294.06596 
L 121.347104 295.331862 
L 121.671434 294.644326 
L 121.671434 294.416696 
L 121.995764 294.982158 
L 122.157929 294.388242 
L 122.157929 294.72359 
L 122.320094 294.869247 
L 122.48226 294.042732 
L 122.968755 295.319086 
L 123.13092 294.909895 
L 123.13092 294.598256 
L 123.293085 294.64137 
L 123.45525 294.367918 
L 123.617415 295.217836 
L 123.617415 294.467974 
L 123.77958 294.595548 
L 123.941746 294.904474 
L 124.103911 293.850577 
L 124.266076 294.7744 
L 124.428241 294.456606 
L 124.590406 295.05442 
L 124.752571 295.114365 
L 125.239066 294.733752 
L 125.239066 294.913765 
L 125.401231 294.342905 
L 125.563397 295.043302 
L 125.725562 294.794724 
L 125.887727 294.896344 
L 125.887727 294.693103 
L 126.049892 294.762787 
L 126.212057 295.42985 
L 126.536387 294.611807 
L 126.698552 293.916271 
L 127.022883 295.349728 
L 127.022883 295.087391 
L 127.185048 293.685028 
L 127.347213 294.652455 
L 127.509378 293.787231 
L 127.509378 293.907237 
L 127.671543 294.72359 
L 127.833708 294.786012 
L 127.995873 295.088747 
L 128.158038 294.416696 
L 128.320203 294.936993 
L 128.482369 294.751172 
L 128.644534 294.969511 
L 128.806699 294.882794 
L 128.968864 294.51696 
L 129.131029 294.909895 
L 129.293194 294.06983 
L 129.293194 294.720201 
L 129.455359 294.916668 
L 129.779689 294.08338 
L 129.941855 294.861504 
L 130.10402 294.151126 
L 130.266185 294.7744 
L 130.42835 294.002084 
L 130.590515 294.384177 
L 130.590515 295.174628 
L 131.07701 294.927959 
L 131.40134 294.623419 
L 131.40134 294.869247 
L 131.563506 294.900861 
L 131.725671 294.518898 
L 132.050001 295.30652 
L 132.050001 295.062631 
L 132.212166 294.430454 
L 132.374331 294.741881 
L 132.536496 294.704716 
L 132.698661 294.855696 
L 132.860826 295.431275 
L 132.860826 293.671091 
L 133.022992 294.839437 
L 133.347322 294.002084 
L 133.509487 294.873763 
L 133.671652 293.520113 
L 133.671652 294.54677 
L 133.833817 294.611807 
L 133.995982 294.205325 
L 134.158147 294.984814 
L 134.482478 294.7744 
L 134.644643 293.825941 
L 134.644643 293.900464 
L 135.131138 294.823178 
L 135.293303 295.197141 
L 135.455468 294.105961 
L 135.617633 294.835372 
L 135.779798 294.737446 
L 135.941963 294.140288 
L 136.104129 294.26445 
L 136.266294 294.794724 
L 136.590624 293.907237 
L 136.752789 294.977641 
L 136.914954 294.225649 
L 137.077119 294.786012 
L 137.239284 294.225649 
L 137.401449 294.751172 
L 137.563615 294.530511 
L 137.887945 294.611807 
L 137.887945 294.178227 
L 138.37444 294.455468 
L 138.536605 295.058937 
L 138.69877 295.113136 
L 139.023101 294.544061 
L 139.185266 294.342905 
L 139.347431 294.507283 
L 139.509596 293.717547 
L 139.833926 295.099585 
L 139.996091 294.367918 
L 140.158256 294.867309 
L 140.482587 294.354367 
L 140.644752 295.043962 
L 140.806917 294.06983 
L 140.969082 294.380424 
L 140.969082 294.623419 
L 141.131247 293.467404 
L 141.293412 294.725622 
L 141.455577 294.762787 
L 141.617742 293.880139 
L 141.779907 295.090552 
L 141.942072 294.485346 
L 142.266403 295.035709 
L 142.428568 294.507283 
L 142.590733 294.997965 
L 142.752898 294.835372 
L 142.915063 293.798843 
L 143.077228 294.588579 
L 143.239393 294.760849 
L 143.401558 294.460827 
L 143.725889 294.460827 
L 143.888054 294.286621 
L 143.888054 294.880085 
L 144.050219 294.729235 
L 144.212384 294.14794 
L 144.374549 294.497992 
L 144.536714 294.416696 
L 144.698879 294.706654 
L 144.861044 294.518898 
L 145.02321 294.600969 
L 145.185375 294.530511 
L 145.34754 294.205325 
L 145.509705 294.747302 
L 145.67187 294.702137 
L 145.67187 294.711171 
L 145.834035 295.160558 
L 146.158365 294.140288 
L 146.32053 294.786012 
L 146.482695 293.926595 
L 146.644861 295.316377 
L 146.969191 293.961436 
L 147.131356 294.192818 
L 147.293521 294.801497 
L 147.617851 293.974986 
L 147.780016 294.733752 
L 147.942181 294.927959 
L 148.104347 294.726978 
L 148.266512 293.819167 
L 148.428677 294.839437 
L 148.428677 294.652455 
L 148.590842 294.977641 
L 148.915172 294.598256 
L 149.077337 294.611807 
L 149.239502 294.754076 
L 149.401667 295.048775 
L 149.563833 294.611807 
L 149.725998 294.900861 
L 149.888163 294.422116 
L 150.050328 294.760849 
L 150.374658 294.936993 
L 150.698988 294.135641 
L 150.861153 294.936993 
L 151.023318 294.579288 
L 151.185484 295.090552 
L 151.347649 294.855696 
L 151.509814 295.13346 
L 151.671979 294.432955 
L 151.834144 294.550835 
L 151.996309 295.058937 
L 152.158474 294.107769 
L 152.320639 294.598256 
L 152.482804 294.542123 
L 152.64497 294.78795 
L 152.9693 293.892646 
L 153.131465 294.530511 
L 153.29363 294.625357 
L 153.455795 294.891828 
L 153.61796 294.7744 
L 153.780125 294.916668 
L 153.94229 294.472442 
L 154.104456 295.132104 
L 154.266621 294.432955 
L 154.428786 294.575676 
L 154.590951 294.26445 
L 154.753116 294.579288 
L 154.915281 293.717547 
L 155.077446 294.835372 
L 155.239611 294.86247 
L 155.401776 294.760849 
L 155.563942 294.912604 
L 155.726107 293.65251 
L 155.888272 294.404049 
L 156.050437 294.611807 
L 156.212602 294.530511 
L 156.374767 294.259524 
L 156.536932 295.22153 
L 156.699097 294.388242 
L 156.861262 295.053129 
L 157.023427 294.105269 
L 157.185593 294.969511 
L 157.347758 294.353138 
L 157.509923 295.143362 
L 157.672088 294.611807 
L 157.996418 294.966555 
L 158.158583 295.343475 
L 158.320748 294.669875 
L 158.482913 294.797628 
L 158.645079 294.08338 
L 158.969409 294.752229 
L 159.293739 294.878924 
L 159.455904 294.806918 
L 159.618069 295.083326 
L 159.780234 294.600195 
L 159.942399 294.869247 
L 160.26673 294.313719 
L 160.428895 295.217013 
L 160.59106 294.182097 
L 160.91539 294.764238 
L 161.077555 294.804886 
L 161.23972 293.961436 
L 161.726216 295.067067 
L 161.888381 294.221584 
L 162.212711 294.82521 
L 162.374876 294.355411 
L 162.699206 294.902152 
L 162.861371 294.404049 
L 163.023536 294.563029 
L 163.185702 295.157654 
L 163.510032 294.449214 
L 163.672197 294.489862 
L 163.834362 294.865858 
L 163.996527 293.60141 
L 164.158692 294.449214 
L 164.320857 294.380424 
L 164.483022 294.06983 
L 164.645188 294.625357 
L 165.131683 294.804886 
L 165.293848 294.629874 
L 165.456013 293.912658 
L 165.618178 295.041517 
L 165.780343 295.252614 
L 166.104674 294.449214 
L 166.266839 294.440181 
L 166.429004 294.286621 
L 166.591169 293.898207 
L 166.753334 294.900038 
L 166.915499 295.140234 
L 167.401994 294.259524 
L 167.564159 294.391146 
L 167.88849 293.362798 
L 168.050655 294.584709 
L 168.21282 294.676844 
L 168.53715 294.248682 
L 168.699315 294.022408 
L 168.86148 294.218875 
L 169.023645 295.087391 
L 169.185811 294.815048 
L 169.510141 294.625357 
L 169.672306 294.663541 
L 169.834471 293.735614 
L 170.158801 294.422116 
L 170.320966 294.904474 
L 170.483131 294.733752 
L 170.645297 294.256135 
L 170.807462 294.722666 
L 171.131792 295.034548 
L 171.293957 294.571159 
L 171.456122 295.041517 
L 171.618287 294.522768 
L 171.780452 294.465473 
L 171.942617 293.740775 
L 172.429113 294.993276 
L 172.591278 295.04046 
L 172.753443 294.492253 
L 172.915608 295.1312 
L 173.239938 294.275009 
L 173.402103 294.591483 
L 173.726434 294.530511 
L 173.888599 294.929601 
L 174.050764 294.9428 
L 174.212929 294.107769 
L 174.375094 294.391146 
L 174.537259 294.308793 
L 174.699424 294.530511 
L 175.023754 294.611807 
L 175.18592 294.797628 
L 175.348085 294.628066 
L 175.51025 294.930219 
L 175.672415 294.078864 
L 175.996745 295.287582 
L 176.321075 294.530511 
L 176.48324 295.297019 
L 176.645406 294.010214 
L 176.807571 294.815048 
L 176.969736 294.739559 
L 177.131901 294.936993 
L 177.294066 294.096931 
L 177.618396 294.06596 
L 177.780561 294.867309 
L 177.942726 295.028451 
L 178.104891 294.644326 
L 178.267057 294.584709 
L 178.429222 294.733752 
L 178.591387 294.492253 
L 178.915717 294.96409 
L 179.077882 293.847621 
L 179.240047 294.936993 
L 179.402212 293.758195 
L 179.564377 294.628066 
L 179.888708 295.194432 
L 180.213038 293.880139 
L 180.375203 294.980769 
L 180.537368 294.367918 
L 180.699533 294.628066 
L 181.023863 294.553739 
L 181.186029 294.889571 
L 181.348194 294.205325 
L 181.510359 294.733752 
L 181.996854 294.042732 
L 182.159019 295.211368 
L 182.321184 294.427043 
L 182.483349 294.80924 
L 182.80768 294.576967 
L 182.969845 294.913765 
L 183.13201 293.764003 
L 183.294175 295.404447 
L 183.942835 294.806918 
L 184.105 295.207979 
L 184.591496 295.058937 
L 184.753661 294.408566 
L 184.915826 294.367918 
L 185.077991 294.706654 
L 185.402321 294.530511 
L 185.564486 294.888215 
L 185.888817 295.005782 
L 186.050982 294.632131 
L 186.375312 294.98577 
L 186.537477 294.693103 
L 186.699642 295.111198 
L 186.861807 294.7744 
L 187.186137 294.707883 
L 187.348303 295.362234 
L 187.510468 293.896399 
L 187.834798 294.867309 
L 188.159128 294.733752 
L 188.321293 295.038613 
L 188.483458 294.015635 
L 188.645623 294.520349 
L 189.294284 295.034548 
L 189.456449 294.124029 
L 189.780779 294.042732 
L 189.942944 294.652455 
L 190.105109 294.473125 
L 190.267275 294.576967 
L 190.42944 294.41226 
L 190.75377 294.823178 
L 190.915935 293.587472 
L 191.0781 294.784562 
L 191.240265 294.460827 
L 191.40243 294.92538 
L 191.726761 294.950543 
L 191.888926 294.693103 
L 192.051091 294.741881 
L 192.537586 295.041517 
L 192.861916 294.78795 
L 193.024081 295.113136 
L 193.348412 294.367918 
L 193.510577 295.307343 
L 193.672742 294.530511 
L 193.997072 295.008127 
L 194.159237 294.936993 
L 194.321402 295.018289 
L 194.483567 295.386832 
L 194.807898 294.936993 
L 194.970063 295.113136 
L 195.132228 294.983449 
L 195.294393 294.408566 
L 195.618723 295.034548 
L 195.780888 294.354367 
L 195.943053 294.693103 
L 196.591714 294.571159 
L 196.753879 294.826134 
L 197.078209 294.621969 
L 197.240374 294.727944 
L 197.402539 295.018289 
L 197.726869 295.006677 
L 197.889035 294.855696 
L 198.0512 293.930169 
L 198.537695 295.010897 
L 198.69986 295.099585 
L 199.02419 295.099585 
L 199.186355 294.902152 
L 199.348521 295.157654 
L 199.510686 294.7744 
L 199.835016 294.747302 
L 199.997181 294.458248 
L 200.159346 294.471385 
L 200.483676 294.242845 
L 200.645841 294.449214 
L 200.808007 295.184947 
L 201.132337 295.099585 
L 201.294502 294.275009 
L 201.456667 294.7744 
L 201.780997 294.635035 
L 202.105327 295.355981 
L 202.916153 294.302881 
L 203.240483 294.460827 
L 203.402648 294.950543 
L 203.726978 294.863826 
L 204.051309 295.130852 
L 204.375639 293.847621 
L 204.699969 294.454635 
L 205.024299 294.565351 
L 205.34863 294.367918 
L 205.510795 294.797628 
L 205.99729 294.7744 
L 206.159455 295.199642 
L 206.32162 294.595548 
L 206.64595 294.298234 
L 207.132446 294.953252 
L 207.456776 295.039969 
L 207.618941 294.953252 
L 207.943271 295.225224 
L 208.105436 294.4797 
L 208.267601 295.333312 
L 208.591932 294.376047 
L 208.754097 295.180882 
L 208.916262 295.33128 
L 209.078427 295.195661 
L 209.402757 293.668769 
L 209.564922 294.924486 
L 210.051418 294.439052 
L 210.213583 293.754501 
L 210.537913 294.460827 
L 210.700078 294.442961 
L 210.862243 294.936993 
L 211.348739 294.611807 
L 211.510904 294.666006 
L 211.835234 294.571159 
L 211.997399 294.819565 
L 212.159564 294.855696 
L 212.483894 294.591483 
L 212.646059 294.693103 
L 212.97039 294.347594 
L 213.132555 294.786012 
L 213.29472 294.882794 
L 213.61905 294.144353 
L 213.781215 294.756332 
L 214.429876 295.219764 
L 214.592041 294.205325 
L 214.916371 295.05442 
L 215.078536 294.232423 
L 215.402866 294.190545 
L 215.727196 294.855696 
L 216.051527 293.65251 
L 216.213692 294.936993 
L 216.375857 294.73646 
L 216.700187 294.741881 
L 216.862352 294.865858 
L 217.024517 294.565351 
L 217.348848 295.024097 
L 217.511013 295.029901 
L 217.673178 294.611807 
L 217.997508 295.319086 
L 218.159673 294.449214 
L 218.484003 294.760849 
L 218.646168 294.335399 
L 218.808333 294.904474 
L 219.294829 295.081518 
L 219.456994 294.819565 
L 219.781324 293.98176 
L 219.943489 294.953252 
L 220.429985 294.611807 
L 220.59215 295.010159 
L 221.078645 294.500024 
L 221.56514 294.760849 
L 221.889471 294.322753 
L 222.051636 294.904474 
L 222.375966 294.739559 
L 222.538131 294.205325 
L 222.700296 294.400436 
L 223.024626 294.598256 
L 223.186791 294.957317 
L 223.511122 294.916668 
L 223.673287 294.699357 
L 223.835452 294.26445 
L 224.321947 295.430579 
L 224.646277 295.070023 
L 224.808442 294.717492 
L 225.132773 294.792467 
L 225.294938 294.185001 
L 225.619268 294.78795 
L 225.781433 294.367918 
L 225.943598 294.922213 
L 226.430094 294.801497 
L 226.754424 294.507283 
L 227.240919 295.210835 
L 227.403084 294.720201 
L 228.051745 294.840916 
L 228.376075 295.348895 
L 228.53824 294.395016 
L 228.86257 294.205325 
L 229.024735 294.7744 
L 229.349065 294.422116 
L 229.835561 295.038613 
L 229.997726 294.611807 
L 230.322056 295.23508 
L 230.484221 294.232423 
L 230.646386 294.417948 
L 230.970717 295.146041 
L 231.132882 295.185961 
L 231.457212 294.422116 
L 231.619377 295.32823 
L 231.943707 294.741881 
L 232.105872 293.880139 
L 232.592368 295.404447 
L 232.916698 294.377482 
L 233.241028 294.625357 
L 233.403193 293.988534 
L 233.727523 294.717492 
L 234.051854 294.414374 
L 234.214019 295.358254 
L 234.700514 294.189066 
L 235.024844 294.823178 
L 235.187009 294.600195 
L 235.51134 294.754076 
L 235.673505 294.241456 
L 235.997835 294.497992 
L 236.16 294.870476 
L 236.970826 293.988534 
L 237.132991 294.729235 
L 237.457321 294.693103 
L 237.619486 294.867309 
L 237.943816 294.32727 
L 238.268146 294.700495 
L 238.430312 294.292875 
L 238.754642 294.232423 
L 238.916807 294.591483 
L 239.241137 294.469538 
L 239.565467 294.973124 
L 239.889797 294.242845 
L 240.051963 294.234888 
L 240.376293 295.414918 
L 240.538458 294.747302 
L 240.862788 294.80924 
L 241.024953 295.025063 
L 241.511449 294.767626 
L 241.835779 295.033069 
L 241.997944 294.460827 
L 242.322274 294.480481 
L 242.484439 294.205325 
L 242.808769 294.367918 
L 242.970935 293.941112 
L 243.45743 294.833525 
L 243.943925 294.801497 
L 244.268255 294.904474 
L 244.592586 294.539544 
L 244.754751 295.482156 
L 244.916916 294.075251 
L 245.241246 294.652455 
L 245.403411 294.042732 
L 247.187227 294.946026 
L 247.673723 294.151126 
L 247.998053 294.500948 
L 248.160218 293.771745 
L 248.484548 295.087391 
L 248.646713 294.7744 
L 248.971044 294.611807 
L 249.295374 294.760849 
L 249.457539 294.124029 
L 249.781869 295.174108 
L 249.944034 294.06983 
L 250.268364 294.286621 
L 250.430529 294.681491 
L 250.75486 294.437602 
L 250.917025 294.628066 
L 251.241355 295.180882 
L 251.40352 294.638905 
L 251.72785 294.7744 
L 252.052181 294.530511 
L 252.214346 294.652455 
L 252.538676 295.115845 
L 252.700841 294.404049 
L 253.025171 294.643074 
L 253.511667 294.205325 
L 253.835997 294.924486 
L 253.998162 294.632131 
L 254.322492 294.75962 
L 254.484657 293.934338 
L 254.808987 295.201206 
L 254.971152 294.642293 
L 255.295483 294.571159 
L 255.457648 294.747302 
L 255.781978 294.666006 
L 256.106308 295.40526 
L 256.268473 294.308793 
L 256.754969 295.072488 
L 257.565794 294.733752 
L 257.890124 294.909895 
L 258.05229 294.458248 
L 258.37662 294.422116 
L 258.538785 294.205325 
L 258.863115 295.374741 
L 259.34961 294.489862 
L 259.673941 294.503413 
L 259.836106 294.882794 
L 260.160436 294.646647 
L 260.646931 294.87602 
L 261.133427 294.286621 
L 261.457757 294.42889 
L 261.619922 294.762787 
L 261.944252 293.988534 
L 262.430747 294.918925 
L 262.755078 294.642293 
L 263.241573 295.070023 
L 263.565903 294.936993 
L 263.728068 293.438817 
L 264.052399 294.888215 
L 264.538894 294.225649 
L 264.863224 294.489862 
L 265.025389 293.819167 
L 265.349719 293.671091 
L 265.67405 294.811354 
L 265.836215 294.700495 
L 266.160545 294.205325 
L 266.64704 294.855696 
L 266.97137 294.557608 
L 267.295701 294.676844 
L 267.457866 294.936993 
L 267.782196 293.615926 
L 267.944361 294.720201 
L 268.593022 294.909895 
L 268.755187 294.34469 
L 269.079517 294.873763 
L 269.241682 294.7744 
L 269.566012 294.335399 
L 269.890342 295.113136 
L 270.052507 294.237844 
L 270.376838 295.176602 
L 270.701168 294.41226 
L 270.863333 294.709363 
L 271.187663 295.058937 
L 271.511993 294.144353 
L 271.674159 295.187655 
L 271.998489 294.205325 
L 272.322819 294.313719 
L 272.484984 293.694319 
L 272.809314 293.752387 
L 273.133645 294.557608 
L 273.29581 294.437602 
L 273.62014 294.720201 
L 273.94447 294.687296 
L 274.106635 295.028451 
L 274.430965 294.06983 
L 274.917461 294.754076 
L 275.241791 294.353138 
L 275.566121 294.874456 
L 275.728286 294.175762 
L 276.052616 294.34082 
L 276.376947 294.228553 
L 276.539112 294.86247 
L 276.863442 294.395016 
L 277.349937 295.190445 
L 277.674268 294.308793 
L 277.998598 294.042732 
L 278.160763 294.49954 
L 278.485093 294.725622 
L 278.809423 294.216163 
L 278.971588 294.595548 
L 279.295919 294.405438 
L 279.620249 294.833525 
L 279.782414 294.335399 
L 280.106744 294.395016 
L 280.431074 294.579288 
L 280.91757 293.880139 
L 281.2419 294.565351 
L 281.56623 294.611807 
L 281.728395 293.934338 
L 282.377056 294.913765 
L 282.701386 293.833683 
L 283.187881 293.778519 
L 283.512211 294.563029 
L 283.836542 294.481733 
L 283.998707 294.896344 
L 284.323037 293.493982 
L 284.647367 294.489862 
L 285.133863 294.7744 
L 285.458193 294.449214 
L 285.782523 294.828598 
L 286.106853 294.164677 
L 286.269018 294.632131 
L 286.593348 294.302881 
L 286.917679 295.00203 
L 287.079844 294.32727 
L 287.404174 293.798843 
L 287.728504 294.263393 
L 287.890669 293.582052 
L 288.215 294.902152 
L 288.53933 294.715275 
L 289.025825 293.955183 
L 289.350155 294.749386 
L 289.674486 294.747302 
L 290.485311 293.900464 
L 291.133971 295.140234 
L 291.296137 294.416696 
L 291.620467 295.093332 
L 291.944797 295.162814 
L 292.269127 294.275009 
L 292.431292 295.180882 
L 292.755623 294.489862 
L 293.079953 294.164677 
L 293.404283 294.863088 
L 293.728613 295.115845 
L 293.890778 294.449214 
L 294.215109 294.571159 
L 294.539439 295.033069 
L 295.350264 294.042732 
L 295.674594 294.611807 
L 296.323255 294.945122 
L 296.48542 294.806918 
L 296.80975 294.888215 
L 297.13408 294.400436 
L 297.458411 294.427043 
L 297.782741 294.693103 
L 298.107071 293.988534 
L 298.431401 294.914821 
L 298.755732 294.855696 
L 299.080062 295.132104 
L 299.404392 294.443793 
L 299.728722 294.306946 
L 300.053052 294.991191 
L 300.377383 294.144353 
L 300.539548 294.335399 
L 300.863878 295.018289 
L 301.188208 294.530511 
L 301.674703 294.31914 
L 301.999034 293.421924 
L 302.323364 294.34985 
L 302.972024 294.693103 
L 303.134189 294.294013 
L 303.45852 295.025063 
L 303.78285 293.649801 
L 304.10718 294.584709 
L 304.593675 294.367918 
L 304.918006 294.794724 
L 305.242336 293.961436 
L 305.566666 294.704716 
L 305.890996 294.458248 
L 306.053161 295.068319 
L 306.701822 294.465473 
L 307.026152 294.882794 
L 307.674812 294.164677 
L 307.836978 294.7744 
L 308.161308 294.432955 
L 308.485638 293.880139 
L 308.809968 294.870476 
L 309.134298 294.218875 
L 309.458629 294.140288 
L 309.782959 294.693103 
L 309.945124 294.32727 
L 310.269454 294.270362 
L 311.242445 294.591483 
L 311.40461 294.926831 
L 311.72894 295.113136 
L 312.05327 294.7744 
L 312.377601 294.987803 
L 312.701931 294.440181 
L 313.026261 295.164622 
L 313.350591 295.148363 
L 313.512756 293.685028 
L 314.161417 294.741881 
L 314.485747 293.619991 
L 314.810077 294.906506 
L 315.134407 293.699479 
L 315.458738 295.151319 
L 315.945233 294.286621 
L 316.593893 294.666006 
L 316.918224 294.480481 
L 317.242554 294.449214 
L 317.566884 295.252423 
L 317.729049 294.514251 
L 318.053379 294.676844 
L 318.37771 294.367918 
L 318.70204 294.828598 
L 319.02637 294.06983 
L 319.3507 294.507283 
L 319.512865 293.807877 
L 320.161526 294.605033 
L 320.485856 294.900861 
L 320.810186 295.028451 
L 321.134516 293.988534 
L 321.458847 294.743914 
L 321.945342 294.449214 
L 322.269672 295.200009 
L 322.594002 294.507283 
L 322.918333 294.367918 
L 323.242663 294.828598 
L 323.891323 294.550835 
L 324.215653 295.22153 
L 324.539984 294.414374 
L 324.864314 294.644326 
L 325.026479 293.924482 
L 325.350809 295.114365 
L 325.675139 294.437602 
L 325.99947 294.225649 
L 326.3238 294.484055 
L 326.64813 294.943766 
L 326.97246 294.437602 
L 327.29679 294.237844 
L 327.621121 294.867309 
L 327.945451 293.209444 
L 328.107616 293.977695 
L 329.080607 295.307343 
L 329.404937 293.856911 
L 329.729267 295.048775 
L 330.053597 295.13346 
L 331.188753 294.251781 
L 331.513083 294.815048 
L 332.161744 293.970469 
L 332.486074 295.053129 
L 332.810404 294.306946 
L 333.459065 294.848923 
L 333.783395 294.286621 
L 334.107725 294.124029 
L 334.26989 294.581321 
L 334.756385 294.794724 
L 334.918551 294.178227 
L 335.242881 294.259524 
L 335.567211 294.022408 
L 335.891541 294.632131 
L 336.215871 294.855696 
L 336.540202 294.702137 
L 337.188862 294.930219 
L 338.161853 294.481733 
L 338.810513 294.611807 
L 339.134843 293.798843 
L 339.459174 293.868527 
L 339.783504 294.896344 
L 340.107834 293.961436 
L 340.432164 294.865858 
L 341.24299 294.385985 
L 342.540311 294.34985 
L 342.864641 294.245973 
L 343.188971 294.385985 
L 343.513301 294.794724 
L 344.161962 294.449214 
L 344.486292 294.672779 
L 344.810622 293.587472 
L 345.134952 294.542123 
L 345.459283 294.702137 
L 345.783613 294.205325 
L 346.107943 294.058992 
L 346.432273 294.7744 
L 347.080934 294.42889 
L 347.405264 295.329924 
L 348.053924 294.437602 
L 348.378254 293.514306 
L 348.702585 294.681491 
L 349.026915 294.950543 
L 349.675575 294.305381 
L 349.999906 294.140288 
L 350.324236 293.807877 
L 350.648566 294.611807 
L 350.972896 294.646647 
L 351.297226 294.151126 
L 351.621557 294.936993 
L 352.594547 294.579288 
L 352.918877 294.042732 
L 353.405373 294.245973 
L 353.729703 295.055243 
L 354.054033 294.476312 
L 354.378363 294.628066 
L 354.702694 294.550835 
L 355.189189 294.693103 
L 355.513519 294.579288 
L 355.837849 293.740775 
L 356.16218 294.896344 
L 356.81084 294.579288 
L 357.13517 293.926595 
L 357.4595 294.130282 
L 357.783831 295.051764 
L 358.108161 294.5549 
L 358.432491 294.953252 
L 358.756821 294.514251 
L 359.081152 293.380749 
L 359.405482 294.747302 
L 359.729812 295.228304 
L 360.054142 293.609153 
L 360.378472 294.633978 
L 360.702803 294.355411 
L 361.027133 294.313719 
L 361.351463 295.062065 
L 361.675793 294.205325 
L 362.000124 294.34469 
L 362.324454 293.771745 
L 362.648784 294.649327 
L 362.973114 294.220105 
L 363.297444 294.286621 
L 364.10827 294.725622 
L 364.4326 293.701287 
L 364.75693 293.977695 
L 365.081261 294.530511 
L 365.729921 295.180882 
L 366.054251 294.489862 
L 367.351572 294.418728 
L 367.675902 294.842146 
L 368.000232 294.700495 
L 368.324563 294.302881 
L 368.648893 294.790659 
L 368.973223 295.068319 
L 369.297553 294.367918 
L 369.784049 293.880139 
L 370.108379 294.34082 
L 370.757039 294.78795 
L 371.4057 293.862072 
L 371.73003 294.27923 
L 372.216525 293.771745 
L 372.540856 293.067176 
L 373.189516 294.672779 
L 373.513846 294.220105 
L 373.838176 295.012481 
L 374.486837 294.367918 
L 374.811167 294.489862 
L 375.135497 294.465473 
L 375.459827 294.172806 
L 375.784158 294.124029 
L 376.270653 293.402523 
L 376.919313 294.747302 
L 377.243644 294.503413 
L 377.892304 294.530511 
L 378.216634 294.666006 
L 378.540964 294.042732 
L 378.865295 294.709363 
L 379.189625 294.863088 
L 380.00045 294.792467 
L 380.324781 295.052164 
L 380.649111 294.019504 
L 381.297771 294.295655 
L 381.784267 293.573021 
L 382.108597 293.880139 
L 382.432927 293.977695 
L 382.757257 294.701233 
L 383.081588 293.856911 
L 383.568083 293.020719 
L 383.892413 294.660585 
L 384.216743 294.896344 
L 384.541073 294.089188 
L 384.865404 294.388242 
L 385.189734 293.961436 
L 385.838394 294.82521 
L 386.32489 294.205325 
L 386.64922 294.347594 
L 386.97355 294.855696 
L 387.29788 293.844008 
L 387.946541 294.58054 
L 388.433036 293.63625 
L 388.757366 294.880709 
L 389.081696 293.250092 
L 389.406027 294.449214 
L 389.730357 294.053571 
L 390.054687 294.909895 
L 390.379017 293.737871 
L 390.865513 294.484055 
L 391.189843 294.693103 
L 391.514173 294.434435 
L 391.838503 294.855696 
L 392.162834 294.458248 
L 392.487164 294.725622 
L 392.973659 293.740775 
L 393.297989 293.615926 
L 393.622319 294.472442 
L 393.94665 294.308793 
L 394.27098 294.367918 
L 394.757475 294.904474 
L 395.406136 294.32727 
L 395.730466 295.413159 
L 396.216961 294.455468 
L 396.541291 295.018289 
L 397.352117 293.744644 
L 397.838612 294.7744 
L 398.162943 295.086035 
L 398.487273 294.738268 
L 398.487273 294.738268 
" clip-path="url(#pc8b8845599)" style="fill: none; stroke: #008000; stroke-opacity: 0.6; stroke-linecap: square"/>
   </g>
   <g id="patch_3">
    <path d="M 57.6 307.584 
L 57.6 41.472 
" style="fill: none; stroke: #000000; stroke-width: 0.8; stroke-linejoin: miter; stroke-linecap: square"/>
   </g>
   <g id="patch_4">
    <path d="M 414.72 307.584 
L 414.72 41.472 
" style="fill: none; stroke: #000000; stroke-width: 0.8; stroke-linejoin: miter; stroke-linecap: square"/>
   </g>
   <g id="patch_5">
    <path d="M 57.6 307.584 
L 414.72 307.584 
" style="fill: none; stroke: #000000; stroke-width: 0.8; stroke-linejoin: miter; stroke-linecap: square"/>
   </g>
   <g id="patch_6">
    <path d="M 57.6 41.472 
L 414.72 41.472 
" style="fill: none; stroke: #000000; stroke-width: 0.8; stroke-linejoin: miter; stroke-linecap: square"/>
   </g>
  </g>
 </g>
 <defs>
  <clipPath id="pc8b8845599">
   <rect x="57.6" y="41.472" width="357.12" height="266.112"/>
  </clipPath>
 </defs>
</svg>
